<svg width="461" height="78" viewBox="0 0 461 78" fill="none" xmlns="http://www.w3.org/2000/svg">
<g clip-path="url(#clip0_1_1458)">
<path d="M45.6001 39.1001C45.6001 27.4001 52.9001 17.1001 66.0001 17.1001C74.8001 17.1001 80.7001 20.9001 84.2001 28.8001L77.1001 31.8001C74.8001 26.7001 71.3001 24.4001 66.0001 24.4001C58.4001 24.4001 53.9001 30.5001 53.9001 39.1001C53.9001 47.7001 58.4001 53.8001 66.0001 53.8001C71.2001 53.8001 74.8001 51.5001 77.1001 46.4001L84.2001 49.4001C80.6001 57.2001 74.7001 61.0001 66.0001 61.0001C52.9001 61.0001 45.6001 50.7001 45.6001 39.1001Z" fill="black"/>
<path d="M92 39.1001C92 27.4001 99.3 17.1001 112.3 17.1001C121.1 17.1001 127 20.9001 130.5 28.8001L123.4 31.8001C121.1 26.7001 117.6 24.4001 112.3 24.4001C104.7 24.4001 100.2 30.5001 100.2 39.1001C100.2 47.7001 104.7 53.8001 112.3 53.8001C117.5 53.8001 121.1 51.5001 123.4 46.4001L130.5 49.4001C127 57.3001 121.1 61.1001 112.3 61.1001C99.4 61.0001 92 50.7001 92 39.1001Z" fill="black"/>
<path d="M137.5 39.1001C137.5 27.8001 144.5 17.1001 157.9 17.1001C171.4 17.1001 178 27.2001 178 37.8001V41.2001H145.8C146.1 48.5001 150.9 53.8001 158 53.8001C163.9 53.8001 168 50.8001 170.6 46.1001L177.2 49.6001C173 57.4001 166.6 61.0001 157.9 61.0001C144.7 61.0001 137.5 50.7001 137.5 39.1001ZM169.6 34.3001C168.4 28.3001 164.5 24.3001 157.9 24.3001C151.4 24.3001 147.4 28.5001 146.2 34.3001H169.6Z" fill="black"/>
<path d="M192.8 44.3001V8.50005H181.3V1.30005H201V43.6001C201 50.7001 204.1 53.4001 209.1 53.4001C213.9 53.4001 217 50.4001 218.1 44.2001L225.4 45.6001C223.9 55.9001 217.8 61.0001 209.1 61.0001C199.3 61.0001 192.8 55.0001 192.8 44.3001Z" fill="black"/>
<path d="M233.3 17.8001H241.5V23.0001C243.4 20.0001 248 17.1001 253.6 17.1001C266.3 17.1001 273.1 26.1001 273.1 39.1001C273.1 52.1001 266.3 61.0001 253.6 61.0001C248.3 61.0001 243.7 58.4001 241.5 55.4001V77.5001H233.3V17.8001ZM264.5 39.1001C264.5 30.2001 259.9 24.4001 252.6 24.4001C245.4 24.4001 240.8 30.2001 240.8 39.1001C240.8 48.0001 245.4 53.8001 252.6 53.8001C259.9 53.8001 264.5 48.0001 264.5 39.1001Z" fill="black"/>
<path d="M282.2 39.1001C282.2 27.3001 290.1 17.1001 303.1 17.1001C316.1 17.1001 324 27.2001 324 39.1001C324 50.9001 316.1 61.0001 303.1 61.0001C290.1 61.0001 282.2 50.9001 282.2 39.1001ZM315.9 39.1001C315.9 31.4001 311.3 24.4001 303.1 24.4001C294.9 24.4001 290.4 31.4001 290.4 39.1001C290.4 46.8001 295 53.8001 303.1 53.8001C311.3 53.8001 315.9 46.8001 315.9 39.1001Z" fill="black"/>
<path d="M331.1 53.2H345.3V25H333V17.8H353.6V53.2H368.5V60.4H331.2V53.2H331.1ZM342.7 6.2C342.7 2.7 345.4 0 348.9 0C352.4 0 355.1 2.7 355.1 6.2C355.1 9.7 352.4 12.3 348.9 12.3C345.4 12.2 342.7 9.6 342.7 6.2Z" fill="black"/>
<path d="M378.7 17.8001H386.9V25.3001C390 20.6001 395.3 17.1001 401.3 17.1001C409.7 17.1001 414.3 22.2001 414.3 30.4001V60.3001H406.1V32.5001C406.1 26.9001 403.2 24.4001 398.8 24.4001C392.4 24.4001 386.9 31.4001 386.9 43.3001V60.4001H378.7V17.8001Z" fill="black"/>
<path d="M453.1 44.0999C452.1 50.2999 449 53.2999 444.1 53.2999C439.1 53.2999 436 50.5999 436 43.4999V25.0999H452V17.7999H436V5.69995H427.8V44.2999C427.8 54.9999 434.3 60.9999 444.1 60.9999C452.8 60.9999 458.9 55.8999 460.4 45.5999L453.1 44.0999Z" fill="black"/>
<path d="M14.3 66H7V77.5H14.3V66Z" fill="black"/>
<path d="M30.8001 66H23.6001V77.5H30.8001V66Z" fill="black"/>
<path d="M0 58.8L15 17.8H23.8L38.7 58.8V60.3H0V58.8ZM11.1 53.1H27.7L19.4 28.7001L11.1 53.1Z" fill="black"/>
</g>
<defs>
<clipPath id="clip0_1_1458">
<rect width="461" height="78" fill="white"/>
</clipPath>
</defs>
</svg>
