<svg width="235" height="78" viewBox="0 0 235 78" fill="none" xmlns="http://www.w3.org/2000/svg">
<rect width="235" height="78" rx="25" fill="#181818"/>
<path d="M52.5897 40.0817C52.5708 36.9669 54.0296 34.6194 56.9755 32.8884C55.3279 30.6049 52.8352 29.3489 49.5494 29.1069C46.4382 28.8694 43.0343 30.8606 41.788 30.8606C40.4708 30.8606 37.4588 29.1891 35.0888 29.1891C30.1979 29.2621 25 32.9615 25 40.4881C25 42.7123 25.4202 45.0096 26.2605 47.3754C27.3841 50.4902 31.4348 58.1218 35.6601 57.9985C37.8695 57.9483 39.4322 56.4822 42.3073 56.4822C45.0974 56.4822 46.5421 57.9985 49.0064 57.9985C53.2695 57.9391 56.933 51.0017 58 47.8778C52.2828 45.2699 52.5897 40.2415 52.5897 40.0817ZM47.6279 26.1519C50.0215 23.4025 49.8043 20.8997 49.7335 20C47.6185 20.1187 45.173 21.393 43.7803 22.9595C42.2459 24.6402 41.3442 26.7182 41.5378 29.0612C43.8227 29.2302 45.9094 28.093 47.6279 26.1519Z" fill="white"/>
<path d="M74.9482 32H72.2764L72.2939 30.6201H74.9482C75.8623 30.6201 76.624 30.4297 77.2334 30.0488C77.8428 29.6621 78.2998 29.123 78.6045 28.4316C78.915 27.7344 79.0703 26.9199 79.0703 25.9883V25.2061C79.0703 24.4736 78.9824 23.8232 78.8066 23.2549C78.6309 22.6807 78.373 22.1973 78.0332 21.8047C77.6934 21.4062 77.2773 21.1045 76.7852 20.8994C76.2988 20.6943 75.7393 20.5918 75.1064 20.5918H72.2236V19.2031H75.1064C75.9443 19.2031 76.709 19.3438 77.4004 19.625C78.0918 19.9004 78.6865 20.3018 79.1846 20.8291C79.6885 21.3506 80.0752 21.9834 80.3447 22.7275C80.6143 23.4658 80.749 24.2979 80.749 25.2236V25.9883C80.749 26.9141 80.6143 27.749 80.3447 28.4932C80.0752 29.2314 79.6855 29.8613 79.1758 30.3828C78.6719 30.9043 78.0625 31.3057 77.3477 31.5869C76.6387 31.8623 75.8389 32 74.9482 32ZM73.1816 19.2031V32H71.4854V19.2031H73.1816ZM82.6211 27.3506V27.1484C82.6211 26.4629 82.7207 25.8271 82.9199 25.2412C83.1191 24.6494 83.4062 24.1367 83.7812 23.7031C84.1562 23.2637 84.6104 22.9238 85.1436 22.6836C85.6768 22.4375 86.2744 22.3145 86.9365 22.3145C87.6045 22.3145 88.2051 22.4375 88.7383 22.6836C89.2773 22.9238 89.7344 23.2637 90.1094 23.7031C90.4902 24.1367 90.7803 24.6494 90.9795 25.2412C91.1787 25.8271 91.2783 26.4629 91.2783 27.1484V27.3506C91.2783 28.0361 91.1787 28.6719 90.9795 29.2578C90.7803 29.8438 90.4902 30.3564 90.1094 30.7959C89.7344 31.2295 89.2803 31.5693 88.7471 31.8154C88.2197 32.0557 87.6221 32.1758 86.9541 32.1758C86.2861 32.1758 85.6855 32.0557 85.1523 31.8154C84.6191 31.5693 84.1621 31.2295 83.7812 30.7959C83.4062 30.3564 83.1191 29.8438 82.9199 29.2578C82.7207 28.6719 82.6211 28.0361 82.6211 27.3506ZM84.2471 27.1484V27.3506C84.2471 27.8252 84.3027 28.2734 84.4141 28.6953C84.5254 29.1113 84.6924 29.4805 84.915 29.8027C85.1436 30.125 85.4277 30.3799 85.7676 30.5674C86.1074 30.749 86.5029 30.8398 86.9541 30.8398C87.3994 30.8398 87.7891 30.749 88.123 30.5674C88.4629 30.3799 88.7441 30.125 88.9668 29.8027C89.1895 29.4805 89.3564 29.1113 89.4678 28.6953C89.585 28.2734 89.6436 27.8252 89.6436 27.3506V27.1484C89.6436 26.6797 89.585 26.2373 89.4678 25.8213C89.3564 25.3994 89.1865 25.0273 88.958 24.7051C88.7354 24.377 88.4541 24.1191 88.1143 23.9316C87.7803 23.7441 87.3877 23.6504 86.9365 23.6504C86.4912 23.6504 86.0986 23.7441 85.7588 23.9316C85.4248 24.1191 85.1436 24.377 84.915 24.7051C84.6924 25.0273 84.5254 25.3994 84.4141 25.8213C84.3027 26.2373 84.2471 26.6797 84.2471 27.1484ZM95.7256 30.3125L98.1689 22.4902H99.2412L99.0303 24.0459L96.543 32H95.4971L95.7256 30.3125ZM94.082 22.4902L96.165 30.4004L96.3145 32H95.2158L92.4561 22.4902H94.082ZM101.579 30.3389L103.565 22.4902H105.183L102.423 32H101.333L101.579 30.3389ZM99.4785 22.4902L101.869 30.1807L102.142 32H101.104L98.5469 24.0283L98.3359 22.4902H99.4785ZM108.479 24.5205V32H106.853V22.4902H108.391L108.479 24.5205ZM108.092 26.8848L107.415 26.8584C107.421 26.208 107.518 25.6074 107.705 25.0566C107.893 24.5 108.156 24.0166 108.496 23.6064C108.836 23.1963 109.24 22.8799 109.709 22.6572C110.184 22.4287 110.708 22.3145 111.282 22.3145C111.751 22.3145 112.173 22.3789 112.548 22.5078C112.923 22.6309 113.242 22.8301 113.506 23.1055C113.775 23.3809 113.98 23.7383 114.121 24.1777C114.262 24.6113 114.332 25.1416 114.332 25.7686V32H112.697V25.751C112.697 25.2529 112.624 24.8545 112.478 24.5557C112.331 24.251 112.117 24.0312 111.836 23.8965C111.555 23.7559 111.209 23.6855 110.799 23.6855C110.395 23.6855 110.025 23.7705 109.691 23.9404C109.363 24.1104 109.079 24.3447 108.839 24.6436C108.604 24.9424 108.42 25.2852 108.285 25.6719C108.156 26.0527 108.092 26.457 108.092 26.8848ZM118.568 18.5V32H116.934V18.5H118.568ZM120.748 27.3506V27.1484C120.748 26.4629 120.848 25.8271 121.047 25.2412C121.246 24.6494 121.533 24.1367 121.908 23.7031C122.283 23.2637 122.737 22.9238 123.271 22.6836C123.804 22.4375 124.401 22.3145 125.063 22.3145C125.731 22.3145 126.332 22.4375 126.865 22.6836C127.404 22.9238 127.861 23.2637 128.236 23.7031C128.617 24.1367 128.907 24.6494 129.106 25.2412C129.306 25.8271 129.405 26.4629 129.405 27.1484V27.3506C129.405 28.0361 129.306 28.6719 129.106 29.2578C128.907 29.8438 128.617 30.3564 128.236 30.7959C127.861 31.2295 127.407 31.5693 126.874 31.8154C126.347 32.0557 125.749 32.1758 125.081 32.1758C124.413 32.1758 123.812 32.0557 123.279 31.8154C122.746 31.5693 122.289 31.2295 121.908 30.7959C121.533 30.3564 121.246 29.8438 121.047 29.2578C120.848 28.6719 120.748 28.0361 120.748 27.3506ZM122.374 27.1484V27.3506C122.374 27.8252 122.43 28.2734 122.541 28.6953C122.652 29.1113 122.819 29.4805 123.042 29.8027C123.271 30.125 123.555 30.3799 123.895 30.5674C124.234 30.749 124.63 30.8398 125.081 30.8398C125.526 30.8398 125.916 30.749 126.25 30.5674C126.59 30.3799 126.871 30.125 127.094 29.8027C127.316 29.4805 127.483 29.1113 127.595 28.6953C127.712 28.2734 127.771 27.8252 127.771 27.3506V27.1484C127.771 26.6797 127.712 26.2373 127.595 25.8213C127.483 25.3994 127.313 25.0273 127.085 24.7051C126.862 24.377 126.581 24.1191 126.241 23.9316C125.907 23.7441 125.515 23.6504 125.063 23.6504C124.618 23.6504 124.226 23.7441 123.886 23.9316C123.552 24.1191 123.271 24.377 123.042 24.7051C122.819 25.0273 122.652 25.3994 122.541 25.8213C122.43 26.2373 122.374 26.6797 122.374 27.1484ZM137.052 30.374V25.4785C137.052 25.1035 136.976 24.7783 136.823 24.5029C136.677 24.2217 136.454 24.0049 136.155 23.8525C135.856 23.7002 135.487 23.624 135.048 23.624C134.638 23.624 134.277 23.6943 133.967 23.835C133.662 23.9756 133.422 24.1602 133.246 24.3887C133.076 24.6172 132.991 24.8633 132.991 25.127H131.365C131.365 24.7871 131.453 24.4502 131.629 24.1162C131.805 23.7822 132.057 23.4805 132.385 23.2109C132.719 22.9355 133.117 22.7188 133.58 22.5605C134.049 22.3965 134.57 22.3145 135.145 22.3145C135.836 22.3145 136.445 22.4316 136.973 22.666C137.506 22.9004 137.922 23.2549 138.221 23.7295C138.525 24.1982 138.678 24.7871 138.678 25.4961V29.9258C138.678 30.2422 138.704 30.5791 138.757 30.9365C138.815 31.2939 138.9 31.6016 139.012 31.8594V32H137.315C137.233 31.8125 137.169 31.5635 137.122 31.2529C137.075 30.9365 137.052 30.6436 137.052 30.374ZM137.333 26.2344L137.351 27.377H135.707C135.244 27.377 134.831 27.415 134.468 27.4912C134.104 27.5615 133.8 27.6699 133.554 27.8164C133.308 27.9629 133.12 28.1475 132.991 28.3701C132.862 28.5869 132.798 28.8418 132.798 29.1348C132.798 29.4336 132.865 29.7061 133 29.9521C133.135 30.1982 133.337 30.3945 133.606 30.541C133.882 30.6816 134.219 30.752 134.617 30.752C135.115 30.752 135.555 30.6465 135.936 30.4355C136.316 30.2246 136.618 29.9668 136.841 29.6621C137.069 29.3574 137.192 29.0615 137.21 28.7744L137.904 29.5566C137.863 29.8027 137.752 30.0752 137.57 30.374C137.389 30.6729 137.146 30.96 136.841 31.2354C136.542 31.5049 136.185 31.7305 135.769 31.9121C135.358 32.0879 134.896 32.1758 134.38 32.1758C133.735 32.1758 133.17 32.0498 132.684 31.7979C132.203 31.5459 131.828 31.209 131.559 30.7871C131.295 30.3594 131.163 29.8818 131.163 29.3545C131.163 28.8447 131.263 28.3965 131.462 28.0098C131.661 27.6172 131.948 27.292 132.323 27.0342C132.698 26.7705 133.149 26.5713 133.677 26.4365C134.204 26.3018 134.793 26.2344 135.443 26.2344H137.333ZM147.229 30.1543V18.5H148.864V32H147.37L147.229 30.1543ZM140.831 27.3506V27.166C140.831 26.4395 140.919 25.7803 141.095 25.1885C141.276 24.5908 141.531 24.0781 141.859 23.6504C142.193 23.2227 142.589 22.8945 143.046 22.666C143.509 22.4316 144.024 22.3145 144.593 22.3145C145.19 22.3145 145.712 22.4199 146.157 22.6309C146.608 22.8359 146.989 23.1377 147.3 23.5361C147.616 23.9287 147.865 24.4033 148.047 24.96C148.229 25.5166 148.354 26.1465 148.425 26.8496V27.6582C148.36 28.3555 148.234 28.9824 148.047 29.5391C147.865 30.0957 147.616 30.5703 147.3 30.9629C146.989 31.3555 146.608 31.6572 146.157 31.8682C145.706 32.0732 145.179 32.1758 144.575 32.1758C144.019 32.1758 143.509 32.0557 143.046 31.8154C142.589 31.5752 142.193 31.2383 141.859 30.8047C141.531 30.3711 141.276 29.8613 141.095 29.2754C140.919 28.6836 140.831 28.042 140.831 27.3506ZM142.466 27.166V27.3506C142.466 27.8252 142.513 28.2705 142.606 28.6865C142.706 29.1025 142.858 29.4688 143.063 29.7852C143.269 30.1016 143.529 30.3506 143.846 30.5322C144.162 30.708 144.54 30.7959 144.979 30.7959C145.519 30.7959 145.961 30.6816 146.307 30.4531C146.658 30.2246 146.939 29.9229 147.15 29.5479C147.361 29.1729 147.525 28.7656 147.643 28.3262V26.208C147.572 25.8857 147.47 25.5752 147.335 25.2764C147.206 24.9717 147.036 24.7021 146.825 24.4678C146.62 24.2275 146.365 24.0371 146.061 23.8965C145.762 23.7559 145.407 23.6855 144.997 23.6855C144.552 23.6855 144.168 23.7793 143.846 23.9668C143.529 24.1484 143.269 24.4004 143.063 24.7227C142.858 25.0391 142.706 25.4082 142.606 25.8301C142.513 26.2461 142.466 26.6914 142.466 27.166ZM155.43 27.3506V27.1484C155.43 26.4629 155.529 25.8271 155.729 25.2412C155.928 24.6494 156.215 24.1367 156.59 23.7031C156.965 23.2637 157.419 22.9238 157.952 22.6836C158.485 22.4375 159.083 22.3145 159.745 22.3145C160.413 22.3145 161.014 22.4375 161.547 22.6836C162.086 22.9238 162.543 23.2637 162.918 23.7031C163.299 24.1367 163.589 24.6494 163.788 25.2412C163.987 25.8271 164.087 26.4629 164.087 27.1484V27.3506C164.087 28.0361 163.987 28.6719 163.788 29.2578C163.589 29.8438 163.299 30.3564 162.918 30.7959C162.543 31.2295 162.089 31.5693 161.556 31.8154C161.028 32.0557 160.431 32.1758 159.763 32.1758C159.095 32.1758 158.494 32.0557 157.961 31.8154C157.428 31.5693 156.971 31.2295 156.59 30.7959C156.215 30.3564 155.928 29.8438 155.729 29.2578C155.529 28.6719 155.43 28.0361 155.43 27.3506ZM157.056 27.1484V27.3506C157.056 27.8252 157.111 28.2734 157.223 28.6953C157.334 29.1113 157.501 29.4805 157.724 29.8027C157.952 30.125 158.236 30.3799 158.576 30.5674C158.916 30.749 159.312 30.8398 159.763 30.8398C160.208 30.8398 160.598 30.749 160.932 30.5674C161.271 30.3799 161.553 30.125 161.775 29.8027C161.998 29.4805 162.165 29.1113 162.276 28.6953C162.394 28.2734 162.452 27.8252 162.452 27.3506V27.1484C162.452 26.6797 162.394 26.2373 162.276 25.8213C162.165 25.3994 161.995 25.0273 161.767 24.7051C161.544 24.377 161.263 24.1191 160.923 23.9316C160.589 23.7441 160.196 23.6504 159.745 23.6504C159.3 23.6504 158.907 23.7441 158.567 23.9316C158.233 24.1191 157.952 24.377 157.724 24.7051C157.501 25.0273 157.334 25.3994 157.223 25.8213C157.111 26.2373 157.056 26.6797 157.056 27.1484ZM167.752 24.5205V32H166.126V22.4902H167.664L167.752 24.5205ZM167.365 26.8848L166.688 26.8584C166.694 26.208 166.791 25.6074 166.979 25.0566C167.166 24.5 167.43 24.0166 167.77 23.6064C168.109 23.1963 168.514 22.8799 168.982 22.6572C169.457 22.4287 169.981 22.3145 170.556 22.3145C171.024 22.3145 171.446 22.3789 171.821 22.5078C172.196 22.6309 172.516 22.8301 172.779 23.1055C173.049 23.3809 173.254 23.7383 173.395 24.1777C173.535 24.6113 173.605 25.1416 173.605 25.7686V32H171.971V25.751C171.971 25.2529 171.897 24.8545 171.751 24.5557C171.604 24.251 171.391 24.0312 171.109 23.8965C170.828 23.7559 170.482 23.6855 170.072 23.6855C169.668 23.6855 169.299 23.7705 168.965 23.9404C168.637 24.1104 168.353 24.3447 168.112 24.6436C167.878 24.9424 167.693 25.2852 167.559 25.6719C167.43 26.0527 167.365 26.457 167.365 26.8848ZM184.521 22.4902V23.7383H179.38V22.4902H184.521ZM181.12 20.1787H182.746V29.6445C182.746 29.9668 182.796 30.21 182.896 30.374C182.995 30.5381 183.124 30.6465 183.282 30.6992C183.44 30.752 183.61 30.7783 183.792 30.7783C183.927 30.7783 184.067 30.7666 184.214 30.7432C184.366 30.7139 184.48 30.6904 184.557 30.6729L184.565 32C184.437 32.041 184.267 32.0791 184.056 32.1143C183.851 32.1553 183.602 32.1758 183.309 32.1758C182.91 32.1758 182.544 32.0967 182.21 31.9385C181.876 31.7803 181.609 31.5166 181.41 31.1475C181.217 30.7725 181.12 30.2686 181.12 29.6357V20.1787ZM188.055 18.5V32H186.429V18.5H188.055ZM187.668 26.8848L186.991 26.8584C186.997 26.208 187.094 25.6074 187.281 25.0566C187.469 24.5 187.732 24.0166 188.072 23.6064C188.412 23.1963 188.816 22.8799 189.285 22.6572C189.76 22.4287 190.284 22.3145 190.858 22.3145C191.327 22.3145 191.749 22.3789 192.124 22.5078C192.499 22.6309 192.818 22.8301 193.082 23.1055C193.352 23.3809 193.557 23.7383 193.697 24.1777C193.838 24.6113 193.908 25.1416 193.908 25.7686V32H192.273V25.751C192.273 25.2529 192.2 24.8545 192.054 24.5557C191.907 24.251 191.693 24.0312 191.412 23.8965C191.131 23.7559 190.785 23.6855 190.375 23.6855C189.971 23.6855 189.602 23.7705 189.268 23.9404C188.939 24.1104 188.655 24.3447 188.415 24.6436C188.181 24.9424 187.996 25.2852 187.861 25.6719C187.732 26.0527 187.668 26.457 187.668 26.8848ZM200.289 32.1758C199.627 32.1758 199.026 32.0645 198.487 31.8418C197.954 31.6133 197.494 31.2939 197.107 30.8838C196.727 30.4736 196.434 29.9873 196.229 29.4248C196.023 28.8623 195.921 28.2471 195.921 27.5791V27.21C195.921 26.4365 196.035 25.748 196.264 25.1445C196.492 24.5352 196.803 24.0195 197.195 23.5977C197.588 23.1758 198.033 22.8564 198.531 22.6396C199.029 22.4229 199.545 22.3145 200.078 22.3145C200.758 22.3145 201.344 22.4316 201.836 22.666C202.334 22.9004 202.741 23.2285 203.058 23.6504C203.374 24.0664 203.608 24.5586 203.761 25.127C203.913 25.6895 203.989 26.3047 203.989 26.9727V27.7021H196.888V26.375H202.363V26.252C202.34 25.8301 202.252 25.4199 202.1 25.0215C201.953 24.623 201.719 24.2949 201.396 24.0371C201.074 23.7793 200.635 23.6504 200.078 23.6504C199.709 23.6504 199.369 23.7295 199.059 23.8877C198.748 24.04 198.481 24.2686 198.259 24.5732C198.036 24.8779 197.863 25.25 197.74 25.6895C197.617 26.1289 197.556 26.6357 197.556 27.21V27.5791C197.556 28.0303 197.617 28.4551 197.74 28.8535C197.869 29.2461 198.054 29.5918 198.294 29.8906C198.54 30.1895 198.836 30.4238 199.182 30.5938C199.533 30.7637 199.932 30.8486 200.377 30.8486C200.951 30.8486 201.438 30.7314 201.836 30.4971C202.234 30.2627 202.583 29.9492 202.882 29.5566L203.866 30.3389C203.661 30.6494 203.4 30.9453 203.084 31.2266C202.768 31.5078 202.378 31.7363 201.915 31.9121C201.458 32.0879 200.916 32.1758 200.289 32.1758Z" fill="white"/>
<path d="M77.0508 46.2129L73.1836 58H70.0684L75.3516 43.7812H77.334L77.0508 46.2129ZM80.2637 58L76.3867 46.2129L76.0742 43.7812H78.0762L83.3887 58H80.2637ZM80.0879 52.707V55.002H72.5781V52.707H80.0879ZM87.0312 49.4648V62.0625H84.2188V47.4336H86.8262L87.0312 49.4648ZM93.7207 52.5996V52.8047C93.7207 53.5729 93.6296 54.2858 93.4473 54.9434C93.2715 55.6009 93.0111 56.1738 92.666 56.6621C92.321 57.1439 91.8913 57.5215 91.377 57.7949C90.8691 58.0618 90.2832 58.1953 89.6191 58.1953C88.9746 58.1953 88.4147 58.0651 87.9395 57.8047C87.4642 57.5443 87.0638 57.1797 86.7383 56.7109C86.4193 56.2357 86.1621 55.6855 85.9668 55.0605C85.7715 54.4355 85.6217 53.765 85.5176 53.0488V52.5117C85.6217 51.7435 85.7715 51.0404 85.9668 50.4023C86.1621 49.7578 86.4193 49.2012 86.7383 48.7324C87.0638 48.2572 87.4609 47.8893 87.9297 47.6289C88.4049 47.3685 88.9616 47.2383 89.5996 47.2383C90.2702 47.2383 90.8594 47.3652 91.3672 47.6191C91.8815 47.873 92.3112 48.2376 92.6562 48.7129C93.0078 49.1882 93.2715 49.7546 93.4473 50.4121C93.6296 51.0697 93.7207 51.7988 93.7207 52.5996ZM90.8984 52.8047V52.5996C90.8984 52.1504 90.8594 51.737 90.7812 51.3594C90.7096 50.9753 90.5924 50.64 90.4297 50.3535C90.2734 50.0671 90.0651 49.8457 89.8047 49.6895C89.5508 49.5267 89.2415 49.4453 88.877 49.4453C88.4928 49.4453 88.1641 49.5072 87.8906 49.6309C87.6237 49.7546 87.4056 49.9336 87.2363 50.168C87.0671 50.4023 86.9401 50.6823 86.8555 51.0078C86.7708 51.3333 86.7188 51.7012 86.6992 52.1113V53.4688C86.7318 53.9505 86.8229 54.3835 86.9727 54.7676C87.1224 55.1452 87.3535 55.4447 87.666 55.666C87.9785 55.8874 88.3887 55.998 88.8965 55.998C89.2676 55.998 89.5801 55.9167 89.834 55.7539C90.0879 55.5846 90.293 55.3535 90.4492 55.0605C90.612 54.7676 90.7259 54.429 90.791 54.0449C90.8626 53.6608 90.8984 53.2474 90.8984 52.8047ZM98.2812 49.4648V62.0625H95.4688V47.4336H98.0762L98.2812 49.4648ZM104.971 52.5996V52.8047C104.971 53.5729 104.88 54.2858 104.697 54.9434C104.521 55.6009 104.261 56.1738 103.916 56.6621C103.571 57.1439 103.141 57.5215 102.627 57.7949C102.119 58.0618 101.533 58.1953 100.869 58.1953C100.225 58.1953 99.6647 58.0651 99.1895 57.8047C98.7142 57.5443 98.3138 57.1797 97.9883 56.7109C97.6693 56.2357 97.4121 55.6855 97.2168 55.0605C97.0215 54.4355 96.8717 53.765 96.7676 53.0488V52.5117C96.8717 51.7435 97.0215 51.0404 97.2168 50.4023C97.4121 49.7578 97.6693 49.2012 97.9883 48.7324C98.3138 48.2572 98.7109 47.8893 99.1797 47.6289C99.6549 47.3685 100.212 47.2383 100.85 47.2383C101.52 47.2383 102.109 47.3652 102.617 47.6191C103.132 47.873 103.561 48.2376 103.906 48.7129C104.258 49.1882 104.521 49.7546 104.697 50.4121C104.88 51.0697 104.971 51.7988 104.971 52.5996ZM102.148 52.8047V52.5996C102.148 52.1504 102.109 51.737 102.031 51.3594C101.96 50.9753 101.842 50.64 101.68 50.3535C101.523 50.0671 101.315 49.8457 101.055 49.6895C100.801 49.5267 100.492 49.4453 100.127 49.4453C99.7428 49.4453 99.4141 49.5072 99.1406 49.6309C98.8737 49.7546 98.6556 49.9336 98.4863 50.168C98.3171 50.4023 98.1901 50.6823 98.1055 51.0078C98.0208 51.3333 97.9688 51.7012 97.9492 52.1113V53.4688C97.9818 53.9505 98.0729 54.3835 98.2227 54.7676C98.3724 55.1452 98.6035 55.4447 98.916 55.666C99.2285 55.8874 99.6387 55.998 100.146 55.998C100.518 55.998 100.83 55.9167 101.084 55.7539C101.338 55.5846 101.543 55.3535 101.699 55.0605C101.862 54.7676 101.976 54.429 102.041 54.0449C102.113 53.6608 102.148 53.2474 102.148 52.8047ZM119.277 54.2793C119.277 54.0254 119.238 53.7975 119.16 53.5957C119.089 53.3874 118.952 53.1986 118.75 53.0293C118.548 52.8535 118.265 52.681 117.9 52.5117C117.536 52.3424 117.064 52.1667 116.484 51.9844C115.84 51.776 115.228 51.5417 114.648 51.2812C114.076 51.0208 113.568 50.7181 113.125 50.373C112.689 50.0215 112.344 49.6146 112.09 49.1523C111.842 48.6901 111.719 48.153 111.719 47.541C111.719 46.9486 111.849 46.4115 112.109 45.9297C112.37 45.4414 112.734 45.0247 113.203 44.6797C113.672 44.3281 114.225 44.0579 114.863 43.8691C115.508 43.6803 116.214 43.5859 116.982 43.5859C118.031 43.5859 118.945 43.7747 119.727 44.1523C120.508 44.5299 121.113 45.0475 121.543 45.7051C121.979 46.3626 122.197 47.1146 122.197 47.9609H119.287C119.287 47.5443 119.199 47.1797 119.023 46.8672C118.854 46.5482 118.594 46.2975 118.242 46.1152C117.897 45.9329 117.461 45.8418 116.934 45.8418C116.426 45.8418 116.003 45.9199 115.664 46.0762C115.326 46.2259 115.072 46.431 114.902 46.6914C114.733 46.9453 114.648 47.2318 114.648 47.5508C114.648 47.7917 114.707 48.0098 114.824 48.2051C114.948 48.4004 115.13 48.5827 115.371 48.752C115.612 48.9212 115.908 49.0807 116.26 49.2305C116.611 49.3802 117.018 49.5267 117.48 49.6699C118.255 49.9043 118.936 50.168 119.521 50.4609C120.114 50.7539 120.609 51.0827 121.006 51.4473C121.403 51.8118 121.702 52.2253 121.904 52.6875C122.106 53.1497 122.207 53.6738 122.207 54.2598C122.207 54.8783 122.087 55.4316 121.846 55.9199C121.605 56.4082 121.257 56.8216 120.801 57.1602C120.345 57.4987 119.801 57.7559 119.17 57.9316C118.538 58.1074 117.832 58.1953 117.051 58.1953C116.348 58.1953 115.654 58.1042 114.971 57.9219C114.287 57.7331 113.665 57.4499 113.105 57.0723C112.552 56.6947 112.109 56.2129 111.777 55.627C111.445 55.041 111.279 54.3477 111.279 53.5469H114.219C114.219 53.9896 114.287 54.3639 114.424 54.6699C114.561 54.9759 114.753 55.2233 115 55.4121C115.254 55.6009 115.553 55.7376 115.898 55.8223C116.25 55.9069 116.634 55.9492 117.051 55.9492C117.559 55.9492 117.975 55.8776 118.301 55.7344C118.633 55.5911 118.877 55.3926 119.033 55.1387C119.196 54.8848 119.277 54.5983 119.277 54.2793ZM129.199 47.4336V49.4258H123.047V47.4336H129.199ZM124.57 44.8262H127.383V54.8164C127.383 55.1224 127.422 55.3568 127.5 55.5195C127.585 55.6823 127.708 55.7962 127.871 55.8613C128.034 55.9199 128.239 55.9492 128.486 55.9492C128.662 55.9492 128.818 55.9427 128.955 55.9297C129.098 55.9102 129.219 55.8906 129.316 55.8711L129.326 57.9414C129.085 58.0195 128.825 58.0814 128.545 58.127C128.265 58.1725 127.956 58.1953 127.617 58.1953C126.999 58.1953 126.458 58.0944 125.996 57.8926C125.54 57.6842 125.189 57.3522 124.941 56.8965C124.694 56.4408 124.57 55.8418 124.57 55.0996V44.8262ZM130.098 52.8242V52.6191C130.098 51.8444 130.208 51.1315 130.43 50.4805C130.651 49.8229 130.973 49.2533 131.396 48.7715C131.82 48.2897 132.34 47.9154 132.959 47.6484C133.577 47.375 134.287 47.2383 135.088 47.2383C135.889 47.2383 136.602 47.375 137.227 47.6484C137.852 47.9154 138.376 48.2897 138.799 48.7715C139.229 49.2533 139.554 49.8229 139.775 50.4805C139.997 51.1315 140.107 51.8444 140.107 52.6191V52.8242C140.107 53.5924 139.997 54.3053 139.775 54.9629C139.554 55.6139 139.229 56.1836 138.799 56.6719C138.376 57.1536 137.855 57.528 137.236 57.7949C136.618 58.0618 135.908 58.1953 135.107 58.1953C134.307 58.1953 133.594 58.0618 132.969 57.7949C132.35 57.528 131.826 57.1536 131.396 56.6719C130.973 56.1836 130.651 55.6139 130.43 54.9629C130.208 54.3053 130.098 53.5924 130.098 52.8242ZM132.91 52.6191V52.8242C132.91 53.2669 132.949 53.6803 133.027 54.0645C133.105 54.4486 133.229 54.7871 133.398 55.0801C133.574 55.3665 133.802 55.5911 134.082 55.7539C134.362 55.9167 134.704 55.998 135.107 55.998C135.498 55.998 135.833 55.9167 136.113 55.7539C136.393 55.5911 136.618 55.3665 136.787 55.0801C136.956 54.7871 137.08 54.4486 137.158 54.0645C137.243 53.6803 137.285 53.2669 137.285 52.8242V52.6191C137.285 52.1895 137.243 51.7858 137.158 51.4082C137.08 51.0241 136.953 50.6855 136.777 50.3926C136.608 50.0931 136.383 49.8587 136.104 49.6895C135.824 49.5202 135.485 49.4355 135.088 49.4355C134.691 49.4355 134.352 49.5202 134.072 49.6895C133.799 49.8587 133.574 50.0931 133.398 50.3926C133.229 50.6855 133.105 51.0241 133.027 51.4082C132.949 51.7858 132.91 52.1895 132.91 52.6191ZM144.648 49.7383V58H141.836V47.4336H144.482L144.648 49.7383ZM147.832 47.3652L147.783 49.9727C147.646 49.9531 147.48 49.9368 147.285 49.9238C147.096 49.9043 146.924 49.8945 146.768 49.8945C146.37 49.8945 146.025 49.9466 145.732 50.0508C145.446 50.1484 145.205 50.2949 145.01 50.4902C144.821 50.6855 144.678 50.9232 144.58 51.2031C144.489 51.4831 144.437 51.8021 144.424 52.1602L143.857 51.9844C143.857 51.3008 143.926 50.6725 144.062 50.0996C144.199 49.5202 144.398 49.0156 144.658 48.5859C144.925 48.1562 145.251 47.8242 145.635 47.5898C146.019 47.3555 146.458 47.2383 146.953 47.2383C147.109 47.2383 147.269 47.2513 147.432 47.2773C147.594 47.2969 147.728 47.3262 147.832 47.3652ZM153.828 58.1953C153.008 58.1953 152.272 58.0651 151.621 57.8047C150.97 57.5378 150.417 57.1699 149.961 56.7012C149.512 56.2324 149.167 55.6888 148.926 55.0703C148.685 54.4453 148.564 53.7812 148.564 53.0781V52.6875C148.564 51.8867 148.678 51.1543 148.906 50.4902C149.134 49.8262 149.46 49.25 149.883 48.7617C150.312 48.2734 150.833 47.8991 151.445 47.6387C152.057 47.3717 152.747 47.2383 153.516 47.2383C154.264 47.2383 154.928 47.362 155.508 47.6094C156.087 47.8568 156.572 48.2083 156.963 48.6641C157.36 49.1198 157.66 49.6667 157.861 50.3047C158.063 50.9362 158.164 51.6393 158.164 52.4141V53.5859H149.766V51.7109H155.4V51.4961C155.4 51.1055 155.329 50.7572 155.186 50.4512C155.049 50.1387 154.84 49.8913 154.561 49.709C154.281 49.5267 153.923 49.4355 153.486 49.4355C153.115 49.4355 152.796 49.5169 152.529 49.6797C152.262 49.8424 152.044 50.0703 151.875 50.3633C151.712 50.6562 151.589 51.0013 151.504 51.3984C151.426 51.7891 151.387 52.2188 151.387 52.6875V53.0781C151.387 53.5013 151.445 53.8919 151.562 54.25C151.686 54.6081 151.859 54.9173 152.08 55.1777C152.308 55.4382 152.581 55.64 152.9 55.7832C153.226 55.9264 153.594 55.998 154.004 55.998C154.512 55.998 154.984 55.9004 155.42 55.7051C155.863 55.5033 156.243 55.2005 156.562 54.7969L157.93 56.2812C157.708 56.6003 157.406 56.9062 157.021 57.1992C156.644 57.4922 156.188 57.7331 155.654 57.9219C155.12 58.1042 154.512 58.1953 153.828 58.1953Z" fill="white"/>
</svg>
