<svg width="300" height="56" viewBox="0 0 300 56" fill="none" xmlns="http://www.w3.org/2000/svg">
<rect x="0.5" y="0.5" width="299" height="55" rx="24.5" stroke="#181818"/>
<path d="M87.4974 27.174L93.441 20.9266L74.2436 9.58531C72.9713 8.86274 71.7793 8.76133 70.7341 9.5515L87.4974 27.174ZM94.454 34.4883L100.633 30.8354C101.839 30.1255 102.5 29.1198 102.5 28.0043C102.5 26.8908 101.839 25.8831 100.635 25.1732L95.0409 21.8709L88.7436 28.4881L94.454 34.4883ZM69.701 11.0875C69.5724 11.5037 69.5 11.9685 69.5 12.4777V43.5457C69.5 44.3506 69.6688 45.0436 69.9744 45.595L86.2492 28.486L69.701 11.0875ZM87.4974 29.7959L71.313 46.8099C71.6225 46.9345 71.9562 47 72.308 47C72.9351 47 73.5883 46.8056 74.2536 46.4169L92.8561 35.4369L87.4974 29.7959Z" fill="black"/>
<rect width="116" height="45" transform="translate(114.5 5.5)" fill="white"/>
<path d="M118.624 19.5H116.397L116.412 18.3501H118.624C119.385 18.3501 120.02 18.1914 120.528 17.874C121.036 17.5518 121.417 17.1025 121.67 16.5264C121.929 15.9453 122.059 15.2666 122.059 14.4902V13.8384C122.059 13.228 121.985 12.686 121.839 12.2124C121.692 11.7339 121.478 11.3311 121.194 11.0039C120.911 10.6719 120.564 10.4204 120.154 10.2495C119.749 10.0786 119.283 9.99316 118.755 9.99316H116.353V8.83594H118.755C119.454 8.83594 120.091 8.95312 120.667 9.1875C121.243 9.41699 121.739 9.75146 122.154 10.1909C122.574 10.6255 122.896 11.1528 123.121 11.7729C123.345 12.3882 123.458 13.0815 123.458 13.853V14.4902C123.458 15.2617 123.345 15.9575 123.121 16.5776C122.896 17.1929 122.571 17.7178 122.146 18.1523C121.727 18.5869 121.219 18.9214 120.623 19.1558C120.032 19.3853 119.366 19.5 118.624 19.5ZM117.151 8.83594V19.5H115.738V8.83594H117.151ZM125.018 15.6255V15.457C125.018 14.8857 125.101 14.356 125.267 13.8677C125.433 13.3745 125.672 12.9473 125.984 12.5859C126.297 12.2197 126.675 11.9365 127.12 11.7363C127.564 11.5312 128.062 11.4287 128.614 11.4287C129.17 11.4287 129.671 11.5312 130.115 11.7363C130.564 11.9365 130.945 12.2197 131.258 12.5859C131.575 12.9473 131.817 13.3745 131.983 13.8677C132.149 14.356 132.232 14.8857 132.232 15.457V15.6255C132.232 16.1968 132.149 16.7266 131.983 17.2148C131.817 17.7031 131.575 18.1304 131.258 18.4966C130.945 18.8579 130.567 19.1411 130.123 19.3462C129.683 19.5464 129.185 19.6465 128.628 19.6465C128.072 19.6465 127.571 19.5464 127.127 19.3462C126.683 19.1411 126.302 18.8579 125.984 18.4966C125.672 18.1304 125.433 17.7031 125.267 17.2148C125.101 16.7266 125.018 16.1968 125.018 15.6255ZM126.373 15.457V15.6255C126.373 16.021 126.419 16.3945 126.512 16.7461C126.604 17.0928 126.744 17.4004 126.929 17.6689C127.12 17.9375 127.356 18.1499 127.64 18.3062C127.923 18.4575 128.252 18.5332 128.628 18.5332C129 18.5332 129.324 18.4575 129.603 18.3062C129.886 18.1499 130.12 17.9375 130.306 17.6689C130.491 17.4004 130.63 17.0928 130.723 16.7461C130.821 16.3945 130.87 16.021 130.87 15.6255V15.457C130.87 15.0664 130.821 14.6978 130.723 14.3511C130.63 13.9995 130.489 13.6895 130.298 13.4209C130.113 13.1475 129.878 12.9326 129.595 12.7764C129.317 12.6201 128.99 12.542 128.614 12.542C128.243 12.542 127.916 12.6201 127.632 12.7764C127.354 12.9326 127.12 13.1475 126.929 13.4209C126.744 13.6895 126.604 13.9995 126.512 14.3511C126.419 14.6978 126.373 15.0664 126.373 15.457ZM135.938 18.0938L137.974 11.5752H138.868L138.692 12.8716L136.619 19.5H135.748L135.938 18.0938ZM134.568 11.5752L136.304 18.167L136.429 19.5H135.513L133.213 11.5752H134.568ZM140.816 18.1157L142.471 11.5752H143.819L141.519 19.5H140.611L140.816 18.1157ZM139.065 11.5752L141.058 17.9839L141.285 19.5H140.42L138.289 12.8569L138.113 11.5752H139.065ZM146.565 13.2671V19.5H145.21V11.5752H146.492L146.565 13.2671ZM146.243 15.2373L145.679 15.2153C145.684 14.6733 145.765 14.1729 145.921 13.7139C146.077 13.25 146.297 12.8472 146.58 12.5054C146.863 12.1636 147.2 11.8999 147.591 11.7144C147.986 11.5239 148.423 11.4287 148.902 11.4287C149.292 11.4287 149.644 11.4824 149.957 11.5898C150.269 11.6924 150.535 11.8584 150.755 12.0879C150.979 12.3174 151.15 12.6152 151.268 12.9814C151.385 13.3428 151.443 13.7847 151.443 14.3071V19.5H150.081V14.2925C150.081 13.8774 150.02 13.5454 149.898 13.2964C149.776 13.0425 149.598 12.8594 149.363 12.7471C149.129 12.6299 148.841 12.5713 148.499 12.5713C148.162 12.5713 147.854 12.6421 147.576 12.7837C147.303 12.9253 147.066 13.1206 146.866 13.3696C146.67 13.6187 146.517 13.9043 146.404 14.2266C146.297 14.5439 146.243 14.8809 146.243 15.2373ZM154.974 8.25V19.5H153.611V8.25H154.974ZM156.79 15.6255V15.457C156.79 14.8857 156.873 14.356 157.039 13.8677C157.205 13.3745 157.444 12.9473 157.757 12.5859C158.069 12.2197 158.448 11.9365 158.892 11.7363C159.336 11.5312 159.834 11.4287 160.386 11.4287C160.943 11.4287 161.443 11.5312 161.888 11.7363C162.337 11.9365 162.718 12.2197 163.03 12.5859C163.348 12.9473 163.589 13.3745 163.755 13.8677C163.921 14.356 164.004 14.8857 164.004 15.457V15.6255C164.004 16.1968 163.921 16.7266 163.755 17.2148C163.589 17.7031 163.348 18.1304 163.03 18.4966C162.718 18.8579 162.339 19.1411 161.895 19.3462C161.456 19.5464 160.958 19.6465 160.401 19.6465C159.844 19.6465 159.344 19.5464 158.899 19.3462C158.455 19.1411 158.074 18.8579 157.757 18.4966C157.444 18.1304 157.205 17.7031 157.039 17.2148C156.873 16.7266 156.79 16.1968 156.79 15.6255ZM158.145 15.457V15.6255C158.145 16.021 158.191 16.3945 158.284 16.7461C158.377 17.0928 158.516 17.4004 158.702 17.6689C158.892 17.9375 159.129 18.1499 159.412 18.3062C159.695 18.4575 160.025 18.5332 160.401 18.5332C160.772 18.5332 161.097 18.4575 161.375 18.3062C161.658 18.1499 161.893 17.9375 162.078 17.6689C162.264 17.4004 162.403 17.0928 162.496 16.7461C162.593 16.3945 162.642 16.021 162.642 15.6255V15.457C162.642 15.0664 162.593 14.6978 162.496 14.3511C162.403 13.9995 162.261 13.6895 162.071 13.4209C161.885 13.1475 161.651 12.9326 161.368 12.7764C161.089 12.6201 160.762 12.542 160.386 12.542C160.015 12.542 159.688 12.6201 159.405 12.7764C159.126 12.9326 158.892 13.1475 158.702 13.4209C158.516 13.6895 158.377 13.9995 158.284 14.3511C158.191 14.6978 158.145 15.0664 158.145 15.457ZM170.376 18.145V14.0654C170.376 13.7529 170.313 13.4819 170.186 13.2524C170.064 13.0181 169.878 12.8374 169.629 12.7104C169.38 12.5835 169.073 12.52 168.707 12.52C168.365 12.52 168.064 12.5786 167.806 12.6958C167.552 12.813 167.352 12.9668 167.205 13.1572C167.063 13.3477 166.993 13.5527 166.993 13.7725H165.638C165.638 13.4893 165.711 13.2085 165.857 12.9302C166.004 12.6519 166.214 12.4004 166.487 12.1758C166.766 11.9463 167.098 11.7656 167.483 11.6338C167.874 11.4971 168.309 11.4287 168.787 11.4287C169.363 11.4287 169.871 11.5264 170.311 11.7217C170.755 11.917 171.102 12.2124 171.351 12.6079C171.604 12.9985 171.731 13.4893 171.731 14.0801V17.7715C171.731 18.0352 171.753 18.3159 171.797 18.6138C171.846 18.9116 171.917 19.168 172.01 19.3828V19.5H170.596C170.528 19.3438 170.474 19.1362 170.435 18.8774C170.396 18.6138 170.376 18.3696 170.376 18.145ZM170.611 14.6953L170.625 15.6475H169.256C168.87 15.6475 168.526 15.6792 168.223 15.7427C167.92 15.8013 167.667 15.8916 167.461 16.0137C167.256 16.1357 167.1 16.2896 166.993 16.4751C166.885 16.6558 166.832 16.8682 166.832 17.1123C166.832 17.3613 166.888 17.5884 167 17.7935C167.112 17.9985 167.281 18.1621 167.505 18.2842C167.735 18.4014 168.016 18.46 168.348 18.46C168.763 18.46 169.129 18.3721 169.446 18.1963C169.764 18.0205 170.015 17.8057 170.201 17.5518C170.391 17.2979 170.494 17.0513 170.508 16.812L171.087 17.4639C171.053 17.6689 170.96 17.896 170.809 18.145C170.657 18.394 170.455 18.6333 170.201 18.8628C169.952 19.0874 169.654 19.2754 169.307 19.4268C168.965 19.5732 168.58 19.6465 168.15 19.6465C167.613 19.6465 167.142 19.5415 166.736 19.3315C166.336 19.1216 166.023 18.8408 165.799 18.4893C165.579 18.1328 165.469 17.7349 165.469 17.2954C165.469 16.8706 165.552 16.4971 165.718 16.1748C165.884 15.8477 166.124 15.5767 166.436 15.3618C166.749 15.1421 167.125 14.9761 167.564 14.8638C168.003 14.7515 168.494 14.6953 169.036 14.6953H170.611ZM178.858 17.9619V8.25H180.22V19.5H178.975L178.858 17.9619ZM173.526 15.6255V15.4717C173.526 14.8662 173.599 14.3169 173.746 13.8237C173.897 13.3257 174.109 12.8984 174.383 12.542C174.661 12.1855 174.991 11.9121 175.372 11.7217C175.757 11.5264 176.187 11.4287 176.661 11.4287C177.159 11.4287 177.593 11.5166 177.964 11.6924C178.34 11.8633 178.658 12.1147 178.917 12.4468C179.18 12.7739 179.388 13.1694 179.539 13.6333C179.69 14.0972 179.795 14.6221 179.854 15.208V15.8818C179.8 16.4629 179.695 16.9854 179.539 17.4492C179.388 17.9131 179.18 18.3086 178.917 18.6357C178.658 18.9629 178.34 19.2144 177.964 19.3901C177.588 19.561 177.149 19.6465 176.646 19.6465C176.182 19.6465 175.757 19.5464 175.372 19.3462C174.991 19.146 174.661 18.8652 174.383 18.5039C174.109 18.1426 173.897 17.7178 173.746 17.2295C173.599 16.7363 173.526 16.2017 173.526 15.6255ZM174.888 15.4717V15.6255C174.888 16.021 174.927 16.3921 175.005 16.7388C175.088 17.0854 175.215 17.3906 175.386 17.6543C175.557 17.918 175.774 18.1255 176.038 18.2769C176.302 18.4233 176.617 18.4966 176.983 18.4966C177.432 18.4966 177.801 18.4014 178.089 18.2109C178.382 18.0205 178.616 17.769 178.792 17.4565C178.968 17.144 179.104 16.8047 179.202 16.4385V14.6733C179.144 14.4048 179.058 14.146 178.946 13.897C178.838 13.6431 178.697 13.4185 178.521 13.2231C178.35 13.0229 178.138 12.8643 177.884 12.7471C177.635 12.6299 177.339 12.5713 176.998 12.5713C176.626 12.5713 176.307 12.6494 176.038 12.8057C175.774 12.957 175.557 13.167 175.386 13.4355C175.215 13.6992 175.088 14.0068 175.005 14.3584C174.927 14.7051 174.888 15.0762 174.888 15.4717ZM185.691 15.6255V15.457C185.691 14.8857 185.774 14.356 185.94 13.8677C186.106 13.3745 186.346 12.9473 186.658 12.5859C186.971 12.2197 187.349 11.9365 187.793 11.7363C188.238 11.5312 188.736 11.4287 189.288 11.4287C189.844 11.4287 190.345 11.5312 190.789 11.7363C191.238 11.9365 191.619 12.2197 191.932 12.5859C192.249 12.9473 192.491 13.3745 192.657 13.8677C192.823 14.356 192.906 14.8857 192.906 15.457V15.6255C192.906 16.1968 192.823 16.7266 192.657 17.2148C192.491 17.7031 192.249 18.1304 191.932 18.4966C191.619 18.8579 191.241 19.1411 190.796 19.3462C190.357 19.5464 189.859 19.6465 189.302 19.6465C188.746 19.6465 188.245 19.5464 187.801 19.3462C187.356 19.1411 186.976 18.8579 186.658 18.4966C186.346 18.1304 186.106 17.7031 185.94 17.2148C185.774 16.7266 185.691 16.1968 185.691 15.6255ZM187.046 15.457V15.6255C187.046 16.021 187.093 16.3945 187.186 16.7461C187.278 17.0928 187.417 17.4004 187.603 17.6689C187.793 17.9375 188.03 18.1499 188.313 18.3062C188.597 18.4575 188.926 18.5332 189.302 18.5332C189.673 18.5332 189.998 18.4575 190.276 18.3062C190.56 18.1499 190.794 17.9375 190.979 17.6689C191.165 17.4004 191.304 17.0928 191.397 16.7461C191.495 16.3945 191.543 16.021 191.543 15.6255V15.457C191.543 15.0664 191.495 14.6978 191.397 14.3511C191.304 13.9995 191.163 13.6895 190.972 13.4209C190.787 13.1475 190.552 12.9326 190.269 12.7764C189.991 12.6201 189.664 12.542 189.288 12.542C188.917 12.542 188.589 12.6201 188.306 12.7764C188.028 12.9326 187.793 13.1475 187.603 13.4209C187.417 13.6895 187.278 13.9995 187.186 14.3511C187.093 14.6978 187.046 15.0664 187.046 15.457ZM195.96 13.2671V19.5H194.605V11.5752H195.887L195.96 13.2671ZM195.638 15.2373L195.074 15.2153C195.079 14.6733 195.159 14.1729 195.315 13.7139C195.472 13.25 195.691 12.8472 195.975 12.5054C196.258 12.1636 196.595 11.8999 196.985 11.7144C197.381 11.5239 197.818 11.4287 198.296 11.4287C198.687 11.4287 199.039 11.4824 199.351 11.5898C199.664 11.6924 199.93 11.8584 200.149 12.0879C200.374 12.3174 200.545 12.6152 200.662 12.9814C200.779 13.3428 200.838 13.7847 200.838 14.3071V19.5H199.476V14.2925C199.476 13.8774 199.415 13.5454 199.292 13.2964C199.17 13.0425 198.992 12.8594 198.758 12.7471C198.523 12.6299 198.235 12.5713 197.894 12.5713C197.557 12.5713 197.249 12.6421 196.971 12.7837C196.697 12.9253 196.46 13.1206 196.26 13.3696C196.065 13.6187 195.911 13.9043 195.799 14.2266C195.691 14.5439 195.638 14.8809 195.638 15.2373ZM209.935 11.5752V12.6152H205.65V11.5752H209.935ZM207.1 9.64893H208.455V17.5371C208.455 17.8057 208.497 18.0083 208.58 18.145C208.663 18.2817 208.77 18.3721 208.902 18.416C209.034 18.46 209.175 18.4819 209.327 18.4819C209.439 18.4819 209.556 18.4722 209.678 18.4526C209.805 18.4282 209.9 18.4087 209.964 18.394L209.971 19.5C209.864 19.5342 209.722 19.5659 209.546 19.5952C209.375 19.6294 209.168 19.6465 208.924 19.6465C208.592 19.6465 208.287 19.5806 208.008 19.4487C207.73 19.3169 207.508 19.0972 207.342 18.7896C207.181 18.4771 207.1 18.0571 207.1 17.5298V9.64893ZM212.879 8.25V19.5H211.524V8.25H212.879ZM212.557 15.2373L211.993 15.2153C211.998 14.6733 212.078 14.1729 212.234 13.7139C212.391 13.25 212.61 12.8472 212.894 12.5054C213.177 12.1636 213.514 11.8999 213.904 11.7144C214.3 11.5239 214.737 11.4287 215.215 11.4287C215.606 11.4287 215.958 11.4824 216.27 11.5898C216.583 11.6924 216.849 11.8584 217.068 12.0879C217.293 12.3174 217.464 12.6152 217.581 12.9814C217.698 13.3428 217.757 13.7847 217.757 14.3071V19.5H216.395V14.2925C216.395 13.8774 216.333 13.5454 216.211 13.2964C216.089 13.0425 215.911 12.8594 215.677 12.7471C215.442 12.6299 215.154 12.5713 214.812 12.5713C214.476 12.5713 214.168 12.6421 213.89 12.7837C213.616 12.9253 213.379 13.1206 213.179 13.3696C212.984 13.6187 212.83 13.9043 212.718 14.2266C212.61 14.5439 212.557 14.8809 212.557 15.2373ZM223.074 19.6465C222.522 19.6465 222.022 19.5537 221.573 19.3682C221.128 19.1777 220.745 18.9116 220.423 18.5698C220.105 18.228 219.861 17.8228 219.69 17.354C219.52 16.8853 219.434 16.3726 219.434 15.8159V15.5083C219.434 14.8638 219.529 14.29 219.72 13.7871C219.91 13.2793 220.169 12.8496 220.496 12.498C220.823 12.1465 221.194 11.8804 221.609 11.6997C222.024 11.519 222.454 11.4287 222.898 11.4287C223.465 11.4287 223.953 11.5264 224.363 11.7217C224.778 11.917 225.118 12.1904 225.381 12.542C225.645 12.8887 225.84 13.2988 225.967 13.7725C226.094 14.2412 226.158 14.7539 226.158 15.3105V15.9185H220.24V14.8125H224.803V14.71C224.783 14.3584 224.71 14.0166 224.583 13.6846C224.461 13.3525 224.266 13.0791 223.997 12.8643C223.729 12.6494 223.362 12.542 222.898 12.542C222.591 12.542 222.308 12.6079 222.049 12.7397C221.79 12.8667 221.568 13.0571 221.382 13.311C221.197 13.5649 221.053 13.875 220.95 14.2412C220.848 14.6074 220.796 15.0298 220.796 15.5083V15.8159C220.796 16.1919 220.848 16.5459 220.95 16.8779C221.058 17.2051 221.211 17.4932 221.412 17.7422C221.617 17.9912 221.863 18.1865 222.151 18.3281C222.444 18.4697 222.776 18.5405 223.147 18.5405C223.626 18.5405 224.031 18.4429 224.363 18.2476C224.695 18.0522 224.986 17.791 225.235 17.4639L226.055 18.1157C225.884 18.3745 225.667 18.6211 225.403 18.8555C225.14 19.0898 224.815 19.2803 224.429 19.4268C224.048 19.5732 223.597 19.6465 223.074 19.6465Z" fill="#181818"/>
<path d="M127.039 38.0684V43.7031C126.818 43.9701 126.476 44.2598 126.014 44.5723C125.551 44.8783 124.956 45.1419 124.227 45.3633C123.497 45.5846 122.615 45.6953 121.58 45.6953C120.662 45.6953 119.826 45.5456 119.07 45.2461C118.315 44.9401 117.664 44.4941 117.117 43.9082C116.577 43.3223 116.16 42.6061 115.867 41.7598C115.574 40.9069 115.428 39.9336 115.428 38.8398V37.9512C115.428 36.8574 115.568 35.8841 115.848 35.0312C116.134 34.1784 116.541 33.459 117.068 32.873C117.596 32.2871 118.224 31.8411 118.953 31.5352C119.682 31.2292 120.493 31.0762 121.385 31.0762C122.622 31.0762 123.637 31.278 124.432 31.6816C125.226 32.0788 125.831 32.6322 126.248 33.3418C126.671 34.0449 126.932 34.8522 127.029 35.7637H124.188C124.116 35.2819 123.979 34.862 123.777 34.5039C123.576 34.1458 123.286 33.8659 122.908 33.6641C122.537 33.4622 122.055 33.3613 121.463 33.3613C120.975 33.3613 120.538 33.4622 120.154 33.6641C119.777 33.8594 119.458 34.1491 119.197 34.5332C118.937 34.9173 118.738 35.3926 118.602 35.959C118.465 36.5254 118.396 37.1829 118.396 37.9316V38.8398C118.396 39.582 118.468 40.2396 118.611 40.8125C118.755 41.3789 118.966 41.8574 119.246 42.248C119.533 42.6322 119.884 42.9219 120.301 43.1172C120.717 43.3125 121.202 43.4102 121.756 43.4102C122.218 43.4102 122.602 43.3711 122.908 43.293C123.221 43.2148 123.471 43.1204 123.66 43.0098C123.855 42.8926 124.005 42.7819 124.109 42.6777V40.1582H121.434V38.0684H127.039ZM128.777 40.3242V40.1191C128.777 39.3444 128.888 38.6315 129.109 37.9805C129.331 37.3229 129.653 36.7533 130.076 36.2715C130.499 35.7897 131.02 35.4154 131.639 35.1484C132.257 34.875 132.967 34.7383 133.768 34.7383C134.568 34.7383 135.281 34.875 135.906 35.1484C136.531 35.4154 137.055 35.7897 137.479 36.2715C137.908 36.7533 138.234 37.3229 138.455 37.9805C138.676 38.6315 138.787 39.3444 138.787 40.1191V40.3242C138.787 41.0924 138.676 41.8053 138.455 42.4629C138.234 43.1139 137.908 43.6836 137.479 44.1719C137.055 44.6536 136.535 45.028 135.916 45.2949C135.298 45.5618 134.588 45.6953 133.787 45.6953C132.986 45.6953 132.273 45.5618 131.648 45.2949C131.03 45.028 130.506 44.6536 130.076 44.1719C129.653 43.6836 129.331 43.1139 129.109 42.4629C128.888 41.8053 128.777 41.0924 128.777 40.3242ZM131.59 40.1191V40.3242C131.59 40.7669 131.629 41.1803 131.707 41.5645C131.785 41.9486 131.909 42.2871 132.078 42.5801C132.254 42.8665 132.482 43.0911 132.762 43.2539C133.042 43.4167 133.383 43.498 133.787 43.498C134.178 43.498 134.513 43.4167 134.793 43.2539C135.073 43.0911 135.298 42.8665 135.467 42.5801C135.636 42.2871 135.76 41.9486 135.838 41.5645C135.923 41.1803 135.965 40.7669 135.965 40.3242V40.1191C135.965 39.6895 135.923 39.2858 135.838 38.9082C135.76 38.5241 135.633 38.1855 135.457 37.8926C135.288 37.5931 135.063 37.3587 134.783 37.1895C134.503 37.0202 134.165 36.9355 133.768 36.9355C133.37 36.9355 133.032 37.0202 132.752 37.1895C132.479 37.3587 132.254 37.5931 132.078 37.8926C131.909 38.1855 131.785 38.5241 131.707 38.9082C131.629 39.2858 131.59 39.6895 131.59 40.1191ZM140.066 40.3242V40.1191C140.066 39.3444 140.177 38.6315 140.398 37.9805C140.62 37.3229 140.942 36.7533 141.365 36.2715C141.788 35.7897 142.309 35.4154 142.928 35.1484C143.546 34.875 144.256 34.7383 145.057 34.7383C145.857 34.7383 146.57 34.875 147.195 35.1484C147.82 35.4154 148.344 35.7897 148.768 36.2715C149.197 36.7533 149.523 37.3229 149.744 37.9805C149.965 38.6315 150.076 39.3444 150.076 40.1191V40.3242C150.076 41.0924 149.965 41.8053 149.744 42.4629C149.523 43.1139 149.197 43.6836 148.768 44.1719C148.344 44.6536 147.824 45.028 147.205 45.2949C146.587 45.5618 145.877 45.6953 145.076 45.6953C144.275 45.6953 143.562 45.5618 142.938 45.2949C142.319 45.028 141.795 44.6536 141.365 44.1719C140.942 43.6836 140.62 43.1139 140.398 42.4629C140.177 41.8053 140.066 41.0924 140.066 40.3242ZM142.879 40.1191V40.3242C142.879 40.7669 142.918 41.1803 142.996 41.5645C143.074 41.9486 143.198 42.2871 143.367 42.5801C143.543 42.8665 143.771 43.0911 144.051 43.2539C144.331 43.4167 144.673 43.498 145.076 43.498C145.467 43.498 145.802 43.4167 146.082 43.2539C146.362 43.0911 146.587 42.8665 146.756 42.5801C146.925 42.2871 147.049 41.9486 147.127 41.5645C147.212 41.1803 147.254 40.7669 147.254 40.3242V40.1191C147.254 39.6895 147.212 39.2858 147.127 38.9082C147.049 38.5241 146.922 38.1855 146.746 37.8926C146.577 37.5931 146.352 37.3587 146.072 37.1895C145.792 37.0202 145.454 36.9355 145.057 36.9355C144.66 36.9355 144.321 37.0202 144.041 37.1895C143.768 37.3587 143.543 37.5931 143.367 37.8926C143.198 38.1855 143.074 38.5241 142.996 38.9082C142.918 39.2858 142.879 39.6895 142.879 40.1191ZM158.494 34.9336H161.043V45.1484C161.043 46.112 160.828 46.929 160.398 47.5996C159.975 48.2767 159.383 48.7878 158.621 49.1328C157.859 49.4844 156.974 49.6602 155.965 49.6602C155.522 49.6602 155.053 49.6016 154.559 49.4844C154.07 49.3672 153.602 49.1849 153.152 48.9375C152.71 48.6901 152.339 48.3776 152.039 48L153.279 46.3398C153.605 46.7174 153.982 47.0104 154.412 47.2188C154.842 47.4336 155.317 47.541 155.838 47.541C156.346 47.541 156.775 47.4466 157.127 47.2578C157.479 47.0755 157.749 46.8053 157.938 46.4473C158.126 46.0957 158.221 45.6693 158.221 45.168V37.375L158.494 34.9336ZM151.385 40.3438V40.1387C151.385 39.3314 151.482 38.599 151.678 37.9414C151.88 37.2773 152.163 36.7077 152.527 36.2324C152.898 35.7572 153.348 35.3893 153.875 35.1289C154.402 34.8685 154.998 34.7383 155.662 34.7383C156.365 34.7383 156.954 34.8685 157.43 35.1289C157.905 35.3893 158.296 35.7604 158.602 36.2422C158.908 36.7174 159.145 37.2806 159.314 37.9316C159.49 38.5762 159.627 39.2826 159.725 40.0508V40.5C159.627 41.2357 159.48 41.9193 159.285 42.5508C159.09 43.1823 158.833 43.7357 158.514 44.2109C158.195 44.6797 157.798 45.0443 157.322 45.3047C156.854 45.5651 156.294 45.6953 155.643 45.6953C154.992 45.6953 154.402 45.5618 153.875 45.2949C153.354 45.028 152.908 44.6536 152.537 44.1719C152.166 43.6901 151.88 43.1237 151.678 42.4727C151.482 41.8216 151.385 41.112 151.385 40.3438ZM154.197 40.1387V40.3438C154.197 40.7799 154.24 41.1868 154.324 41.5645C154.409 41.9421 154.539 42.2773 154.715 42.5703C154.897 42.8568 155.122 43.0814 155.389 43.2441C155.662 43.4004 155.984 43.4785 156.355 43.4785C156.87 43.4785 157.29 43.3711 157.615 43.1562C157.941 42.9349 158.185 42.6322 158.348 42.248C158.51 41.8639 158.605 41.4212 158.631 40.9199V39.6406C158.618 39.2305 158.562 38.8626 158.465 38.5371C158.367 38.2051 158.23 37.9219 158.055 37.6875C157.879 37.4531 157.651 37.2708 157.371 37.1406C157.091 37.0104 156.759 36.9453 156.375 36.9453C156.004 36.9453 155.682 37.0299 155.408 37.1992C155.141 37.362 154.917 37.5866 154.734 37.873C154.559 38.1595 154.425 38.498 154.334 38.8887C154.243 39.2728 154.197 39.6895 154.197 40.1387ZM166.199 30.5V45.5H163.377V30.5H166.199ZM173.387 45.6953C172.566 45.6953 171.831 45.5651 171.18 45.3047C170.529 45.0378 169.975 44.6699 169.52 44.2012C169.07 43.7324 168.725 43.1888 168.484 42.5703C168.243 41.9453 168.123 41.2812 168.123 40.5781V40.1875C168.123 39.3867 168.237 38.6543 168.465 37.9902C168.693 37.3262 169.018 36.75 169.441 36.2617C169.871 35.7734 170.392 35.3991 171.004 35.1387C171.616 34.8717 172.306 34.7383 173.074 34.7383C173.823 34.7383 174.487 34.862 175.066 35.1094C175.646 35.3568 176.131 35.7083 176.521 36.1641C176.919 36.6198 177.218 37.1667 177.42 37.8047C177.622 38.4362 177.723 39.1393 177.723 39.9141V41.0859H169.324V39.2109H174.959V38.9961C174.959 38.6055 174.887 38.2572 174.744 37.9512C174.607 37.6387 174.399 37.3913 174.119 37.209C173.839 37.0267 173.481 36.9355 173.045 36.9355C172.674 36.9355 172.355 37.0169 172.088 37.1797C171.821 37.3424 171.603 37.5703 171.434 37.8633C171.271 38.1562 171.147 38.5013 171.062 38.8984C170.984 39.2891 170.945 39.7188 170.945 40.1875V40.5781C170.945 41.0013 171.004 41.3919 171.121 41.75C171.245 42.1081 171.417 42.4173 171.639 42.6777C171.867 42.9382 172.14 43.14 172.459 43.2832C172.785 43.4264 173.152 43.498 173.562 43.498C174.07 43.498 174.542 43.4004 174.979 43.2051C175.421 43.0033 175.802 42.7005 176.121 42.2969L177.488 43.7812C177.267 44.1003 176.964 44.4062 176.58 44.6992C176.202 44.9922 175.747 45.2331 175.213 45.4219C174.679 45.6042 174.07 45.6953 173.387 45.6953ZM190.018 40.4316H186.395V38.1465H190.018C190.577 38.1465 191.033 38.0553 191.385 37.873C191.736 37.6842 191.993 37.4238 192.156 37.0918C192.319 36.7598 192.4 36.3854 192.4 35.9688C192.4 35.5456 192.319 35.1517 192.156 34.7871C191.993 34.4225 191.736 34.1296 191.385 33.9082C191.033 33.6868 190.577 33.5762 190.018 33.5762H187.41V45.5H184.48V31.2812H190.018C191.131 31.2812 192.085 31.4831 192.879 31.8867C193.68 32.2839 194.292 32.834 194.715 33.5371C195.138 34.2402 195.35 35.0443 195.35 35.9492C195.35 36.8672 195.138 37.6615 194.715 38.332C194.292 39.0026 193.68 39.5202 192.879 39.8848C192.085 40.2493 191.131 40.4316 190.018 40.4316ZM200.164 30.5V45.5H197.342V30.5H200.164ZM208.191 43.1172V38.4102C208.191 38.0716 208.136 37.7819 208.025 37.541C207.915 37.2936 207.742 37.1016 207.508 36.9648C207.28 36.8281 206.984 36.7598 206.619 36.7598C206.307 36.7598 206.036 36.8151 205.809 36.9258C205.581 37.0299 205.405 37.1829 205.281 37.3848C205.158 37.5801 205.096 37.8112 205.096 38.0781H202.283C202.283 37.6289 202.387 37.2025 202.596 36.7988C202.804 36.3952 203.107 36.0404 203.504 35.7344C203.901 35.4219 204.373 35.1777 204.92 35.002C205.473 34.8262 206.092 34.7383 206.775 34.7383C207.596 34.7383 208.325 34.875 208.963 35.1484C209.601 35.4219 210.102 35.832 210.467 36.3789C210.838 36.9258 211.023 37.6094 211.023 38.4297V42.9512C211.023 43.5306 211.059 44.0059 211.131 44.377C211.202 44.7415 211.307 45.0605 211.443 45.334V45.5H208.602C208.465 45.2135 208.361 44.8555 208.289 44.4258C208.224 43.9896 208.191 43.5534 208.191 43.1172ZM208.562 39.0645L208.582 40.6562H207.01C206.639 40.6562 206.316 40.6986 206.043 40.7832C205.77 40.8678 205.545 40.9883 205.369 41.1445C205.193 41.2943 205.063 41.4701 204.979 41.6719C204.9 41.8737 204.861 42.0951 204.861 42.3359C204.861 42.5768 204.917 42.7949 205.027 42.9902C205.138 43.179 205.298 43.3288 205.506 43.4395C205.714 43.5436 205.958 43.5957 206.238 43.5957C206.661 43.5957 207.029 43.5111 207.342 43.3418C207.654 43.1725 207.895 42.9642 208.064 42.7168C208.24 42.4694 208.331 42.235 208.338 42.0137L209.08 43.2051C208.976 43.472 208.833 43.7487 208.65 44.0352C208.475 44.3216 208.25 44.5918 207.977 44.8457C207.703 45.0931 207.374 45.2982 206.99 45.4609C206.606 45.6172 206.15 45.6953 205.623 45.6953C204.952 45.6953 204.344 45.5618 203.797 45.2949C203.257 45.0215 202.827 44.6471 202.508 44.1719C202.195 43.6901 202.039 43.1432 202.039 42.5312C202.039 41.9779 202.143 41.4863 202.352 41.0566C202.56 40.627 202.866 40.2656 203.27 39.9727C203.68 39.6732 204.191 39.4486 204.803 39.2988C205.415 39.1426 206.124 39.0645 206.932 39.0645H208.562ZM216.17 44.3086L218.973 34.9336H221.99L217.742 47.0918C217.651 47.3587 217.527 47.6452 217.371 47.9512C217.221 48.2572 217.016 48.5469 216.756 48.8203C216.502 49.1003 216.18 49.3281 215.789 49.5039C215.405 49.6797 214.933 49.7676 214.373 49.7676C214.106 49.7676 213.888 49.7513 213.719 49.7188C213.549 49.6862 213.348 49.6406 213.113 49.582V47.5215C213.185 47.5215 213.26 47.5215 213.338 47.5215C213.416 47.528 213.491 47.5312 213.562 47.5312C213.934 47.5312 214.236 47.4889 214.471 47.4043C214.705 47.3197 214.894 47.1895 215.037 47.0137C215.18 46.8444 215.294 46.623 215.379 46.3496L216.17 44.3086ZM214.998 34.9336L217.293 42.5898L217.693 45.5684L215.779 45.7734L211.98 34.9336H214.998Z" fill="#181818"/>
</svg>
