<svg width="300" height="56" viewBox="0 0 300 56" fill="none" xmlns="http://www.w3.org/2000/svg">
<rect width="300" height="56" rx="25" fill="#181818"/>
<path d="M97.0897 29.0817C97.0708 25.9669 98.5296 23.6194 101.476 21.8884C99.8279 19.6049 97.3352 18.3489 94.0494 18.1069C90.9382 17.8694 87.5343 19.8606 86.288 19.8606C84.9708 19.8606 81.9588 18.1891 79.5888 18.1891C74.6979 18.2621 69.5 21.9615 69.5 29.4881C69.5 31.7123 69.9202 34.0096 70.7605 36.3754C71.8841 39.4902 75.9348 47.1218 80.1601 46.9985C82.3695 46.9483 83.9322 45.4822 86.8073 45.4822C89.5974 45.4822 91.0421 46.9985 93.5064 46.9985C97.7695 46.9391 101.433 40.0017 102.5 36.8778C96.7828 34.2699 97.0897 29.2415 97.0897 29.0817ZM92.1279 15.1519C94.5215 12.4025 94.3043 9.89972 94.2335 9C92.1185 9.11875 89.673 10.393 88.2803 11.9595C86.7459 13.6402 85.8442 15.7182 86.0378 18.0612C88.3227 18.2302 90.4094 17.093 92.1279 15.1519Z" fill="white"/>
<path d="M118.624 19.5H116.397L116.412 18.3501H118.624C119.385 18.3501 120.02 18.1914 120.528 17.874C121.036 17.5518 121.417 17.1025 121.67 16.5264C121.929 15.9453 122.059 15.2666 122.059 14.4902V13.8384C122.059 13.228 121.985 12.686 121.839 12.2124C121.692 11.7339 121.478 11.3311 121.194 11.0039C120.911 10.6719 120.564 10.4204 120.154 10.2495C119.749 10.0786 119.283 9.99316 118.755 9.99316H116.353V8.83594H118.755C119.454 8.83594 120.091 8.95312 120.667 9.1875C121.243 9.41699 121.739 9.75146 122.154 10.1909C122.574 10.6255 122.896 11.1528 123.121 11.7729C123.345 12.3882 123.458 13.0815 123.458 13.853V14.4902C123.458 15.2617 123.345 15.9575 123.121 16.5776C122.896 17.1929 122.571 17.7178 122.146 18.1523C121.727 18.5869 121.219 18.9214 120.623 19.1558C120.032 19.3853 119.366 19.5 118.624 19.5ZM117.151 8.83594V19.5H115.738V8.83594H117.151ZM125.018 15.6255V15.457C125.018 14.8857 125.101 14.356 125.267 13.8677C125.433 13.3745 125.672 12.9473 125.984 12.5859C126.297 12.2197 126.675 11.9365 127.12 11.7363C127.564 11.5312 128.062 11.4287 128.614 11.4287C129.17 11.4287 129.671 11.5312 130.115 11.7363C130.564 11.9365 130.945 12.2197 131.258 12.5859C131.575 12.9473 131.817 13.3745 131.983 13.8677C132.149 14.356 132.232 14.8857 132.232 15.457V15.6255C132.232 16.1968 132.149 16.7266 131.983 17.2148C131.817 17.7031 131.575 18.1304 131.258 18.4966C130.945 18.8579 130.567 19.1411 130.123 19.3462C129.683 19.5464 129.185 19.6465 128.628 19.6465C128.072 19.6465 127.571 19.5464 127.127 19.3462C126.683 19.1411 126.302 18.8579 125.984 18.4966C125.672 18.1304 125.433 17.7031 125.267 17.2148C125.101 16.7266 125.018 16.1968 125.018 15.6255ZM126.373 15.457V15.6255C126.373 16.021 126.419 16.3945 126.512 16.7461C126.604 17.0928 126.744 17.4004 126.929 17.6689C127.12 17.9375 127.356 18.1499 127.64 18.3062C127.923 18.4575 128.252 18.5332 128.628 18.5332C129 18.5332 129.324 18.4575 129.603 18.3062C129.886 18.1499 130.12 17.9375 130.306 17.6689C130.491 17.4004 130.63 17.0928 130.723 16.7461C130.821 16.3945 130.87 16.021 130.87 15.6255V15.457C130.87 15.0664 130.821 14.6978 130.723 14.3511C130.63 13.9995 130.489 13.6895 130.298 13.4209C130.113 13.1475 129.878 12.9326 129.595 12.7764C129.317 12.6201 128.99 12.542 128.614 12.542C128.243 12.542 127.916 12.6201 127.632 12.7764C127.354 12.9326 127.12 13.1475 126.929 13.4209C126.744 13.6895 126.604 13.9995 126.512 14.3511C126.419 14.6978 126.373 15.0664 126.373 15.457ZM135.938 18.0938L137.974 11.5752H138.868L138.692 12.8716L136.619 19.5H135.748L135.938 18.0938ZM134.568 11.5752L136.304 18.167L136.429 19.5H135.513L133.213 11.5752H134.568ZM140.816 18.1157L142.471 11.5752H143.819L141.519 19.5H140.611L140.816 18.1157ZM139.065 11.5752L141.058 17.9839L141.285 19.5H140.42L138.289 12.8569L138.113 11.5752H139.065ZM146.565 13.2671V19.5H145.21V11.5752H146.492L146.565 13.2671ZM146.243 15.2373L145.679 15.2153C145.684 14.6733 145.765 14.1729 145.921 13.7139C146.077 13.25 146.297 12.8472 146.58 12.5054C146.863 12.1636 147.2 11.8999 147.591 11.7144C147.986 11.5239 148.423 11.4287 148.902 11.4287C149.292 11.4287 149.644 11.4824 149.957 11.5898C150.269 11.6924 150.535 11.8584 150.755 12.0879C150.979 12.3174 151.15 12.6152 151.268 12.9814C151.385 13.3428 151.443 13.7847 151.443 14.3071V19.5H150.081V14.2925C150.081 13.8774 150.02 13.5454 149.898 13.2964C149.776 13.0425 149.598 12.8594 149.363 12.7471C149.129 12.6299 148.841 12.5713 148.499 12.5713C148.162 12.5713 147.854 12.6421 147.576 12.7837C147.303 12.9253 147.066 13.1206 146.866 13.3696C146.67 13.6187 146.517 13.9043 146.404 14.2266C146.297 14.5439 146.243 14.8809 146.243 15.2373ZM154.974 8.25V19.5H153.611V8.25H154.974ZM156.79 15.6255V15.457C156.79 14.8857 156.873 14.356 157.039 13.8677C157.205 13.3745 157.444 12.9473 157.757 12.5859C158.069 12.2197 158.448 11.9365 158.892 11.7363C159.336 11.5312 159.834 11.4287 160.386 11.4287C160.943 11.4287 161.443 11.5312 161.888 11.7363C162.337 11.9365 162.718 12.2197 163.03 12.5859C163.348 12.9473 163.589 13.3745 163.755 13.8677C163.921 14.356 164.004 14.8857 164.004 15.457V15.6255C164.004 16.1968 163.921 16.7266 163.755 17.2148C163.589 17.7031 163.348 18.1304 163.03 18.4966C162.718 18.8579 162.339 19.1411 161.895 19.3462C161.456 19.5464 160.958 19.6465 160.401 19.6465C159.844 19.6465 159.344 19.5464 158.899 19.3462C158.455 19.1411 158.074 18.8579 157.757 18.4966C157.444 18.1304 157.205 17.7031 157.039 17.2148C156.873 16.7266 156.79 16.1968 156.79 15.6255ZM158.145 15.457V15.6255C158.145 16.021 158.191 16.3945 158.284 16.7461C158.377 17.0928 158.516 17.4004 158.702 17.6689C158.892 17.9375 159.129 18.1499 159.412 18.3062C159.695 18.4575 160.025 18.5332 160.401 18.5332C160.772 18.5332 161.097 18.4575 161.375 18.3062C161.658 18.1499 161.893 17.9375 162.078 17.6689C162.264 17.4004 162.403 17.0928 162.496 16.7461C162.593 16.3945 162.642 16.021 162.642 15.6255V15.457C162.642 15.0664 162.593 14.6978 162.496 14.3511C162.403 13.9995 162.261 13.6895 162.071 13.4209C161.885 13.1475 161.651 12.9326 161.368 12.7764C161.089 12.6201 160.762 12.542 160.386 12.542C160.015 12.542 159.688 12.6201 159.405 12.7764C159.126 12.9326 158.892 13.1475 158.702 13.4209C158.516 13.6895 158.377 13.9995 158.284 14.3511C158.191 14.6978 158.145 15.0664 158.145 15.457ZM170.376 18.145V14.0654C170.376 13.7529 170.313 13.4819 170.186 13.2524C170.064 13.0181 169.878 12.8374 169.629 12.7104C169.38 12.5835 169.073 12.52 168.707 12.52C168.365 12.52 168.064 12.5786 167.806 12.6958C167.552 12.813 167.352 12.9668 167.205 13.1572C167.063 13.3477 166.993 13.5527 166.993 13.7725H165.638C165.638 13.4893 165.711 13.2085 165.857 12.9302C166.004 12.6519 166.214 12.4004 166.487 12.1758C166.766 11.9463 167.098 11.7656 167.483 11.6338C167.874 11.4971 168.309 11.4287 168.787 11.4287C169.363 11.4287 169.871 11.5264 170.311 11.7217C170.755 11.917 171.102 12.2124 171.351 12.6079C171.604 12.9985 171.731 13.4893 171.731 14.0801V17.7715C171.731 18.0352 171.753 18.3159 171.797 18.6138C171.846 18.9116 171.917 19.168 172.01 19.3828V19.5H170.596C170.528 19.3438 170.474 19.1362 170.435 18.8774C170.396 18.6138 170.376 18.3696 170.376 18.145ZM170.611 14.6953L170.625 15.6475H169.256C168.87 15.6475 168.526 15.6792 168.223 15.7427C167.92 15.8013 167.667 15.8916 167.461 16.0137C167.256 16.1357 167.1 16.2896 166.993 16.4751C166.885 16.6558 166.832 16.8682 166.832 17.1123C166.832 17.3613 166.888 17.5884 167 17.7935C167.112 17.9985 167.281 18.1621 167.505 18.2842C167.735 18.4014 168.016 18.46 168.348 18.46C168.763 18.46 169.129 18.3721 169.446 18.1963C169.764 18.0205 170.015 17.8057 170.201 17.5518C170.391 17.2979 170.494 17.0513 170.508 16.812L171.087 17.4639C171.053 17.6689 170.96 17.896 170.809 18.145C170.657 18.394 170.455 18.6333 170.201 18.8628C169.952 19.0874 169.654 19.2754 169.307 19.4268C168.965 19.5732 168.58 19.6465 168.15 19.6465C167.613 19.6465 167.142 19.5415 166.736 19.3315C166.336 19.1216 166.023 18.8408 165.799 18.4893C165.579 18.1328 165.469 17.7349 165.469 17.2954C165.469 16.8706 165.552 16.4971 165.718 16.1748C165.884 15.8477 166.124 15.5767 166.436 15.3618C166.749 15.1421 167.125 14.9761 167.564 14.8638C168.003 14.7515 168.494 14.6953 169.036 14.6953H170.611ZM178.858 17.9619V8.25H180.22V19.5H178.975L178.858 17.9619ZM173.526 15.6255V15.4717C173.526 14.8662 173.599 14.3169 173.746 13.8237C173.897 13.3257 174.109 12.8984 174.383 12.542C174.661 12.1855 174.991 11.9121 175.372 11.7217C175.757 11.5264 176.187 11.4287 176.661 11.4287C177.159 11.4287 177.593 11.5166 177.964 11.6924C178.34 11.8633 178.658 12.1147 178.917 12.4468C179.18 12.7739 179.388 13.1694 179.539 13.6333C179.69 14.0972 179.795 14.6221 179.854 15.208V15.8818C179.8 16.4629 179.695 16.9854 179.539 17.4492C179.388 17.9131 179.18 18.3086 178.917 18.6357C178.658 18.9629 178.34 19.2144 177.964 19.3901C177.588 19.561 177.149 19.6465 176.646 19.6465C176.182 19.6465 175.757 19.5464 175.372 19.3462C174.991 19.146 174.661 18.8652 174.383 18.5039C174.109 18.1426 173.897 17.7178 173.746 17.2295C173.599 16.7363 173.526 16.2017 173.526 15.6255ZM174.888 15.4717V15.6255C174.888 16.021 174.927 16.3921 175.005 16.7388C175.088 17.0854 175.215 17.3906 175.386 17.6543C175.557 17.918 175.774 18.1255 176.038 18.2769C176.302 18.4233 176.617 18.4966 176.983 18.4966C177.432 18.4966 177.801 18.4014 178.089 18.2109C178.382 18.0205 178.616 17.769 178.792 17.4565C178.968 17.144 179.104 16.8047 179.202 16.4385V14.6733C179.144 14.4048 179.058 14.146 178.946 13.897C178.838 13.6431 178.697 13.4185 178.521 13.2231C178.35 13.0229 178.138 12.8643 177.884 12.7471C177.635 12.6299 177.339 12.5713 176.998 12.5713C176.626 12.5713 176.307 12.6494 176.038 12.8057C175.774 12.957 175.557 13.167 175.386 13.4355C175.215 13.6992 175.088 14.0068 175.005 14.3584C174.927 14.7051 174.888 15.0762 174.888 15.4717ZM185.691 15.6255V15.457C185.691 14.8857 185.774 14.356 185.94 13.8677C186.106 13.3745 186.346 12.9473 186.658 12.5859C186.971 12.2197 187.349 11.9365 187.793 11.7363C188.238 11.5312 188.736 11.4287 189.288 11.4287C189.844 11.4287 190.345 11.5312 190.789 11.7363C191.238 11.9365 191.619 12.2197 191.932 12.5859C192.249 12.9473 192.491 13.3745 192.657 13.8677C192.823 14.356 192.906 14.8857 192.906 15.457V15.6255C192.906 16.1968 192.823 16.7266 192.657 17.2148C192.491 17.7031 192.249 18.1304 191.932 18.4966C191.619 18.8579 191.241 19.1411 190.796 19.3462C190.357 19.5464 189.859 19.6465 189.302 19.6465C188.746 19.6465 188.245 19.5464 187.801 19.3462C187.356 19.1411 186.976 18.8579 186.658 18.4966C186.346 18.1304 186.106 17.7031 185.94 17.2148C185.774 16.7266 185.691 16.1968 185.691 15.6255ZM187.046 15.457V15.6255C187.046 16.021 187.093 16.3945 187.186 16.7461C187.278 17.0928 187.417 17.4004 187.603 17.6689C187.793 17.9375 188.03 18.1499 188.313 18.3062C188.597 18.4575 188.926 18.5332 189.302 18.5332C189.673 18.5332 189.998 18.4575 190.276 18.3062C190.56 18.1499 190.794 17.9375 190.979 17.6689C191.165 17.4004 191.304 17.0928 191.397 16.7461C191.495 16.3945 191.543 16.021 191.543 15.6255V15.457C191.543 15.0664 191.495 14.6978 191.397 14.3511C191.304 13.9995 191.163 13.6895 190.972 13.4209C190.787 13.1475 190.552 12.9326 190.269 12.7764C189.991 12.6201 189.664 12.542 189.288 12.542C188.917 12.542 188.589 12.6201 188.306 12.7764C188.028 12.9326 187.793 13.1475 187.603 13.4209C187.417 13.6895 187.278 13.9995 187.186 14.3511C187.093 14.6978 187.046 15.0664 187.046 15.457ZM195.96 13.2671V19.5H194.605V11.5752H195.887L195.96 13.2671ZM195.638 15.2373L195.074 15.2153C195.079 14.6733 195.159 14.1729 195.315 13.7139C195.472 13.25 195.691 12.8472 195.975 12.5054C196.258 12.1636 196.595 11.8999 196.985 11.7144C197.381 11.5239 197.818 11.4287 198.296 11.4287C198.687 11.4287 199.039 11.4824 199.351 11.5898C199.664 11.6924 199.93 11.8584 200.149 12.0879C200.374 12.3174 200.545 12.6152 200.662 12.9814C200.779 13.3428 200.838 13.7847 200.838 14.3071V19.5H199.476V14.2925C199.476 13.8774 199.415 13.5454 199.292 13.2964C199.17 13.0425 198.992 12.8594 198.758 12.7471C198.523 12.6299 198.235 12.5713 197.894 12.5713C197.557 12.5713 197.249 12.6421 196.971 12.7837C196.697 12.9253 196.46 13.1206 196.26 13.3696C196.065 13.6187 195.911 13.9043 195.799 14.2266C195.691 14.5439 195.638 14.8809 195.638 15.2373ZM209.935 11.5752V12.6152H205.65V11.5752H209.935ZM207.1 9.64893H208.455V17.5371C208.455 17.8057 208.497 18.0083 208.58 18.145C208.663 18.2817 208.77 18.3721 208.902 18.416C209.034 18.46 209.175 18.4819 209.327 18.4819C209.439 18.4819 209.556 18.4722 209.678 18.4526C209.805 18.4282 209.9 18.4087 209.964 18.394L209.971 19.5C209.864 19.5342 209.722 19.5659 209.546 19.5952C209.375 19.6294 209.168 19.6465 208.924 19.6465C208.592 19.6465 208.287 19.5806 208.008 19.4487C207.73 19.3169 207.508 19.0972 207.342 18.7896C207.181 18.4771 207.1 18.0571 207.1 17.5298V9.64893ZM212.879 8.25V19.5H211.524V8.25H212.879ZM212.557 15.2373L211.993 15.2153C211.998 14.6733 212.078 14.1729 212.234 13.7139C212.391 13.25 212.61 12.8472 212.894 12.5054C213.177 12.1636 213.514 11.8999 213.904 11.7144C214.3 11.5239 214.737 11.4287 215.215 11.4287C215.606 11.4287 215.958 11.4824 216.27 11.5898C216.583 11.6924 216.849 11.8584 217.068 12.0879C217.293 12.3174 217.464 12.6152 217.581 12.9814C217.698 13.3428 217.757 13.7847 217.757 14.3071V19.5H216.395V14.2925C216.395 13.8774 216.333 13.5454 216.211 13.2964C216.089 13.0425 215.911 12.8594 215.677 12.7471C215.442 12.6299 215.154 12.5713 214.812 12.5713C214.476 12.5713 214.168 12.6421 213.89 12.7837C213.616 12.9253 213.379 13.1206 213.179 13.3696C212.984 13.6187 212.83 13.9043 212.718 14.2266C212.61 14.5439 212.557 14.8809 212.557 15.2373ZM223.074 19.6465C222.522 19.6465 222.022 19.5537 221.573 19.3682C221.128 19.1777 220.745 18.9116 220.423 18.5698C220.105 18.228 219.861 17.8228 219.69 17.354C219.52 16.8853 219.434 16.3726 219.434 15.8159V15.5083C219.434 14.8638 219.529 14.29 219.72 13.7871C219.91 13.2793 220.169 12.8496 220.496 12.498C220.823 12.1465 221.194 11.8804 221.609 11.6997C222.024 11.519 222.454 11.4287 222.898 11.4287C223.465 11.4287 223.953 11.5264 224.363 11.7217C224.778 11.917 225.118 12.1904 225.381 12.542C225.645 12.8887 225.84 13.2988 225.967 13.7725C226.094 14.2412 226.158 14.7539 226.158 15.3105V15.9185H220.24V14.8125H224.803V14.71C224.783 14.3584 224.71 14.0166 224.583 13.6846C224.461 13.3525 224.266 13.0791 223.997 12.8643C223.729 12.6494 223.362 12.542 222.898 12.542C222.591 12.542 222.308 12.6079 222.049 12.7397C221.79 12.8667 221.568 13.0571 221.382 13.311C221.197 13.5649 221.053 13.875 220.95 14.2412C220.848 14.6074 220.796 15.0298 220.796 15.5083V15.8159C220.796 16.1919 220.848 16.5459 220.95 16.8779C221.058 17.2051 221.211 17.4932 221.412 17.7422C221.617 17.9912 221.863 18.1865 222.151 18.3281C222.444 18.4697 222.776 18.5405 223.147 18.5405C223.626 18.5405 224.031 18.4429 224.363 18.2476C224.695 18.0522 224.986 17.791 225.235 17.4639L226.055 18.1157C225.884 18.3745 225.667 18.6211 225.403 18.8555C225.14 19.0898 224.815 19.2803 224.429 19.4268C224.048 19.5732 223.597 19.6465 223.074 19.6465Z" fill="white"/>
<path d="M121.551 33.7129L117.684 45.5H114.568L119.852 31.2812H121.834L121.551 33.7129ZM124.764 45.5L120.887 33.7129L120.574 31.2812H122.576L127.889 45.5H124.764ZM124.588 40.207V42.502H117.078V40.207H124.588ZM131.531 36.9648V49.5625H128.719V34.9336H131.326L131.531 36.9648ZM138.221 40.0996V40.3047C138.221 41.0729 138.13 41.7858 137.947 42.4434C137.771 43.1009 137.511 43.6738 137.166 44.1621C136.821 44.6439 136.391 45.0215 135.877 45.2949C135.369 45.5618 134.783 45.6953 134.119 45.6953C133.475 45.6953 132.915 45.5651 132.439 45.3047C131.964 45.0443 131.564 44.6797 131.238 44.2109C130.919 43.7357 130.662 43.1855 130.467 42.5605C130.271 41.9355 130.122 41.265 130.018 40.5488V40.0117C130.122 39.2435 130.271 38.5404 130.467 37.9023C130.662 37.2578 130.919 36.7012 131.238 36.2324C131.564 35.7572 131.961 35.3893 132.43 35.1289C132.905 34.8685 133.462 34.7383 134.1 34.7383C134.77 34.7383 135.359 34.8652 135.867 35.1191C136.382 35.373 136.811 35.7376 137.156 36.2129C137.508 36.6882 137.771 37.2546 137.947 37.9121C138.13 38.5697 138.221 39.2988 138.221 40.0996ZM135.398 40.3047V40.0996C135.398 39.6504 135.359 39.237 135.281 38.8594C135.21 38.4753 135.092 38.14 134.93 37.8535C134.773 37.5671 134.565 37.3457 134.305 37.1895C134.051 37.0267 133.742 36.9453 133.377 36.9453C132.993 36.9453 132.664 37.0072 132.391 37.1309C132.124 37.2546 131.906 37.4336 131.736 37.668C131.567 37.9023 131.44 38.1823 131.355 38.5078C131.271 38.8333 131.219 39.2012 131.199 39.6113V40.9688C131.232 41.4505 131.323 41.8835 131.473 42.2676C131.622 42.6452 131.854 42.9447 132.166 43.166C132.479 43.3874 132.889 43.498 133.396 43.498C133.768 43.498 134.08 43.4167 134.334 43.2539C134.588 43.0846 134.793 42.8535 134.949 42.5605C135.112 42.2676 135.226 41.929 135.291 41.5449C135.363 41.1608 135.398 40.7474 135.398 40.3047ZM142.781 36.9648V49.5625H139.969V34.9336H142.576L142.781 36.9648ZM149.471 40.0996V40.3047C149.471 41.0729 149.38 41.7858 149.197 42.4434C149.021 43.1009 148.761 43.6738 148.416 44.1621C148.071 44.6439 147.641 45.0215 147.127 45.2949C146.619 45.5618 146.033 45.6953 145.369 45.6953C144.725 45.6953 144.165 45.5651 143.689 45.3047C143.214 45.0443 142.814 44.6797 142.488 44.2109C142.169 43.7357 141.912 43.1855 141.717 42.5605C141.521 41.9355 141.372 41.265 141.268 40.5488V40.0117C141.372 39.2435 141.521 38.5404 141.717 37.9023C141.912 37.2578 142.169 36.7012 142.488 36.2324C142.814 35.7572 143.211 35.3893 143.68 35.1289C144.155 34.8685 144.712 34.7383 145.35 34.7383C146.02 34.7383 146.609 34.8652 147.117 35.1191C147.632 35.373 148.061 35.7376 148.406 36.2129C148.758 36.6882 149.021 37.2546 149.197 37.9121C149.38 38.5697 149.471 39.2988 149.471 40.0996ZM146.648 40.3047V40.0996C146.648 39.6504 146.609 39.237 146.531 38.8594C146.46 38.4753 146.342 38.14 146.18 37.8535C146.023 37.5671 145.815 37.3457 145.555 37.1895C145.301 37.0267 144.992 36.9453 144.627 36.9453C144.243 36.9453 143.914 37.0072 143.641 37.1309C143.374 37.2546 143.156 37.4336 142.986 37.668C142.817 37.9023 142.69 38.1823 142.605 38.5078C142.521 38.8333 142.469 39.2012 142.449 39.6113V40.9688C142.482 41.4505 142.573 41.8835 142.723 42.2676C142.872 42.6452 143.104 42.9447 143.416 43.166C143.729 43.3874 144.139 43.498 144.646 43.498C145.018 43.498 145.33 43.4167 145.584 43.2539C145.838 43.0846 146.043 42.8535 146.199 42.5605C146.362 42.2676 146.476 41.929 146.541 41.5449C146.613 41.1608 146.648 40.7474 146.648 40.3047ZM163.777 41.7793C163.777 41.5254 163.738 41.2975 163.66 41.0957C163.589 40.8874 163.452 40.6986 163.25 40.5293C163.048 40.3535 162.765 40.181 162.4 40.0117C162.036 39.8424 161.564 39.6667 160.984 39.4844C160.34 39.276 159.728 39.0417 159.148 38.7812C158.576 38.5208 158.068 38.2181 157.625 37.873C157.189 37.5215 156.844 37.1146 156.59 36.6523C156.342 36.1901 156.219 35.653 156.219 35.041C156.219 34.4486 156.349 33.9115 156.609 33.4297C156.87 32.9414 157.234 32.5247 157.703 32.1797C158.172 31.8281 158.725 31.5579 159.363 31.3691C160.008 31.1803 160.714 31.0859 161.482 31.0859C162.531 31.0859 163.445 31.2747 164.227 31.6523C165.008 32.0299 165.613 32.5475 166.043 33.2051C166.479 33.8626 166.697 34.6146 166.697 35.4609H163.787C163.787 35.0443 163.699 34.6797 163.523 34.3672C163.354 34.0482 163.094 33.7975 162.742 33.6152C162.397 33.4329 161.961 33.3418 161.434 33.3418C160.926 33.3418 160.503 33.4199 160.164 33.5762C159.826 33.7259 159.572 33.931 159.402 34.1914C159.233 34.4453 159.148 34.7318 159.148 35.0508C159.148 35.2917 159.207 35.5098 159.324 35.7051C159.448 35.9004 159.63 36.0827 159.871 36.252C160.112 36.4212 160.408 36.5807 160.76 36.7305C161.111 36.8802 161.518 37.0267 161.98 37.1699C162.755 37.4043 163.436 37.668 164.021 37.9609C164.614 38.2539 165.109 38.5827 165.506 38.9473C165.903 39.3118 166.202 39.7253 166.404 40.1875C166.606 40.6497 166.707 41.1738 166.707 41.7598C166.707 42.3783 166.587 42.9316 166.346 43.4199C166.105 43.9082 165.757 44.3216 165.301 44.6602C164.845 44.9987 164.301 45.2559 163.67 45.4316C163.038 45.6074 162.332 45.6953 161.551 45.6953C160.848 45.6953 160.154 45.6042 159.471 45.4219C158.787 45.2331 158.165 44.9499 157.605 44.5723C157.052 44.1947 156.609 43.7129 156.277 43.127C155.945 42.541 155.779 41.8477 155.779 41.0469H158.719C158.719 41.4896 158.787 41.8639 158.924 42.1699C159.061 42.4759 159.253 42.7233 159.5 42.9121C159.754 43.1009 160.053 43.2376 160.398 43.3223C160.75 43.4069 161.134 43.4492 161.551 43.4492C162.059 43.4492 162.475 43.3776 162.801 43.2344C163.133 43.0911 163.377 42.8926 163.533 42.6387C163.696 42.3848 163.777 42.0983 163.777 41.7793ZM173.699 34.9336V36.9258H167.547V34.9336H173.699ZM169.07 32.3262H171.883V42.3164C171.883 42.6224 171.922 42.8568 172 43.0195C172.085 43.1823 172.208 43.2962 172.371 43.3613C172.534 43.4199 172.739 43.4492 172.986 43.4492C173.162 43.4492 173.318 43.4427 173.455 43.4297C173.598 43.4102 173.719 43.3906 173.816 43.3711L173.826 45.4414C173.585 45.5195 173.325 45.5814 173.045 45.627C172.765 45.6725 172.456 45.6953 172.117 45.6953C171.499 45.6953 170.958 45.5944 170.496 45.3926C170.04 45.1842 169.689 44.8522 169.441 44.3965C169.194 43.9408 169.07 43.3418 169.07 42.5996V32.3262ZM174.598 40.3242V40.1191C174.598 39.3444 174.708 38.6315 174.93 37.9805C175.151 37.3229 175.473 36.7533 175.896 36.2715C176.32 35.7897 176.84 35.4154 177.459 35.1484C178.077 34.875 178.787 34.7383 179.588 34.7383C180.389 34.7383 181.102 34.875 181.727 35.1484C182.352 35.4154 182.876 35.7897 183.299 36.2715C183.729 36.7533 184.054 37.3229 184.275 37.9805C184.497 38.6315 184.607 39.3444 184.607 40.1191V40.3242C184.607 41.0924 184.497 41.8053 184.275 42.4629C184.054 43.1139 183.729 43.6836 183.299 44.1719C182.876 44.6536 182.355 45.028 181.736 45.2949C181.118 45.5618 180.408 45.6953 179.607 45.6953C178.807 45.6953 178.094 45.5618 177.469 45.2949C176.85 45.028 176.326 44.6536 175.896 44.1719C175.473 43.6836 175.151 43.1139 174.93 42.4629C174.708 41.8053 174.598 41.0924 174.598 40.3242ZM177.41 40.1191V40.3242C177.41 40.7669 177.449 41.1803 177.527 41.5645C177.605 41.9486 177.729 42.2871 177.898 42.5801C178.074 42.8665 178.302 43.0911 178.582 43.2539C178.862 43.4167 179.204 43.498 179.607 43.498C179.998 43.498 180.333 43.4167 180.613 43.2539C180.893 43.0911 181.118 42.8665 181.287 42.5801C181.456 42.2871 181.58 41.9486 181.658 41.5645C181.743 41.1803 181.785 40.7669 181.785 40.3242V40.1191C181.785 39.6895 181.743 39.2858 181.658 38.9082C181.58 38.5241 181.453 38.1855 181.277 37.8926C181.108 37.5931 180.883 37.3587 180.604 37.1895C180.324 37.0202 179.985 36.9355 179.588 36.9355C179.191 36.9355 178.852 37.0202 178.572 37.1895C178.299 37.3587 178.074 37.5931 177.898 37.8926C177.729 38.1855 177.605 38.5241 177.527 38.9082C177.449 39.2858 177.41 39.6895 177.41 40.1191ZM189.148 37.2383V45.5H186.336V34.9336H188.982L189.148 37.2383ZM192.332 34.8652L192.283 37.4727C192.146 37.4531 191.98 37.4368 191.785 37.4238C191.596 37.4043 191.424 37.3945 191.268 37.3945C190.87 37.3945 190.525 37.4466 190.232 37.5508C189.946 37.6484 189.705 37.7949 189.51 37.9902C189.321 38.1855 189.178 38.4232 189.08 38.7031C188.989 38.9831 188.937 39.3021 188.924 39.6602L188.357 39.4844C188.357 38.8008 188.426 38.1725 188.562 37.5996C188.699 37.0202 188.898 36.5156 189.158 36.0859C189.425 35.6562 189.751 35.3242 190.135 35.0898C190.519 34.8555 190.958 34.7383 191.453 34.7383C191.609 34.7383 191.769 34.7513 191.932 34.7773C192.094 34.7969 192.228 34.8262 192.332 34.8652ZM198.328 45.6953C197.508 45.6953 196.772 45.5651 196.121 45.3047C195.47 45.0378 194.917 44.6699 194.461 44.2012C194.012 43.7324 193.667 43.1888 193.426 42.5703C193.185 41.9453 193.064 41.2812 193.064 40.5781V40.1875C193.064 39.3867 193.178 38.6543 193.406 37.9902C193.634 37.3262 193.96 36.75 194.383 36.2617C194.812 35.7734 195.333 35.3991 195.945 35.1387C196.557 34.8717 197.247 34.7383 198.016 34.7383C198.764 34.7383 199.428 34.862 200.008 35.1094C200.587 35.3568 201.072 35.7083 201.463 36.1641C201.86 36.6198 202.16 37.1667 202.361 37.8047C202.563 38.4362 202.664 39.1393 202.664 39.9141V41.0859H194.266V39.2109H199.9V38.9961C199.9 38.6055 199.829 38.2572 199.686 37.9512C199.549 37.6387 199.34 37.3913 199.061 37.209C198.781 37.0267 198.423 36.9355 197.986 36.9355C197.615 36.9355 197.296 37.0169 197.029 37.1797C196.762 37.3424 196.544 37.5703 196.375 37.8633C196.212 38.1562 196.089 38.5013 196.004 38.8984C195.926 39.2891 195.887 39.7188 195.887 40.1875V40.5781C195.887 41.0013 195.945 41.3919 196.062 41.75C196.186 42.1081 196.359 42.4173 196.58 42.6777C196.808 42.9382 197.081 43.14 197.4 43.2832C197.726 43.4264 198.094 43.498 198.504 43.498C199.012 43.498 199.484 43.4004 199.92 43.2051C200.363 43.0033 200.743 42.7005 201.062 42.2969L202.43 43.7812C202.208 44.1003 201.906 44.4062 201.521 44.6992C201.144 44.9922 200.688 45.2331 200.154 45.4219C199.62 45.6042 199.012 45.6953 198.328 45.6953Z" fill="white"/>
</svg>
