<svg width="235" height="78" viewBox="0 0 235 78" fill="none" xmlns="http://www.w3.org/2000/svg">
<path d="M42.9974 38.174L48.941 31.9266L29.7436 20.5853C28.4713 19.8627 27.2793 19.7613 26.2341 20.5515L42.9974 38.174ZM49.954 45.4883L56.1327 41.8354C57.3387 41.1255 58 40.1198 58 39.0043C58 37.8908 57.3387 36.8831 56.1347 36.1732L50.5409 32.8709L44.2436 39.4881L49.954 45.4883ZM25.201 22.0875C25.0724 22.5037 25 22.9685 25 23.4777V54.5457C25 55.3506 25.1688 56.0436 25.4744 56.595L41.7492 39.486L25.201 22.0875ZM42.9974 40.7959L26.813 57.8099C27.1225 57.9345 27.4562 58 27.808 58C28.4351 58 29.0883 57.8056 29.7536 57.4169L48.3561 46.4369L42.9974 40.7959Z" fill="black"/>
<rect width="140" height="48" transform="translate(70 15)" fill="white"/>
<path d="M74.9482 32H72.2764L72.2939 30.6201H74.9482C75.8623 30.6201 76.624 30.4297 77.2334 30.0488C77.8428 29.6621 78.2998 29.123 78.6045 28.4316C78.915 27.7344 79.0703 26.9199 79.0703 25.9883V25.2061C79.0703 24.4736 78.9824 23.8232 78.8066 23.2549C78.6309 22.6807 78.373 22.1973 78.0332 21.8047C77.6934 21.4062 77.2773 21.1045 76.7852 20.8994C76.2988 20.6943 75.7393 20.5918 75.1064 20.5918H72.2236V19.2031H75.1064C75.9443 19.2031 76.709 19.3438 77.4004 19.625C78.0918 19.9004 78.6865 20.3018 79.1846 20.8291C79.6885 21.3506 80.0752 21.9834 80.3447 22.7275C80.6143 23.4658 80.749 24.2979 80.749 25.2236V25.9883C80.749 26.9141 80.6143 27.749 80.3447 28.4932C80.0752 29.2314 79.6855 29.8613 79.1758 30.3828C78.6719 30.9043 78.0625 31.3057 77.3477 31.5869C76.6387 31.8623 75.8389 32 74.9482 32ZM73.1816 19.2031V32H71.4854V19.2031H73.1816ZM82.6211 27.3506V27.1484C82.6211 26.4629 82.7207 25.8271 82.9199 25.2412C83.1191 24.6494 83.4062 24.1367 83.7812 23.7031C84.1562 23.2637 84.6104 22.9238 85.1436 22.6836C85.6768 22.4375 86.2744 22.3145 86.9365 22.3145C87.6045 22.3145 88.2051 22.4375 88.7383 22.6836C89.2773 22.9238 89.7344 23.2637 90.1094 23.7031C90.4902 24.1367 90.7803 24.6494 90.9795 25.2412C91.1787 25.8271 91.2783 26.4629 91.2783 27.1484V27.3506C91.2783 28.0361 91.1787 28.6719 90.9795 29.2578C90.7803 29.8438 90.4902 30.3564 90.1094 30.7959C89.7344 31.2295 89.2803 31.5693 88.7471 31.8154C88.2197 32.0557 87.6221 32.1758 86.9541 32.1758C86.2861 32.1758 85.6855 32.0557 85.1523 31.8154C84.6191 31.5693 84.1621 31.2295 83.7812 30.7959C83.4062 30.3564 83.1191 29.8438 82.9199 29.2578C82.7207 28.6719 82.6211 28.0361 82.6211 27.3506ZM84.2471 27.1484V27.3506C84.2471 27.8252 84.3027 28.2734 84.4141 28.6953C84.5254 29.1113 84.6924 29.4805 84.915 29.8027C85.1436 30.125 85.4277 30.3799 85.7676 30.5674C86.1074 30.749 86.5029 30.8398 86.9541 30.8398C87.3994 30.8398 87.7891 30.749 88.123 30.5674C88.4629 30.3799 88.7441 30.125 88.9668 29.8027C89.1895 29.4805 89.3564 29.1113 89.4678 28.6953C89.585 28.2734 89.6436 27.8252 89.6436 27.3506V27.1484C89.6436 26.6797 89.585 26.2373 89.4678 25.8213C89.3564 25.3994 89.1865 25.0273 88.958 24.7051C88.7354 24.377 88.4541 24.1191 88.1143 23.9316C87.7803 23.7441 87.3877 23.6504 86.9365 23.6504C86.4912 23.6504 86.0986 23.7441 85.7588 23.9316C85.4248 24.1191 85.1436 24.377 84.915 24.7051C84.6924 25.0273 84.5254 25.3994 84.4141 25.8213C84.3027 26.2373 84.2471 26.6797 84.2471 27.1484ZM95.7256 30.3125L98.1689 22.4902H99.2412L99.0303 24.0459L96.543 32H95.4971L95.7256 30.3125ZM94.082 22.4902L96.165 30.4004L96.3145 32H95.2158L92.4561 22.4902H94.082ZM101.579 30.3389L103.565 22.4902H105.183L102.423 32H101.333L101.579 30.3389ZM99.4785 22.4902L101.869 30.1807L102.142 32H101.104L98.5469 24.0283L98.3359 22.4902H99.4785ZM108.479 24.5205V32H106.853V22.4902H108.391L108.479 24.5205ZM108.092 26.8848L107.415 26.8584C107.421 26.208 107.518 25.6074 107.705 25.0566C107.893 24.5 108.156 24.0166 108.496 23.6064C108.836 23.1963 109.24 22.8799 109.709 22.6572C110.184 22.4287 110.708 22.3145 111.282 22.3145C111.751 22.3145 112.173 22.3789 112.548 22.5078C112.923 22.6309 113.242 22.8301 113.506 23.1055C113.775 23.3809 113.98 23.7383 114.121 24.1777C114.262 24.6113 114.332 25.1416 114.332 25.7686V32H112.697V25.751C112.697 25.2529 112.624 24.8545 112.478 24.5557C112.331 24.251 112.117 24.0312 111.836 23.8965C111.555 23.7559 111.209 23.6855 110.799 23.6855C110.395 23.6855 110.025 23.7705 109.691 23.9404C109.363 24.1104 109.079 24.3447 108.839 24.6436C108.604 24.9424 108.42 25.2852 108.285 25.6719C108.156 26.0527 108.092 26.457 108.092 26.8848ZM118.568 18.5V32H116.934V18.5H118.568ZM120.748 27.3506V27.1484C120.748 26.4629 120.848 25.8271 121.047 25.2412C121.246 24.6494 121.533 24.1367 121.908 23.7031C122.283 23.2637 122.737 22.9238 123.271 22.6836C123.804 22.4375 124.401 22.3145 125.063 22.3145C125.731 22.3145 126.332 22.4375 126.865 22.6836C127.404 22.9238 127.861 23.2637 128.236 23.7031C128.617 24.1367 128.907 24.6494 129.106 25.2412C129.306 25.8271 129.405 26.4629 129.405 27.1484V27.3506C129.405 28.0361 129.306 28.6719 129.106 29.2578C128.907 29.8438 128.617 30.3564 128.236 30.7959C127.861 31.2295 127.407 31.5693 126.874 31.8154C126.347 32.0557 125.749 32.1758 125.081 32.1758C124.413 32.1758 123.812 32.0557 123.279 31.8154C122.746 31.5693 122.289 31.2295 121.908 30.7959C121.533 30.3564 121.246 29.8438 121.047 29.2578C120.848 28.6719 120.748 28.0361 120.748 27.3506ZM122.374 27.1484V27.3506C122.374 27.8252 122.43 28.2734 122.541 28.6953C122.652 29.1113 122.819 29.4805 123.042 29.8027C123.271 30.125 123.555 30.3799 123.895 30.5674C124.234 30.749 124.63 30.8398 125.081 30.8398C125.526 30.8398 125.916 30.749 126.25 30.5674C126.59 30.3799 126.871 30.125 127.094 29.8027C127.316 29.4805 127.483 29.1113 127.595 28.6953C127.712 28.2734 127.771 27.8252 127.771 27.3506V27.1484C127.771 26.6797 127.712 26.2373 127.595 25.8213C127.483 25.3994 127.313 25.0273 127.085 24.7051C126.862 24.377 126.581 24.1191 126.241 23.9316C125.907 23.7441 125.515 23.6504 125.063 23.6504C124.618 23.6504 124.226 23.7441 123.886 23.9316C123.552 24.1191 123.271 24.377 123.042 24.7051C122.819 25.0273 122.652 25.3994 122.541 25.8213C122.43 26.2373 122.374 26.6797 122.374 27.1484ZM137.052 30.374V25.4785C137.052 25.1035 136.976 24.7783 136.823 24.5029C136.677 24.2217 136.454 24.0049 136.155 23.8525C135.856 23.7002 135.487 23.624 135.048 23.624C134.638 23.624 134.277 23.6943 133.967 23.835C133.662 23.9756 133.422 24.1602 133.246 24.3887C133.076 24.6172 132.991 24.8633 132.991 25.127H131.365C131.365 24.7871 131.453 24.4502 131.629 24.1162C131.805 23.7822 132.057 23.4805 132.385 23.2109C132.719 22.9355 133.117 22.7188 133.58 22.5605C134.049 22.3965 134.57 22.3145 135.145 22.3145C135.836 22.3145 136.445 22.4316 136.973 22.666C137.506 22.9004 137.922 23.2549 138.221 23.7295C138.525 24.1982 138.678 24.7871 138.678 25.4961V29.9258C138.678 30.2422 138.704 30.5791 138.757 30.9365C138.815 31.2939 138.9 31.6016 139.012 31.8594V32H137.315C137.233 31.8125 137.169 31.5635 137.122 31.2529C137.075 30.9365 137.052 30.6436 137.052 30.374ZM137.333 26.2344L137.351 27.377H135.707C135.244 27.377 134.831 27.415 134.468 27.4912C134.104 27.5615 133.8 27.6699 133.554 27.8164C133.308 27.9629 133.12 28.1475 132.991 28.3701C132.862 28.5869 132.798 28.8418 132.798 29.1348C132.798 29.4336 132.865 29.7061 133 29.9521C133.135 30.1982 133.337 30.3945 133.606 30.541C133.882 30.6816 134.219 30.752 134.617 30.752C135.115 30.752 135.555 30.6465 135.936 30.4355C136.316 30.2246 136.618 29.9668 136.841 29.6621C137.069 29.3574 137.192 29.0615 137.21 28.7744L137.904 29.5566C137.863 29.8027 137.752 30.0752 137.57 30.374C137.389 30.6729 137.146 30.96 136.841 31.2354C136.542 31.5049 136.185 31.7305 135.769 31.9121C135.358 32.0879 134.896 32.1758 134.38 32.1758C133.735 32.1758 133.17 32.0498 132.684 31.7979C132.203 31.5459 131.828 31.209 131.559 30.7871C131.295 30.3594 131.163 29.8818 131.163 29.3545C131.163 28.8447 131.263 28.3965 131.462 28.0098C131.661 27.6172 131.948 27.292 132.323 27.0342C132.698 26.7705 133.149 26.5713 133.677 26.4365C134.204 26.3018 134.793 26.2344 135.443 26.2344H137.333ZM147.229 30.1543V18.5H148.864V32H147.37L147.229 30.1543ZM140.831 27.3506V27.166C140.831 26.4395 140.919 25.7803 141.095 25.1885C141.276 24.5908 141.531 24.0781 141.859 23.6504C142.193 23.2227 142.589 22.8945 143.046 22.666C143.509 22.4316 144.024 22.3145 144.593 22.3145C145.19 22.3145 145.712 22.4199 146.157 22.6309C146.608 22.8359 146.989 23.1377 147.3 23.5361C147.616 23.9287 147.865 24.4033 148.047 24.96C148.229 25.5166 148.354 26.1465 148.425 26.8496V27.6582C148.36 28.3555 148.234 28.9824 148.047 29.5391C147.865 30.0957 147.616 30.5703 147.3 30.9629C146.989 31.3555 146.608 31.6572 146.157 31.8682C145.706 32.0732 145.179 32.1758 144.575 32.1758C144.019 32.1758 143.509 32.0557 143.046 31.8154C142.589 31.5752 142.193 31.2383 141.859 30.8047C141.531 30.3711 141.276 29.8613 141.095 29.2754C140.919 28.6836 140.831 28.042 140.831 27.3506ZM142.466 27.166V27.3506C142.466 27.8252 142.513 28.2705 142.606 28.6865C142.706 29.1025 142.858 29.4688 143.063 29.7852C143.269 30.1016 143.529 30.3506 143.846 30.5322C144.162 30.708 144.54 30.7959 144.979 30.7959C145.519 30.7959 145.961 30.6816 146.307 30.4531C146.658 30.2246 146.939 29.9229 147.15 29.5479C147.361 29.1729 147.525 28.7656 147.643 28.3262V26.208C147.572 25.8857 147.47 25.5752 147.335 25.2764C147.206 24.9717 147.036 24.7021 146.825 24.4678C146.62 24.2275 146.365 24.0371 146.061 23.8965C145.762 23.7559 145.407 23.6855 144.997 23.6855C144.552 23.6855 144.168 23.7793 143.846 23.9668C143.529 24.1484 143.269 24.4004 143.063 24.7227C142.858 25.0391 142.706 25.4082 142.606 25.8301C142.513 26.2461 142.466 26.6914 142.466 27.166ZM155.43 27.3506V27.1484C155.43 26.4629 155.529 25.8271 155.729 25.2412C155.928 24.6494 156.215 24.1367 156.59 23.7031C156.965 23.2637 157.419 22.9238 157.952 22.6836C158.485 22.4375 159.083 22.3145 159.745 22.3145C160.413 22.3145 161.014 22.4375 161.547 22.6836C162.086 22.9238 162.543 23.2637 162.918 23.7031C163.299 24.1367 163.589 24.6494 163.788 25.2412C163.987 25.8271 164.087 26.4629 164.087 27.1484V27.3506C164.087 28.0361 163.987 28.6719 163.788 29.2578C163.589 29.8438 163.299 30.3564 162.918 30.7959C162.543 31.2295 162.089 31.5693 161.556 31.8154C161.028 32.0557 160.431 32.1758 159.763 32.1758C159.095 32.1758 158.494 32.0557 157.961 31.8154C157.428 31.5693 156.971 31.2295 156.59 30.7959C156.215 30.3564 155.928 29.8438 155.729 29.2578C155.529 28.6719 155.43 28.0361 155.43 27.3506ZM157.056 27.1484V27.3506C157.056 27.8252 157.111 28.2734 157.223 28.6953C157.334 29.1113 157.501 29.4805 157.724 29.8027C157.952 30.125 158.236 30.3799 158.576 30.5674C158.916 30.749 159.312 30.8398 159.763 30.8398C160.208 30.8398 160.598 30.749 160.932 30.5674C161.271 30.3799 161.553 30.125 161.775 29.8027C161.998 29.4805 162.165 29.1113 162.276 28.6953C162.394 28.2734 162.452 27.8252 162.452 27.3506V27.1484C162.452 26.6797 162.394 26.2373 162.276 25.8213C162.165 25.3994 161.995 25.0273 161.767 24.7051C161.544 24.377 161.263 24.1191 160.923 23.9316C160.589 23.7441 160.196 23.6504 159.745 23.6504C159.3 23.6504 158.907 23.7441 158.567 23.9316C158.233 24.1191 157.952 24.377 157.724 24.7051C157.501 25.0273 157.334 25.3994 157.223 25.8213C157.111 26.2373 157.056 26.6797 157.056 27.1484ZM167.752 24.5205V32H166.126V22.4902H167.664L167.752 24.5205ZM167.365 26.8848L166.688 26.8584C166.694 26.208 166.791 25.6074 166.979 25.0566C167.166 24.5 167.43 24.0166 167.77 23.6064C168.109 23.1963 168.514 22.8799 168.982 22.6572C169.457 22.4287 169.981 22.3145 170.556 22.3145C171.024 22.3145 171.446 22.3789 171.821 22.5078C172.196 22.6309 172.516 22.8301 172.779 23.1055C173.049 23.3809 173.254 23.7383 173.395 24.1777C173.535 24.6113 173.605 25.1416 173.605 25.7686V32H171.971V25.751C171.971 25.2529 171.897 24.8545 171.751 24.5557C171.604 24.251 171.391 24.0312 171.109 23.8965C170.828 23.7559 170.482 23.6855 170.072 23.6855C169.668 23.6855 169.299 23.7705 168.965 23.9404C168.637 24.1104 168.353 24.3447 168.112 24.6436C167.878 24.9424 167.693 25.2852 167.559 25.6719C167.43 26.0527 167.365 26.457 167.365 26.8848ZM184.521 22.4902V23.7383H179.38V22.4902H184.521ZM181.12 20.1787H182.746V29.6445C182.746 29.9668 182.796 30.21 182.896 30.374C182.995 30.5381 183.124 30.6465 183.282 30.6992C183.44 30.752 183.61 30.7783 183.792 30.7783C183.927 30.7783 184.067 30.7666 184.214 30.7432C184.366 30.7139 184.48 30.6904 184.557 30.6729L184.565 32C184.437 32.041 184.267 32.0791 184.056 32.1143C183.851 32.1553 183.602 32.1758 183.309 32.1758C182.91 32.1758 182.544 32.0967 182.21 31.9385C181.876 31.7803 181.609 31.5166 181.41 31.1475C181.217 30.7725 181.12 30.2686 181.12 29.6357V20.1787ZM188.055 18.5V32H186.429V18.5H188.055ZM187.668 26.8848L186.991 26.8584C186.997 26.208 187.094 25.6074 187.281 25.0566C187.469 24.5 187.732 24.0166 188.072 23.6064C188.412 23.1963 188.816 22.8799 189.285 22.6572C189.76 22.4287 190.284 22.3145 190.858 22.3145C191.327 22.3145 191.749 22.3789 192.124 22.5078C192.499 22.6309 192.818 22.8301 193.082 23.1055C193.352 23.3809 193.557 23.7383 193.697 24.1777C193.838 24.6113 193.908 25.1416 193.908 25.7686V32H192.273V25.751C192.273 25.2529 192.2 24.8545 192.054 24.5557C191.907 24.251 191.693 24.0312 191.412 23.8965C191.131 23.7559 190.785 23.6855 190.375 23.6855C189.971 23.6855 189.602 23.7705 189.268 23.9404C188.939 24.1104 188.655 24.3447 188.415 24.6436C188.181 24.9424 187.996 25.2852 187.861 25.6719C187.732 26.0527 187.668 26.457 187.668 26.8848ZM200.289 32.1758C199.627 32.1758 199.026 32.0645 198.487 31.8418C197.954 31.6133 197.494 31.2939 197.107 30.8838C196.727 30.4736 196.434 29.9873 196.229 29.4248C196.023 28.8623 195.921 28.2471 195.921 27.5791V27.21C195.921 26.4365 196.035 25.748 196.264 25.1445C196.492 24.5352 196.803 24.0195 197.195 23.5977C197.588 23.1758 198.033 22.8564 198.531 22.6396C199.029 22.4229 199.545 22.3145 200.078 22.3145C200.758 22.3145 201.344 22.4316 201.836 22.666C202.334 22.9004 202.741 23.2285 203.058 23.6504C203.374 24.0664 203.608 24.5586 203.761 25.127C203.913 25.6895 203.989 26.3047 203.989 26.9727V27.7021H196.888V26.375H202.363V26.252C202.34 25.8301 202.252 25.4199 202.1 25.0215C201.953 24.623 201.719 24.2949 201.396 24.0371C201.074 23.7793 200.635 23.6504 200.078 23.6504C199.709 23.6504 199.369 23.7295 199.059 23.8877C198.748 24.04 198.481 24.2686 198.259 24.5732C198.036 24.8779 197.863 25.25 197.74 25.6895C197.617 26.1289 197.556 26.6357 197.556 27.21V27.5791C197.556 28.0303 197.617 28.4551 197.74 28.8535C197.869 29.2461 198.054 29.5918 198.294 29.8906C198.54 30.1895 198.836 30.4238 199.182 30.5938C199.533 30.7637 199.932 30.8486 200.377 30.8486C200.951 30.8486 201.438 30.7314 201.836 30.4971C202.234 30.2627 202.583 29.9492 202.882 29.5566L203.866 30.3389C203.661 30.6494 203.4 30.9453 203.084 31.2266C202.768 31.5078 202.378 31.7363 201.915 31.9121C201.458 32.0879 200.916 32.1758 200.289 32.1758Z" fill="#181818"/>
<path d="M82.5391 50.5684V56.2031C82.3177 56.4701 81.9759 56.7598 81.5137 57.0723C81.0514 57.3783 80.4557 57.6419 79.7266 57.8633C78.9974 58.0846 78.1152 58.1953 77.0801 58.1953C76.1621 58.1953 75.3255 58.0456 74.5703 57.7461C73.8151 57.4401 73.1641 56.9941 72.6172 56.4082C72.0768 55.8223 71.6602 55.1061 71.3672 54.2598C71.0742 53.4069 70.9277 52.4336 70.9277 51.3398V50.4512C70.9277 49.3574 71.0677 48.3841 71.3477 47.5312C71.6341 46.6784 72.041 45.959 72.5684 45.373C73.0957 44.7871 73.724 44.3411 74.4531 44.0352C75.1823 43.7292 75.9928 43.5762 76.8848 43.5762C78.1217 43.5762 79.1374 43.778 79.9316 44.1816C80.7259 44.5788 81.3314 45.1322 81.748 45.8418C82.1712 46.5449 82.4316 47.3522 82.5293 48.2637H79.6875C79.6159 47.7819 79.4792 47.362 79.2773 47.0039C79.0755 46.6458 78.7858 46.3659 78.4082 46.1641C78.0371 45.9622 77.5553 45.8613 76.9629 45.8613C76.4746 45.8613 76.0384 45.9622 75.6543 46.1641C75.2767 46.3594 74.9577 46.6491 74.6973 47.0332C74.4368 47.4173 74.2383 47.8926 74.1016 48.459C73.9648 49.0254 73.8965 49.6829 73.8965 50.4316V51.3398C73.8965 52.082 73.9681 52.7396 74.1113 53.3125C74.2546 53.8789 74.4661 54.3574 74.7461 54.748C75.0326 55.1322 75.3841 55.4219 75.8008 55.6172C76.2174 55.8125 76.7025 55.9102 77.2559 55.9102C77.7181 55.9102 78.1022 55.8711 78.4082 55.793C78.7207 55.7148 78.9714 55.6204 79.1602 55.5098C79.3555 55.3926 79.5052 55.2819 79.6094 55.1777V52.6582H76.9336V50.5684H82.5391ZM84.2773 52.8242V52.6191C84.2773 51.8444 84.388 51.1315 84.6094 50.4805C84.8307 49.8229 85.153 49.2533 85.5762 48.7715C85.9993 48.2897 86.5202 47.9154 87.1387 47.6484C87.7572 47.375 88.4668 47.2383 89.2676 47.2383C90.0684 47.2383 90.7812 47.375 91.4062 47.6484C92.0312 47.9154 92.5553 48.2897 92.9785 48.7715C93.4082 49.2533 93.7337 49.8229 93.9551 50.4805C94.1764 51.1315 94.2871 51.8444 94.2871 52.6191V52.8242C94.2871 53.5924 94.1764 54.3053 93.9551 54.9629C93.7337 55.6139 93.4082 56.1836 92.9785 56.6719C92.5553 57.1536 92.0345 57.528 91.416 57.7949C90.7975 58.0618 90.0879 58.1953 89.2871 58.1953C88.4863 58.1953 87.7734 58.0618 87.1484 57.7949C86.5299 57.528 86.0059 57.1536 85.5762 56.6719C85.153 56.1836 84.8307 55.6139 84.6094 54.9629C84.388 54.3053 84.2773 53.5924 84.2773 52.8242ZM87.0898 52.6191V52.8242C87.0898 53.2669 87.1289 53.6803 87.207 54.0645C87.2852 54.4486 87.4089 54.7871 87.5781 55.0801C87.7539 55.3665 87.9818 55.5911 88.2617 55.7539C88.5417 55.9167 88.8835 55.998 89.2871 55.998C89.6777 55.998 90.013 55.9167 90.293 55.7539C90.5729 55.5911 90.7975 55.3665 90.9668 55.0801C91.1361 54.7871 91.2598 54.4486 91.3379 54.0645C91.4225 53.6803 91.4648 53.2669 91.4648 52.8242V52.6191C91.4648 52.1895 91.4225 51.7858 91.3379 51.4082C91.2598 51.0241 91.1328 50.6855 90.957 50.3926C90.7878 50.0931 90.5632 49.8587 90.2832 49.6895C90.0033 49.5202 89.6647 49.4355 89.2676 49.4355C88.8704 49.4355 88.5319 49.5202 88.252 49.6895C87.9785 49.8587 87.7539 50.0931 87.5781 50.3926C87.4089 50.6855 87.2852 51.0241 87.207 51.4082C87.1289 51.7858 87.0898 52.1895 87.0898 52.6191ZM95.5664 52.8242V52.6191C95.5664 51.8444 95.6771 51.1315 95.8984 50.4805C96.1198 49.8229 96.4421 49.2533 96.8652 48.7715C97.2884 48.2897 97.8092 47.9154 98.4277 47.6484C99.0462 47.375 99.7559 47.2383 100.557 47.2383C101.357 47.2383 102.07 47.375 102.695 47.6484C103.32 47.9154 103.844 48.2897 104.268 48.7715C104.697 49.2533 105.023 49.8229 105.244 50.4805C105.465 51.1315 105.576 51.8444 105.576 52.6191V52.8242C105.576 53.5924 105.465 54.3053 105.244 54.9629C105.023 55.6139 104.697 56.1836 104.268 56.6719C103.844 57.1536 103.324 57.528 102.705 57.7949C102.087 58.0618 101.377 58.1953 100.576 58.1953C99.7754 58.1953 99.0625 58.0618 98.4375 57.7949C97.819 57.528 97.2949 57.1536 96.8652 56.6719C96.4421 56.1836 96.1198 55.6139 95.8984 54.9629C95.6771 54.3053 95.5664 53.5924 95.5664 52.8242ZM98.3789 52.6191V52.8242C98.3789 53.2669 98.418 53.6803 98.4961 54.0645C98.5742 54.4486 98.6979 54.7871 98.8672 55.0801C99.043 55.3665 99.2708 55.5911 99.5508 55.7539C99.8307 55.9167 100.173 55.998 100.576 55.998C100.967 55.998 101.302 55.9167 101.582 55.7539C101.862 55.5911 102.087 55.3665 102.256 55.0801C102.425 54.7871 102.549 54.4486 102.627 54.0645C102.712 53.6803 102.754 53.2669 102.754 52.8242V52.6191C102.754 52.1895 102.712 51.7858 102.627 51.4082C102.549 51.0241 102.422 50.6855 102.246 50.3926C102.077 50.0931 101.852 49.8587 101.572 49.6895C101.292 49.5202 100.954 49.4355 100.557 49.4355C100.16 49.4355 99.821 49.5202 99.541 49.6895C99.2676 49.8587 99.043 50.0931 98.8672 50.3926C98.6979 50.6855 98.5742 51.0241 98.4961 51.4082C98.418 51.7858 98.3789 52.1895 98.3789 52.6191ZM113.994 47.4336H116.543V57.6484C116.543 58.612 116.328 59.429 115.898 60.0996C115.475 60.7767 114.883 61.2878 114.121 61.6328C113.359 61.9844 112.474 62.1602 111.465 62.1602C111.022 62.1602 110.553 62.1016 110.059 61.9844C109.57 61.8672 109.102 61.6849 108.652 61.4375C108.21 61.1901 107.839 60.8776 107.539 60.5L108.779 58.8398C109.105 59.2174 109.482 59.5104 109.912 59.7188C110.342 59.9336 110.817 60.041 111.338 60.041C111.846 60.041 112.275 59.9466 112.627 59.7578C112.979 59.5755 113.249 59.3053 113.438 58.9473C113.626 58.5957 113.721 58.1693 113.721 57.668V49.875L113.994 47.4336ZM106.885 52.8438V52.6387C106.885 51.8314 106.982 51.099 107.178 50.4414C107.38 49.7773 107.663 49.2077 108.027 48.7324C108.398 48.2572 108.848 47.8893 109.375 47.6289C109.902 47.3685 110.498 47.2383 111.162 47.2383C111.865 47.2383 112.454 47.3685 112.93 47.6289C113.405 47.8893 113.796 48.2604 114.102 48.7422C114.408 49.2174 114.645 49.7806 114.814 50.4316C114.99 51.0762 115.127 51.7826 115.225 52.5508V53C115.127 53.7357 114.98 54.4193 114.785 55.0508C114.59 55.6823 114.333 56.2357 114.014 56.7109C113.695 57.1797 113.298 57.5443 112.822 57.8047C112.354 58.0651 111.794 58.1953 111.143 58.1953C110.492 58.1953 109.902 58.0618 109.375 57.7949C108.854 57.528 108.408 57.1536 108.037 56.6719C107.666 56.1901 107.38 55.6237 107.178 54.9727C106.982 54.3216 106.885 53.612 106.885 52.8438ZM109.697 52.6387V52.8438C109.697 53.2799 109.74 53.6868 109.824 54.0645C109.909 54.4421 110.039 54.7773 110.215 55.0703C110.397 55.3568 110.622 55.5814 110.889 55.7441C111.162 55.9004 111.484 55.9785 111.855 55.9785C112.37 55.9785 112.79 55.8711 113.115 55.6562C113.441 55.4349 113.685 55.1322 113.848 54.748C114.01 54.3639 114.105 53.9212 114.131 53.4199V52.1406C114.118 51.7305 114.062 51.3626 113.965 51.0371C113.867 50.7051 113.73 50.4219 113.555 50.1875C113.379 49.9531 113.151 49.7708 112.871 49.6406C112.591 49.5104 112.259 49.4453 111.875 49.4453C111.504 49.4453 111.182 49.5299 110.908 49.6992C110.641 49.862 110.417 50.0866 110.234 50.373C110.059 50.6595 109.925 50.998 109.834 51.3887C109.743 51.7728 109.697 52.1895 109.697 52.6387ZM121.699 43V58H118.877V43H121.699ZM128.887 58.1953C128.066 58.1953 127.331 58.0651 126.68 57.8047C126.029 57.5378 125.475 57.1699 125.02 56.7012C124.57 56.2324 124.225 55.6888 123.984 55.0703C123.743 54.4453 123.623 53.7812 123.623 53.0781V52.6875C123.623 51.8867 123.737 51.1543 123.965 50.4902C124.193 49.8262 124.518 49.25 124.941 48.7617C125.371 48.2734 125.892 47.8991 126.504 47.6387C127.116 47.3717 127.806 47.2383 128.574 47.2383C129.323 47.2383 129.987 47.362 130.566 47.6094C131.146 47.8568 131.631 48.2083 132.021 48.6641C132.419 49.1198 132.718 49.6667 132.92 50.3047C133.122 50.9362 133.223 51.6393 133.223 52.4141V53.5859H124.824V51.7109H130.459V51.4961C130.459 51.1055 130.387 50.7572 130.244 50.4512C130.107 50.1387 129.899 49.8913 129.619 49.709C129.339 49.5267 128.981 49.4355 128.545 49.4355C128.174 49.4355 127.855 49.5169 127.588 49.6797C127.321 49.8424 127.103 50.0703 126.934 50.3633C126.771 50.6562 126.647 51.0013 126.562 51.3984C126.484 51.7891 126.445 52.2188 126.445 52.6875V53.0781C126.445 53.5013 126.504 53.8919 126.621 54.25C126.745 54.6081 126.917 54.9173 127.139 55.1777C127.367 55.4382 127.64 55.64 127.959 55.7832C128.285 55.9264 128.652 55.998 129.062 55.998C129.57 55.998 130.042 55.9004 130.479 55.7051C130.921 55.5033 131.302 55.2005 131.621 54.7969L132.988 56.2812C132.767 56.6003 132.464 56.9062 132.08 57.1992C131.702 57.4922 131.247 57.7331 130.713 57.9219C130.179 58.1042 129.57 58.1953 128.887 58.1953ZM145.518 52.9316H141.895V50.6465H145.518C146.077 50.6465 146.533 50.5553 146.885 50.373C147.236 50.1842 147.493 49.9238 147.656 49.5918C147.819 49.2598 147.9 48.8854 147.9 48.4688C147.9 48.0456 147.819 47.6517 147.656 47.2871C147.493 46.9225 147.236 46.6296 146.885 46.4082C146.533 46.1868 146.077 46.0762 145.518 46.0762H142.91V58H139.98V43.7812H145.518C146.631 43.7812 147.585 43.9831 148.379 44.3867C149.18 44.7839 149.792 45.334 150.215 46.0371C150.638 46.7402 150.85 47.5443 150.85 48.4492C150.85 49.3672 150.638 50.1615 150.215 50.832C149.792 51.5026 149.18 52.0202 148.379 52.3848C147.585 52.7493 146.631 52.9316 145.518 52.9316ZM155.664 43V58H152.842V43H155.664ZM163.691 55.6172V50.9102C163.691 50.5716 163.636 50.2819 163.525 50.041C163.415 49.7936 163.242 49.6016 163.008 49.4648C162.78 49.3281 162.484 49.2598 162.119 49.2598C161.807 49.2598 161.536 49.3151 161.309 49.4258C161.081 49.5299 160.905 49.6829 160.781 49.8848C160.658 50.0801 160.596 50.3112 160.596 50.5781H157.783C157.783 50.1289 157.887 49.7025 158.096 49.2988C158.304 48.8952 158.607 48.5404 159.004 48.2344C159.401 47.9219 159.873 47.6777 160.42 47.502C160.973 47.3262 161.592 47.2383 162.275 47.2383C163.096 47.2383 163.825 47.375 164.463 47.6484C165.101 47.9219 165.602 48.332 165.967 48.8789C166.338 49.4258 166.523 50.1094 166.523 50.9297V55.4512C166.523 56.0306 166.559 56.5059 166.631 56.877C166.702 57.2415 166.807 57.5605 166.943 57.834V58H164.102C163.965 57.7135 163.861 57.3555 163.789 56.9258C163.724 56.4896 163.691 56.0534 163.691 55.6172ZM164.062 51.5645L164.082 53.1562H162.51C162.139 53.1562 161.816 53.1986 161.543 53.2832C161.27 53.3678 161.045 53.4883 160.869 53.6445C160.693 53.7943 160.563 53.9701 160.479 54.1719C160.4 54.3737 160.361 54.5951 160.361 54.8359C160.361 55.0768 160.417 55.2949 160.527 55.4902C160.638 55.679 160.798 55.8288 161.006 55.9395C161.214 56.0436 161.458 56.0957 161.738 56.0957C162.161 56.0957 162.529 56.0111 162.842 55.8418C163.154 55.6725 163.395 55.4642 163.564 55.2168C163.74 54.9694 163.831 54.735 163.838 54.5137L164.58 55.7051C164.476 55.972 164.333 56.2487 164.15 56.5352C163.975 56.8216 163.75 57.0918 163.477 57.3457C163.203 57.5931 162.874 57.7982 162.49 57.9609C162.106 58.1172 161.65 58.1953 161.123 58.1953C160.452 58.1953 159.844 58.0618 159.297 57.7949C158.757 57.5215 158.327 57.1471 158.008 56.6719C157.695 56.1901 157.539 55.6432 157.539 55.0312C157.539 54.4779 157.643 53.9863 157.852 53.5566C158.06 53.127 158.366 52.7656 158.77 52.4727C159.18 52.1732 159.691 51.9486 160.303 51.7988C160.915 51.6426 161.624 51.5645 162.432 51.5645H164.062ZM171.67 56.8086L174.473 47.4336H177.49L173.242 59.5918C173.151 59.8587 173.027 60.1452 172.871 60.4512C172.721 60.7572 172.516 61.0469 172.256 61.3203C172.002 61.6003 171.68 61.8281 171.289 62.0039C170.905 62.1797 170.433 62.2676 169.873 62.2676C169.606 62.2676 169.388 62.2513 169.219 62.2188C169.049 62.1862 168.848 62.1406 168.613 62.082V60.0215C168.685 60.0215 168.76 60.0215 168.838 60.0215C168.916 60.028 168.991 60.0312 169.062 60.0312C169.434 60.0312 169.736 59.9889 169.971 59.9043C170.205 59.8197 170.394 59.6895 170.537 59.5137C170.68 59.3444 170.794 59.123 170.879 58.8496L171.67 56.8086ZM170.498 47.4336L172.793 55.0898L173.193 58.0684L171.279 58.2734L167.48 47.4336H170.498Z" fill="#181818"/>
<rect x="0.5" y="0.5" width="234" height="77" rx="24.5" stroke="#181818"/>
</svg>
