<svg width="570" height="435" viewBox="0 0 570 435" fill="none" xmlns="http://www.w3.org/2000/svg">
<path d="M452.513 219.104H328.898C325.299 219.104 322.381 222.023 322.381 225.624V270.484C322.381 274.085 325.299 277.004 328.898 277.004H452.513C456.112 277.004 459.03 274.085 459.03 270.484V225.624C459.03 222.023 456.112 219.104 452.513 219.104Z" fill="white"/>
<path d="M452.514 277.496H328.897C327.039 277.494 325.257 276.755 323.943 275.44C322.629 274.126 321.89 272.343 321.888 270.484V225.624C321.89 223.765 322.629 221.982 323.943 220.668C325.257 219.353 327.039 218.614 328.897 218.611H353.29C353.42 218.611 353.545 218.663 353.638 218.756C353.73 218.848 353.782 218.973 353.782 219.104C353.782 219.234 353.73 219.359 353.638 219.452C353.545 219.544 353.42 219.596 353.29 219.596H328.897C327.3 219.597 325.768 220.233 324.639 221.363C323.51 222.493 322.875 224.026 322.874 225.624V270.484C322.875 272.082 323.511 273.613 324.64 274.743C325.769 275.873 327.3 276.508 328.897 276.51H452.514C454.111 276.508 455.642 275.873 456.771 274.743C457.9 273.613 458.535 272.082 458.537 270.484V225.624C458.536 224.026 457.901 222.493 456.772 221.363C455.642 220.233 454.111 219.597 452.514 219.596H369.716C369.586 219.596 369.461 219.544 369.368 219.452C369.276 219.359 369.224 219.234 369.224 219.104C369.224 218.973 369.276 218.848 369.368 218.756C369.461 218.663 369.586 218.611 369.716 218.611H452.514C454.372 218.614 456.154 219.353 457.468 220.668C458.782 221.982 459.521 223.765 459.523 225.624V270.484C459.521 272.343 458.782 274.126 457.468 275.44C456.154 276.755 454.372 277.494 452.514 277.496Z" fill="#181818"/>
<path d="M440.987 240.95H342.743C342.613 240.95 342.487 240.898 342.395 240.806C342.303 240.713 342.251 240.588 342.251 240.458C342.251 240.327 342.303 240.202 342.395 240.11C342.487 240.017 342.613 239.965 342.743 239.965H440.987C441.118 239.965 441.243 240.017 441.335 240.11C441.427 240.202 441.479 240.327 441.479 240.458C441.479 240.588 441.427 240.713 441.335 240.806C441.243 240.898 441.118 240.95 440.987 240.95Z" fill="#181818"/>
<path d="M440.989 254.086H420.447C420.322 254.078 420.205 254.022 420.119 253.93C420.033 253.839 419.985 253.718 419.985 253.592C419.985 253.467 420.033 253.346 420.119 253.254C420.205 253.163 420.322 253.107 420.447 253.099H440.989C441.115 253.107 441.232 253.163 441.318 253.254C441.404 253.346 441.451 253.467 441.451 253.592C441.451 253.718 441.404 253.839 441.318 253.93C441.232 254.022 441.115 254.078 440.989 254.086Z" fill="#181818"/>
<path d="M407.316 254.086H342.742C342.617 254.078 342.5 254.022 342.414 253.93C342.328 253.839 342.28 253.718 342.28 253.592C342.28 253.467 342.328 253.346 342.414 253.254C342.5 253.163 342.617 253.107 342.742 253.099H407.316C407.441 253.107 407.559 253.163 407.645 253.254C407.73 253.346 407.778 253.467 407.778 253.592C407.778 253.718 407.73 253.839 407.645 253.93C407.559 254.022 407.441 254.078 407.316 254.086Z" fill="#181818"/>
<path d="M144.279 412.641L151.784 413.19L291.108 412.641C297.436 412.641 301.918 407.527 301.116 401.215L264.964 115.464C264.166 109.153 258.389 104.039 252.061 104.039L112.604 102.412C96.5942 102.412 94.4218 109.157 95.2203 115.468L131.376 401.217C132.174 407.527 137.951 412.641 144.279 412.641Z" fill="#181818"/>
<path d="M153.115 412.641H299.951C306.278 412.641 310.761 407.51 309.958 401.18L273.807 114.509C273.008 108.179 267.231 103.038 260.904 103.038H114.068C107.741 103.038 103.258 108.169 104.061 114.509L140.212 401.18C141.01 407.51 146.788 412.641 153.115 412.641Z" fill="white"/>
<path d="M299.95 413.133H153.115C146.558 413.133 140.551 407.798 139.724 401.245L103.568 114.58C103.151 111.358 104.044 108.323 106.049 106.056C108.055 103.788 110.882 102.562 114.067 102.562H260.903C267.46 102.562 273.469 107.897 274.294 114.451L310.45 401.111C310.856 404.334 309.976 407.368 307.969 409.636C305.961 411.903 303.136 413.133 299.95 413.133ZM114.067 103.549C111.17 103.549 108.582 104.671 106.787 106.706C104.992 108.742 104.175 111.52 104.546 114.457L140.708 401.117C141.475 407.199 147.043 412.149 153.121 412.149H299.957C302.857 412.149 305.442 411.027 307.237 408.991C309.032 406.955 309.849 404.177 309.478 401.24L273.316 114.58C272.549 108.498 266.981 103.549 260.903 103.549H114.067Z" fill="#181818"/>
<path d="M301.593 401.574L267.072 127.858C266.967 127.136 266.61 126.475 266.065 125.991C265.52 125.507 264.821 125.232 264.093 125.213H116.469C116.134 125.206 115.802 125.273 115.496 125.408C115.19 125.544 114.917 125.744 114.697 125.996C114.477 126.248 114.314 126.546 114.221 126.867C114.128 127.189 114.106 127.527 114.157 127.858L148.68 401.572C148.784 402.294 149.14 402.956 149.685 403.44C150.229 403.925 150.928 404.201 151.657 404.221H299.283C299.618 404.229 299.951 404.164 300.258 404.029C300.565 403.894 300.839 403.693 301.06 403.44C301.28 403.187 301.442 402.889 301.535 402.567C301.627 402.244 301.647 401.905 301.593 401.574Z" fill="white"/>
<path d="M299.283 404.713H151.658C150.81 404.69 149.998 404.369 149.364 403.807C148.73 403.244 148.314 402.475 148.191 401.637L113.67 127.922C113.608 127.522 113.635 127.114 113.749 126.725C113.862 126.337 114.059 125.978 114.326 125.673C114.593 125.369 114.923 125.127 115.293 124.964C115.664 124.801 116.065 124.721 116.47 124.729H264.093C264.941 124.752 265.753 125.073 266.388 125.636C267.022 126.2 267.437 126.968 267.56 127.808L302.075 401.509C302.133 401.913 302.104 402.324 301.989 402.715C301.874 403.106 301.677 403.468 301.41 403.776C301.143 404.076 300.816 404.315 300.449 404.476C300.082 404.638 299.684 404.719 299.283 404.713ZM116.47 125.707C116.207 125.701 115.947 125.751 115.706 125.855C115.464 125.959 115.249 126.113 115.073 126.308C114.901 126.513 114.775 126.752 114.703 127.009C114.631 127.266 114.615 127.535 114.656 127.799L149.168 401.509C149.256 402.112 149.554 402.665 150.01 403.07C150.465 403.475 151.049 403.706 151.658 403.722H299.283C299.546 403.728 299.806 403.678 300.047 403.574C300.288 403.471 300.504 403.316 300.68 403.122C300.852 402.918 300.979 402.679 301.051 402.422C301.123 402.165 301.139 401.896 301.097 401.632L266.583 127.922C266.495 127.319 266.197 126.766 265.742 126.361C265.286 125.956 264.703 125.724 264.093 125.707H116.47Z" fill="#181818"/>
<path d="M192.115 116.466C193.638 114.843 193.38 112.125 191.539 110.396C189.698 108.667 186.971 108.582 185.448 110.205C183.924 111.828 184.182 114.546 186.023 116.275C187.864 118.004 190.591 118.09 192.115 116.466Z" fill="white"/>
<path d="M199.677 403.918C202.27 393.742 204.263 384.827 205.056 378.954C205.082 378.752 205.169 378.563 205.306 378.412C205.443 378.261 205.623 378.156 205.822 378.111C206.02 378.065 206.228 378.082 206.417 378.158C206.605 378.234 206.766 378.366 206.878 378.537C209.617 382.696 215.394 393.279 221.522 403.918H276.397C270.707 385.422 262.808 367.68 252.872 351.076L247.374 341.898C245.377 338.561 244.35 334.733 244.409 330.844L244.618 317.512C244.621 317.199 244.556 316.889 244.426 316.603C244.297 316.318 244.107 316.065 243.87 315.86C243.633 315.656 243.354 315.506 243.053 315.421C242.751 315.336 242.435 315.318 242.126 315.368C222.885 318.329 203.242 317.322 184.403 312.41L178.295 310.629C178.021 310.549 177.733 310.524 177.45 310.557C177.166 310.589 176.892 310.678 176.643 310.817C176.394 310.957 176.175 311.145 176 311.37C175.824 311.595 175.695 311.853 175.62 312.128C174.671 315.603 172.634 322.484 170.472 326.059C166.184 333.151 160.204 345.526 159.79 359.919C159.514 369.468 158.747 386.046 157.34 403.929L199.677 403.918Z" fill="#181818"/>
<path d="M103.065 351.403C107.652 348.794 109.484 346.698 111.181 342.378C111.181 342.378 120.649 312.356 128.048 293.517C131.008 285.979 137.638 271.859 144.383 257.926L168.325 271.298C168.576 271.438 168.818 271.596 169.046 271.771C157.298 291.425 135.722 327.461 133.423 330.783C133.423 330.783 121.675 348.16 122.248 357.179C122.609 362.877 120.39 373.391 111.978 379.288C110.22 380.52 107.927 378.631 108.805 376.67L108.849 376.576C110.16 373.806 112.489 370.306 112.489 370.306C112.489 370.306 107.902 370.35 103.088 374.14C98.2742 377.93 88.0772 384.727 85.9611 382.441C82.3314 378.522 84.4934 361.959 103.065 351.403Z" fill="white"/>
<path d="M87.2562 383.363C86.5537 383.363 85.9845 383.182 85.5988 382.765C84.179 381.23 83.6641 378.176 84.2186 374.584C84.7378 371.23 87.6128 359.611 102.822 350.967C107.269 348.439 109.041 346.47 110.723 342.188C110.807 341.921 120.27 311.968 127.59 293.329C130.131 286.864 135.633 274.868 143.939 257.703C143.968 257.642 144.01 257.589 144.061 257.545C144.112 257.501 144.171 257.468 144.235 257.448C144.299 257.428 144.366 257.42 144.433 257.427C144.5 257.434 144.564 257.455 144.623 257.488L168.565 270.857C168.835 271.01 169.095 271.181 169.343 271.368C169.44 271.441 169.507 271.548 169.531 271.667C169.554 271.787 169.532 271.911 169.47 272.015C157.14 292.654 136.121 327.759 133.828 331.065C133.713 331.232 122.182 348.4 122.736 357.137C123.057 362.17 121.277 373.36 112.26 379.678C111.788 380.003 111.224 380.165 110.652 380.141C110.08 380.116 109.531 379.905 109.09 379.541C108.648 379.176 108.337 378.678 108.204 378.121C108.071 377.563 108.123 376.978 108.353 376.453L108.401 376.353C109.338 374.471 110.382 372.645 111.528 370.882C108.55 371.37 105.749 372.621 103.397 374.513C103.264 374.626 92.1119 383.363 87.2562 383.363ZM103.31 351.825C88.4842 360.249 85.6947 371.491 85.1922 374.734C84.6898 377.978 85.1234 380.8 86.3222 382.095C87.8025 383.697 96.0293 379.069 102.793 373.752C107.675 369.9 112.301 369.812 112.495 369.812C112.585 369.811 112.674 369.834 112.751 369.879C112.829 369.924 112.892 369.99 112.935 370.069C112.978 370.148 112.999 370.237 112.995 370.326C112.991 370.416 112.962 370.503 112.912 370.578C112.889 370.613 110.586 374.08 109.306 376.785L109.268 376.868C109.126 377.196 109.095 377.561 109.178 377.909C109.262 378.256 109.456 378.567 109.731 378.794C110.007 379.022 110.349 379.153 110.706 379.169C111.062 379.185 111.415 379.085 111.709 378.883C120.37 372.816 122.075 362.053 121.769 357.212C121.191 348.129 132.545 331.226 133.027 330.514C135.283 327.25 156.046 292.587 168.398 271.917C168.298 271.852 168.19 271.79 168.096 271.734L144.608 258.618C136.44 275.513 131.028 287.312 128.517 293.705C121.22 312.31 111.757 342.232 111.664 342.532C109.881 347.036 107.934 349.203 103.31 351.833V351.825Z" fill="#181818"/>
<path d="M289.812 238.941C289.932 238.629 290.031 238.308 290.105 237.982L301.637 250.607C302.297 251.328 303.136 251.861 304.069 252.153C305.001 252.444 305.994 252.483 306.947 252.267C307.9 252.05 308.779 251.585 309.494 250.919C310.209 250.252 310.735 249.409 311.019 248.473L314.429 237.179C316.324 230.907 317.32 224.399 317.388 217.848L317.467 210.11C317.524 207.54 316.562 205.051 314.792 203.187C313.316 201.676 312.206 199.846 311.546 197.839C310.886 195.832 310.693 193.7 310.983 191.607L311.802 185.289C311.946 184.303 311.817 181.093 314.536 181.744C316.593 182.232 316.564 183.934 317.348 191.914C317.734 195.845 320.267 197.647 322.944 199.297C322.832 198.64 322.792 197.972 322.825 197.305C322.975 193.864 324.862 190.735 327.731 188.831C331.275 186.478 337.183 183.375 340.684 187.308C343.134 190.059 344.065 196.246 339.794 202.301C339.491 202.73 330.166 213.837 330.166 213.837C329.085 215.286 328.557 217.073 328.677 218.876L329.732 234.615C330.451 245.35 329.705 256.132 327.514 266.665L324.841 279.522C324.681 280.296 324.353 281.026 323.882 281.661C323.411 282.296 322.807 282.82 322.112 283.198C321.417 283.575 320.649 283.796 319.86 283.846C319.071 283.895 318.281 283.772 317.544 283.485L306.803 279.313C297.508 275.704 288.724 270.893 280.676 265.005L279.842 264.379L289.812 238.941Z" fill="white"/>
<path d="M319.527 284.339C318.793 284.34 318.065 284.202 317.381 283.935L306.638 279.763C297.301 276.137 288.477 271.305 280.392 265.39L279.558 264.777C279.471 264.713 279.407 264.621 279.377 264.517C279.347 264.412 279.352 264.301 279.391 264.199L289.353 238.753C289.466 238.463 289.557 238.166 289.626 237.863C289.646 237.775 289.691 237.695 289.753 237.631C289.816 237.567 289.895 237.521 289.982 237.498C290.068 237.475 290.16 237.477 290.246 237.502C290.332 237.527 290.409 237.575 290.47 237.641L301.999 250.267C302.601 250.923 303.365 251.409 304.215 251.675C305.065 251.94 305.97 251.976 306.838 251.779C307.706 251.581 308.506 251.158 309.158 250.551C309.809 249.944 310.289 249.175 310.547 248.323L313.958 237.034C315.838 230.809 316.827 224.349 316.896 217.846L316.975 210.107C317.023 207.668 316.112 205.307 314.438 203.533C312.904 201.971 311.751 200.077 311.067 197.997C310.383 195.917 310.186 193.708 310.493 191.54L311.312 185.228C311.329 185.103 311.342 184.951 311.356 184.778C311.438 183.848 311.565 182.29 312.588 181.551C313.128 181.161 313.82 181.063 314.646 181.259C316.869 181.785 317.033 183.506 317.648 189.909L317.836 191.861C318.157 195.123 320.008 196.815 322.337 198.327C322.318 197.987 322.316 197.635 322.337 197.284C322.489 193.763 324.405 190.449 327.464 188.42C333.668 184.3 338.24 183.816 341.057 186.98C343.801 190.065 344.434 196.575 340.202 202.584C339.896 203.018 331.502 213.013 330.547 214.154C329.547 215.504 329.06 217.166 329.173 218.843L330.228 234.582C330.95 245.361 330.201 256.188 328.002 266.765L325.327 279.622C325.049 280.956 324.32 282.153 323.264 283.014C322.207 283.874 320.887 284.344 319.525 284.346L319.527 284.339ZM280.446 264.206L280.98 264.596C288.995 270.458 297.741 275.248 306.997 278.844L317.738 283.015C318.407 283.275 319.125 283.386 319.841 283.34C320.557 283.294 321.255 283.093 321.885 282.75C322.516 282.407 323.064 281.931 323.492 281.355C323.92 280.779 324.217 280.116 324.364 279.413L327.038 266.556C329.221 256.069 329.964 245.333 329.246 234.644L328.191 218.905C328.065 216.984 328.627 215.081 329.776 213.536C333.529 209.077 339.158 202.353 339.399 202.01C343.34 196.425 342.817 190.432 340.323 187.631C337.884 184.891 333.741 185.433 328.01 189.237C325.214 191.094 323.463 194.116 323.323 197.324C323.293 197.952 323.33 198.581 323.434 199.201C323.451 199.294 323.44 199.391 323.403 199.479C323.367 199.566 323.305 199.642 323.227 199.695C323.148 199.749 323.056 199.779 322.961 199.781C322.866 199.783 322.772 199.758 322.692 199.708C319.85 197.962 317.271 196.054 316.854 191.953L316.668 190.013C316.058 183.647 315.914 182.58 314.423 182.227C313.879 182.098 313.468 182.142 313.172 182.358C312.52 182.832 312.411 184.108 312.338 184.861C312.321 185.057 312.307 185.231 312.288 185.362L311.469 191.671C311.183 193.691 311.366 195.749 312.003 197.687C312.64 199.624 313.714 201.389 315.142 202.845C316.962 204.709 317.988 207.36 317.961 210.118L317.88 217.856C317.812 224.453 316.809 231.007 314.9 237.322L311.498 248.623C311.189 249.641 310.616 250.56 309.837 251.285C309.059 252.011 308.102 252.517 307.065 252.753C306.028 252.989 304.946 252.947 303.931 252.63C302.915 252.313 302.001 251.733 301.282 250.949L290.341 238.968C290.322 239.022 290.301 239.076 290.28 239.129L280.446 264.206Z" fill="#181818"/>
<path d="M337.798 221.414C333.172 224.36 326.613 222.338 323.181 216.913L280.632 149.733L297.311 139.117L339.935 206.418C343.34 211.797 342.385 218.496 337.798 221.414Z" fill="#181818"/>
<path d="M333.049 223.261C332.277 223.259 331.508 223.172 330.755 223.002C327.568 222.289 324.655 220.165 322.764 217.178L280.214 149.998C280.18 149.944 280.156 149.883 280.145 149.819C280.134 149.755 280.135 149.69 280.15 149.627C280.164 149.564 280.19 149.504 280.227 149.451C280.265 149.398 280.312 149.353 280.367 149.318L297.045 138.702C297.1 138.667 297.161 138.643 297.225 138.632C297.288 138.621 297.354 138.623 297.417 138.637C297.48 138.651 297.54 138.678 297.593 138.715C297.645 138.752 297.69 138.799 297.725 138.854L340.352 206.155C343.896 211.743 342.854 218.776 338.058 221.83C336.559 222.775 334.821 223.272 333.049 223.261ZM281.311 149.886L323.596 216.651C325.349 219.419 328.037 221.383 330.97 222.04C333.322 222.566 335.653 222.197 337.533 220.997C341.876 218.234 342.768 211.82 339.522 206.679L297.16 139.799L281.311 149.886Z" fill="#181818"/>
<path d="M343.285 95.1261L293.587 120.458L273.381 135.992L264.701 147.112L264.641 147.201C262.973 149.101 263.023 154.063 264.837 159.374C266.632 164.63 269.649 168.53 272.117 169.102L272.036 169.129L285.024 172.527L310.307 172.276L365.529 161.37L429.002 182.296L429.46 182.378C413.493 176.921 394.681 151.734 383.273 118.368C371.879 85.0394 371.343 53.7092 380.625 39.6846H380.613L343.759 94.4253L343.285 95.1261Z" fill="white"/>
<path d="M440.431 182.702C457.778 176.75 460.335 138.363 446.143 96.9626C431.95 55.5621 406.382 26.8253 389.035 32.7772C371.688 38.7292 369.131 77.116 383.324 118.516C397.516 159.917 423.084 188.654 440.431 182.702Z" fill="white"/>
<path d="M435.638 183.975C428.012 183.975 419.189 178.675 410.247 168.599C399.421 156.395 389.676 138.612 382.808 118.522C372.405 88.0951 370.716 58.2312 378.487 42.4399C381.082 37.1671 384.599 33.7507 388.94 32.2844C395.735 29.99 403.89 32.7265 412.524 40.1998C420.884 47.4374 429.067 58.5315 436.191 72.285C436.251 72.4012 436.262 72.5365 436.223 72.661C436.183 72.7856 436.095 72.8893 435.979 72.9494C435.863 73.0094 435.728 73.0208 435.604 72.9811C435.479 72.9414 435.375 72.8538 435.315 72.7376C420.794 44.6988 402.283 28.8178 389.257 33.2188C385.173 34.5975 381.845 37.8471 379.371 42.8758C371.703 58.4439 373.418 88.0117 383.749 118.203C396.587 155.757 418.855 182.989 435.638 182.989C437.197 182.996 438.747 182.747 440.225 182.252C444.309 180.872 447.635 177.622 450.111 172.595C457.78 157.027 456.064 127.458 445.733 97.2662C443.603 91.021 441.141 84.894 438.357 78.9115C438.31 78.7941 438.309 78.6631 438.356 78.5453C438.402 78.4276 438.492 78.3322 438.607 78.2787C438.721 78.2252 438.852 78.2178 438.972 78.2579C439.092 78.298 439.192 78.3826 439.252 78.4943C442.049 84.5075 444.524 90.6658 446.665 96.9429C457.069 127.37 458.757 157.236 450.987 173.027C448.391 178.298 444.874 181.714 440.532 183.181C438.955 183.711 437.302 183.979 435.638 183.975Z" fill="#181818"/>
<path d="M433.211 175.173C426.452 175.173 418.638 170.482 410.726 161.564C401.153 150.774 392.536 135.05 386.463 117.287C377.264 90.381 375.765 63.9711 382.645 50.0007C384.939 45.3286 388.066 42.298 391.919 40.9965C402.222 37.5175 416.209 47.4895 428.429 67.0247C428.47 67.0794 428.499 67.142 428.515 67.2087C428.531 67.2754 428.533 67.3446 428.52 67.412C428.508 67.4794 428.482 67.5434 428.443 67.6001C428.405 67.6568 428.355 67.7049 428.297 67.7413C428.239 67.7777 428.174 67.8017 428.106 67.8117C428.039 67.8217 427.969 67.8174 427.903 67.7993C427.837 67.7811 427.776 67.7494 427.723 67.7062C427.67 67.663 427.626 67.6092 427.595 67.5482C415.63 48.4218 402.078 38.6042 392.236 41.9247C388.641 43.1386 385.712 46.0003 383.529 50.4304C376.76 64.1776 378.278 90.2913 387.395 116.966C398.734 150.13 418.39 174.185 433.197 174.187C434.569 174.192 435.932 173.973 437.233 173.536C450.895 168.922 454.147 140.418 444.797 107.234C444.779 107.172 444.774 107.106 444.782 107.042C444.79 106.978 444.81 106.916 444.841 106.859C444.873 106.803 444.915 106.753 444.966 106.713C445.017 106.673 445.075 106.643 445.138 106.626C445.2 106.608 445.265 106.603 445.329 106.611C445.394 106.619 445.456 106.639 445.512 106.671C445.569 106.702 445.618 106.745 445.658 106.796C445.698 106.846 445.728 106.905 445.745 106.967C450.299 123.132 452.029 138.852 450.614 151.233C449.171 163.858 444.53 172.111 437.55 174.47C436.152 174.941 434.686 175.178 433.211 175.173Z" fill="#181818"/>
<path d="M412.555 108.521C415.835 118.116 415.23 126.984 411.209 128.336C407.187 129.687 401.266 123.023 397.986 113.435C394.707 103.847 395.314 94.9699 399.335 93.6204C403.357 92.2709 409.278 98.9329 412.555 108.521Z" fill="white"/>
<path d="M410.115 129.013C405.914 129.013 400.621 122.673 397.521 113.602C395.081 106.466 394.696 99.4372 396.539 95.6953C397.185 94.3813 398.073 93.5262 399.176 93.1528C403.525 91.6928 409.6 98.3672 413.021 108.36C415.461 115.498 415.846 122.527 414.003 126.268C413.357 127.582 412.469 128.438 411.364 128.811C410.961 128.946 410.54 129.014 410.115 129.013ZM400.429 93.9371C400.111 93.9348 399.794 93.9856 399.493 94.0872C398.646 94.373 397.95 95.0592 397.423 96.1313C395.688 99.6499 396.092 106.383 398.452 113.282C401.58 122.443 407.357 129.124 411.049 127.883C411.896 127.597 412.592 126.909 413.119 125.839C414.852 122.32 414.449 115.587 412.089 108.685C409.21 100.263 404.107 93.9371 400.429 93.9371Z" fill="#181818"/>
<path d="M429.458 182.868C429.429 182.871 429.399 182.871 429.37 182.868L428.912 182.786C428.889 182.782 428.867 182.776 428.845 182.768L365.497 161.879L310.413 172.76C310.383 172.763 310.352 172.763 310.321 172.76L285.039 173.01C284.995 173.01 284.952 173.004 284.909 172.994L271.921 169.598C271.848 169.579 271.781 169.543 271.725 169.494C269.073 168.659 266.156 164.717 264.382 159.528C262.506 154.053 262.462 148.985 264.261 146.892L264.305 146.828L273.003 135.682C273.028 135.649 273.058 135.619 273.09 135.594L293.297 120.057C293.322 120.04 293.347 120.024 293.374 120.009L342.96 94.736L380.203 39.3967C380.277 39.2886 380.39 39.2139 380.518 39.1888C380.646 39.1638 380.779 39.1906 380.887 39.2632C380.997 39.3364 381.074 39.4495 381.101 39.5784C381.129 39.7073 381.105 39.8418 381.035 39.9536C371.551 54.2827 372.637 85.7297 383.746 118.203C394.866 150.728 413.302 176.329 429.625 181.908C429.736 181.945 429.83 182.021 429.891 182.121C429.952 182.221 429.974 182.34 429.955 182.456C429.936 182.571 429.876 182.676 429.787 182.752C429.697 182.827 429.583 182.868 429.466 182.868H429.458ZM365.528 160.878C365.581 160.877 365.633 160.886 365.682 160.903L422.995 179.793C408.147 170.599 392.614 147.222 382.803 118.52C373.063 90.0326 371.007 62.2691 376.986 45.9355L343.694 95.4014C343.647 95.4703 343.584 95.5268 343.51 95.5662L293.851 120.875L273.73 136.347L265.047 147.481C265.047 147.497 265.024 147.512 265.011 147.529C263.467 149.291 263.59 154.203 265.303 159.209C266.984 164.121 269.89 168.078 272.227 168.614C272.304 168.629 272.376 168.664 272.436 168.716L285.089 172.024L310.261 171.776L365.436 160.878C365.467 160.875 365.498 160.875 365.528 160.878Z" fill="#181818"/>
<path d="M343.399 94.9612L380.613 39.6719H380.626C371.344 53.6944 371.869 85.0267 383.273 118.355C394.682 151.727 413.504 176.909 429.461 182.365L429.002 182.284L365.623 161.397L364.164 160.919C356.802 158.452 348.175 147.097 343.048 131.996C337.788 116.495 338.626 101.961 342.927 95.6223L343.399 94.9612Z" fill="white"/>
<path d="M429.459 182.868C429.43 182.871 429.401 182.871 429.372 182.868L428.913 182.786C428.89 182.782 428.868 182.776 428.847 182.768L365.482 161.872L364.012 161.395C356.246 158.794 347.638 147.047 342.584 132.163C336.846 115.254 338.531 101.229 342.523 95.3534L342.993 94.6818L380.205 39.3967C380.278 39.2886 380.391 39.2139 380.519 39.1888C380.647 39.1638 380.78 39.1906 380.889 39.2632C380.998 39.3364 381.075 39.4495 381.103 39.5784C381.13 39.7073 381.107 39.8418 381.037 39.9536C371.553 54.2827 372.639 85.7297 383.747 118.203C394.868 150.728 413.304 176.329 429.626 181.908C429.737 181.945 429.832 182.021 429.893 182.121C429.953 182.221 429.976 182.34 429.957 182.456C429.938 182.571 429.878 182.676 429.788 182.752C429.699 182.827 429.585 182.868 429.468 182.868H429.459ZM376.992 45.9355L343.808 95.2366L343.339 95.9082C339.359 101.761 338.141 115.988 343.522 131.84C348.48 146.44 356.84 157.945 364.327 160.454L365.786 160.93L422.996 179.793C408.148 170.599 392.616 147.222 382.805 118.52C373.069 90.0347 371.013 62.2712 376.992 45.9355Z" fill="#181818"/>
<path d="M284.325 172.835C284.283 172.836 284.241 172.83 284.2 172.819L271.912 169.607C271.84 169.587 271.772 169.551 271.716 169.502C269.064 168.668 266.147 164.726 264.373 159.537C262.497 154.061 262.453 148.993 264.252 146.903L264.296 146.836L272.994 135.69C273.034 135.639 273.083 135.597 273.14 135.565C273.196 135.533 273.258 135.512 273.322 135.505C273.386 135.497 273.451 135.502 273.514 135.519C273.576 135.536 273.634 135.566 273.685 135.606C273.736 135.645 273.779 135.695 273.81 135.751C273.842 135.808 273.863 135.87 273.87 135.934C273.878 135.998 273.873 136.063 273.856 136.125C273.839 136.188 273.809 136.246 273.769 136.297L265.049 147.481C265.049 147.498 265.026 147.512 265.013 147.529C263.468 149.291 263.591 154.203 265.305 159.209C266.985 164.121 269.892 168.078 272.229 168.614C272.306 168.629 272.378 168.664 272.437 168.716L284.45 171.868C284.567 171.897 284.67 171.968 284.738 172.068C284.806 172.167 284.835 172.288 284.819 172.408C284.804 172.528 284.745 172.638 284.654 172.717C284.563 172.796 284.446 172.839 284.325 172.837V172.835Z" fill="#181818"/>
<path d="M285.15 172.47C281.132 171.573 276.32 164.972 273.393 156.41C270.291 147.335 270.57 138.472 273.702 135.761L264.701 147.109L264.641 147.199C262.973 149.099 263.023 154.061 264.837 159.372C266.632 164.63 269.649 168.53 272.117 169.102L272.036 169.129L285.15 172.47Z" fill="#181818"/>
<path d="M285.15 172.964C285.114 172.964 285.079 172.96 285.044 172.952C284.942 172.929 284.835 172.904 284.739 172.874L271.916 169.606C271.839 169.589 271.767 169.553 271.707 169.502C269.055 168.667 266.139 164.725 264.364 159.536C262.488 154.061 262.444 148.993 264.243 146.903L264.287 146.836L272.197 136.86C272.503 136.31 272.901 135.816 273.373 135.4C273.466 135.318 273.585 135.275 273.709 135.277C273.832 135.28 273.95 135.329 274.039 135.415C274.127 135.5 274.181 135.616 274.189 135.739C274.196 135.862 274.157 135.984 274.08 136.08L272.991 137.452C271.009 141.046 271.286 148.715 273.859 156.245C276.669 164.463 281.206 170.83 284.99 171.919L285.271 171.99C285.387 172.021 285.487 172.092 285.554 172.191C285.62 172.29 285.649 172.41 285.634 172.529C285.62 172.647 285.562 172.757 285.473 172.836C285.384 172.916 285.27 172.961 285.15 172.962V172.964ZM272.433 168.72L281.566 171.047C278.354 168.323 275.147 163.055 272.929 156.566C270.786 150.296 270.202 144.051 271.138 139.794L265.05 147.48C265.05 147.497 265.027 147.512 265.015 147.528C263.47 149.291 263.593 154.203 265.307 159.209C266.987 164.121 269.893 168.077 272.23 168.613C272.304 168.633 272.373 168.67 272.431 168.72H272.433Z" fill="#181818"/>
<path d="M309.384 172.284L310.462 172.232C304.602 172.566 296.911 162.65 292.42 149.497C287.833 136.076 288.459 123.451 293.588 120.466L292.912 120.985L273.756 135.727C270.575 138.372 270.273 147.289 273.394 156.416C276.404 165.222 281.525 171.928 285.594 172.516L309.384 172.284Z" fill="white"/>
<path d="M285.604 173H285.533C281.212 172.374 276.031 165.621 272.937 156.571C269.78 147.337 270.001 138.216 273.452 135.344L292.236 120.887C292.571 120.559 292.945 120.273 293.349 120.036C293.458 119.972 293.586 119.952 293.709 119.98C293.831 120.008 293.938 120.081 294.008 120.185C294.079 120.29 294.106 120.417 294.086 120.541C294.065 120.665 293.998 120.776 293.898 120.852L292.81 121.686C288.819 125.649 288.767 137.257 292.897 149.333C297.3 162.215 304.676 171.751 310.18 171.751H310.37H310.447C310.577 171.746 310.704 171.792 310.8 171.88C310.897 171.967 310.956 172.088 310.964 172.218C310.971 172.348 310.926 172.476 310.839 172.573C310.752 172.67 310.63 172.728 310.499 172.735H310.418L309.419 172.783H309.401L285.604 173ZM290.462 123.478L274.056 136.103C270.971 138.669 270.877 147.521 273.848 156.241C276.767 164.793 281.714 171.409 285.617 172.007L306.761 171.811C301.495 169.1 295.712 160.673 291.944 149.644C288.373 139.173 287.943 128.976 290.462 123.478Z" fill="#181818"/>
<path d="M399.335 93.6201C395.314 94.9779 394.54 103.913 397.987 113.435C403.772 129.412 410.389 128.615 411.177 128.452C411.192 128.452 411.196 128.469 411.177 128.475L395.795 137.473C392.461 130.862 389.591 124.028 387.206 117.018C384.896 110.295 383.039 103.425 381.646 96.4547L399.335 93.6201Z" fill="#181818"/>
<path d="M395.802 137.98C395.756 137.981 395.709 137.974 395.665 137.96C395.6 137.941 395.54 137.909 395.488 137.866C395.437 137.823 395.394 137.77 395.364 137.709C392.018 131.079 389.138 124.223 386.748 117.192C384.43 110.451 382.566 103.562 381.169 96.5718C381.144 96.4405 381.173 96.3047 381.248 96.1943C381.286 96.1393 381.334 96.0924 381.39 96.0565C381.447 96.0207 381.51 95.9966 381.575 95.9858L399.259 93.1345C399.38 93.1169 399.504 93.1451 399.606 93.2136C399.708 93.2822 399.78 93.3861 399.81 93.5053C399.839 93.6245 399.823 93.7503 399.765 93.8584C399.707 93.9664 399.61 94.0489 399.495 94.0898C398.617 94.386 397.895 95.1118 397.349 96.2465C395.619 99.8361 396.063 106.675 398.452 113.277C404.106 128.893 410.386 128.125 411.082 127.985C411.199 127.964 411.319 127.984 411.423 128.041C411.527 128.099 411.607 128.19 411.651 128.3C411.693 128.414 411.693 128.539 411.653 128.653C411.613 128.767 411.534 128.864 411.43 128.926L396.052 137.92C395.976 137.962 395.89 137.983 395.802 137.98ZM382.236 96.8743C383.614 103.652 385.433 110.332 387.68 116.873C390 123.696 392.783 130.353 396.007 136.798L409.46 128.928C406.785 128.438 401.913 125.731 397.524 113.61C395.023 106.675 394.606 99.6901 396.461 95.8168C396.692 95.3232 396.986 94.8613 397.335 94.4423L382.236 96.8743Z" fill="#181818"/>
<path d="M328.358 203.527C330.81 203.776 334.669 203.229 338.828 200.399C343.191 197.435 343.139 190.045 340.69 187.294C337.189 183.36 331.281 186.46 327.736 188.817C324.868 190.721 322.153 194.504 322.22 197.145C322.32 201.183 323.756 203.062 328.358 203.527Z" fill="white"/>
<path d="M329.454 204.074C329.008 204.074 328.62 204.049 328.308 204.017C323.684 203.548 321.845 201.627 321.728 197.166C321.653 194.162 324.647 190.283 327.465 188.405C333.13 184.651 337.456 183.921 340.318 186.255C340.387 186.318 340.852 186.735 341.059 186.966C343.802 190.051 344.436 196.561 340.204 202.57C340.125 202.668 340.012 202.732 339.888 202.75C339.764 202.767 339.637 202.737 339.535 202.665C339.432 202.592 339.36 202.484 339.335 202.361C339.309 202.238 339.332 202.11 339.397 202.003C343.339 196.415 342.816 190.422 340.323 187.621C340.179 187.461 339.808 187.121 339.678 186.995C337.206 184.981 333.274 185.723 328.003 189.219C325.124 191.129 322.649 194.823 322.706 197.124C322.804 201.11 324.242 202.599 328.399 203.02C329.79 203.16 332.655 203.129 336.238 201.337C336.354 201.288 336.485 201.284 336.603 201.327C336.721 201.371 336.818 201.457 336.875 201.57C336.931 201.683 336.943 201.813 336.906 201.933C336.87 202.054 336.789 202.156 336.68 202.219C333.682 203.738 331.131 204.074 329.454 204.074Z" fill="#181818"/>
<path d="M289.395 232.93L284.293 227.199C275.649 217.597 264.761 210.288 252.604 205.924L244.308 202.945C244.162 202.892 244.003 202.881 243.851 202.911C243.698 202.941 243.557 203.013 243.442 203.118C243.327 203.223 243.242 203.357 243.198 203.507C243.154 203.656 243.151 203.815 243.19 203.965C245.711 213.072 238.812 221.828 229.431 224.454C201.602 232.248 189.418 206.691 189.418 206.691C188.46 205.238 187.074 204.117 185.453 203.483C183.831 202.85 182.053 202.735 180.364 203.154C170.123 205.722 157.241 214.229 139.415 250.35C138.79 251.664 138.683 253.164 139.116 254.553C139.549 255.942 140.49 257.116 141.75 257.84L167.886 272.441C170.16 273.711 170.102 276.568 169.762 279.155L161.998 321.208C161.775 322.386 161.908 323.604 162.378 324.707C162.849 325.81 163.637 326.749 164.642 327.403C171.126 331.574 190.01 307.525 230.01 320.165C243.712 324.493 261.224 317.157 263.434 307.573L258.741 280.031C259.213 277.244 263.024 275.882 265.976 275.234C267.637 274.904 269.337 274.81 271.025 274.956C272.79 275.075 274.544 274.601 276.009 273.609C277.474 272.617 278.566 271.164 279.112 269.481L290.673 239.959C291.133 238.784 291.257 237.505 291.031 236.263C290.806 235.022 290.239 233.868 289.395 232.93Z" fill="white"/>
<path d="M166.481 328.395C165.737 328.415 165.005 328.214 164.375 327.82C163.286 327.115 162.431 326.101 161.922 324.907C161.412 323.714 161.27 322.395 161.515 321.12L169.281 279.061C169.597 276.64 169.656 273.986 167.648 272.866L141.513 258.266C140.14 257.482 139.116 256.207 138.645 254.698C138.174 253.189 138.291 251.558 138.973 250.132C157.499 212.588 170.761 205.054 180.253 202.681C182.041 202.236 183.923 202.355 185.64 203.024C187.357 203.692 188.826 204.875 189.843 206.412C189.856 206.431 189.867 206.45 189.877 206.47C189.908 206.535 192.969 212.851 199.346 218.132C207.869 225.188 217.949 227.153 229.312 223.972C237.755 221.609 245.286 213.335 242.728 204.091C242.665 203.853 242.668 203.603 242.737 203.367C242.806 203.131 242.938 202.918 243.119 202.752C243.3 202.585 243.522 202.471 243.763 202.422C244.004 202.374 244.254 202.391 244.485 202.474L252.779 205.448C265.006 209.854 275.958 217.212 284.66 226.869L289.762 232.601C290.671 233.604 291.281 234.842 291.523 236.175C291.766 237.508 291.63 238.881 291.131 240.141L279.571 269.661C278.992 271.445 277.833 272.985 276.278 274.035C274.724 275.085 272.863 275.585 270.992 275.455C269.08 275.323 267.519 275.409 266.082 275.722C263.735 276.233 259.752 277.47 259.242 280.037L263.922 307.492C263.935 307.556 263.935 307.622 263.922 307.686C263.067 311.392 260.005 314.917 255.295 317.608C247.725 321.936 237.745 323.125 229.86 320.636C203.003 312.152 185.692 320.338 175.352 325.225C171.53 327.048 168.659 328.395 166.481 328.395ZM182.405 203.4C181.76 203.4 181.118 203.48 180.493 203.636C171.215 205.959 158.214 213.393 139.865 250.565C139.292 251.765 139.193 253.137 139.59 254.406C139.986 255.675 140.848 256.747 142.002 257.407L168.138 272.007C170.661 273.415 170.627 276.441 170.265 279.215L162.492 321.302C162.285 322.384 162.405 323.504 162.837 324.517C163.27 325.531 163.995 326.393 164.919 326.992C166.795 328.197 170.21 326.575 174.943 324.341C185.415 319.387 202.942 311.096 230.168 319.698C237.795 322.107 247.473 320.949 254.807 316.755C259.235 314.225 262.119 310.963 262.938 307.561L258.256 280.119C258.245 280.064 258.245 280.008 258.256 279.954C258.768 276.921 262.68 275.457 265.871 274.762C267.402 274.429 269.051 274.345 271.061 274.474C272.717 274.587 274.363 274.141 275.737 273.209C277.111 272.277 278.134 270.912 278.643 269.331L290.214 239.782C290.644 238.693 290.762 237.505 290.552 236.353C290.343 235.201 289.816 234.13 289.03 233.262L283.937 227.526C275.342 217.994 264.528 210.732 252.455 206.383L244.149 203.4C244.087 203.378 244.02 203.373 243.955 203.386C243.891 203.399 243.831 203.43 243.782 203.474C243.733 203.519 243.698 203.576 243.679 203.639C243.66 203.703 243.659 203.77 243.676 203.834C244.9 208.258 244.016 212.907 241.174 216.916C238.514 220.67 234.294 223.59 229.566 224.921C214.985 229.003 204.721 223.878 198.677 218.872C192.316 213.583 189.264 207.486 188.993 206.929C188.268 205.846 187.288 204.957 186.139 204.342C184.99 203.726 183.708 203.403 182.405 203.4Z" fill="#181818"/>
<path d="M203.215 270.732C203.111 270.733 203.01 270.701 202.926 270.641C202.842 270.581 202.779 270.496 202.746 270.398C202.713 270.3 202.711 270.195 202.741 270.096C202.772 269.997 202.832 269.91 202.914 269.848C213.591 261.674 216.868 252.459 216.899 252.367C216.942 252.243 217.032 252.142 217.149 252.085C217.267 252.027 217.402 252.019 217.526 252.062C217.65 252.104 217.751 252.194 217.808 252.312C217.866 252.429 217.874 252.565 217.831 252.688C217.698 253.076 214.441 262.264 203.513 270.626C203.428 270.694 203.323 270.731 203.215 270.732Z" fill="#181818"/>
<path d="M242.191 269.412C242.099 269.411 242.01 269.385 241.932 269.337C241.855 269.288 241.792 269.219 241.752 269.137C241.711 269.055 241.694 268.964 241.702 268.873C241.711 268.782 241.744 268.695 241.799 268.621C249.892 257.878 250.58 248.121 250.584 248.022C250.588 247.958 250.605 247.895 250.633 247.836C250.662 247.778 250.701 247.726 250.75 247.683C250.798 247.64 250.855 247.607 250.916 247.586C250.977 247.565 251.042 247.557 251.107 247.56C251.171 247.564 251.234 247.581 251.293 247.61C251.351 247.638 251.403 247.678 251.446 247.726C251.488 247.775 251.521 247.831 251.542 247.892C251.563 247.954 251.572 248.018 251.568 248.083C251.543 248.5 250.87 258.218 242.585 269.216C242.539 269.277 242.479 269.326 242.411 269.36C242.342 269.394 242.267 269.412 242.191 269.412Z" fill="#181818"/>
<path d="M238.646 140.95C238.646 165.287 222.474 193.059 198.148 193.059C173.822 193.059 149.062 172.091 149.062 147.754C149.062 123.417 169.529 99.9902 193.855 99.9902C218.181 99.9902 238.646 116.614 238.646 140.95Z" fill="#181818"/>
<path d="M157.609 164.96C159.625 163.028 159.694 159.828 157.764 157.811C155.834 155.794 152.635 155.725 150.619 157.656C148.603 159.588 148.534 162.788 150.464 164.805C152.394 166.822 155.594 166.891 157.609 164.96Z" fill="#181818"/>
<path d="M163.006 178.511C167.191 177.836 170.037 173.894 169.362 169.707C168.688 165.52 164.747 162.673 160.562 163.348C156.376 164.023 153.531 167.965 154.205 172.152C154.88 176.339 158.82 179.187 163.006 178.511Z" fill="#181818"/>
<path d="M171.414 188.132C176.496 188.132 180.615 184.011 180.615 178.928C180.615 173.844 176.496 169.723 171.414 169.723C166.333 169.723 162.214 173.844 162.214 178.928C162.214 184.011 166.333 188.132 171.414 188.132Z" fill="#181818"/>
<path d="M185.465 194.502C191.232 194.502 195.906 189.825 195.906 184.056C195.906 178.287 191.232 173.611 185.465 173.611C179.699 173.611 175.024 178.287 175.024 184.056C175.024 189.825 179.699 194.502 185.465 194.502Z" fill="#181818"/>
<path d="M206.843 193.54C212.08 189.927 213.398 182.751 209.787 177.512C206.175 172.272 199.002 170.954 193.765 174.567C188.528 178.18 187.21 185.356 190.821 190.596C194.433 195.835 201.606 197.154 206.843 193.54Z" fill="#181818"/>
<path d="M158.475 152.125C163.031 149.642 164.713 143.934 162.231 139.376C159.749 134.818 154.043 133.136 149.487 135.619C144.931 138.102 143.249 143.81 145.731 148.368C148.213 152.926 153.919 154.608 158.475 152.125Z" fill="#181818"/>
<path d="M159.266 142.953C164.901 142.953 169.469 138.382 169.469 132.745C169.469 127.107 164.901 122.537 159.266 122.537C153.631 122.537 149.062 127.107 149.062 132.745C149.062 138.382 153.631 142.953 159.266 142.953Z" fill="#181818"/>
<path d="M157.03 159.087C159.779 157.409 160.647 153.819 158.969 151.068C157.291 148.318 153.703 147.45 150.954 149.128C148.205 150.807 147.337 154.397 149.015 157.147C150.693 159.898 154.281 160.766 157.03 159.087Z" fill="#181818"/>
<path d="M238.6 148.29C241.865 145.392 242.164 140.394 239.267 137.127C236.37 133.861 231.375 133.562 228.109 136.46C224.844 139.359 224.546 144.356 227.443 147.623C230.34 150.889 235.335 151.188 238.6 148.29Z" fill="#181818"/>
<path d="M238.758 138.981C242.493 136.254 243.31 131.013 240.584 127.277C237.857 123.54 232.619 122.723 228.885 125.45C225.15 128.178 224.332 133.418 227.059 137.155C229.785 140.891 235.023 141.709 238.758 138.981Z" fill="#181818"/>
<path d="M236.486 124.749C237.888 120.06 235.226 115.121 230.539 113.718C225.852 112.315 220.915 114.978 219.512 119.667C218.11 124.356 220.772 129.295 225.459 130.698C230.146 132.102 235.083 129.438 236.486 124.749Z" fill="#181818"/>
<path d="M223.628 119.443C228.089 118.383 230.846 113.906 229.787 109.443C228.727 104.98 224.252 102.222 219.791 103.282C215.33 104.341 212.573 108.819 213.632 113.281C214.692 117.744 219.167 120.503 223.628 119.443Z" fill="#181818"/>
<path d="M215.204 109.694C217.425 107.472 217.425 103.87 215.204 101.647C212.983 99.4254 209.381 99.4254 207.16 101.647C204.939 103.87 204.939 107.472 207.16 109.694C209.381 111.916 212.983 111.916 215.204 109.694Z" fill="#181818"/>
<path d="M207.872 106.008C209.093 102.232 207.024 98.1808 203.25 96.9591C199.476 95.7374 195.426 97.8078 194.205 101.583C192.984 105.359 195.054 109.41 198.828 110.632C202.602 111.854 206.651 109.783 207.872 106.008Z" fill="#181818"/>
<path d="M189.554 117.869C194.921 117.869 199.272 113.517 199.272 108.147C199.272 102.778 194.921 98.4258 189.554 98.4258C184.188 98.4258 179.837 102.778 179.837 108.147C179.837 113.517 184.188 117.869 189.554 117.869Z" fill="#181818"/>
<path d="M186.184 111.96C188.004 107.522 185.883 102.449 181.447 100.629C177.011 98.8087 171.94 100.931 170.12 105.369C168.301 109.807 170.422 114.88 174.858 116.7C179.294 118.52 184.365 116.398 186.184 111.96Z" fill="#181818"/>
<path d="M169.47 122.787C174.684 122.787 178.912 118.558 178.912 113.341C178.912 108.124 174.684 103.895 169.47 103.895C164.255 103.895 160.027 108.124 160.027 113.341C160.027 118.558 164.255 122.787 169.47 122.787Z" fill="#181818"/>
<path d="M162.447 124.252C164.288 121.224 163.328 117.276 160.301 115.433C157.274 113.591 153.328 114.552 151.486 117.58C149.644 120.608 150.605 124.556 153.632 126.399C156.658 128.241 160.605 127.28 162.447 124.252Z" fill="#181818"/>
<path d="M243.219 204.073L238.341 202.736C230.56 201.382 232.149 181.361 232.712 176.118L239.529 173.502C240.245 173.058 240.823 172.423 241.199 171.67C241.576 170.916 241.735 170.072 241.66 169.233L240.978 161.38L241.553 156.747C235.428 154.453 230.794 146.417 230.794 146.417L217.471 149.118C210.852 151.814 216.087 154.597 219.139 161.069C219.139 161.069 220.238 166.655 214.999 163.226C210.239 160.112 209.122 160.431 207.879 162.427C206.91 163.987 207.652 167.224 208.561 168.82L208.8 169.237C209.252 170.03 209.869 170.717 210.61 171.252C211.35 171.786 212.196 172.155 213.091 172.334H213.112C213.91 190.764 201.672 202.229 189.359 204.964C189.047 205.033 188.734 205.097 188.419 205.156L188.186 205.202C188.657 205.643 189.077 206.137 189.436 206.674C189.436 206.674 201.62 232.231 229.449 224.436C238.77 221.829 245.648 213.138 243.219 204.073Z" fill="white"/>
<path d="M219.268 226.404C210.033 226.404 203.184 222.606 198.679 218.868C192.316 213.583 189.263 207.486 188.992 206.929C188.661 206.434 188.275 205.977 187.844 205.567C187.779 205.505 187.733 205.426 187.71 205.339C187.687 205.253 187.688 205.161 187.713 205.075C187.739 204.989 187.787 204.912 187.854 204.851C187.92 204.791 188.002 204.75 188.09 204.733L188.323 204.687C188.634 204.628 188.949 204.564 189.249 204.497C200.978 201.886 213.241 190.848 212.634 172.739C211.743 172.51 210.906 172.104 210.174 171.545C209.442 170.986 208.83 170.285 208.373 169.485L208.133 169.068C207.164 167.366 206.367 163.929 207.462 162.171C207.933 161.411 208.504 160.681 209.434 160.475C210.648 160.206 212.282 160.865 215.272 162.817C216.681 163.739 217.736 164.069 218.245 163.718C218.883 163.289 218.772 161.797 218.662 161.228C217.869 159.629 216.952 158.095 215.92 156.639C214.528 154.581 213.418 152.954 213.89 151.425C214.215 150.347 215.295 149.466 217.284 148.655C217.313 148.643 217.343 148.634 217.373 148.628L230.685 145.929C230.786 145.908 230.892 145.919 230.986 145.961C231.08 146.004 231.159 146.075 231.21 146.165C231.256 146.244 235.83 154.09 241.716 156.28C241.82 156.32 241.907 156.393 241.965 156.488C242.022 156.582 242.046 156.694 242.033 156.804L241.462 161.393L242.139 169.193C242.227 170.124 242.052 171.061 241.634 171.897C241.217 172.734 240.573 173.437 239.777 173.926C239.751 173.941 239.724 173.955 239.696 173.966L233.16 176.469C232.682 181.205 231.131 200.98 238.424 202.251L243.351 203.596C243.434 203.618 243.511 203.662 243.572 203.724C243.633 203.785 243.677 203.862 243.699 203.946C246.355 213.854 238.601 222.391 229.572 224.921C226.221 225.884 222.755 226.383 219.268 226.404ZM189.157 205.519C189.4 205.802 189.626 206.1 189.833 206.412C189.846 206.43 189.857 206.45 189.866 206.47C189.897 206.535 192.958 212.85 199.335 218.132C207.856 225.19 217.938 227.155 229.301 223.972C237.786 221.596 245.096 213.678 242.815 204.476L238.209 203.214C230.147 201.81 231.577 182.088 232.211 176.066C232.22 175.974 232.254 175.886 232.31 175.813C232.365 175.739 232.44 175.682 232.526 175.649L239.3 173.052C239.928 172.655 240.435 172.091 240.763 171.423C241.091 170.755 241.227 170.009 241.157 169.268L240.476 161.416C240.472 161.381 240.472 161.346 240.476 161.311L241.007 157.058C235.587 154.825 231.452 148.457 230.539 146.961L217.613 149.583C215.97 150.259 215.061 150.953 214.832 151.709C214.507 152.783 215.491 154.236 216.737 156.089C217.657 157.449 218.697 158.988 219.581 160.863C219.598 160.9 219.611 160.938 219.619 160.978C219.673 161.247 220.102 163.647 218.785 164.534C217.89 165.137 216.562 164.845 214.721 163.641C212.059 161.895 210.537 161.23 209.643 161.439C209.169 161.545 208.79 161.895 208.294 162.69C207.445 164.052 208.137 167.087 208.986 168.578L209.226 168.995C209.642 169.728 210.212 170.363 210.895 170.856C211.579 171.349 212.36 171.689 213.187 171.853C213.298 171.874 213.399 171.931 213.474 172.015C213.549 172.099 213.595 172.205 213.604 172.318C214.419 191.221 201.662 202.737 189.461 205.448L189.157 205.519Z" fill="#181818"/>
<path d="M221.652 206.7C220.719 206.693 219.798 206.497 218.942 206.124C218.822 206.073 218.727 205.977 218.678 205.856C218.629 205.734 218.63 205.599 218.68 205.479C218.731 205.358 218.828 205.263 218.949 205.214C219.07 205.165 219.205 205.166 219.326 205.217C222.099 206.387 223.981 205.117 224 205.104C224.108 205.03 224.24 205.001 224.369 205.025C224.497 205.048 224.612 205.122 224.686 205.229C224.76 205.337 224.789 205.47 224.765 205.598C224.742 205.727 224.668 205.841 224.561 205.916C223.685 206.447 222.677 206.719 221.652 206.7Z" fill="#181818"/>
<path d="M221.712 179.249C221.826 174.77 218.291 171.047 213.814 170.932C209.338 170.817 205.616 174.354 205.501 178.833C205.386 183.311 208.922 187.035 213.398 187.149C217.875 187.264 221.597 183.727 221.712 179.249Z" fill="white"/>
<path d="M213.602 187.636C211.901 187.636 210.238 187.131 208.824 186.186C207.41 185.24 206.308 183.897 205.657 182.324C205.006 180.752 204.835 179.022 205.167 177.353C205.499 175.685 206.318 174.151 207.521 172.948C208.724 171.745 210.256 170.926 211.924 170.594C213.592 170.262 215.322 170.432 216.893 171.083C218.464 171.734 219.808 172.837 220.753 174.252C221.698 175.667 222.202 177.33 222.202 179.032C222.2 181.313 221.293 183.5 219.681 185.113C218.068 186.726 215.882 187.634 213.602 187.636ZM213.602 171.415C212.095 171.414 210.623 171.861 209.37 172.698C208.117 173.535 207.141 174.725 206.564 176.117C205.987 177.51 205.836 179.042 206.13 180.52C206.424 181.998 207.149 183.356 208.215 184.422C209.28 185.487 210.637 186.213 212.115 186.507C213.592 186.801 215.124 186.65 216.515 186.073C217.907 185.496 219.096 184.519 219.933 183.266C220.77 182.013 221.216 180.539 221.216 179.032C221.213 177.013 220.41 175.077 218.983 173.649C217.555 172.221 215.62 171.418 213.602 171.415Z" fill="#181818"/>
<path d="M410.689 311.035H287.074C283.475 311.035 280.557 313.954 280.557 317.555V362.416C280.557 366.017 283.475 368.936 287.074 368.936H410.689C414.288 368.936 417.206 366.017 417.206 362.416V317.555C417.206 313.954 414.288 311.035 410.689 311.035Z" fill="white"/>
<path d="M410.694 369.428H287.073C285.214 369.426 283.433 368.686 282.119 367.372C280.805 366.057 280.066 364.275 280.063 362.416V317.555C280.066 315.696 280.805 313.914 282.119 312.599C283.433 311.285 285.214 310.545 287.073 310.543H311.465C311.596 310.543 311.721 310.595 311.813 310.687C311.906 310.779 311.957 310.905 311.957 311.035C311.957 311.166 311.906 311.291 311.813 311.383C311.721 311.476 311.596 311.527 311.465 311.527H287.073C285.475 311.529 283.944 312.165 282.814 313.295C281.685 314.425 281.049 315.957 281.048 317.555V362.416C281.05 364.014 281.685 365.545 282.815 366.675C283.944 367.805 285.476 368.44 287.073 368.442H410.694C412.291 368.44 413.822 367.804 414.951 366.675C416.08 365.545 416.715 364.013 416.717 362.416V317.555C416.716 315.957 416.081 314.425 414.952 313.295C413.822 312.165 412.291 311.529 410.694 311.527H327.892C327.761 311.527 327.636 311.476 327.544 311.383C327.452 311.291 327.4 311.166 327.4 311.035C327.4 310.905 327.452 310.779 327.544 310.687C327.636 310.595 327.761 310.543 327.892 310.543H410.694C412.552 310.545 414.333 311.285 415.647 312.599C416.962 313.914 417.701 315.696 417.703 317.555V362.416C417.701 364.275 416.962 366.057 415.647 367.372C414.333 368.686 412.552 369.426 410.694 369.428Z" fill="#181818"/>
<path d="M399.163 332.888H300.919C300.794 332.879 300.676 332.824 300.591 332.732C300.505 332.641 300.457 332.52 300.457 332.394C300.457 332.269 300.505 332.148 300.591 332.056C300.676 331.965 300.794 331.909 300.919 331.901H399.163C399.231 331.897 399.298 331.906 399.362 331.929C399.426 331.952 399.484 331.987 399.533 332.034C399.582 332.08 399.622 332.136 399.649 332.198C399.676 332.26 399.689 332.327 399.689 332.394C399.689 332.462 399.676 332.529 399.649 332.591C399.622 332.653 399.582 332.709 399.533 332.755C399.484 332.801 399.426 332.837 399.362 332.86C399.298 332.882 399.231 332.892 399.163 332.888Z" fill="#181818"/>
<path d="M399.164 346.028H378.622C378.497 346.02 378.38 345.964 378.294 345.873C378.208 345.781 378.16 345.66 378.16 345.535C378.16 345.409 378.208 345.288 378.294 345.197C378.38 345.105 378.497 345.05 378.622 345.042H399.164C399.232 345.037 399.299 345.047 399.363 345.069C399.427 345.092 399.485 345.128 399.534 345.174C399.583 345.22 399.623 345.276 399.65 345.338C399.676 345.4 399.69 345.467 399.69 345.535C399.69 345.602 399.676 345.669 399.65 345.731C399.623 345.793 399.583 345.849 399.534 345.896C399.485 345.942 399.427 345.977 399.363 346C399.299 346.023 399.232 346.033 399.164 346.028Z" fill="#181818"/>
<path d="M365.493 346.028H300.919C300.794 346.02 300.676 345.964 300.591 345.873C300.505 345.781 300.457 345.66 300.457 345.535C300.457 345.409 300.505 345.288 300.591 345.197C300.676 345.105 300.794 345.05 300.919 345.042H365.493C365.618 345.05 365.736 345.105 365.821 345.197C365.907 345.288 365.955 345.409 365.955 345.535C365.955 345.66 365.907 345.781 365.821 345.873C365.736 345.964 365.618 346.02 365.493 346.028Z" fill="#181818"/>
<path d="M247.726 67.7609L295.971 81.8001L330.213 43.7017L247.726 67.7609Z" fill="white"/>
<path d="M295.969 82.2924C295.923 82.2924 295.876 82.286 295.832 82.2737L247.586 68.2344C247.484 68.2045 247.394 68.1424 247.331 68.0572C247.267 67.972 247.232 67.8684 247.232 67.762C247.232 67.6556 247.267 67.552 247.331 67.4668C247.394 67.3817 247.484 67.3195 247.586 67.2896L330.071 43.2283C330.174 43.1982 330.283 43.2025 330.383 43.2404C330.483 43.2783 330.568 43.3478 330.625 43.4383C330.682 43.5288 330.708 43.6355 330.699 43.7421C330.69 43.8487 330.647 43.9495 330.576 44.0292L296.334 82.1298C296.288 82.1809 296.232 82.2218 296.169 82.2498C296.106 82.2778 296.038 82.2924 295.969 82.2924ZM249.477 67.761L295.819 81.2391L328.697 44.6591L249.477 67.761Z" fill="#181818"/>
<path d="M271.764 90.412L265.032 72.7956L318.346 50.3091L273.511 75.2631L283.596 78.1978L271.764 90.412Z" fill="white"/>
<path d="M271.764 90.9047C271.73 90.9053 271.696 90.9018 271.663 90.8943C271.582 90.8778 271.507 90.841 271.444 90.7874C271.381 90.7338 271.332 90.6651 271.303 90.5877L264.571 72.9734C264.526 72.8546 264.529 72.7229 264.579 72.6062C264.629 72.4894 264.723 72.3968 264.84 72.3477L318.153 49.8507C318.269 49.8044 318.398 49.8037 318.515 49.8487C318.631 49.8937 318.726 49.9811 318.781 50.0933C318.836 50.2055 318.846 50.3343 318.809 50.4537C318.773 50.5732 318.693 50.6744 318.585 50.7371L274.782 75.1217L283.728 77.7248C283.809 77.7497 283.883 77.795 283.941 77.8563C283.999 77.9177 284.041 77.993 284.062 78.0751C284.083 78.1572 284.082 78.2432 284.061 78.3251C284.039 78.4069 283.996 78.4817 283.937 78.5424L272.105 90.7545C272.016 90.8478 271.893 90.9017 271.764 90.9047ZM265.661 73.0652L271.947 89.5135L282.671 78.4444L273.373 75.7329C273.28 75.7059 273.196 75.6518 273.134 75.5775C273.071 75.5032 273.032 75.412 273.021 75.3154C273.01 75.2188 273.028 75.1211 273.072 75.0347C273.117 74.9483 273.186 74.877 273.271 74.8297L310.193 54.2788L265.661 73.0652Z" fill="#181818"/>
<path d="M272.376 85.5859H272.32C272.255 85.5786 272.193 85.5587 272.136 85.5273C272.08 85.4959 272.03 85.4536 271.989 85.4028C271.949 85.352 271.919 85.2938 271.902 85.2314C271.884 85.1691 271.879 85.1038 271.886 85.0394L273.02 75.2113C273.042 75.0871 273.111 74.9759 273.212 74.9006C273.313 74.8252 273.439 74.7914 273.564 74.8061C273.69 74.8207 273.805 74.8828 273.886 74.9794C273.967 75.0761 274.008 75.2001 274 75.326L272.866 85.1541C272.851 85.2734 272.793 85.383 272.703 85.4625C272.612 85.542 272.496 85.5858 272.376 85.5859Z" fill="#181818"/>
<path d="M423.267 330.302C436.089 330.302 446.484 319.903 446.484 307.075C446.484 294.247 436.089 283.848 423.267 283.848C410.444 283.848 400.05 294.247 400.05 307.075C400.05 319.903 410.444 330.302 423.267 330.302Z" fill="white"/>
<path d="M423.267 330.802C418.578 330.803 413.994 329.413 410.095 326.807C406.195 324.202 403.156 320.498 401.36 316.165C399.565 311.831 399.095 307.062 400.008 302.461C400.922 297.86 403.179 293.633 406.493 290.315C409.808 286.997 414.032 284.737 418.631 283.821C423.229 282.904 427.996 283.373 432.329 285.166C436.661 286.96 440.365 289.999 442.971 293.899C445.578 297.798 446.97 302.384 446.971 307.075C446.966 313.364 444.468 319.394 440.024 323.843C435.58 328.291 429.553 330.794 423.267 330.802ZM423.267 284.348C418.772 284.348 414.379 285.682 410.642 288.18C406.904 290.678 403.992 294.229 402.272 298.383C400.552 302.537 400.102 307.108 400.979 311.518C401.855 315.928 404.02 319.979 407.198 323.159C410.376 326.338 414.425 328.504 418.833 329.381C423.242 330.258 427.811 329.808 431.963 328.087C436.116 326.366 439.665 323.452 442.162 319.714C444.659 315.975 445.992 311.58 445.992 307.083C445.987 301.054 443.592 295.273 439.331 291.009C435.071 286.745 429.293 284.347 423.267 284.34V284.348Z" fill="#181818"/>
<path d="M434.347 314.825C434.262 314.769 433.632 314.312 433.015 312.948C431.881 310.445 431.687 306.956 431.724 304.463V304.43C431.74 302.863 431.306 301.325 430.473 299.999C429.64 298.672 428.444 297.613 427.027 296.946L427.056 294.998C427.069 294.148 426.744 293.328 426.152 292.717C425.561 292.106 424.752 291.755 423.902 291.74H423.637C422.788 291.729 421.97 292.055 421.361 292.647C420.752 293.239 420.402 294.049 420.389 294.898L420.362 296.846C418.921 297.47 417.69 298.497 416.818 299.804C415.945 301.111 415.468 302.642 415.444 304.213C415.408 306.716 415.11 310.193 413.903 312.654C413.246 313.995 412.602 314.431 412.517 314.483C412.345 314.561 412.205 314.695 412.121 314.864C412.036 315.033 412.013 315.225 412.054 315.409C412.095 315.6 412.201 315.771 412.352 315.893C412.504 316.016 412.693 316.083 412.888 316.083L419.067 316.179C419.049 317.331 419.489 318.442 420.291 319.269C421.092 320.096 422.189 320.571 423.34 320.589C424.491 320.607 425.603 320.167 426.429 319.365C427.256 318.564 427.731 317.466 427.749 316.314L433.928 316.41C434.123 316.416 434.314 316.355 434.469 316.238C434.625 316.12 434.735 315.953 434.783 315.764C434.829 315.581 434.811 315.388 434.731 315.217C434.652 315.046 434.516 314.908 434.347 314.825ZM422.076 294.927C422.082 294.525 422.248 294.143 422.536 293.863C422.824 293.583 423.211 293.429 423.612 293.434H423.879C424.281 293.441 424.664 293.607 424.943 293.896C425.222 294.185 425.376 294.573 425.37 294.975L425.349 296.377C424.809 296.256 424.258 296.191 423.704 296.183C423.151 296.174 422.598 296.221 422.055 296.325L422.076 294.927ZM423.37 318.849C422.676 318.836 422.015 318.553 421.526 318.06C421.037 317.567 420.76 316.902 420.754 316.208L426.062 316.291C426.034 316.984 425.738 317.638 425.235 318.115C424.732 318.592 424.063 318.854 423.37 318.844V318.849Z" fill="#181818"/>
<path d="M470.195 220.615C471.034 210.322 463.373 201.298 453.085 200.459C442.796 199.62 433.776 207.284 432.937 217.577C432.099 227.87 439.759 236.894 450.048 237.733C460.336 238.572 469.357 230.908 470.195 220.615Z" fill="white"/>
<path d="M451.579 238.296C447.785 238.296 444.077 237.171 440.923 235.063C437.769 232.954 435.31 229.957 433.858 226.451C432.407 222.944 432.027 219.086 432.767 215.364C433.507 211.642 435.334 208.222 438.016 205.539C440.699 202.855 444.116 201.028 447.837 200.287C451.558 199.547 455.414 199.927 458.919 201.379C462.424 202.832 465.42 205.291 467.527 208.447C469.635 211.602 470.76 215.312 470.76 219.107C470.753 224.195 468.73 229.072 465.134 232.669C461.539 236.266 456.664 238.29 451.579 238.296ZM451.579 200.897C447.98 200.897 444.461 201.964 441.468 203.965C438.476 205.966 436.143 208.809 434.766 212.136C433.388 215.463 433.028 219.123 433.73 222.655C434.432 226.187 436.166 229.431 438.711 231.977C441.256 234.524 444.498 236.258 448.029 236.96C451.559 237.663 455.218 237.302 458.543 235.924C461.869 234.546 464.711 232.212 466.711 229.218C468.71 226.224 469.778 222.704 469.778 219.103C469.772 214.276 467.853 209.649 464.441 206.235C461.03 202.822 456.404 200.902 451.579 200.897Z" fill="#181818"/>
<path d="M456.623 220.97C456.125 220.971 455.634 221.087 455.188 221.31C454.742 221.532 454.354 221.854 454.053 222.251L447.742 219.794C447.742 219.711 447.767 219.629 447.767 219.544C447.762 219.389 447.747 219.235 447.721 219.083L454.184 216.088C454.617 216.597 455.196 216.961 455.843 217.128C456.49 217.296 457.173 217.259 457.799 217.023C458.424 216.787 458.961 216.364 459.337 215.81C459.713 215.257 459.908 214.602 459.897 213.933C459.897 213.504 459.814 213.08 459.651 212.683C459.487 212.287 459.248 211.927 458.945 211.623C458.643 211.319 458.284 211.078 457.888 210.913C457.493 210.749 457.069 210.663 456.64 210.663C456.212 210.662 455.787 210.745 455.391 210.909C454.995 211.072 454.635 211.312 454.331 211.614C454.028 211.917 453.787 212.276 453.622 212.672C453.457 213.068 453.372 213.492 453.371 213.921C453.376 214.075 453.391 214.229 453.417 214.382L446.954 217.377C446.519 216.874 445.941 216.516 445.297 216.353C444.652 216.19 443.974 216.229 443.352 216.464C442.73 216.699 442.196 217.12 441.821 217.669C441.446 218.218 441.249 218.869 441.256 219.533C441.254 220.402 441.597 221.236 442.208 221.853C442.82 222.47 443.65 222.819 444.519 222.825C445.017 222.824 445.508 222.708 445.953 222.485C446.399 222.263 446.787 221.941 447.087 221.544L453.386 224.011C453.386 224.095 453.361 224.176 453.361 224.262C453.364 224.907 453.558 225.536 453.919 226.071C454.279 226.605 454.79 227.021 455.386 227.266C455.983 227.51 456.638 227.572 457.27 227.445C457.902 227.317 458.482 227.004 458.936 226.547C459.391 226.09 459.7 225.509 459.825 224.876C459.949 224.243 459.884 223.588 459.636 222.992C459.389 222.397 458.971 221.888 458.434 221.53C457.898 221.172 457.268 220.981 456.623 220.981V220.97Z" fill="#181818"/>
<path d="M434.807 57.2719C434.706 57.2727 434.607 57.242 434.525 57.1843C434.472 57.1473 434.426 57.1003 434.392 57.0458C434.357 56.9913 434.333 56.9304 434.321 56.8667C434.31 56.8029 434.311 56.7376 434.325 56.6743C434.339 56.611 434.365 56.5511 434.402 56.498L450.161 33.8863C450.198 33.8317 450.245 33.7849 450.299 33.7486C450.354 33.7124 450.415 33.6874 450.479 33.6751C450.544 33.6629 450.61 33.6637 450.674 33.6774C450.738 33.6911 450.799 33.7175 450.853 33.755C450.907 33.7926 450.952 33.8405 450.987 33.8959C451.022 33.9514 451.046 34.0133 451.057 34.078C451.067 34.1426 451.065 34.2088 451.05 34.2726C451.035 34.3364 451.007 34.3966 450.968 34.4495L435.211 57.0612C435.166 57.1264 435.105 57.1795 435.035 57.2162C434.964 57.2529 434.886 57.272 434.807 57.2719Z" fill="#181818"/>
<path d="M446.482 75.7577C446.377 75.7582 446.275 75.7253 446.19 75.6637C446.105 75.6021 446.042 75.515 446.011 75.4152C445.979 75.3154 445.98 75.208 446.013 75.1086C446.046 75.0093 446.111 74.9232 446.196 74.8629L484.497 47.5561C484.603 47.4804 484.735 47.45 484.864 47.4717C484.993 47.4934 485.108 47.5654 485.184 47.6719C485.26 47.7784 485.29 47.9106 485.268 48.0395C485.247 48.1684 485.175 48.2834 485.068 48.3592L446.761 75.6659C446.68 75.7244 446.582 75.7564 446.482 75.7577Z" fill="#181818"/>
<path d="M451.579 94.1125C451.451 94.1145 451.328 94.067 451.235 93.9801C451.142 93.8932 451.087 93.7736 451.08 93.6464C451.073 93.5193 451.116 93.3944 451.199 93.2982C451.282 93.2019 451.4 93.1417 451.526 93.1301L481.413 89.9222C481.477 89.9147 481.543 89.9201 481.605 89.9382C481.667 89.9562 481.725 89.9865 481.776 90.0273C481.826 90.0681 481.868 90.1186 481.899 90.1757C481.93 90.2329 481.949 90.2956 481.955 90.3602C481.968 90.4898 481.93 90.6195 481.848 90.7211C481.767 90.8226 481.648 90.8878 481.519 90.9025L451.631 94.1104L451.579 94.1125Z" fill="#181818"/>
<path d="M473.382 36.8602C473.382 37.3928 473.224 37.9134 472.928 38.3562C472.633 38.799 472.212 39.1441 471.721 39.3479C471.229 39.5517 470.688 39.6051 470.165 39.5012C469.643 39.3973 469.164 39.1408 468.787 38.7642C468.411 38.3876 468.155 37.9079 468.051 37.3855C467.947 36.8632 468 36.3218 468.204 35.8297C468.408 35.3377 468.753 34.9172 469.195 34.6213C469.638 34.3254 470.158 34.1675 470.691 34.1675L473.382 36.8602Z" fill="white"/>
<path d="M470.691 40.0477C469.847 40.0477 469.037 39.7121 468.44 39.1149C467.843 38.5176 467.508 37.7075 467.508 36.8628C467.508 36.0181 467.843 35.2079 468.44 34.6107C469.037 34.0134 469.847 33.6778 470.691 33.6778C470.759 33.6734 470.826 33.6829 470.89 33.7057C470.954 33.7285 471.012 33.7641 471.061 33.8104C471.111 33.8566 471.15 33.9125 471.177 33.9745C471.204 34.0366 471.218 34.1035 471.218 34.1711C471.218 34.2387 471.204 34.3056 471.177 34.3676C471.15 34.4297 471.111 34.4856 471.061 34.5318C471.012 34.578 470.954 34.6136 470.89 34.6365C470.826 34.6593 470.759 34.6688 470.691 34.6644C470.257 34.6648 469.832 34.7941 469.471 35.0359C469.11 35.2777 468.829 35.6212 468.663 36.0229C468.497 36.4246 468.453 36.8666 468.539 37.2929C468.624 37.7192 468.833 38.1107 469.14 38.418C469.448 38.7252 469.839 38.9344 470.266 39.0191C470.692 39.1037 471.133 39.0601 471.535 38.8936C471.936 38.7271 472.279 38.4454 472.521 38.0839C472.762 37.7224 472.891 37.2975 472.891 36.8628C472.891 36.7322 472.943 36.607 473.035 36.5147C473.127 36.4224 473.252 36.3705 473.383 36.3705C473.513 36.3705 473.639 36.4224 473.731 36.5147C473.823 36.607 473.875 36.7322 473.875 36.8628C473.874 37.7071 473.538 38.5166 472.941 39.1136C472.344 39.7107 471.535 40.0466 470.691 40.0477Z" fill="#181818"/>
</svg>
