<svg width="205" height="51" viewBox="0 0 205 51" fill="none" xmlns="http://www.w3.org/2000/svg">
<rect width="205" height="51" rx="25.5" fill="#181818"/>
<path d="M34.9482 32H32.2764L32.2939 30.6201H34.9482C35.8623 30.6201 36.624 30.4297 37.2334 30.0488C37.8428 29.6621 38.2998 29.123 38.6045 28.4316C38.915 27.7344 39.0703 26.9199 39.0703 25.9883V25.2061C39.0703 24.4736 38.9824 23.8232 38.8066 23.2549C38.6309 22.6807 38.373 22.1973 38.0332 21.8047C37.6934 21.4062 37.2773 21.1045 36.7852 20.8994C36.2988 20.6943 35.7393 20.5918 35.1064 20.5918H32.2236V19.2031H35.1064C35.9443 19.2031 36.709 19.3438 37.4004 19.625C38.0918 19.9004 38.6865 20.3018 39.1846 20.8291C39.6885 21.3506 40.0752 21.9834 40.3447 22.7275C40.6143 23.4658 40.749 24.2979 40.749 25.2236V25.9883C40.749 26.9141 40.6143 27.749 40.3447 28.4932C40.0752 29.2314 39.6855 29.8613 39.1758 30.3828C38.6719 30.9043 38.0625 31.3057 37.3477 31.5869C36.6387 31.8623 35.8389 32 34.9482 32ZM33.1816 19.2031V32H31.4854V19.2031H33.1816ZM42.6211 27.3506V27.1484C42.6211 26.4629 42.7207 25.8271 42.9199 25.2412C43.1191 24.6494 43.4062 24.1367 43.7812 23.7031C44.1562 23.2637 44.6104 22.9238 45.1436 22.6836C45.6768 22.4375 46.2744 22.3145 46.9365 22.3145C47.6045 22.3145 48.2051 22.4375 48.7383 22.6836C49.2773 22.9238 49.7344 23.2637 50.1094 23.7031C50.4902 24.1367 50.7803 24.6494 50.9795 25.2412C51.1787 25.8271 51.2783 26.4629 51.2783 27.1484V27.3506C51.2783 28.0361 51.1787 28.6719 50.9795 29.2578C50.7803 29.8438 50.4902 30.3564 50.1094 30.7959C49.7344 31.2295 49.2803 31.5693 48.7471 31.8154C48.2197 32.0557 47.6221 32.1758 46.9541 32.1758C46.2861 32.1758 45.6855 32.0557 45.1523 31.8154C44.6191 31.5693 44.1621 31.2295 43.7812 30.7959C43.4062 30.3564 43.1191 29.8438 42.9199 29.2578C42.7207 28.6719 42.6211 28.0361 42.6211 27.3506ZM44.2471 27.1484V27.3506C44.2471 27.8252 44.3027 28.2734 44.4141 28.6953C44.5254 29.1113 44.6924 29.4805 44.915 29.8027C45.1436 30.125 45.4277 30.3799 45.7676 30.5674C46.1074 30.749 46.5029 30.8398 46.9541 30.8398C47.3994 30.8398 47.7891 30.749 48.123 30.5674C48.4629 30.3799 48.7441 30.125 48.9668 29.8027C49.1895 29.4805 49.3564 29.1113 49.4678 28.6953C49.585 28.2734 49.6436 27.8252 49.6436 27.3506V27.1484C49.6436 26.6797 49.585 26.2373 49.4678 25.8213C49.3564 25.3994 49.1865 25.0273 48.958 24.7051C48.7354 24.377 48.4541 24.1191 48.1143 23.9316C47.7803 23.7441 47.3877 23.6504 46.9365 23.6504C46.4912 23.6504 46.0986 23.7441 45.7588 23.9316C45.4248 24.1191 45.1436 24.377 44.915 24.7051C44.6924 25.0273 44.5254 25.3994 44.4141 25.8213C44.3027 26.2373 44.2471 26.6797 44.2471 27.1484ZM55.7256 30.3125L58.1689 22.4902H59.2412L59.0303 24.0459L56.543 32H55.4971L55.7256 30.3125ZM54.082 22.4902L56.165 30.4004L56.3145 32H55.2158L52.4561 22.4902H54.082ZM61.5791 30.3389L63.5654 22.4902H65.1826L62.4229 32H61.333L61.5791 30.3389ZM59.4785 22.4902L61.8691 30.1807L62.1416 32H61.1045L58.5469 24.0283L58.3359 22.4902H59.4785ZM68.4785 24.5205V32H66.8525V22.4902H68.3906L68.4785 24.5205ZM68.0918 26.8848L67.415 26.8584C67.4209 26.208 67.5176 25.6074 67.7051 25.0566C67.8926 24.5 68.1562 24.0166 68.4961 23.6064C68.8359 23.1963 69.2402 22.8799 69.709 22.6572C70.1836 22.4287 70.708 22.3145 71.2822 22.3145C71.751 22.3145 72.1729 22.3789 72.5479 22.5078C72.9229 22.6309 73.2422 22.8301 73.5059 23.1055C73.7754 23.3809 73.9805 23.7383 74.1211 24.1777C74.2617 24.6113 74.332 25.1416 74.332 25.7686V32H72.6973V25.751C72.6973 25.2529 72.624 24.8545 72.4775 24.5557C72.3311 24.251 72.1172 24.0312 71.8359 23.8965C71.5547 23.7559 71.209 23.6855 70.7988 23.6855C70.3945 23.6855 70.0254 23.7705 69.6914 23.9404C69.3633 24.1104 69.0791 24.3447 68.8389 24.6436C68.6045 24.9424 68.4199 25.2852 68.2852 25.6719C68.1562 26.0527 68.0918 26.457 68.0918 26.8848ZM78.5684 18.5V32H76.9336V18.5H78.5684ZM80.748 27.3506V27.1484C80.748 26.4629 80.8477 25.8271 81.0469 25.2412C81.2461 24.6494 81.5332 24.1367 81.9082 23.7031C82.2832 23.2637 82.7373 22.9238 83.2705 22.6836C83.8037 22.4375 84.4014 22.3145 85.0635 22.3145C85.7314 22.3145 86.332 22.4375 86.8652 22.6836C87.4043 22.9238 87.8613 23.2637 88.2363 23.7031C88.6172 24.1367 88.9072 24.6494 89.1064 25.2412C89.3057 25.8271 89.4053 26.4629 89.4053 27.1484V27.3506C89.4053 28.0361 89.3057 28.6719 89.1064 29.2578C88.9072 29.8438 88.6172 30.3564 88.2363 30.7959C87.8613 31.2295 87.4072 31.5693 86.874 31.8154C86.3467 32.0557 85.749 32.1758 85.0811 32.1758C84.4131 32.1758 83.8125 32.0557 83.2793 31.8154C82.7461 31.5693 82.2891 31.2295 81.9082 30.7959C81.5332 30.3564 81.2461 29.8438 81.0469 29.2578C80.8477 28.6719 80.748 28.0361 80.748 27.3506ZM82.374 27.1484V27.3506C82.374 27.8252 82.4297 28.2734 82.541 28.6953C82.6523 29.1113 82.8193 29.4805 83.042 29.8027C83.2705 30.125 83.5547 30.3799 83.8945 30.5674C84.2344 30.749 84.6299 30.8398 85.0811 30.8398C85.5264 30.8398 85.916 30.749 86.25 30.5674C86.5898 30.3799 86.8711 30.125 87.0938 29.8027C87.3164 29.4805 87.4834 29.1113 87.5947 28.6953C87.7119 28.2734 87.7705 27.8252 87.7705 27.3506V27.1484C87.7705 26.6797 87.7119 26.2373 87.5947 25.8213C87.4834 25.3994 87.3135 25.0273 87.085 24.7051C86.8623 24.377 86.5811 24.1191 86.2412 23.9316C85.9072 23.7441 85.5146 23.6504 85.0635 23.6504C84.6182 23.6504 84.2256 23.7441 83.8857 23.9316C83.5518 24.1191 83.2705 24.377 83.042 24.7051C82.8193 25.0273 82.6523 25.3994 82.541 25.8213C82.4297 26.2373 82.374 26.6797 82.374 27.1484ZM97.0518 30.374V25.4785C97.0518 25.1035 96.9756 24.7783 96.8232 24.5029C96.6768 24.2217 96.4541 24.0049 96.1553 23.8525C95.8564 23.7002 95.4873 23.624 95.0479 23.624C94.6377 23.624 94.2773 23.6943 93.9668 23.835C93.6621 23.9756 93.4219 24.1602 93.2461 24.3887C93.0762 24.6172 92.9912 24.8633 92.9912 25.127H91.3652C91.3652 24.7871 91.4531 24.4502 91.6289 24.1162C91.8047 23.7822 92.0566 23.4805 92.3848 23.2109C92.7188 22.9355 93.1172 22.7188 93.5801 22.5605C94.0488 22.3965 94.5703 22.3145 95.1445 22.3145C95.8359 22.3145 96.4453 22.4316 96.9727 22.666C97.5059 22.9004 97.9219 23.2549 98.2207 23.7295C98.5254 24.1982 98.6777 24.7871 98.6777 25.4961V29.9258C98.6777 30.2422 98.7041 30.5791 98.7568 30.9365C98.8154 31.2939 98.9004 31.6016 99.0117 31.8594V32H97.3154C97.2334 31.8125 97.1689 31.5635 97.1221 31.2529C97.0752 30.9365 97.0518 30.6436 97.0518 30.374ZM97.333 26.2344L97.3506 27.377H95.707C95.2441 27.377 94.8311 27.415 94.4678 27.4912C94.1045 27.5615 93.7998 27.6699 93.5537 27.8164C93.3076 27.9629 93.1201 28.1475 92.9912 28.3701C92.8623 28.5869 92.7979 28.8418 92.7979 29.1348C92.7979 29.4336 92.8652 29.7061 93 29.9521C93.1348 30.1982 93.3369 30.3945 93.6064 30.541C93.8818 30.6816 94.2188 30.752 94.6172 30.752C95.1152 30.752 95.5547 30.6465 95.9355 30.4355C96.3164 30.2246 96.6182 29.9668 96.8408 29.6621C97.0693 29.3574 97.1924 29.0615 97.21 28.7744L97.9043 29.5566C97.8633 29.8027 97.752 30.0752 97.5703 30.374C97.3887 30.6729 97.1455 30.96 96.8408 31.2354C96.542 31.5049 96.1846 31.7305 95.7686 31.9121C95.3584 32.0879 94.8955 32.1758 94.3799 32.1758C93.7354 32.1758 93.1699 32.0498 92.6836 31.7979C92.2031 31.5459 91.8281 31.209 91.5586 30.7871C91.2949 30.3594 91.1631 29.8818 91.1631 29.3545C91.1631 28.8447 91.2627 28.3965 91.4619 28.0098C91.6611 27.6172 91.9482 27.292 92.3232 27.0342C92.6982 26.7705 93.1494 26.5713 93.6768 26.4365C94.2041 26.3018 94.793 26.2344 95.4434 26.2344H97.333ZM107.229 30.1543V18.5H108.864V32H107.37L107.229 30.1543ZM100.831 27.3506V27.166C100.831 26.4395 100.919 25.7803 101.095 25.1885C101.276 24.5908 101.531 24.0781 101.859 23.6504C102.193 23.2227 102.589 22.8945 103.046 22.666C103.509 22.4316 104.024 22.3145 104.593 22.3145C105.19 22.3145 105.712 22.4199 106.157 22.6309C106.608 22.8359 106.989 23.1377 107.3 23.5361C107.616 23.9287 107.865 24.4033 108.047 24.96C108.229 25.5166 108.354 26.1465 108.425 26.8496V27.6582C108.36 28.3555 108.234 28.9824 108.047 29.5391C107.865 30.0957 107.616 30.5703 107.3 30.9629C106.989 31.3555 106.608 31.6572 106.157 31.8682C105.706 32.0732 105.179 32.1758 104.575 32.1758C104.019 32.1758 103.509 32.0557 103.046 31.8154C102.589 31.5752 102.193 31.2383 101.859 30.8047C101.531 30.3711 101.276 29.8613 101.095 29.2754C100.919 28.6836 100.831 28.042 100.831 27.3506ZM102.466 27.166V27.3506C102.466 27.8252 102.513 28.2705 102.606 28.6865C102.706 29.1025 102.858 29.4688 103.063 29.7852C103.269 30.1016 103.529 30.3506 103.846 30.5322C104.162 30.708 104.54 30.7959 104.979 30.7959C105.519 30.7959 105.961 30.6816 106.307 30.4531C106.658 30.2246 106.939 29.9229 107.15 29.5479C107.361 29.1729 107.525 28.7656 107.643 28.3262V26.208C107.572 25.8857 107.47 25.5752 107.335 25.2764C107.206 24.9717 107.036 24.7021 106.825 24.4678C106.62 24.2275 106.365 24.0371 106.061 23.8965C105.762 23.7559 105.407 23.6855 104.997 23.6855C104.552 23.6855 104.168 23.7793 103.846 23.9668C103.529 24.1484 103.269 24.4004 103.063 24.7227C102.858 25.0391 102.706 25.4082 102.606 25.8301C102.513 26.2461 102.466 26.6914 102.466 27.166ZM119.842 22.4902V23.7383H114.7V22.4902H119.842ZM116.44 20.1787H118.066V29.6445C118.066 29.9668 118.116 30.21 118.216 30.374C118.315 30.5381 118.444 30.6465 118.603 30.6992C118.761 30.752 118.931 30.7783 119.112 30.7783C119.247 30.7783 119.388 30.7666 119.534 30.7432C119.687 30.7139 119.801 30.6904 119.877 30.6729L119.886 32C119.757 32.041 119.587 32.0791 119.376 32.1143C119.171 32.1553 118.922 32.1758 118.629 32.1758C118.23 32.1758 117.864 32.0967 117.53 31.9385C117.196 31.7803 116.93 31.5166 116.73 31.1475C116.537 30.7725 116.44 30.2686 116.44 29.6357V20.1787ZM123.375 18.5V32H121.749V18.5H123.375ZM122.988 26.8848L122.312 26.8584C122.317 26.208 122.414 25.6074 122.602 25.0566C122.789 24.5 123.053 24.0166 123.393 23.6064C123.732 23.1963 124.137 22.8799 124.605 22.6572C125.08 22.4287 125.604 22.3145 126.179 22.3145C126.647 22.3145 127.069 22.3789 127.444 22.5078C127.819 22.6309 128.139 22.8301 128.402 23.1055C128.672 23.3809 128.877 23.7383 129.018 24.1777C129.158 24.6113 129.229 25.1416 129.229 25.7686V32H127.594V25.751C127.594 25.2529 127.521 24.8545 127.374 24.5557C127.228 24.251 127.014 24.0312 126.732 23.8965C126.451 23.7559 126.105 23.6855 125.695 23.6855C125.291 23.6855 124.922 23.7705 124.588 23.9404C124.26 24.1104 123.976 24.3447 123.735 24.6436C123.501 24.9424 123.316 25.2852 123.182 25.6719C123.053 26.0527 122.988 26.457 122.988 26.8848ZM135.609 32.1758C134.947 32.1758 134.347 32.0645 133.808 31.8418C133.274 31.6133 132.814 31.2939 132.428 30.8838C132.047 30.4736 131.754 29.9873 131.549 29.4248C131.344 28.8623 131.241 28.2471 131.241 27.5791V27.21C131.241 26.4365 131.355 25.748 131.584 25.1445C131.812 24.5352 132.123 24.0195 132.516 23.5977C132.908 23.1758 133.354 22.8564 133.852 22.6396C134.35 22.4229 134.865 22.3145 135.398 22.3145C136.078 22.3145 136.664 22.4316 137.156 22.666C137.654 22.9004 138.062 23.2285 138.378 23.6504C138.694 24.0664 138.929 24.5586 139.081 25.127C139.233 25.6895 139.31 26.3047 139.31 26.9727V27.7021H132.208V26.375H137.684V26.252C137.66 25.8301 137.572 25.4199 137.42 25.0215C137.273 24.623 137.039 24.2949 136.717 24.0371C136.395 23.7793 135.955 23.6504 135.398 23.6504C135.029 23.6504 134.689 23.7295 134.379 23.8877C134.068 24.04 133.802 24.2686 133.579 24.5732C133.356 24.8779 133.184 25.25 133.061 25.6895C132.938 26.1289 132.876 26.6357 132.876 27.21V27.5791C132.876 28.0303 132.938 28.4551 133.061 28.8535C133.189 29.2461 133.374 29.5918 133.614 29.8906C133.86 30.1895 134.156 30.4238 134.502 30.5938C134.854 30.7637 135.252 30.8486 135.697 30.8486C136.271 30.8486 136.758 30.7314 137.156 30.4971C137.555 30.2627 137.903 29.9492 138.202 29.5566L139.187 30.3389C138.981 30.6494 138.721 30.9453 138.404 31.2266C138.088 31.5078 137.698 31.7363 137.235 31.9121C136.778 32.0879 136.236 32.1758 135.609 32.1758ZM151.28 30.374V25.4785C151.28 25.1035 151.204 24.7783 151.052 24.5029C150.905 24.2217 150.683 24.0049 150.384 23.8525C150.085 23.7002 149.716 23.624 149.276 23.624C148.866 23.624 148.506 23.6943 148.195 23.835C147.891 23.9756 147.65 24.1602 147.475 24.3887C147.305 24.6172 147.22 24.8633 147.22 25.127H145.594C145.594 24.7871 145.682 24.4502 145.857 24.1162C146.033 23.7822 146.285 23.4805 146.613 23.2109C146.947 22.9355 147.346 22.7188 147.809 22.5605C148.277 22.3965 148.799 22.3145 149.373 22.3145C150.064 22.3145 150.674 22.4316 151.201 22.666C151.734 22.9004 152.15 23.2549 152.449 23.7295C152.754 24.1982 152.906 24.7871 152.906 25.4961V29.9258C152.906 30.2422 152.933 30.5791 152.985 30.9365C153.044 31.2939 153.129 31.6016 153.24 31.8594V32H151.544C151.462 31.8125 151.397 31.5635 151.351 31.2529C151.304 30.9365 151.28 30.6436 151.28 30.374ZM151.562 26.2344L151.579 27.377H149.936C149.473 27.377 149.06 27.415 148.696 27.4912C148.333 27.5615 148.028 27.6699 147.782 27.8164C147.536 27.9629 147.349 28.1475 147.22 28.3701C147.091 28.5869 147.026 28.8418 147.026 29.1348C147.026 29.4336 147.094 29.7061 147.229 29.9521C147.363 30.1982 147.565 30.3945 147.835 30.541C148.11 30.6816 148.447 30.752 148.846 30.752C149.344 30.752 149.783 30.6465 150.164 30.4355C150.545 30.2246 150.847 29.9668 151.069 29.6621C151.298 29.3574 151.421 29.0615 151.438 28.7744L152.133 29.5566C152.092 29.8027 151.98 30.0752 151.799 30.374C151.617 30.6729 151.374 30.96 151.069 31.2354C150.771 31.5049 150.413 31.7305 149.997 31.9121C149.587 32.0879 149.124 32.1758 148.608 32.1758C147.964 32.1758 147.398 32.0498 146.912 31.7979C146.432 31.5459 146.057 31.209 145.787 30.7871C145.523 30.3594 145.392 29.8818 145.392 29.3545C145.392 28.8447 145.491 28.3965 145.69 28.0098C145.89 27.6172 146.177 27.292 146.552 27.0342C146.927 26.7705 147.378 26.5713 147.905 26.4365C148.433 26.3018 149.021 26.2344 149.672 26.2344H151.562ZM157.09 24.3184V35.6562H155.455V22.4902H156.949L157.09 24.3184ZM163.497 27.166V27.3506C163.497 28.042 163.415 28.6836 163.251 29.2754C163.087 29.8613 162.847 30.3711 162.53 30.8047C162.22 31.2383 161.836 31.5752 161.379 31.8154C160.922 32.0557 160.397 32.1758 159.806 32.1758C159.202 32.1758 158.669 32.0762 158.206 31.877C157.743 31.6777 157.351 31.3877 157.028 31.0068C156.706 30.626 156.448 30.1689 156.255 29.6357C156.067 29.1025 155.938 28.502 155.868 27.834V26.8496C155.938 26.1465 156.07 25.5166 156.264 24.96C156.457 24.4033 156.712 23.9287 157.028 23.5361C157.351 23.1377 157.74 22.8359 158.197 22.6309C158.654 22.4199 159.182 22.3145 159.779 22.3145C160.377 22.3145 160.907 22.4316 161.37 22.666C161.833 22.8945 162.223 23.2227 162.539 23.6504C162.855 24.0781 163.093 24.5908 163.251 25.1885C163.415 25.7803 163.497 26.4395 163.497 27.166ZM161.862 27.3506V27.166C161.862 26.6914 161.812 26.2461 161.713 25.8301C161.613 25.4082 161.458 25.0391 161.247 24.7227C161.042 24.4004 160.778 24.1484 160.456 23.9668C160.134 23.7793 159.75 23.6855 159.305 23.6855C158.895 23.6855 158.537 23.7559 158.232 23.8965C157.934 24.0371 157.679 24.2275 157.468 24.4678C157.257 24.7021 157.084 24.9717 156.949 25.2764C156.82 25.5752 156.724 25.8857 156.659 26.208V28.4844C156.776 28.8945 156.94 29.2812 157.151 29.6445C157.362 30.002 157.644 30.292 157.995 30.5146C158.347 30.7314 158.789 30.8398 159.322 30.8398C159.762 30.8398 160.14 30.749 160.456 30.5674C160.778 30.3799 161.042 30.125 161.247 29.8027C161.458 29.4805 161.613 29.1113 161.713 28.6953C161.812 28.2734 161.862 27.8252 161.862 27.3506ZM167.197 24.3184V35.6562H165.562V22.4902H167.057L167.197 24.3184ZM173.604 27.166V27.3506C173.604 28.042 173.522 28.6836 173.358 29.2754C173.194 29.8613 172.954 30.3711 172.638 30.8047C172.327 31.2383 171.943 31.5752 171.486 31.8154C171.029 32.0557 170.505 32.1758 169.913 32.1758C169.31 32.1758 168.776 32.0762 168.313 31.877C167.851 31.6777 167.458 31.3877 167.136 31.0068C166.813 30.626 166.556 30.1689 166.362 29.6357C166.175 29.1025 166.046 28.502 165.976 27.834V26.8496C166.046 26.1465 166.178 25.5166 166.371 24.96C166.564 24.4033 166.819 23.9287 167.136 23.5361C167.458 23.1377 167.848 22.8359 168.305 22.6309C168.762 22.4199 169.289 22.3145 169.887 22.3145C170.484 22.3145 171.015 22.4316 171.478 22.666C171.94 22.8945 172.33 23.2227 172.646 23.6504C172.963 24.0781 173.2 24.5908 173.358 25.1885C173.522 25.7803 173.604 26.4395 173.604 27.166ZM171.97 27.3506V27.166C171.97 26.6914 171.92 26.2461 171.82 25.8301C171.721 25.4082 171.565 25.0391 171.354 24.7227C171.149 24.4004 170.886 24.1484 170.563 23.9668C170.241 23.7793 169.857 23.6855 169.412 23.6855C169.002 23.6855 168.645 23.7559 168.34 23.8965C168.041 24.0371 167.786 24.2275 167.575 24.4678C167.364 24.7021 167.191 24.9717 167.057 25.2764C166.928 25.5752 166.831 25.8857 166.767 26.208V28.4844C166.884 28.8945 167.048 29.2812 167.259 29.6445C167.47 30.002 167.751 30.292 168.103 30.5146C168.454 30.7314 168.896 30.8398 169.43 30.8398C169.869 30.8398 170.247 30.749 170.563 30.5674C170.886 30.3799 171.149 30.125 171.354 29.8027C171.565 29.4805 171.721 29.1113 171.82 28.6953C171.92 28.2734 171.97 27.8252 171.97 27.3506Z" fill="white"/>
</svg>
