<svg width="402" height="392" viewBox="0 0 402 392" fill="none" xmlns="http://www.w3.org/2000/svg">
<path d="M368.513 197.104H244.898C241.299 197.104 238.381 200.023 238.381 203.624V248.484C238.381 252.085 241.299 255.004 244.898 255.004H368.513C372.112 255.004 375.03 252.085 375.03 248.484V203.624C375.03 200.023 372.112 197.104 368.513 197.104Z" fill="white"/>
<path d="M368.514 255.496H244.897C243.039 255.494 241.257 254.755 239.943 253.44C238.629 252.126 237.89 250.343 237.888 248.484V203.624C237.89 201.765 238.629 199.982 239.943 198.668C241.257 197.353 243.039 196.614 244.897 196.611H269.29C269.42 196.611 269.545 196.663 269.638 196.756C269.73 196.848 269.782 196.973 269.782 197.104C269.782 197.234 269.73 197.359 269.638 197.452C269.545 197.544 269.42 197.596 269.29 197.596H244.897C243.3 197.597 241.768 198.233 240.639 199.363C239.51 200.493 238.875 202.026 238.874 203.624V248.484C238.875 250.082 239.511 251.613 240.64 252.743C241.769 253.873 243.3 254.508 244.897 254.51H368.514C370.111 254.508 371.642 253.873 372.771 252.743C373.9 251.613 374.535 250.082 374.537 248.484V203.624C374.536 202.026 373.901 200.493 372.772 199.363C371.642 198.233 370.111 197.597 368.514 197.596H285.716C285.586 197.596 285.461 197.544 285.368 197.452C285.276 197.359 285.224 197.234 285.224 197.104C285.224 196.973 285.276 196.848 285.368 196.756C285.461 196.663 285.586 196.611 285.716 196.611H368.514C370.372 196.614 372.154 197.353 373.468 198.668C374.782 199.982 375.521 201.765 375.523 203.624V248.484C375.521 250.343 374.782 252.126 373.468 253.44C372.154 254.755 370.372 255.494 368.514 255.496Z" fill="#181818"/>
<path d="M356.987 218.95H258.743C258.613 218.95 258.487 218.898 258.395 218.806C258.303 218.713 258.251 218.588 258.251 218.458C258.251 218.327 258.303 218.202 258.395 218.11C258.487 218.017 258.613 217.965 258.743 217.965H356.987C357.118 217.965 357.243 218.017 357.335 218.11C357.427 218.202 357.479 218.327 357.479 218.458C357.479 218.588 357.427 218.713 357.335 218.806C357.243 218.898 357.118 218.95 356.987 218.95Z" fill="#181818"/>
<path d="M356.989 232.086H336.447C336.322 232.078 336.205 232.022 336.119 231.93C336.033 231.839 335.985 231.718 335.985 231.592C335.985 231.467 336.033 231.346 336.119 231.254C336.205 231.163 336.322 231.107 336.447 231.099H356.989C357.115 231.107 357.232 231.163 357.318 231.254C357.404 231.346 357.451 231.467 357.451 231.592C357.451 231.718 357.404 231.839 357.318 231.93C357.232 232.022 357.115 232.078 356.989 232.086Z" fill="#181818"/>
<path d="M323.316 232.086H258.742C258.617 232.078 258.5 232.022 258.414 231.93C258.328 231.839 258.28 231.718 258.28 231.592C258.28 231.467 258.328 231.346 258.414 231.254C258.5 231.163 258.617 231.107 258.742 231.099H323.316C323.441 231.107 323.559 231.163 323.645 231.254C323.73 231.346 323.778 231.467 323.778 231.592C323.778 231.718 323.73 231.839 323.645 231.93C323.559 232.022 323.441 232.078 323.316 232.086Z" fill="#181818"/>
<path d="M60.2788 390.641L67.7843 391.19L207.108 390.641C213.436 390.641 217.918 385.527 217.116 379.215L180.964 93.4643C180.166 87.1528 174.389 82.0385 168.061 82.0385L28.6038 80.4116C12.5942 80.4116 10.4218 87.157 11.2203 93.4685L47.3757 379.217C48.1742 385.527 53.9513 390.641 60.2788 390.641Z" fill="#181818"/>
<path d="M69.1151 390.641H215.951C222.278 390.641 226.761 385.51 225.958 379.18L189.807 92.5093C189.008 86.179 183.231 81.0376 176.904 81.0376H30.068C23.7405 81.0376 19.2581 86.1686 20.0608 92.5093L56.212 379.18C57.0105 385.51 62.7876 390.641 69.1151 390.641Z" fill="white"/>
<path d="M215.95 391.133H69.1145C62.5577 391.133 56.5513 385.798 55.7236 379.245L19.5682 92.5801C19.1512 89.3577 20.0435 86.3229 22.0491 84.0557C24.0548 81.7884 26.8818 80.562 30.0675 80.562H176.903C183.46 80.562 189.469 85.8974 190.294 92.4508L226.45 379.111C226.856 382.334 225.976 385.368 223.969 387.636C221.961 389.903 219.136 391.133 215.95 391.133ZM30.0675 81.5486C27.1695 81.5486 24.5822 82.6707 22.7872 84.7064C20.9921 86.7421 20.1749 89.5203 20.546 92.4571L56.7076 379.117C57.4748 385.199 63.0435 390.149 69.1208 390.149H215.957C218.857 390.149 221.442 389.027 223.237 386.991C225.032 384.955 225.849 382.177 225.478 379.24L189.316 92.5801C188.549 86.4981 182.981 81.5486 176.903 81.5486H30.0675Z" fill="#181818"/>
<path d="M217.593 379.574L183.072 105.858C182.967 105.136 182.61 104.475 182.065 103.991C181.52 103.507 180.821 103.232 180.093 103.213H32.469C32.1343 103.206 31.8023 103.273 31.4962 103.408C31.1901 103.544 30.9173 103.744 30.697 103.996C30.4766 104.248 30.3141 104.546 30.2208 104.867C30.1275 105.189 30.1057 105.527 30.1569 105.858L64.6798 379.572C64.7839 380.294 65.1398 380.956 65.6846 381.44C66.2295 381.925 66.9281 382.201 67.657 382.221H215.283C215.618 382.229 215.951 382.164 216.258 382.029C216.565 381.894 216.839 381.693 217.06 381.44C217.28 381.187 217.442 380.889 217.535 380.567C217.627 380.244 217.647 379.905 217.593 379.574Z" fill="white"/>
<path d="M215.283 382.713H67.6576C66.8103 382.69 65.9981 382.369 65.364 381.807C64.7298 381.244 64.3143 380.475 64.1905 379.637L29.6696 105.922C29.6084 105.522 29.6354 105.114 29.7488 104.725C29.8622 104.337 30.0592 103.978 30.326 103.673C30.5928 103.369 30.923 103.127 31.2933 102.964C31.6636 102.801 32.0651 102.721 32.4696 102.729H180.093C180.941 102.752 181.753 103.073 182.388 103.636C183.022 104.2 183.437 104.968 183.56 105.808L218.075 379.509C218.133 379.913 218.104 380.324 217.989 380.715C217.874 381.106 217.677 381.468 217.41 381.776C217.143 382.076 216.816 382.315 216.449 382.476C216.082 382.638 215.684 382.719 215.283 382.713ZM32.4696 103.707C32.2073 103.701 31.9466 103.751 31.7055 103.855C31.4645 103.959 31.2486 104.113 31.0727 104.308C30.9012 104.513 30.7753 104.752 30.7034 105.009C30.6315 105.266 30.6152 105.535 30.6558 105.799L65.1683 379.509C65.2564 380.112 65.5544 380.665 66.0098 381.07C66.4652 381.475 67.0487 381.706 67.6576 381.722H215.283C215.546 381.728 215.806 381.678 216.047 381.574C216.288 381.471 216.504 381.316 216.68 381.122C216.852 380.918 216.979 380.679 217.051 380.422C217.123 380.165 217.139 379.896 217.097 379.632L182.583 105.922C182.495 105.319 182.197 104.766 181.742 104.361C181.286 103.956 180.703 103.724 180.093 103.707H32.4696Z" fill="#181818"/>
<path d="M108.115 94.4662C109.638 92.8427 109.38 90.1251 107.539 88.3961C105.698 86.6671 102.971 86.5816 101.448 88.205C99.9243 89.8285 100.182 92.5461 102.023 94.2751C103.864 96.0041 106.591 96.0896 108.115 94.4662Z" fill="white"/>
<path d="M115.677 381.918C118.27 371.742 120.263 362.827 121.056 356.954C121.082 356.752 121.169 356.563 121.306 356.412C121.443 356.261 121.623 356.156 121.822 356.111C122.02 356.065 122.228 356.082 122.417 356.158C122.605 356.234 122.766 356.366 122.878 356.537C125.617 360.696 131.394 371.279 137.522 381.918H192.397C186.707 363.422 178.808 345.68 168.872 329.076L163.374 319.898C161.377 316.561 160.35 312.733 160.409 308.844L160.618 295.512C160.621 295.199 160.556 294.889 160.426 294.603C160.297 294.318 160.107 294.065 159.87 293.86C159.633 293.656 159.354 293.506 159.053 293.421C158.751 293.336 158.435 293.318 158.126 293.368C138.885 296.329 119.242 295.322 100.403 290.41L94.2946 288.629C94.0206 288.549 93.7334 288.524 93.4498 288.557C93.1662 288.589 92.8919 288.678 92.6429 288.817C92.3939 288.957 92.1752 289.145 91.9995 289.37C91.8239 289.595 91.6948 289.853 91.6198 290.128C90.6712 293.603 88.6343 300.484 86.4723 304.059C82.1838 311.151 76.2044 323.526 75.7895 337.919C75.5143 347.468 74.7471 364.046 73.3398 381.929L115.677 381.918Z" fill="#181818"/>
<path d="M19.0652 329.403C23.6518 326.794 25.4844 324.698 27.1815 320.378C27.1815 320.378 36.6488 290.356 44.0479 271.517C47.0084 263.979 53.6382 249.859 60.3827 235.926L84.325 249.298C84.5764 249.438 84.8175 249.596 85.0464 249.771C73.2983 269.425 51.7222 305.461 49.4226 308.783C49.4226 308.783 37.6745 326.16 38.2479 335.179C38.6085 340.877 36.3903 351.391 27.9779 357.288C26.2204 358.52 23.927 356.631 24.8048 354.67L24.8485 354.576C26.1599 351.806 28.4887 348.306 28.4887 348.306C28.4887 348.306 23.902 348.35 19.0881 352.14C14.2742 355.93 4.07723 362.727 1.96111 360.441C-1.66861 356.522 0.493374 339.959 19.0652 329.403Z" fill="white"/>
<path d="M3.25625 361.363C2.55365 361.363 1.98449 361.182 1.59879 360.765C0.179013 359.23 -0.335944 356.176 0.218625 352.584C0.737752 349.23 3.61275 337.611 18.8217 328.967C23.2687 326.439 25.0408 324.47 26.7233 320.188C26.8067 319.921 36.2698 289.968 43.5897 271.329C46.1311 264.864 51.633 252.868 59.939 235.703C59.9684 235.642 60.0098 235.589 60.0608 235.545C60.1117 235.501 60.171 235.468 60.2351 235.448C60.2989 235.428 60.3664 235.42 60.4331 235.427C60.4999 235.434 60.5645 235.455 60.6229 235.488L84.5652 248.857C84.8355 249.01 85.0953 249.181 85.3429 249.368C85.4402 249.441 85.5071 249.548 85.5306 249.667C85.554 249.787 85.5325 249.911 85.47 250.015C73.1403 270.654 52.1209 305.759 49.8275 309.065C49.7129 309.232 38.1816 326.4 38.7361 335.137C39.0572 340.17 37.2768 351.36 28.2598 357.678C27.7884 358.003 27.2239 358.165 26.6518 358.141C26.0797 358.116 25.5313 357.905 25.0896 357.541C24.6479 357.176 24.337 356.678 24.2041 356.121C24.0711 355.563 24.1233 354.978 24.3528 354.453L24.4007 354.353C25.3384 352.471 26.3825 350.645 27.528 348.882C24.5499 349.37 21.7488 350.621 19.3971 352.513C19.2637 352.626 8.11185 361.363 3.25625 361.363ZM19.3096 329.825C4.48422 338.249 1.6947 349.491 1.19225 352.734C0.6898 355.978 1.12345 358.8 2.32223 360.095C3.80248 361.697 12.0293 357.069 18.7925 351.752C23.6752 347.9 28.3015 347.812 28.4954 347.812C28.5851 347.811 28.6735 347.834 28.751 347.879C28.8286 347.924 28.8922 347.99 28.9352 348.069C28.9781 348.148 28.9987 348.237 28.9947 348.326C28.9906 348.416 28.9622 348.503 28.9124 348.578C28.8894 348.613 26.5857 352.08 25.3056 354.785L25.268 354.868C25.1261 355.196 25.0945 355.561 25.1781 355.909C25.2616 356.256 25.4558 356.567 25.7313 356.794C26.0068 357.022 26.3487 357.153 26.7055 357.169C27.0623 357.185 27.4146 357.085 27.7094 356.883C36.3699 350.816 38.0753 340.053 37.7688 335.212C37.1913 326.129 48.5453 309.226 49.0269 308.514C51.2827 305.25 72.0457 270.587 84.3984 249.917C84.2984 249.852 84.1899 249.79 84.0961 249.734L60.6083 236.618C52.4398 253.513 47.0276 265.312 44.5174 271.705C37.2205 290.31 27.7574 320.232 27.6635 320.532C25.881 325.036 23.9337 327.203 19.3096 329.833V329.825Z" fill="#181818"/>
<path d="M205.812 216.941C205.932 216.629 206.031 216.308 206.105 215.982L217.637 228.607C218.297 229.328 219.136 229.861 220.069 230.153C221.001 230.444 221.994 230.483 222.947 230.267C223.9 230.05 224.779 229.585 225.494 228.919C226.209 228.252 226.735 227.409 227.019 226.473L230.429 215.179C232.324 208.907 233.32 202.399 233.388 195.848L233.467 188.11C233.524 185.54 232.562 183.051 230.792 181.187C229.316 179.676 228.206 177.846 227.546 175.839C226.886 173.832 226.693 171.7 226.983 169.607L227.802 163.289C227.946 162.303 227.817 159.093 230.536 159.744C232.593 160.232 232.564 161.934 233.348 169.914C233.734 173.845 236.267 175.647 238.944 177.297C238.832 176.64 238.792 175.972 238.825 175.305C238.975 171.864 240.862 168.735 243.731 166.831C247.275 164.478 253.183 161.375 256.684 165.308C259.134 168.059 260.065 174.246 255.794 180.301C255.491 180.73 246.166 191.837 246.166 191.837C245.085 193.286 244.557 195.073 244.677 196.876L245.732 212.615C246.451 223.35 245.705 234.132 243.514 244.665L240.841 257.522C240.681 258.296 240.353 259.026 239.882 259.661C239.411 260.296 238.807 260.82 238.112 261.198C237.417 261.575 236.649 261.796 235.86 261.846C235.071 261.895 234.281 261.772 233.544 261.485L222.803 257.313C213.508 253.704 204.724 248.893 196.676 243.005L195.842 242.379L205.812 216.941Z" fill="white"/>
<path d="M235.527 262.339C234.793 262.34 234.065 262.202 233.381 261.935L222.638 257.763C213.301 254.137 204.477 249.305 196.392 243.39L195.558 242.777C195.471 242.713 195.407 242.621 195.377 242.517C195.347 242.412 195.352 242.301 195.391 242.199L205.353 216.753C205.466 216.463 205.557 216.166 205.626 215.863C205.646 215.775 205.691 215.695 205.753 215.631C205.816 215.567 205.895 215.521 205.982 215.498C206.068 215.475 206.16 215.477 206.246 215.502C206.332 215.527 206.409 215.575 206.47 215.641L217.999 228.267C218.601 228.923 219.365 229.409 220.215 229.675C221.065 229.94 221.97 229.976 222.838 229.779C223.706 229.581 224.506 229.158 225.158 228.551C225.809 227.944 226.289 227.175 226.547 226.323L229.958 215.034C231.838 208.809 232.827 202.349 232.896 195.846L232.975 188.107C233.023 185.668 232.112 183.307 230.438 181.533C228.904 179.971 227.751 178.077 227.067 175.997C226.383 173.917 226.186 171.708 226.493 169.54L227.312 163.228C227.329 163.103 227.342 162.951 227.356 162.778C227.438 161.848 227.565 160.29 228.588 159.551C229.128 159.161 229.82 159.063 230.646 159.259C232.869 159.785 233.033 161.506 233.648 167.909L233.836 169.861C234.157 173.123 236.008 174.815 238.337 176.327C238.318 175.987 238.316 175.635 238.337 175.284C238.489 171.763 240.405 168.449 243.464 166.42C249.668 162.3 254.24 161.816 257.057 164.98C259.801 168.065 260.434 174.575 256.202 180.584C255.896 181.018 247.502 191.013 246.547 192.154C245.547 193.504 245.06 195.166 245.173 196.843L246.228 212.582C246.95 223.361 246.201 234.188 244.002 244.765L241.327 257.622C241.049 258.956 240.32 260.153 239.264 261.014C238.207 261.874 236.887 262.344 235.525 262.346L235.527 262.339ZM196.446 242.206L196.98 242.596C204.995 248.458 213.741 253.248 222.997 256.844L233.738 261.015C234.407 261.275 235.125 261.386 235.841 261.34C236.557 261.294 237.255 261.093 237.885 260.75C238.516 260.407 239.064 259.931 239.492 259.355C239.92 258.779 240.217 258.116 240.364 257.413L243.038 244.556C245.221 234.069 245.964 223.333 245.246 212.644L244.191 196.905C244.065 194.984 244.627 193.081 245.776 191.536C249.529 187.077 255.158 180.353 255.399 180.01C259.34 174.425 258.817 168.432 256.323 165.631C253.884 162.891 249.741 163.433 244.01 167.237C241.214 169.094 239.463 172.116 239.323 175.324C239.293 175.952 239.33 176.581 239.434 177.201C239.451 177.294 239.44 177.391 239.403 177.479C239.367 177.566 239.305 177.642 239.227 177.695C239.148 177.749 239.056 177.779 238.961 177.781C238.866 177.783 238.772 177.758 238.692 177.708C235.85 175.962 233.271 174.054 232.854 169.953L232.668 168.013C232.058 161.647 231.914 160.58 230.423 160.227C229.879 160.098 229.468 160.142 229.172 160.358C228.52 160.832 228.411 162.108 228.338 162.861C228.321 163.057 228.307 163.231 228.288 163.362L227.469 169.671C227.183 171.691 227.366 173.749 228.003 175.687C228.64 177.624 229.714 179.389 231.142 180.845C232.962 182.709 233.988 185.36 233.961 188.118L233.88 195.856C233.812 202.453 232.809 209.007 230.9 215.322L227.498 226.623C227.189 227.641 226.616 228.56 225.837 229.285C225.059 230.011 224.102 230.517 223.065 230.753C222.028 230.989 220.946 230.947 219.931 230.63C218.915 230.313 218.001 229.733 217.282 228.949L206.341 216.968C206.322 217.022 206.301 217.076 206.28 217.129L196.446 242.206Z" fill="#181818"/>
<path d="M253.798 199.414C249.172 202.36 242.613 200.338 239.181 194.913L196.632 127.733L213.311 117.117L255.935 184.418C259.34 189.797 258.385 196.496 253.798 199.414Z" fill="#181818"/>
<path d="M249.049 201.261C248.277 201.259 247.508 201.172 246.755 201.002C243.568 200.289 240.655 198.165 238.764 195.178L196.214 127.998C196.18 127.944 196.156 127.883 196.145 127.819C196.134 127.755 196.135 127.69 196.15 127.627C196.164 127.564 196.19 127.504 196.227 127.451C196.265 127.398 196.312 127.353 196.367 127.318L213.045 116.702C213.1 116.667 213.161 116.643 213.225 116.632C213.288 116.621 213.354 116.623 213.417 116.637C213.48 116.651 213.54 116.678 213.593 116.715C213.645 116.752 213.69 116.799 213.725 116.854L256.352 184.155C259.896 189.743 258.854 196.776 254.058 199.83C252.559 200.775 250.821 201.272 249.049 201.261ZM197.311 127.886L239.596 194.651C241.349 197.419 244.037 199.383 246.97 200.04C249.322 200.566 251.653 200.197 253.533 198.997C257.876 196.234 258.768 189.82 255.522 184.679L213.16 117.799L197.311 127.886Z" fill="#181818"/>
<path d="M259.285 73.1261L209.587 98.4576L189.381 113.992L180.701 125.112L180.641 125.201C178.973 127.101 179.023 132.063 180.837 137.374C182.632 142.63 185.649 146.53 188.117 147.102L188.036 147.129L201.024 150.527L226.307 150.276L281.529 139.37L345.002 160.296L345.46 160.378C329.493 154.921 310.681 129.734 299.273 96.3677C287.879 63.0394 287.343 31.7092 296.625 17.6846H296.613L259.759 72.4253L259.285 73.1261Z" fill="white"/>
<path d="M356.431 160.702C373.778 154.75 376.335 116.363 362.143 74.9626C347.95 33.5621 322.382 4.8253 305.035 10.7772C287.688 16.7292 285.131 55.116 299.324 96.5165C313.516 137.917 339.084 166.654 356.431 160.702Z" fill="white"/>
<path d="M351.638 161.975C344.012 161.975 335.189 156.675 326.247 146.599C315.421 134.395 305.676 116.612 298.808 96.5221C288.405 66.0951 286.716 36.2312 294.487 20.4399C297.082 15.1671 300.599 11.7507 304.94 10.2844C311.735 7.99004 319.89 10.7265 328.524 18.1998C336.884 25.4374 345.067 36.5315 352.191 50.285C352.251 50.4012 352.262 50.5365 352.223 50.661C352.183 50.7856 352.095 50.8893 351.979 50.9494C351.863 51.0094 351.728 51.0208 351.604 50.9811C351.479 50.9414 351.375 50.8538 351.315 50.7376C336.794 22.6988 318.283 6.81784 305.257 11.2188C301.173 12.5975 297.845 15.8471 295.371 20.8758C287.703 36.4439 289.418 66.0117 299.749 96.203C312.587 133.757 334.855 160.989 351.638 160.989C353.197 160.996 354.747 160.747 356.225 160.252C360.309 158.872 363.635 155.622 366.111 150.595C373.78 135.027 372.064 105.458 361.733 75.2662C359.603 69.021 357.141 62.894 354.357 56.9115C354.31 56.7941 354.309 56.6631 354.356 56.5453C354.402 56.4276 354.492 56.3322 354.607 56.2787C354.721 56.2252 354.852 56.2178 354.972 56.2579C355.092 56.298 355.192 56.3826 355.252 56.4943C358.049 62.5075 360.524 68.6658 362.665 74.9429C373.069 105.37 374.757 135.236 366.987 151.027C364.391 156.298 360.874 159.714 356.532 161.181C354.955 161.711 353.302 161.979 351.638 161.975Z" fill="#181818"/>
<path d="M349.211 153.173C342.452 153.173 334.638 148.482 326.726 139.564C317.153 128.774 308.536 113.05 302.463 95.2873C293.264 68.381 291.765 41.9711 298.645 28.0007C300.939 23.3286 304.066 20.298 307.919 18.9965C318.222 15.5175 332.209 25.4895 344.429 45.0247C344.47 45.0794 344.499 45.142 344.515 45.2087C344.531 45.2754 344.533 45.3446 344.52 45.412C344.508 45.4794 344.482 45.5434 344.443 45.6001C344.405 45.6568 344.355 45.7049 344.297 45.7413C344.239 45.7777 344.174 45.8017 344.106 45.8117C344.039 45.8217 343.969 45.8174 343.903 45.7993C343.837 45.7811 343.776 45.7494 343.723 45.7062C343.67 45.663 343.626 45.6092 343.595 45.5482C331.63 26.4218 318.078 16.6042 308.236 19.9247C304.641 21.1386 301.712 24.0003 299.529 28.4304C292.76 42.1776 294.278 68.2913 303.395 94.9661C314.734 128.13 334.39 152.185 349.197 152.187C350.569 152.192 351.932 151.973 353.233 151.536C366.895 146.922 370.147 118.418 360.797 85.2339C360.779 85.1716 360.774 85.1065 360.782 85.0422C360.79 84.9779 360.81 84.9158 360.841 84.8593C360.873 84.8029 360.915 84.7532 360.966 84.7132C361.017 84.6731 361.075 84.6435 361.138 84.626C361.2 84.6084 361.265 84.6033 361.329 84.611C361.394 84.6186 361.456 84.6389 361.512 84.6705C361.569 84.7022 361.618 84.7447 361.658 84.7956C361.698 84.8464 361.728 84.9047 361.745 84.967C366.299 101.132 368.029 116.852 366.614 129.233C365.171 141.858 360.53 150.111 353.55 152.47C352.152 152.941 350.686 153.178 349.211 153.173Z" fill="#181818"/>
<path d="M328.555 86.5211C331.835 96.1156 331.23 104.984 327.209 106.336C323.187 107.687 317.266 101.023 313.986 91.4351C310.707 81.8469 311.314 72.9699 315.335 71.6204C319.357 70.2709 325.278 76.9329 328.555 86.5211Z" fill="white"/>
<path d="M326.115 107.013C321.914 107.013 316.621 100.673 313.521 91.6016C311.081 84.4662 310.696 77.4372 312.539 73.6953C313.185 72.3813 314.073 71.5262 315.176 71.1528C319.525 69.6928 325.6 76.3672 329.021 86.3601C331.461 93.4975 331.846 100.527 330.003 104.268C329.357 105.582 328.469 106.438 327.364 106.811C326.961 106.946 326.54 107.014 326.115 107.013ZM316.429 71.9371C316.111 71.9348 315.794 71.9856 315.493 72.0872C314.646 72.373 313.95 73.0592 313.423 74.1313C311.688 77.6499 312.092 84.3828 314.452 91.2825C317.58 100.443 323.357 107.124 327.049 105.883C327.896 105.597 328.592 104.909 329.119 103.839C330.852 100.32 330.449 93.5872 328.089 86.6854C325.21 78.2632 320.107 71.9371 316.429 71.9371Z" fill="#181818"/>
<path d="M345.458 160.868C345.429 160.871 345.399 160.871 345.37 160.868L344.912 160.786C344.889 160.782 344.867 160.776 344.845 160.768L281.497 139.879L226.413 150.76C226.383 150.763 226.352 150.763 226.321 150.76L201.039 151.01C200.995 151.01 200.952 151.004 200.909 150.994L187.921 147.598C187.848 147.579 187.781 147.543 187.725 147.494C185.073 146.659 182.156 142.717 180.382 137.528C178.506 132.053 178.462 126.985 180.261 124.892L180.305 124.828L189.003 113.682C189.028 113.649 189.058 113.619 189.09 113.594L209.297 98.0571C209.322 98.0404 209.347 98.0238 209.374 98.0091L258.96 72.736L296.203 17.3967C296.277 17.2886 296.39 17.2139 296.518 17.1888C296.646 17.1638 296.779 17.1906 296.887 17.2632C296.997 17.3364 297.074 17.4495 297.101 17.5784C297.129 17.7073 297.105 17.8418 297.035 17.9536C287.551 32.2827 288.637 63.7297 299.746 96.2029C310.866 128.728 329.302 154.329 345.625 159.908C345.736 159.945 345.83 160.021 345.891 160.121C345.952 160.221 345.974 160.34 345.955 160.456C345.936 160.571 345.876 160.676 345.787 160.752C345.697 160.827 345.583 160.868 345.466 160.868H345.458ZM281.528 138.878C281.581 138.877 281.633 138.886 281.682 138.903L338.995 157.793C324.147 148.599 308.614 125.222 298.803 96.5199C289.063 68.0326 287.007 40.2691 292.986 23.9355L259.694 73.4014C259.647 73.4703 259.584 73.5268 259.51 73.5662L209.851 98.8747L189.73 114.347L181.047 125.481C181.047 125.497 181.024 125.512 181.011 125.529C179.467 127.291 179.59 132.203 181.303 137.209C182.984 142.121 185.89 146.078 188.227 146.614C188.304 146.629 188.376 146.664 188.436 146.716L201.089 150.024L226.261 149.776L281.436 138.878C281.467 138.875 281.498 138.875 281.528 138.878Z" fill="#181818"/>
<path d="M259.399 72.9612L296.613 17.6719H296.626C287.344 31.6944 287.869 63.0267 299.273 96.355C310.682 129.727 329.504 154.909 345.461 160.365L345.002 160.284L281.623 139.397L280.164 138.919C272.802 136.452 264.175 125.097 259.048 109.996C253.788 94.4945 254.626 79.961 258.927 73.6223L259.399 72.9612Z" fill="white"/>
<path d="M345.459 160.868C345.43 160.871 345.401 160.871 345.372 160.868L344.913 160.786C344.89 160.782 344.868 160.776 344.847 160.768L281.482 139.872L280.012 139.395C272.246 136.794 263.638 125.047 258.584 110.163C252.846 93.2536 254.531 79.229 258.523 73.3534L258.993 72.6818L296.205 17.3967C296.278 17.2886 296.391 17.2139 296.519 17.1888C296.647 17.1638 296.78 17.1906 296.889 17.2632C296.998 17.3364 297.075 17.4495 297.103 17.5784C297.13 17.7073 297.107 17.8418 297.037 17.9536C287.553 32.2827 288.639 63.7297 299.747 96.2029C310.868 128.728 329.304 154.329 345.626 159.908C345.737 159.945 345.832 160.021 345.893 160.121C345.953 160.221 345.976 160.34 345.957 160.456C345.938 160.571 345.878 160.676 345.788 160.752C345.699 160.827 345.585 160.868 345.468 160.868H345.459ZM292.992 23.9355L259.808 73.2366L259.339 73.9082C255.359 79.7609 254.141 93.9878 259.522 109.84C264.48 124.44 272.84 135.945 280.327 138.454L281.786 138.93L338.996 157.793C324.148 148.599 308.616 125.222 298.805 96.5199C289.069 68.0347 287.013 40.2712 292.992 23.9355Z" fill="#181818"/>
<path d="M200.325 150.835C200.283 150.836 200.241 150.83 200.2 150.819L187.912 147.607C187.84 147.587 187.772 147.551 187.716 147.502C185.064 146.668 182.147 142.726 180.373 137.537C178.497 132.061 178.453 126.993 180.252 124.903L180.296 124.836L188.994 113.69C189.034 113.639 189.083 113.597 189.14 113.565C189.196 113.533 189.258 113.512 189.322 113.505C189.386 113.497 189.451 113.502 189.514 113.519C189.576 113.536 189.634 113.566 189.685 113.606C189.736 113.645 189.779 113.695 189.81 113.751C189.842 113.808 189.863 113.87 189.87 113.934C189.878 113.998 189.873 114.063 189.856 114.125C189.839 114.188 189.809 114.246 189.769 114.297L181.049 125.481C181.049 125.498 181.026 125.512 181.013 125.529C179.468 127.291 179.591 132.203 181.305 137.209C182.985 142.121 185.892 146.078 188.229 146.614C188.306 146.629 188.378 146.664 188.437 146.716L200.45 149.868C200.567 149.897 200.67 149.968 200.738 150.068C200.806 150.167 200.835 150.288 200.819 150.408C200.804 150.528 200.745 150.638 200.654 150.717C200.563 150.796 200.446 150.839 200.325 150.837V150.835Z" fill="#181818"/>
<path d="M201.15 150.47C197.132 149.573 192.32 142.972 189.393 134.41C186.291 125.335 186.57 116.472 189.702 113.761L180.701 125.109L180.641 125.199C178.973 127.099 179.023 132.061 180.837 137.372C182.632 142.63 185.649 146.53 188.117 147.102L188.036 147.129L201.15 150.47Z" fill="#181818"/>
<path d="M201.15 150.964C201.114 150.964 201.079 150.96 201.044 150.952C200.942 150.929 200.835 150.904 200.739 150.874L187.916 147.606C187.839 147.589 187.767 147.553 187.707 147.502C185.055 146.667 182.139 142.725 180.364 137.536C178.488 132.061 178.444 126.993 180.243 124.903L180.287 124.836L188.197 114.86C188.503 114.31 188.901 113.816 189.373 113.4C189.466 113.318 189.585 113.275 189.709 113.277C189.832 113.28 189.95 113.329 190.039 113.415C190.127 113.5 190.181 113.616 190.189 113.739C190.196 113.862 190.157 113.984 190.08 114.08L188.991 115.452C187.009 119.046 187.286 126.715 189.859 134.245C192.669 142.463 197.206 148.83 200.99 149.919L201.271 149.99C201.387 150.021 201.487 150.092 201.554 150.191C201.62 150.29 201.649 150.41 201.634 150.529C201.62 150.647 201.562 150.757 201.473 150.836C201.384 150.916 201.27 150.961 201.15 150.962V150.964ZM188.433 146.72L197.566 149.047C194.354 146.323 191.147 141.055 188.929 134.566C186.786 128.296 186.202 122.051 187.138 117.794L181.05 125.48C181.05 125.497 181.027 125.512 181.015 125.528C179.47 127.291 179.593 132.203 181.307 137.209C182.987 142.121 185.893 146.077 188.23 146.613C188.304 146.633 188.373 146.67 188.431 146.72H188.433Z" fill="#181818"/>
<path d="M225.384 150.284L226.462 150.232C220.602 150.566 212.911 140.65 208.42 127.497C203.833 114.076 204.459 101.451 209.588 98.4658L208.912 98.9852L189.756 113.727C186.575 116.372 186.273 125.289 189.394 134.416C192.404 143.222 197.525 149.928 201.594 150.516L225.384 150.284Z" fill="white"/>
<path d="M201.604 151H201.533C197.212 150.374 192.031 143.621 188.937 134.571C185.78 125.337 186.001 116.216 189.452 113.344L208.236 98.8875C208.571 98.5587 208.945 98.2729 209.349 98.0365C209.458 97.9724 209.586 97.9522 209.709 97.9799C209.831 98.0075 209.938 98.081 210.008 98.1853C210.079 98.2896 210.106 98.4167 210.086 98.5406C210.065 98.6646 209.998 98.776 209.898 98.852L208.81 99.6863C204.819 103.649 204.767 115.257 208.897 127.333C213.3 140.215 220.676 149.751 226.18 149.751H226.37H226.447C226.577 149.746 226.704 149.792 226.8 149.88C226.897 149.967 226.956 150.088 226.964 150.218C226.971 150.348 226.926 150.476 226.839 150.573C226.752 150.67 226.63 150.728 226.499 150.735H226.418L225.419 150.783H225.401L201.604 151ZM206.462 101.478L190.056 114.103C186.971 116.669 186.877 125.521 189.848 134.241C192.767 142.793 197.714 149.409 201.617 150.007L222.761 149.811C217.495 147.1 211.712 138.673 207.944 127.644C204.373 117.173 203.943 106.976 206.462 101.478Z" fill="#181818"/>
<path d="M315.335 71.6201C311.314 72.9779 310.54 81.9133 313.987 91.4348C319.772 107.412 326.389 106.615 327.177 106.452C327.192 106.452 327.196 106.469 327.177 106.475L311.795 115.473C308.461 108.862 305.591 102.028 303.206 95.0182C300.896 88.2953 299.039 81.4255 297.646 74.4547L315.335 71.6201Z" fill="#181818"/>
<path d="M311.802 115.98C311.756 115.981 311.709 115.974 311.665 115.96C311.6 115.941 311.54 115.909 311.488 115.866C311.437 115.823 311.394 115.77 311.364 115.709C308.018 109.079 305.138 102.223 302.748 95.1917C300.43 88.4507 298.566 81.562 297.169 74.5718C297.144 74.4405 297.173 74.3047 297.248 74.1943C297.286 74.1393 297.334 74.0924 297.39 74.0565C297.447 74.0207 297.51 73.9966 297.575 73.9858L315.259 71.1345C315.38 71.1169 315.504 71.1451 315.606 71.2136C315.708 71.2822 315.78 71.3861 315.81 71.5053C315.839 71.6245 315.823 71.7503 315.765 71.8584C315.707 71.9664 315.61 72.0489 315.495 72.0898C314.617 72.386 313.895 73.1118 313.349 74.2465C311.619 77.8361 312.063 84.6753 314.452 91.2767C320.106 106.893 326.386 106.125 327.082 105.985C327.199 105.964 327.319 105.984 327.423 106.041C327.527 106.099 327.607 106.19 327.651 106.3C327.693 106.414 327.693 106.539 327.653 106.653C327.613 106.767 327.534 106.864 327.43 106.926L312.052 115.92C311.976 115.962 311.89 115.983 311.802 115.98ZM298.236 74.8743C299.614 81.6517 301.433 88.332 303.68 94.8725C306 101.696 308.783 108.353 312.007 114.798L325.46 106.928C322.785 106.438 317.913 103.731 313.524 91.6104C311.023 84.6753 310.606 77.6901 312.461 73.8168C312.692 73.3232 312.986 72.8613 313.335 72.4423L298.236 74.8743Z" fill="#181818"/>
<path d="M244.358 181.527C246.81 181.776 250.669 181.229 254.828 178.399C259.191 175.435 259.139 168.045 256.69 165.294C253.189 161.36 247.281 164.46 243.736 166.817C240.868 168.721 238.153 172.504 238.22 175.145C238.32 179.183 239.756 181.062 244.358 181.527Z" fill="white"/>
<path d="M245.454 182.074C245.008 182.074 244.62 182.049 244.308 182.017C239.684 181.548 237.845 179.627 237.728 175.166C237.653 172.162 240.647 168.283 243.465 166.405C249.13 162.651 253.456 161.921 256.318 164.255C256.387 164.318 256.852 164.735 257.059 164.966C259.802 168.051 260.436 174.561 256.204 180.57C256.125 180.668 256.012 180.732 255.888 180.75C255.764 180.767 255.637 180.737 255.535 180.665C255.432 180.592 255.36 180.484 255.335 180.361C255.309 180.238 255.332 180.11 255.397 180.003C259.339 174.415 258.816 168.422 256.323 165.621C256.179 165.461 255.808 165.121 255.678 164.995C253.206 162.981 249.274 163.723 244.003 167.219C241.124 169.129 238.649 172.823 238.706 175.124C238.804 179.11 240.242 180.599 244.399 181.02C245.79 181.16 248.655 181.129 252.238 179.337C252.354 179.288 252.485 179.284 252.603 179.327C252.721 179.371 252.818 179.457 252.875 179.57C252.931 179.683 252.943 179.813 252.906 179.933C252.87 180.054 252.789 180.156 252.68 180.219C249.682 181.738 247.131 182.074 245.454 182.074Z" fill="#181818"/>
<path d="M205.395 210.93L200.293 205.199C191.649 195.597 180.761 188.288 168.604 183.924L160.308 180.945C160.162 180.892 160.003 180.881 159.851 180.911C159.698 180.941 159.557 181.013 159.442 181.118C159.327 181.223 159.242 181.357 159.198 181.507C159.154 181.656 159.151 181.815 159.19 181.965C161.711 191.072 154.812 199.828 145.431 202.454C117.602 210.248 105.418 184.691 105.418 184.691C104.46 183.238 103.074 182.117 101.453 181.483C99.8312 180.85 98.0533 180.735 96.3637 181.154C86.1229 183.722 73.2406 192.229 55.4152 228.35C54.7902 229.664 54.6834 231.164 55.1163 232.553C55.5492 233.942 56.4898 235.116 57.7502 235.84L83.8859 250.441C86.1604 251.711 86.102 254.568 85.7622 257.155L77.9983 299.208C77.7754 300.386 77.9077 301.604 78.3784 302.707C78.8491 303.81 79.637 304.749 80.6418 305.403C87.1257 309.574 106.01 285.525 146.01 298.165C159.712 302.493 177.224 295.157 179.434 285.573L174.741 258.031C175.213 255.244 179.024 253.882 181.976 253.234C183.637 252.904 185.337 252.81 187.025 252.956C188.79 253.075 190.544 252.601 192.009 251.609C193.474 250.617 194.566 249.164 195.112 247.481L206.673 217.959C207.133 216.784 207.257 215.505 207.031 214.263C206.806 213.022 206.239 211.868 205.395 210.93Z" fill="white"/>
<path d="M82.4806 306.395C81.7374 306.415 81.0051 306.214 80.3749 305.82C79.2856 305.115 78.4314 304.101 77.9218 302.907C77.4122 301.714 77.2704 300.395 77.5145 299.12L85.2806 257.061C85.5975 254.64 85.6558 251.986 83.6481 250.866L57.5125 236.266C56.1404 235.482 55.1158 234.207 54.6447 232.698C54.1737 231.189 54.291 229.558 54.9732 228.132C73.4991 190.588 86.7608 183.054 96.2531 180.681C98.0411 180.236 99.923 180.355 101.64 181.024C103.357 181.692 104.826 182.875 105.843 184.412C105.856 184.431 105.867 184.45 105.877 184.47C105.908 184.535 108.969 190.851 115.346 196.132C123.869 203.188 133.949 205.153 145.312 201.972C153.755 199.609 161.286 191.335 158.728 182.091C158.665 181.853 158.668 181.603 158.737 181.367C158.806 181.131 158.938 180.918 159.119 180.752C159.3 180.585 159.522 180.471 159.763 180.422C160.004 180.374 160.254 180.391 160.485 180.474L168.779 183.448C181.006 187.854 191.958 195.212 200.66 204.869L205.762 210.601C206.671 211.604 207.281 212.842 207.523 214.175C207.766 215.508 207.63 216.881 207.131 218.141L195.571 247.661C194.992 249.445 193.833 250.985 192.278 252.035C190.724 253.085 188.863 253.585 186.992 253.455C185.08 253.323 183.519 253.409 182.082 253.722C179.735 254.233 175.752 255.47 175.242 258.037L179.922 285.492C179.935 285.556 179.935 285.622 179.922 285.686C179.067 289.392 176.005 292.917 171.295 295.608C163.725 299.936 153.745 301.125 145.86 298.636C119.003 290.152 101.692 298.338 91.3516 303.225C87.5301 305.048 84.6593 306.395 82.4806 306.395ZM98.4047 181.4C97.7602 181.4 97.1181 181.48 96.4929 181.636C87.2153 183.959 74.2142 191.393 55.8655 228.565C55.2918 229.765 55.1933 231.137 55.5898 232.406C55.9862 233.675 56.8482 234.747 58.0024 235.407L84.1381 250.007C86.6607 251.415 86.6274 254.441 86.2646 257.215L78.4923 299.302C78.285 300.384 78.4052 301.504 78.8375 302.517C79.2698 303.531 79.9946 304.393 80.9191 304.992C82.7954 306.197 86.2104 304.575 90.943 302.341C101.415 297.387 118.942 289.096 146.168 297.698C153.795 300.107 163.473 298.949 170.807 294.755C175.235 292.225 178.119 288.963 178.938 285.561L174.256 258.119C174.245 258.064 174.245 258.008 174.256 257.954C174.768 254.921 178.68 253.457 181.871 252.762C183.402 252.429 185.051 252.345 187.061 252.474C188.717 252.587 190.363 252.141 191.737 251.209C193.111 250.277 194.134 248.912 194.643 247.331L206.214 217.782C206.644 216.693 206.762 215.505 206.552 214.353C206.343 213.201 205.816 212.13 205.03 211.262L199.937 205.526C191.342 195.994 180.528 188.732 168.455 184.383L160.149 181.4C160.087 181.378 160.02 181.373 159.955 181.386C159.891 181.399 159.831 181.43 159.782 181.474C159.733 181.519 159.698 181.576 159.679 181.639C159.66 181.703 159.659 181.77 159.676 181.834C160.9 186.258 160.016 190.907 157.174 194.916C154.514 198.67 150.294 201.59 145.566 202.921C130.985 207.003 120.721 201.878 114.677 196.872C108.316 191.583 105.264 185.486 104.993 184.929C104.268 183.846 103.288 182.957 102.139 182.342C100.99 181.726 99.7079 181.403 98.4047 181.4Z" fill="#181818"/>
<path d="M119.215 248.732C119.111 248.733 119.01 248.701 118.926 248.641C118.842 248.581 118.779 248.496 118.746 248.398C118.713 248.3 118.711 248.195 118.741 248.096C118.772 247.997 118.832 247.91 118.914 247.848C129.591 239.674 132.868 230.459 132.899 230.367C132.942 230.243 133.032 230.142 133.149 230.085C133.267 230.027 133.402 230.019 133.526 230.062C133.65 230.104 133.751 230.194 133.808 230.312C133.866 230.429 133.874 230.565 133.831 230.688C133.698 231.076 130.441 240.264 119.513 248.626C119.428 248.694 119.323 248.731 119.215 248.732Z" fill="#181818"/>
<path d="M158.191 247.412C158.099 247.411 158.01 247.385 157.932 247.337C157.855 247.288 157.792 247.219 157.752 247.137C157.711 247.055 157.694 246.964 157.702 246.873C157.711 246.782 157.744 246.695 157.799 246.621C165.892 235.878 166.58 226.121 166.584 226.022C166.588 225.958 166.605 225.895 166.633 225.836C166.662 225.778 166.701 225.726 166.75 225.683C166.798 225.64 166.855 225.607 166.916 225.586C166.977 225.565 167.042 225.557 167.107 225.56C167.171 225.564 167.234 225.581 167.293 225.61C167.351 225.638 167.403 225.678 167.446 225.726C167.488 225.775 167.521 225.831 167.542 225.892C167.563 225.954 167.572 226.018 167.568 226.083C167.543 226.5 166.87 236.218 158.585 247.216C158.539 247.277 158.479 247.326 158.411 247.36C158.342 247.394 158.267 247.412 158.191 247.412Z" fill="#181818"/>
<path d="M154.646 118.95C154.646 143.287 138.474 171.059 114.148 171.059C89.8221 171.059 65.0625 150.091 65.0625 125.754C65.0625 101.417 85.5294 77.9902 109.855 77.9902C134.181 77.9902 154.646 94.6137 154.646 118.95Z" fill="#181818"/>
<path d="M73.6094 142.96C75.6252 141.028 75.6944 137.828 73.764 135.811C71.8336 133.794 68.6346 133.725 66.6187 135.656C64.6029 137.588 64.5337 140.788 66.4641 142.805C68.3945 144.822 71.5935 144.891 73.6094 142.96Z" fill="#181818"/>
<path d="M79.006 156.511C83.1915 155.836 86.0373 151.894 85.3624 147.707C84.6875 143.52 80.7474 140.673 76.5619 141.348C72.3764 142.023 69.5305 145.965 70.2054 150.152C70.8803 154.339 74.8205 157.187 79.006 156.511Z" fill="#181818"/>
<path d="M87.4143 166.132C92.4955 166.132 96.6147 162.011 96.6147 156.928C96.6147 151.844 92.4955 147.723 87.4143 147.723C82.333 147.723 78.2139 151.844 78.2139 156.928C78.2139 162.011 82.333 166.132 87.4143 166.132Z" fill="#181818"/>
<path d="M101.465 172.502C107.232 172.502 111.906 167.825 111.906 162.056C111.906 156.287 107.232 151.611 101.465 151.611C95.699 151.611 91.0244 156.287 91.0244 162.056C91.0244 167.825 95.699 172.502 101.465 172.502Z" fill="#181818"/>
<path d="M122.843 171.54C128.08 167.927 129.398 160.751 125.787 155.512C122.175 150.272 115.002 148.954 109.765 152.567C104.528 156.18 103.21 163.356 106.821 168.596C110.433 173.835 117.606 175.154 122.843 171.54Z" fill="#181818"/>
<path d="M74.4751 130.125C79.0313 127.642 80.7127 121.934 78.2306 117.376C75.7486 112.818 70.0431 111.136 65.4869 113.619C60.9308 116.102 59.2494 121.81 61.7314 126.368C64.2134 130.926 69.919 132.608 74.4751 130.125Z" fill="#181818"/>
<path d="M75.2657 120.953C80.9008 120.953 85.469 116.382 85.469 110.745C85.469 105.107 80.9008 100.537 75.2657 100.537C69.6306 100.537 65.0625 105.107 65.0625 110.745C65.0625 116.382 69.6306 120.953 75.2657 120.953Z" fill="#181818"/>
<path d="M73.0302 137.087C75.7791 135.409 76.6473 131.819 74.9694 129.068C73.2914 126.318 69.7028 125.45 66.9539 127.128C64.205 128.807 63.3368 132.397 65.0147 135.147C66.6927 137.898 70.2813 138.766 73.0302 137.087Z" fill="#181818"/>
<path d="M154.6 126.29C157.865 123.392 158.164 118.394 155.267 115.127C152.37 111.861 147.375 111.562 144.109 114.46C140.844 117.359 140.546 122.356 143.443 125.623C146.34 128.889 151.335 129.188 154.6 126.29Z" fill="#181818"/>
<path d="M154.758 116.981C158.493 114.254 159.31 109.013 156.584 105.277C153.857 101.54 148.619 100.723 144.885 103.45C141.15 106.178 140.332 111.418 143.059 115.155C145.785 118.891 151.023 119.709 154.758 116.981Z" fill="#181818"/>
<path d="M152.486 102.749C153.888 98.0598 151.226 93.121 146.539 91.7178C141.852 90.3145 136.915 92.9782 135.512 97.6673C134.11 102.356 136.772 107.295 141.459 108.698C146.146 110.102 151.083 107.438 152.486 102.749Z" fill="#181818"/>
<path d="M139.628 97.443C144.089 96.3831 146.846 91.906 145.787 87.4431C144.727 82.9803 140.252 80.2216 135.791 81.2815C131.33 82.3415 128.573 86.8185 129.632 91.2814C130.692 95.7443 135.167 98.5029 139.628 97.443Z" fill="#181818"/>
<path d="M131.204 87.6943C133.425 85.4722 133.425 81.8696 131.204 79.6475C128.983 77.4254 125.381 77.4254 123.16 79.6475C120.939 81.8696 120.939 85.4722 123.16 87.6943C125.381 89.9164 128.983 89.9164 131.204 87.6943Z" fill="#181818"/>
<path d="M123.872 84.0076C125.093 80.2319 123.024 76.1808 119.25 74.9591C115.476 73.7374 111.426 75.8078 110.205 79.5835C108.984 83.3591 111.054 87.4103 114.828 88.632C118.602 89.8537 122.651 87.7833 123.872 84.0076Z" fill="#181818"/>
<path d="M105.554 95.8692C110.921 95.8692 115.272 91.5167 115.272 86.1475C115.272 80.7783 110.921 76.4258 105.554 76.4258C100.188 76.4258 95.8369 80.7783 95.8369 86.1475C95.8369 91.5167 100.188 95.8692 105.554 95.8692Z" fill="#181818"/>
<path d="M102.184 89.96C104.004 85.5221 101.883 80.449 97.4465 78.6288C93.0106 76.8087 87.9397 78.9309 86.1203 83.3688C84.301 87.8067 86.4222 92.8798 90.8582 94.6999C95.2942 96.52 100.365 94.3979 102.184 89.96Z" fill="#181818"/>
<path d="M85.4696 100.787C90.6844 100.787 94.9119 96.558 94.9119 91.3409C94.9119 86.1238 90.6844 81.8945 85.4696 81.8945C80.2548 81.8945 76.0273 86.1238 76.0273 91.3409C76.0273 96.558 80.2548 100.787 85.4696 100.787Z" fill="#181818"/>
<path d="M78.4465 102.252C80.2882 99.2241 79.3276 95.2758 76.3009 93.4333C73.2743 91.5908 69.3277 92.5519 67.486 95.5799C65.6443 98.6078 66.605 102.556 69.6316 104.399C72.6583 106.241 76.6048 105.28 78.4465 102.252Z" fill="#181818"/>
<path d="M159.219 182.073L154.341 180.736C146.56 179.382 148.149 159.361 148.712 154.118L155.529 151.502C156.245 151.058 156.823 150.423 157.199 149.67C157.576 148.916 157.735 148.072 157.66 147.233L156.978 139.38L157.553 134.747C151.428 132.453 146.794 124.417 146.794 124.417L133.471 127.118C126.852 129.814 132.087 132.597 135.139 139.069C135.139 139.069 136.238 144.655 130.999 141.226C126.239 138.112 125.122 138.431 123.879 140.427C122.91 141.987 123.652 145.224 124.561 146.82L124.8 147.237C125.252 148.03 125.869 148.717 126.61 149.252C127.35 149.786 128.196 150.155 129.091 150.334H129.112C129.91 168.764 117.672 180.229 105.359 182.964C105.047 183.033 104.734 183.097 104.419 183.156L104.186 183.202C104.657 183.643 105.077 184.137 105.436 184.674C105.436 184.674 117.62 210.231 145.449 202.436C154.77 199.829 161.648 191.138 159.219 182.073Z" fill="white"/>
<path d="M135.268 204.404C126.033 204.404 119.184 200.606 114.679 196.868C108.316 191.583 105.263 185.486 104.992 184.929C104.661 184.434 104.275 183.977 103.844 183.567C103.779 183.505 103.733 183.426 103.71 183.339C103.687 183.253 103.688 183.161 103.713 183.075C103.739 182.989 103.787 182.912 103.854 182.851C103.92 182.791 104.002 182.75 104.09 182.733L104.323 182.687C104.634 182.628 104.949 182.564 105.249 182.497C116.978 179.886 129.241 168.848 128.634 150.739C127.743 150.51 126.906 150.104 126.174 149.545C125.442 148.986 124.83 148.285 124.373 147.485L124.133 147.068C123.164 145.366 122.367 141.929 123.462 140.171C123.933 139.411 124.504 138.681 125.434 138.475C126.648 138.206 128.282 138.865 131.272 140.817C132.681 141.739 133.736 142.069 134.245 141.718C134.883 141.289 134.772 139.797 134.662 139.228C133.869 137.629 132.952 136.095 131.92 134.639C130.528 132.581 129.418 130.954 129.89 129.425C130.215 128.347 131.295 127.466 133.284 126.655C133.313 126.643 133.343 126.634 133.373 126.628L146.685 123.929C146.786 123.908 146.892 123.919 146.986 123.961C147.08 124.004 147.159 124.075 147.21 124.165C147.256 124.244 151.83 132.09 157.716 134.28C157.82 134.32 157.907 134.393 157.965 134.488C158.022 134.582 158.046 134.694 158.033 134.804L157.462 139.393L158.139 147.193C158.227 148.124 158.052 149.061 157.634 149.897C157.217 150.734 156.573 151.437 155.777 151.926C155.751 151.941 155.724 151.955 155.696 151.966L149.16 154.469C148.682 159.205 147.131 178.98 154.424 180.251L159.351 181.596C159.434 181.618 159.511 181.662 159.572 181.724C159.633 181.785 159.677 181.862 159.699 181.946C162.355 191.854 154.601 200.391 145.572 202.921C142.221 203.884 138.755 204.383 135.268 204.404ZM105.157 183.519C105.4 183.802 105.626 184.1 105.833 184.412C105.846 184.43 105.857 184.45 105.866 184.47C105.897 184.535 108.958 190.85 115.335 196.132C123.856 203.19 133.938 205.155 145.301 201.972C153.786 199.596 161.096 191.678 158.815 182.476L154.209 181.214C146.147 179.81 147.577 160.088 148.211 154.066C148.22 153.974 148.254 153.886 148.31 153.813C148.365 153.739 148.44 153.682 148.526 153.649L155.3 151.052C155.928 150.655 156.435 150.091 156.763 149.423C157.091 148.755 157.227 148.009 157.157 147.268L156.476 139.416C156.472 139.381 156.472 139.346 156.476 139.311L157.007 135.058C151.587 132.825 147.452 126.457 146.539 124.961L133.613 127.583C131.97 128.259 131.061 128.953 130.832 129.709C130.507 130.783 131.491 132.236 132.737 134.089C133.657 135.449 134.697 136.988 135.581 138.863C135.598 138.9 135.611 138.938 135.619 138.978C135.673 139.247 136.102 141.647 134.785 142.534C133.89 143.137 132.562 142.845 130.721 141.641C128.059 139.895 126.537 139.23 125.643 139.439C125.169 139.545 124.79 139.895 124.294 140.69C123.445 142.052 124.137 145.087 124.986 146.578L125.226 146.995C125.642 147.728 126.212 148.363 126.895 148.856C127.579 149.349 128.36 149.689 129.187 149.853C129.298 149.874 129.399 149.931 129.474 150.015C129.549 150.099 129.595 150.205 129.604 150.318C130.419 169.221 117.662 180.737 105.461 183.448L105.157 183.519Z" fill="#181818"/>
<path d="M137.652 184.7C136.719 184.693 135.798 184.497 134.942 184.124C134.822 184.073 134.727 183.977 134.678 183.856C134.629 183.734 134.63 183.599 134.68 183.479C134.731 183.358 134.828 183.263 134.949 183.214C135.07 183.165 135.205 183.166 135.326 183.217C138.099 184.387 139.981 183.117 140 183.104C140.108 183.03 140.24 183.001 140.369 183.025C140.497 183.048 140.612 183.122 140.686 183.229C140.76 183.337 140.789 183.47 140.765 183.598C140.742 183.727 140.668 183.841 140.561 183.916C139.685 184.447 138.677 184.719 137.652 184.7Z" fill="#181818"/>
<path d="M137.712 157.249C137.826 152.77 134.291 149.047 129.814 148.932C125.338 148.817 121.616 152.354 121.501 156.833C121.386 161.311 124.922 165.035 129.398 165.149C133.875 165.264 137.597 161.727 137.712 157.249Z" fill="white"/>
<path d="M129.602 165.636C127.901 165.636 126.238 165.131 124.824 164.186C123.41 163.24 122.308 161.897 121.657 160.324C121.006 158.752 120.835 157.022 121.167 155.353C121.499 153.685 122.318 152.151 123.521 150.948C124.724 149.745 126.256 148.926 127.924 148.594C129.592 148.262 131.322 148.432 132.893 149.083C134.464 149.734 135.808 150.837 136.753 152.252C137.698 153.667 138.202 155.33 138.202 157.032C138.2 159.313 137.293 161.5 135.681 163.113C134.068 164.726 131.882 165.634 129.602 165.636ZM129.602 149.415C128.095 149.414 126.623 149.861 125.37 150.698C124.117 151.535 123.141 152.725 122.564 154.117C121.987 155.51 121.836 157.042 122.13 158.52C122.424 159.998 123.149 161.356 124.215 162.422C125.28 163.487 126.637 164.213 128.115 164.507C129.592 164.801 131.124 164.65 132.515 164.073C133.907 163.496 135.096 162.519 135.933 161.266C136.77 160.013 137.216 158.539 137.216 157.032C137.213 155.013 136.41 153.077 134.983 151.649C133.555 150.221 131.62 149.418 129.602 149.415Z" fill="#181818"/>
<path d="M326.689 289.035H203.074C199.475 289.035 196.557 291.954 196.557 295.555V340.416C196.557 344.017 199.475 346.936 203.074 346.936H326.689C330.288 346.936 333.206 344.017 333.206 340.416V295.555C333.206 291.954 330.288 289.035 326.689 289.035Z" fill="white"/>
<path d="M326.694 347.428H203.073C201.214 347.426 199.433 346.686 198.119 345.372C196.805 344.057 196.066 342.275 196.063 340.416V295.555C196.066 293.696 196.805 291.914 198.119 290.599C199.433 289.285 201.214 288.545 203.073 288.543H227.465C227.596 288.543 227.721 288.595 227.813 288.687C227.906 288.779 227.957 288.905 227.957 289.035C227.957 289.166 227.906 289.291 227.813 289.383C227.721 289.476 227.596 289.527 227.465 289.527H203.073C201.475 289.529 199.944 290.165 198.814 291.295C197.685 292.425 197.049 293.957 197.048 295.555V340.416C197.05 342.014 197.685 343.545 198.815 344.675C199.944 345.805 201.476 346.44 203.073 346.442H326.694C328.291 346.44 329.822 345.804 330.951 344.675C332.08 343.545 332.715 342.013 332.717 340.416V295.555C332.716 293.957 332.081 292.425 330.952 291.295C329.822 290.165 328.291 289.529 326.694 289.527H243.892C243.761 289.527 243.636 289.476 243.544 289.383C243.452 289.291 243.4 289.166 243.4 289.035C243.4 288.905 243.452 288.779 243.544 288.687C243.636 288.595 243.761 288.543 243.892 288.543H326.694C328.552 288.545 330.333 289.285 331.647 290.599C332.962 291.914 333.701 293.696 333.703 295.555V340.416C333.701 342.275 332.962 344.057 331.647 345.372C330.333 346.686 328.552 347.426 326.694 347.428Z" fill="#181818"/>
<path d="M315.163 310.888H216.919C216.794 310.879 216.676 310.824 216.591 310.732C216.505 310.641 216.457 310.52 216.457 310.394C216.457 310.269 216.505 310.148 216.591 310.056C216.676 309.965 216.794 309.909 216.919 309.901H315.163C315.231 309.897 315.298 309.906 315.362 309.929C315.426 309.952 315.484 309.987 315.533 310.034C315.582 310.08 315.622 310.136 315.649 310.198C315.676 310.26 315.689 310.327 315.689 310.394C315.689 310.462 315.676 310.529 315.649 310.591C315.622 310.653 315.582 310.709 315.533 310.755C315.484 310.801 315.426 310.837 315.362 310.86C315.298 310.882 315.231 310.892 315.163 310.888Z" fill="#181818"/>
<path d="M315.164 324.028H294.622C294.497 324.02 294.38 323.964 294.294 323.873C294.208 323.781 294.16 323.66 294.16 323.535C294.16 323.409 294.208 323.288 294.294 323.197C294.38 323.105 294.497 323.05 294.622 323.042H315.164C315.232 323.037 315.299 323.047 315.363 323.069C315.427 323.092 315.485 323.128 315.534 323.174C315.583 323.22 315.623 323.276 315.65 323.338C315.676 323.4 315.69 323.467 315.69 323.535C315.69 323.602 315.676 323.669 315.65 323.731C315.623 323.793 315.583 323.849 315.534 323.896C315.485 323.942 315.427 323.977 315.363 324C315.299 324.023 315.232 324.033 315.164 324.028Z" fill="#181818"/>
<path d="M281.493 324.028H216.919C216.794 324.02 216.676 323.964 216.591 323.873C216.505 323.781 216.457 323.66 216.457 323.535C216.457 323.409 216.505 323.288 216.591 323.197C216.676 323.105 216.794 323.05 216.919 323.042H281.493C281.618 323.05 281.736 323.105 281.821 323.197C281.907 323.288 281.955 323.409 281.955 323.535C281.955 323.66 281.907 323.781 281.821 323.873C281.736 323.964 281.618 324.02 281.493 324.028Z" fill="#181818"/>
<path d="M163.726 45.7609L211.971 59.8001L246.213 21.7017L163.726 45.7609Z" fill="white"/>
<path d="M211.969 60.2924C211.923 60.2924 211.876 60.286 211.832 60.2737L163.586 46.2344C163.484 46.2045 163.394 46.1424 163.331 46.0572C163.267 45.972 163.232 45.8684 163.232 45.762C163.232 45.6556 163.267 45.552 163.331 45.4668C163.394 45.3817 163.484 45.3195 163.586 45.2896L246.071 21.2283C246.174 21.1982 246.283 21.2025 246.383 21.2404C246.483 21.2783 246.568 21.3478 246.625 21.4383C246.682 21.5288 246.708 21.6355 246.699 21.7421C246.69 21.8487 246.647 21.9495 246.576 22.0292L212.334 60.1298C212.288 60.1809 212.232 60.2218 212.169 60.2498C212.106 60.2778 212.038 60.2924 211.969 60.2924ZM165.477 45.761L211.819 59.2391L244.697 22.6591L165.477 45.761Z" fill="#181818"/>
<path d="M187.764 68.412L181.032 50.7956L234.346 28.3091L189.511 53.2631L199.596 56.1978L187.764 68.412Z" fill="white"/>
<path d="M187.764 68.9047C187.73 68.9053 187.696 68.9018 187.663 68.8943C187.582 68.8778 187.507 68.841 187.444 68.7874C187.381 68.7338 187.332 68.6651 187.303 68.5877L180.571 50.9734C180.526 50.8546 180.529 50.7229 180.579 50.6062C180.629 50.4894 180.723 50.3968 180.84 50.3477L234.153 27.8507C234.269 27.8044 234.398 27.8037 234.515 27.8487C234.631 27.8937 234.726 27.9811 234.781 28.0933C234.836 28.2055 234.846 28.3343 234.809 28.4537C234.773 28.5732 234.693 28.6744 234.585 28.7371L190.782 53.1217L199.728 55.7248C199.809 55.7497 199.883 55.795 199.941 55.8563C199.999 55.9177 200.041 55.993 200.062 56.0751C200.083 56.1572 200.082 56.2432 200.061 56.3251C200.039 56.4069 199.996 56.4817 199.937 56.5424L188.105 68.7545C188.016 68.8478 187.893 68.9017 187.764 68.9047ZM181.661 51.0652L187.947 67.5135L198.671 56.4444L189.373 53.7329C189.28 53.7059 189.196 53.6518 189.134 53.5775C189.071 53.5032 189.032 53.412 189.021 53.3154C189.01 53.2188 189.028 53.1211 189.072 53.0347C189.117 52.9483 189.186 52.877 189.271 52.8297L226.193 32.2788L181.661 51.0652Z" fill="#181818"/>
<path d="M188.376 63.5859H188.32C188.255 63.5786 188.193 63.5587 188.136 63.5273C188.08 63.4959 188.03 63.4536 187.989 63.4028C187.949 63.352 187.919 63.2938 187.902 63.2314C187.884 63.1691 187.879 63.1038 187.886 63.0394L189.02 53.2113C189.042 53.0871 189.111 52.9759 189.212 52.9006C189.313 52.8252 189.439 52.7914 189.564 52.8061C189.69 52.8207 189.805 52.8828 189.886 52.9794C189.967 53.0761 190.008 53.2001 190 53.326L188.866 63.1541C188.851 63.2734 188.793 63.383 188.703 63.4625C188.612 63.542 188.496 63.5858 188.376 63.5859Z" fill="#181818"/>
<path d="M339.267 308.302C352.089 308.302 362.484 297.903 362.484 285.075C362.484 272.247 352.089 261.848 339.267 261.848C326.444 261.848 316.05 272.247 316.05 285.075C316.05 297.903 326.444 308.302 339.267 308.302Z" fill="white"/>
<path d="M339.267 308.802C334.578 308.803 329.994 307.413 326.095 304.807C322.195 302.202 319.156 298.498 317.36 294.165C315.565 289.831 315.095 285.062 316.008 280.461C316.922 275.86 319.179 271.633 322.493 268.315C325.808 264.997 330.032 262.737 334.631 261.821C339.229 260.904 343.996 261.373 348.329 263.166C352.661 264.96 356.365 267.999 358.971 271.899C361.578 275.798 362.97 280.384 362.971 285.075C362.966 291.364 360.468 297.394 356.024 301.843C351.58 306.291 345.553 308.794 339.267 308.802ZM339.267 262.348C334.772 262.348 330.379 263.682 326.642 266.18C322.904 268.678 319.992 272.229 318.272 276.383C316.552 280.537 316.102 285.108 316.979 289.518C317.855 293.928 320.02 297.979 323.198 301.159C326.376 304.338 330.425 306.504 334.833 307.381C339.242 308.258 343.811 307.808 347.963 306.087C352.116 304.366 355.665 301.452 358.162 297.714C360.659 293.975 361.992 289.58 361.992 285.083C361.987 279.054 359.592 273.273 355.331 269.009C351.071 264.745 345.293 262.347 339.267 262.34V262.348Z" fill="#181818"/>
<path d="M350.347 292.825C350.262 292.769 349.632 292.312 349.015 290.948C347.881 288.445 347.687 284.956 347.724 282.463V282.43C347.74 280.863 347.306 279.325 346.473 277.999C345.64 276.672 344.444 275.613 343.027 274.946L343.056 272.998C343.069 272.148 342.744 271.328 342.152 270.717C341.561 270.106 340.752 269.755 339.902 269.74H339.637C338.788 269.729 337.97 270.055 337.361 270.647C336.752 271.239 336.402 272.049 336.389 272.898L336.362 274.846C334.921 275.47 333.69 276.497 332.818 277.804C331.945 279.111 331.468 280.642 331.444 282.213C331.408 284.716 331.11 288.193 329.903 290.654C329.246 291.995 328.602 292.431 328.517 292.483C328.345 292.561 328.205 292.695 328.121 292.864C328.036 293.033 328.013 293.225 328.054 293.409C328.095 293.6 328.201 293.771 328.352 293.893C328.504 294.016 328.693 294.083 328.888 294.083L335.067 294.179C335.049 295.331 335.489 296.442 336.291 297.269C337.092 298.096 338.189 298.571 339.34 298.589C340.491 298.607 341.603 298.167 342.429 297.365C343.256 296.564 343.731 295.466 343.749 294.314L349.928 294.41C350.123 294.416 350.314 294.355 350.469 294.238C350.625 294.12 350.735 293.953 350.783 293.764C350.829 293.581 350.811 293.388 350.731 293.217C350.652 293.046 350.516 292.908 350.347 292.825ZM338.076 272.927C338.082 272.525 338.248 272.143 338.536 271.863C338.824 271.583 339.211 271.429 339.612 271.434H339.879C340.281 271.441 340.664 271.607 340.943 271.896C341.222 272.185 341.376 272.573 341.37 272.975L341.349 274.377C340.809 274.256 340.258 274.191 339.704 274.183C339.151 274.174 338.598 274.221 338.055 274.325L338.076 272.927ZM339.37 296.849C338.676 296.836 338.015 296.553 337.526 296.06C337.037 295.567 336.76 294.902 336.754 294.208L342.062 294.291C342.034 294.984 341.738 295.638 341.235 296.115C340.732 296.592 340.063 296.854 339.37 296.844V296.849Z" fill="#181818"/>
<path d="M386.195 198.615C387.034 188.322 379.373 179.298 369.085 178.459C358.796 177.62 349.776 185.284 348.937 195.577C348.099 205.87 355.759 214.894 366.048 215.733C376.336 216.572 385.357 208.908 386.195 198.615Z" fill="white"/>
<path d="M367.579 216.296C363.785 216.296 360.077 215.171 356.923 213.063C353.769 210.954 351.31 207.957 349.858 204.451C348.407 200.944 348.027 197.086 348.767 193.364C349.507 189.642 351.334 186.222 354.016 183.539C356.699 180.855 360.116 179.028 363.837 178.287C367.558 177.547 371.414 177.927 374.919 179.379C378.424 180.832 381.42 183.291 383.527 186.447C385.635 189.602 386.76 193.312 386.76 197.107C386.753 202.195 384.73 207.072 381.134 210.669C377.539 214.266 372.664 216.29 367.579 216.296ZM367.579 178.897C363.98 178.897 360.461 179.964 357.468 181.965C354.476 183.966 352.143 186.809 350.766 190.136C349.388 193.463 349.028 197.123 349.73 200.655C350.432 204.187 352.166 207.431 354.711 209.977C357.256 212.524 360.498 214.258 364.029 214.96C367.559 215.663 371.218 215.302 374.543 213.924C377.869 212.546 380.711 210.212 382.711 207.218C384.71 204.224 385.778 200.704 385.778 197.103C385.772 192.276 383.853 187.649 380.441 184.235C377.03 180.822 372.404 178.902 367.579 178.897Z" fill="#181818"/>
<path d="M372.623 198.97C372.125 198.971 371.634 199.087 371.188 199.31C370.742 199.532 370.354 199.854 370.053 200.251L363.742 197.794C363.742 197.711 363.767 197.629 363.767 197.544C363.762 197.389 363.747 197.235 363.721 197.083L370.184 194.088C370.617 194.597 371.196 194.961 371.843 195.128C372.49 195.296 373.173 195.259 373.799 195.023C374.424 194.787 374.961 194.364 375.337 193.81C375.713 193.257 375.908 192.602 375.897 191.933C375.897 191.504 375.814 191.08 375.651 190.683C375.487 190.287 375.248 189.927 374.945 189.623C374.643 189.319 374.284 189.078 373.888 188.913C373.493 188.749 373.069 188.663 372.64 188.663C372.212 188.662 371.787 188.745 371.391 188.909C370.995 189.072 370.635 189.312 370.331 189.614C370.028 189.917 369.787 190.276 369.622 190.672C369.457 191.068 369.372 191.492 369.371 191.921C369.376 192.075 369.391 192.229 369.417 192.382L362.954 195.377C362.519 194.874 361.941 194.516 361.297 194.353C360.652 194.19 359.974 194.229 359.352 194.464C358.73 194.699 358.196 195.12 357.821 195.669C357.446 196.218 357.249 196.869 357.256 197.533C357.254 198.402 357.597 199.236 358.208 199.853C358.82 200.47 359.65 200.819 360.519 200.825C361.017 200.824 361.508 200.708 361.953 200.485C362.399 200.263 362.787 199.941 363.087 199.544L369.386 202.011C369.386 202.095 369.361 202.176 369.361 202.262C369.364 202.907 369.558 203.536 369.919 204.071C370.279 204.605 370.79 205.021 371.386 205.266C371.983 205.51 372.638 205.572 373.27 205.445C373.902 205.317 374.482 205.004 374.936 204.547C375.391 204.09 375.7 203.509 375.825 202.876C375.949 202.243 375.884 201.588 375.636 200.992C375.389 200.397 374.971 199.888 374.434 199.53C373.898 199.172 373.268 198.981 372.623 198.981V198.97Z" fill="#181818"/>
<path d="M350.807 35.2719C350.706 35.2727 350.607 35.242 350.525 35.1843C350.472 35.1473 350.426 35.1003 350.392 35.0458C350.357 34.9913 350.333 34.9304 350.321 34.8667C350.31 34.8029 350.311 34.7376 350.325 34.6743C350.339 34.611 350.365 34.5511 350.402 34.498L366.161 11.8863C366.198 11.8317 366.245 11.7849 366.299 11.7486C366.354 11.7124 366.415 11.6874 366.479 11.6751C366.544 11.6629 366.61 11.6637 366.674 11.6774C366.738 11.6911 366.799 11.7175 366.853 11.755C366.907 11.7926 366.952 11.8405 366.987 11.8959C367.022 11.9514 367.046 12.0133 367.057 12.078C367.067 12.1426 367.065 12.2088 367.05 12.2726C367.035 12.3364 367.007 12.3966 366.968 12.4495L351.211 35.0612C351.166 35.1264 351.105 35.1795 351.035 35.2162C350.964 35.2529 350.886 35.272 350.807 35.2719Z" fill="#181818"/>
<path d="M362.482 53.7577C362.377 53.7582 362.275 53.7253 362.19 53.6637C362.105 53.6021 362.042 53.515 362.011 53.4152C361.979 53.3154 361.98 53.208 362.013 53.1086C362.046 53.0093 362.111 52.9232 362.196 52.8629L400.497 25.5561C400.603 25.4804 400.735 25.45 400.864 25.4717C400.993 25.4934 401.108 25.5654 401.184 25.6719C401.26 25.7784 401.29 25.9106 401.268 26.0395C401.247 26.1684 401.175 26.2834 401.068 26.3592L362.761 53.6659C362.68 53.7244 362.582 53.7564 362.482 53.7577Z" fill="#181818"/>
<path d="M367.579 72.1125C367.451 72.1145 367.328 72.067 367.235 71.9801C367.142 71.8932 367.087 71.7736 367.08 71.6464C367.073 71.5193 367.116 71.3944 367.199 71.2982C367.282 71.2019 367.4 71.1417 367.526 71.1301L397.413 67.9222C397.477 67.9147 397.543 67.9201 397.605 67.9382C397.667 67.9562 397.725 67.9865 397.776 68.0273C397.826 68.0681 397.868 68.1186 397.899 68.1757C397.93 68.2329 397.949 68.2956 397.955 68.3602C397.968 68.4898 397.93 68.6195 397.848 68.7211C397.767 68.8226 397.648 68.8878 397.519 68.9025L367.631 72.1104L367.579 72.1125Z" fill="#181818"/>
<path d="M389.382 14.8602C389.382 15.3928 389.224 15.9134 388.928 16.3562C388.633 16.799 388.212 17.1441 387.721 17.3479C387.229 17.5517 386.688 17.6051 386.165 17.5012C385.643 17.3973 385.164 17.1408 384.787 16.7642C384.411 16.3876 384.155 15.9079 384.051 15.3855C383.947 14.8632 384 14.3218 384.204 13.8297C384.408 13.3377 384.753 12.9172 385.195 12.6213C385.638 12.3254 386.158 12.1675 386.691 12.1675L389.382 14.8602Z" fill="white"/>
<path d="M386.691 18.0477C385.847 18.0477 385.037 17.7121 384.44 17.1149C383.843 16.5176 383.508 15.7075 383.508 14.8628C383.508 14.0181 383.843 13.2079 384.44 12.6107C385.037 12.0134 385.847 11.6778 386.691 11.6778C386.759 11.6734 386.826 11.6829 386.89 11.7057C386.954 11.7285 387.012 11.7641 387.061 11.8104C387.111 11.8566 387.15 11.9125 387.177 11.9745C387.204 12.0366 387.218 12.1035 387.218 12.1711C387.218 12.2387 387.204 12.3056 387.177 12.3676C387.15 12.4297 387.111 12.4856 387.061 12.5318C387.012 12.578 386.954 12.6136 386.89 12.6365C386.826 12.6593 386.759 12.6688 386.691 12.6644C386.257 12.6648 385.832 12.7941 385.471 13.0359C385.11 13.2777 384.829 13.6212 384.663 14.0229C384.497 14.4246 384.453 14.8666 384.539 15.2929C384.624 15.7192 384.833 16.1107 385.14 16.418C385.448 16.7252 385.839 16.9344 386.266 17.0191C386.692 17.1037 387.133 17.0601 387.535 16.8936C387.936 16.7271 388.279 16.4454 388.521 16.0839C388.762 15.7224 388.891 15.2975 388.891 14.8628C388.891 14.7322 388.943 14.607 389.035 14.5147C389.127 14.4224 389.252 14.3705 389.383 14.3705C389.513 14.3705 389.639 14.4224 389.731 14.5147C389.823 14.607 389.875 14.7322 389.875 14.8628C389.874 15.7071 389.538 16.5166 388.941 17.1136C388.344 17.7107 387.535 18.0466 386.691 18.0477Z" fill="#181818"/>
</svg>
