<svg width="270" height="243" viewBox="0 0 270 243" fill="none" xmlns="http://www.w3.org/2000/svg">
<path fill-rule="evenodd" clip-rule="evenodd" d="M35.8901 0.415529C29.7162 0.825032 23.3975 2.91317 17.974 6.33643C8.55997 12.2784 2.09662 22.1258 0.471765 33.0025C-0.555215 39.8769 0.267791 46.7141 2.90685 53.2339C3.53497 54.7855 5.01148 57.6318 5.94242 59.0852C9.86743 65.2139 15.273 70.051 21.7128 73.1971C26.0728 75.3272 30.7769 76.6172 35.6201 77.0108C37.0279 77.1252 40.4754 77.1248 41.9388 77.01C49.3957 76.425 56.6737 73.6043 62.6079 68.9992C64.1778 67.7809 66.0621 66.046 67.4265 64.5628C68.4894 63.4072 70.4852 60.9424 71.1128 60.0104C71.7837 59.014 73.2977 56.2629 73.9257 54.8991C75.9668 50.4662 77.1026 46.0903 77.4285 41.4034C78.2099 30.164 74.0837 19.3493 66.0043 11.4609C65.0861 10.5644 63.9703 9.53444 63.5247 9.17215C57.8345 4.5453 51.1833 1.63526 44.0948 0.671302C41.7002 0.345595 38.4652 0.244779 35.8901 0.415529ZM163.171 0.757997C162.052 0.867765 160.367 1.18715 159.619 1.43117C156.281 2.52078 153.601 5.54998 152.718 9.23015C152.466 10.2782 152.488 12.383 152.76 13.398C153.026 14.3863 153.889 16.0606 154.638 17.0394C155.59 18.2828 158.028 20.5896 159.462 21.6032L159.712 21.7799L159.49 22.7C158.915 25.0813 158.857 25.5232 158.854 27.5687C158.851 29.3622 158.865 29.5424 159.06 30.1099C159.658 31.8504 160.672 32.565 162.808 32.7538C163.458 32.8113 163.467 32.8155 163.517 33.0859C163.545 33.2366 163.794 34.3864 164.072 35.6412C164.89 39.3344 165.017 39.9261 165.017 40.0461C165.017 40.1118 164.912 40.1602 164.769 40.1604C164.633 40.1606 163.969 40.2572 163.294 40.3749C156.649 41.5339 150.93 44.5265 147.523 48.6273C147.122 49.1099 145.967 50.5117 144.955 51.7423C140.342 57.3523 138.104 59.4734 135.422 60.7744C134.016 61.4567 132.522 61.7101 131.215 61.4882C129.473 61.1924 127.859 59.9476 126.847 58.119C126.562 57.6029 126.43 57.4457 126.282 57.4457C126.165 57.4457 125.849 57.6777 125.477 58.0379C125.084 58.4175 124.841 58.5941 124.799 58.5297C124.764 58.4745 123.561 56.6285 122.125 54.4277C119.912 51.0329 119.484 50.4261 119.307 50.4261C119.159 50.4261 118.789 50.7357 118.028 51.4979C117.439 52.0875 116.939 52.5514 116.917 52.5289C116.894 52.5064 116.593 51.7576 116.246 50.8648C113.393 43.508 110.6 37.4921 108.929 35.1059C108.548 34.5618 100.627 27.0522 100.395 27.0156C100.022 26.9564 99.4688 27.9172 99.3439 28.841C99.233 29.6616 99.7977 31.3063 100.562 32.3894C100.713 32.6027 100.836 32.7937 100.836 32.8138C100.836 32.834 100.056 32.8981 99.1031 32.9564C96.4351 33.1194 96.0005 32.9801 94.0806 31.346C92.1465 29.6998 90.8953 28.838 89.674 28.3109C89.2626 28.1333 89.0334 28.097 88.3171 28.0961C87.4852 28.0952 87.4286 28.108 86.6968 28.4621C85.8842 28.8553 85.5333 29.1179 85.5333 29.3332C85.5333 29.4598 89.5269 34.6886 90.3562 35.6478C92.0871 37.6497 94.1468 38.9972 96.7018 39.7996C97.317 39.9927 98.7514 40.4117 99.8894 40.7305C101.027 41.0495 102.199 41.4298 102.494 41.5757C103.937 42.2907 105.022 43.5283 105.562 45.0757C105.73 45.5551 105.863 46.3322 106.058 47.969C106.205 49.1998 106.365 50.5226 106.414 50.9087C106.463 51.2948 106.585 52.3115 106.685 53.1681C106.913 55.1159 107.159 57.1966 107.456 59.6779L107.686 61.6029L101.696 67.4447C98.4008 70.6578 95.705 73.3292 95.705 73.3813C95.705 73.4945 96.314 74.0575 98.4507 75.9198C98.8961 76.308 100.044 77.3119 101.002 78.1508L102.743 79.6759L100.98 81.3349C99.7509 82.4905 99.2158 83.0517 99.2162 83.184C99.2166 83.3008 99.3295 83.4467 99.5088 83.5622C103.939 86.4176 107.282 88.2276 111.188 89.8859C115.922 91.8961 120.005 93.0078 124.69 93.562C126.527 93.7794 130.28 93.7794 132.071 93.562C137.796 92.8674 143.013 90.7551 147.464 87.33L148.319 86.6718L148.39 87.6553C148.429 88.1962 148.44 90.2774 148.413 92.2802C148.229 105.969 148.243 107.51 148.593 112.44C148.858 116.16 149.342 119.382 149.814 120.556C150.316 121.805 151.521 123.07 152.777 123.665C153.44 123.98 153.749 124.075 154.719 124.266C154.906 124.303 154.909 124.336 154.962 127.925C155.057 134.239 155.51 138.316 156.42 141.054C156.71 141.925 156.724 142.021 156.641 142.556C156.592 142.871 156.39 144.293 156.191 145.716C155.993 147.14 155.77 148.719 155.697 149.226C155.498 150.607 155.205 152.727 155.205 152.792C155.205 152.824 143.722 152.829 129.686 152.805C110.014 152.77 104.134 152.783 104.021 152.864C103.825 153.004 103.935 153.337 104.195 153.39C104.606 153.474 227.654 153.592 228.132 153.509C229.219 153.32 230.61 152.404 231.257 151.451C231.79 150.667 231.856 150.348 232.479 145.533C232.806 143.004 233.175 140.164 233.299 139.223C233.423 138.282 233.768 135.637 234.065 133.344C234.362 131.052 234.686 128.565 234.784 127.817C234.882 127.069 235 126.16 235.046 125.798C235.091 125.437 235.333 123.571 235.584 121.653C236.033 118.207 236.605 113.806 237.304 108.425C237.501 106.905 237.806 104.563 237.982 103.22C238.316 100.656 238.313 100.528 237.915 100.528C237.82 100.528 237.711 100.616 237.669 100.726C237.628 100.834 237.445 102.088 237.264 103.511C237.083 104.935 236.853 106.712 236.754 107.46C236.584 108.741 236.069 112.695 235.048 120.578C234.287 126.451 233.705 130.926 233.376 133.432C233.03 136.074 232.534 139.901 231.768 145.848C231.494 147.971 231.225 149.867 231.17 150.06C230.891 151.039 229.928 152.094 228.865 152.584L228.252 152.868L221.226 152.892L214.2 152.916L214.04 151.575C213.064 143.423 211.82 136.067 210.511 130.721C210.341 130.025 210.218 129.441 210.237 129.422C210.34 129.322 212.958 133.071 214.188 135.082C214.934 136.302 215.03 136.422 215.239 136.398C215.401 136.379 215.479 136.312 215.499 136.169C215.538 135.906 214.906 132.913 214.33 130.624C213.264 126.387 212.253 123.2 211.024 120.202C210.837 119.744 210.837 119.739 211.014 119.832C211.138 119.896 211.248 119.898 211.366 119.836C211.845 119.586 211.707 114.98 211.139 112.198C210.769 110.389 209.604 106.56 209.006 105.185L208.875 104.885L209.562 103.977L210.249 103.069L212.139 103.121C215.875 103.225 219.912 102.907 224.079 102.179L224.676 102.075L225.306 102.495C225.654 102.726 226.011 102.9 226.104 102.884C226.211 102.864 226.39 102.612 226.601 102.185C226.908 101.56 226.952 101.512 227.273 101.453C227.857 101.346 230.988 100.312 232.078 99.8654C239.3 96.9077 243.437 92.2877 244.044 86.5017C244.213 84.8959 244.135 82.7207 243.826 80.3908C243.357 76.8472 243.259 73.9704 243.546 72.1428C243.904 69.8679 244.637 67.8939 245.877 65.8691C247.101 63.8683 248.447 62.4593 250.89 60.6181C253.521 58.6356 254.474 57.2987 255.052 54.7809C255.226 54.0194 255.255 53.6467 255.252 52.181C255.249 50.3793 255.161 49.6936 254.711 47.9522C254.165 45.8416 252.959 43.2168 251.634 41.2568C249.46 38.0409 246.628 35.5074 243.645 34.1086C241.604 33.1522 239.825 32.7561 237.569 32.756C235.716 32.7559 234.047 33.0053 231.177 33.7108C225.782 35.0374 223.008 34.8144 219.881 32.8025C219.054 32.2709 217.554 30.8066 217.006 29.9962C216.307 28.9616 215.673 27.6989 214.842 25.6822C213.335 22.0235 212.375 20.7743 210.356 19.8415C209.285 19.3472 208.44 19.1726 207.098 19.1684C205.156 19.1623 203.908 19.5229 200.009 21.217C196.379 22.7936 195.24 23.095 193.161 23.0279C192.081 22.993 191.784 22.9513 191.219 22.7557C189.771 22.2536 188.609 21.4693 186.976 19.8911C184.879 17.8653 182.818 15.2095 181.017 12.2135C179.87 10.3068 178.846 8.75756 178 7.6511C177.094 6.46489 175.446 4.74484 174.488 3.9826C172.529 2.42575 170.426 1.44556 168.032 0.974112C166.827 0.736676 164.461 0.631557 163.171 0.757997ZM95.525 0.822927C94.3118 1.02377 93.0753 1.87682 92.5522 2.87395C92.3477 3.26354 92.1394 4.06508 92.063 4.75519C92.0033 5.29473 91.6709 8.01936 91.426 9.97598C91.3063 10.9324 90.9673 13.6694 90.4275 18.0379C90.2422 19.537 90.3102 20.1352 90.765 21.0086C91.1167 21.6841 91.8788 22.4028 92.6181 22.7565L93.1396 23.006L113.628 23.0287L134.116 23.0514L134.978 24.6081C135.451 25.4642 136.527 27.4086 137.369 28.9287C138.588 31.1318 138.938 31.6987 139.096 31.7221C139.478 31.7789 139.429 32.0296 140.039 26.8668C140.261 24.9846 140.463 23.3584 140.488 23.2529C140.532 23.0662 140.574 23.0605 142.085 23.0336C143.62 23.0064 143.645 23.0027 144.248 22.7244C145.023 22.3663 145.758 21.6612 146.109 20.9393C146.384 20.3713 146.443 20.0835 146.739 17.8291C146.84 17.0569 147.128 14.8853 147.377 13.0032C148.534 4.2819 148.485 4.72185 148.373 4.05323C148.134 2.63388 147.167 1.51637 145.708 0.974021C145.27 0.810992 144.625 0.806431 120.504 0.796165C106.889 0.790374 95.6488 0.802395 95.525 0.822927ZM40.8859 1.02878C45.7185 1.29833 51.0121 2.6137 54.8535 4.49942C55.5584 4.84548 55.5602 4.85065 55.3221 5.87858C55.0598 7.01153 54.5015 7.8344 53.7131 8.25049C53.4008 8.41527 53.2096 8.44045 52.2728 8.44045C51.3186 8.44045 51.105 8.41115 50.4403 8.1888C49.3014 7.80782 48.7071 7.93223 48.2006 8.65753C47.8945 9.09599 47.8073 9.4832 47.7555 10.6341C47.6701 12.5333 48.0888 14.6026 48.6389 15.0003C48.9399 15.2179 49.1634 15.1531 49.6646 14.7028C50.0386 14.3668 50.2588 14.057 51.1219 12.6534C51.5911 11.8903 51.8494 11.7167 52.2906 11.8679C52.4241 11.9137 52.6165 12.0892 52.7181 12.2578C52.8839 12.5328 52.9023 12.7048 52.8972 13.9245C52.8925 15.0485 52.8631 15.3419 52.7286 15.6153C52.3848 16.3133 51.8498 16.4863 49.9884 16.5015C48.3686 16.5147 47.9499 16.6348 47.4943 17.217C47.25 17.5292 47.2328 17.6094 47.1761 18.6971C47.0972 20.2113 46.8836 20.7907 46.1068 21.597C45.5014 22.2255 45.2768 22.7021 45.2256 23.4675C45.1941 23.9379 45.2231 24.2073 45.3368 24.4976C45.8827 25.8907 47.2286 25.2921 49.1368 22.8074C50.1402 21.501 50.8867 20.7346 51.3851 20.4994C51.7191 20.3418 51.9003 20.3148 52.393 20.3491C52.9194 20.3859 53.153 20.4705 54.2844 21.0341C55.4615 21.6206 55.6241 21.6778 56.1294 21.6833C57.1903 21.695 57.678 21.1394 57.9416 19.6185C58.1301 18.5308 58.2234 18.3117 58.4984 18.3117C59.3389 18.3117 60.7799 19.9041 60.7789 20.8318C60.7785 21.242 60.5138 21.6826 60.0263 22.0844C59.2448 22.7287 58.6308 23.3681 58.5711 23.5999C58.3981 24.2716 58.8815 25.0353 59.7266 25.4249C60.0333 25.5664 60.3319 25.6821 60.3903 25.6821C60.4486 25.6822 60.6411 25.8152 60.8179 25.9777C61.2496 26.3746 61.2445 26.6533 60.7977 27.0888C60.3348 27.5399 59.6436 27.735 58.6967 27.6816C58.0774 27.6466 57.8907 27.5912 57.1206 27.2136C56.1091 26.7177 55.6183 26.6663 54.9283 26.9836C54.7055 27.0861 54.4322 27.1709 54.3209 27.1719C54.0251 27.1747 53.4681 26.6408 53.0481 25.9519C52.6231 25.2545 52.225 24.8925 51.8833 24.8926C51.5039 24.8927 50.6331 25.339 49.7604 25.9808C48.5462 26.8737 48.3043 27.0241 47.1456 27.6071C45.341 28.5149 44.4839 29.2158 44.1565 30.0514C44.0064 30.4346 44.009 30.4874 44.2468 31.9028C44.5308 33.5933 44.5347 33.7148 44.341 34.9068C44.1486 36.0908 44.2036 37.6319 44.4633 38.3321C45.1537 40.1937 46.626 40.7659 49.6435 40.3455C51.2059 40.1278 51.7809 40.1172 52.6206 40.2907C53.4024 40.4521 53.9642 40.7717 54.2776 41.2331L54.5232 41.5946L54.58 44.1019C54.6113 45.4809 54.6854 46.8461 54.7446 47.1357C54.8108 47.4589 55.0073 47.9164 55.2534 48.3202C55.8111 49.2355 55.9638 49.7686 55.9573 50.7771C55.9509 51.7804 55.7596 52.3846 55.0895 53.519C54.1881 55.0448 53.8795 56.3992 53.9672 58.4448C54.0531 60.449 54.4713 61.6143 55.1653 61.7841C55.7221 61.9203 56.6948 61.097 58.4127 59.0354C59.0407 58.2817 60.1293 57.1122 60.8318 56.4366C62.211 55.1102 62.6374 54.5452 63.4325 52.9904C64.6195 50.6696 65.2956 48.3964 65.3043 46.697C65.3078 46.019 65.2713 45.8204 65.0467 45.2931C64.4932 43.9944 64.7107 43.2362 66.179 41.3446C67.1469 40.0976 67.3503 39.5933 67.3503 38.441C67.3503 37.7234 67.3392 37.6853 66.8824 36.849C66.428 36.017 66.4147 35.9718 66.4198 35.2902C66.4271 34.301 66.7513 33.505 67.6705 32.2192C68.1344 31.5705 68.2836 31.1383 68.2304 30.5987C68.1664 29.9495 67.8326 29.3869 67.0642 28.633C66.3306 27.9132 66.222 27.7087 66.5627 27.688C67.9576 27.6036 69.2015 28.4648 70.0184 30.0808C70.5096 31.0525 70.7929 31.9538 71.174 33.7575C71.6986 36.2401 72.1409 37.6137 72.5311 37.971C72.8232 38.2384 72.9234 38.1804 73.5359 37.3888L74.0055 36.7819L73.986 35.4218C73.9642 33.9081 73.9759 33.8655 74.6501 33.0033C75.0249 32.524 75.6648 31.2554 75.7643 30.7943C75.798 30.638 75.8552 30.4923 75.8915 30.4704C75.9597 30.4294 76.2542 31.9142 76.4821 33.4476C76.7354 35.1525 76.8341 36.63 76.8338 38.7122C76.8332 43.1589 76.2196 46.8121 74.7599 51.0596C74.2563 52.5251 74.2555 52.5267 73.9311 52.6261C72.8636 52.9532 71.0786 54.4278 70.6411 55.3438C70.5154 55.6071 70.4112 55.9606 70.4094 56.1295C70.4049 56.5575 70.0631 57.4913 69.6897 58.0956C69.235 58.8315 68.4228 59.599 67.3853 60.2731C65.4657 61.5206 65.1328 62.2438 65.3547 64.6846L65.4425 65.6497L64.7086 66.3367C59.804 70.9282 53.4974 74.2001 46.7819 75.6372C34.36 78.2955 21.4356 74.6132 12.3057 65.8148C6.21562 59.9459 2.30852 52.3737 1.10574 44.1085C0.594633 40.5958 0.608224 36.5972 1.14327 33.0872C2.11228 26.7311 4.61137 20.9258 8.6182 15.7232C9.36848 14.7491 10.8596 13.0238 10.99 12.9789C11.1283 12.9312 10.8769 14.4823 10.6233 15.2406C10.5184 15.5543 10.0945 16.4463 9.68137 17.2228C8.12195 20.1534 7.66107 22.0793 7.52002 26.2553C7.47303 27.6454 7.48924 28.0423 7.6167 28.6244C8.14401 31.0324 9.94601 34.5732 12.0139 37.2645C12.759 38.2341 13.642 39.1597 13.9895 39.3352C14.8084 39.749 15.2893 39.0602 15.3857 37.3354C15.469 35.8456 15.122 34.2675 14.2801 32.3069C13.6844 30.9198 13.5411 30.4935 13.4462 29.8253C13.2957 28.767 13.528 28.0035 14.0664 27.7861C14.4629 27.626 14.8373 27.7417 15.3357 28.1784C15.9837 28.7464 16.6736 29.0497 17.4098 29.0903C17.9823 29.1219 18.0308 29.1092 18.2818 28.8646C18.6135 28.5413 18.7103 28.1891 18.824 26.8921C18.8735 26.327 18.9742 25.7511 19.0478 25.6125C19.1213 25.4739 19.4979 25.1478 19.8845 24.8879C20.8294 24.2527 21.3355 23.7414 21.7474 23.006C21.9366 22.6682 22.2315 22.2242 22.4027 22.0195C22.9868 21.3207 24.3457 20.5167 26.3853 19.6629C26.9502 19.4265 27.5207 19.1343 27.6532 19.0136C27.8819 18.8052 27.8969 18.7394 27.9514 17.6975C28.0151 16.4837 28.1117 16.0975 28.7049 14.6855C28.9276 14.1554 29.1315 13.5175 29.1579 13.268C29.2025 12.8471 29.184 12.7899 28.9032 12.4782C28.3423 11.8555 27.6137 11.6833 26.6813 11.9532C26.4225 12.0281 25.7345 12.4006 25.1297 12.7933C23.3277 13.9632 22.9051 14.074 22.3793 13.5144C21.9843 13.0939 21.859 12.702 21.9179 12.0692C22.005 11.1336 22.6923 10.0301 23.5437 9.45925C24.1214 9.07177 24.7144 8.91804 25.9415 8.83767C27.2467 8.75212 27.9209 8.54846 28.3453 8.11159C29.1267 7.30732 28.8215 6.34529 27.6106 5.79566C26.888 5.46758 26.5987 5.51268 25.2233 6.16735C22.2993 7.55915 20.9398 8.03042 19.2833 8.22601C18.2843 8.34402 16.5522 8.26417 16.6074 8.10264C16.6549 7.9633 18.9125 6.49928 20.1276 5.81979C26.4606 2.27825 33.6287 0.623836 40.8859 1.02878ZM145.516 1.63623C146.877 2.09259 147.734 3.26117 147.733 4.65946C147.733 4.9534 147.492 7.01022 147.197 9.23015C146.902 11.4501 146.537 14.214 146.387 15.3723C145.809 19.8083 145.767 20.066 145.539 20.5504C145.24 21.1882 144.653 21.7832 144.001 22.1111C143.462 22.3823 143.445 22.3848 141.732 22.432C140.783 22.4581 139.979 22.5063 139.946 22.539C139.913 22.5717 139.829 23.0455 139.76 23.592C139.479 25.8086 139.074 29.1816 139.027 29.6965C139 29.9982 138.953 30.2442 138.922 30.2434C138.892 30.2426 138.709 29.9563 138.516 29.6073C138.322 29.2582 137.377 27.5512 136.414 25.8138C135.452 24.0765 134.623 22.606 134.573 22.5461C134.5 22.4601 130.166 22.4324 113.945 22.4145L93.4097 22.3918L92.8969 22.1575C91.9242 21.7131 91.2023 20.7643 91.0305 19.7044C90.9759 19.3683 91.0244 18.6979 91.2133 17.1779C91.3547 16.0401 91.5304 14.6155 91.6038 14.0122C91.677 13.409 91.8203 12.2442 91.9221 11.4238C92.2522 8.76194 92.3636 7.858 92.6018 5.90613C92.7458 4.72553 92.9044 3.80781 93.0136 3.52343C93.3447 2.66091 94.0851 1.96062 95.0016 1.64325C95.466 1.4825 96.2074 1.47741 120.242 1.47118C144.584 1.46486 145.014 1.46767 145.516 1.63623ZM31.4173 2.42751C30.1814 2.5808 29.2475 2.95617 28.7934 3.48211C28.5942 3.71288 28.5763 3.78263 28.6578 4.0105C28.8268 4.48318 29.1885 4.6463 30.1969 4.70456C31.0821 4.75571 31.0988 4.76072 31.3502 5.05431C31.723 5.48961 31.7944 5.99054 31.7944 8.16959C31.7944 9.24647 31.8357 10.3397 31.8862 10.599C32.063 11.508 32.7679 12.5025 33.3737 12.6973C34.0183 12.9047 34.4438 12.4548 34.8428 11.1438C35.2614 9.76802 35.2895 9.72933 36.2952 9.1439C37.8365 8.24663 39.2415 7.02119 39.6191 6.24491C39.9772 5.50839 39.8698 4.5826 39.3515 3.94049C39.0268 3.538 38.3555 3.13648 37.638 2.91554C36.4122 2.53806 32.8066 2.25518 31.4173 2.42751ZM66.3539 5.64C66.2681 5.74082 66.2615 5.81909 66.3302 5.92517C66.4174 6.06003 67.2347 6.07311 76.8567 6.09399C86.4531 6.11479 87.2974 6.10505 87.3976 5.9722C87.4736 5.87165 87.4795 5.77811 87.417 5.6644C87.3303 5.50646 86.9773 5.50102 76.8997 5.50102C67.4953 5.50102 66.4606 5.51461 66.3539 5.64ZM180.853 5.63921C180.767 5.74073 180.76 5.819 180.829 5.92517C180.917 6.061 183.139 6.07442 212.194 6.11523L243.465 6.1591L244.176 6.40417C246.451 7.18852 248.221 9.03808 248.816 11.2546C249.018 12.0037 249.054 13.0543 248.912 14.0122C248.866 14.3259 248.585 16.4581 248.287 18.7504C247.99 21.0427 247.519 24.6556 247.242 26.779C246.573 31.8949 246.61 31.4988 246.792 31.6464C246.985 31.8026 247.211 31.6807 247.295 31.375C247.328 31.2558 247.511 29.946 247.702 28.4641L248.05 25.77L251.428 25.7713C255.194 25.7727 255.491 25.8057 256.607 26.3453C258.362 27.194 259.66 28.6271 260.308 30.4317C260.588 31.2124 260.677 32.3979 260.538 33.4915C260.486 33.9017 260.198 36.1128 259.9 38.4051C259.601 40.6975 259.172 43.9944 258.947 45.7318C258.721 47.4691 258.374 50.1344 258.176 51.6545C257.978 53.1747 257.616 55.9584 257.371 57.8405C256.393 65.3804 256.024 68.2193 254.851 77.232C254.65 78.7763 254.263 81.7574 253.991 83.8567C253.719 85.956 253.395 88.4435 253.269 89.3846C253.144 90.3256 253.006 91.3917 252.961 91.7537C252.917 92.1156 252.695 93.8332 252.467 95.5706C252.24 97.3079 251.854 100.269 251.61 102.151C250.602 109.943 250.152 113.403 249.9 115.313C249.754 116.423 249.41 119.068 249.135 121.192C248.86 123.315 248.496 126.119 248.326 127.422C248.155 128.725 247.81 131.37 247.56 133.301C247.309 135.231 246.881 138.528 246.609 140.627C246.336 142.727 245.913 145.984 245.669 147.866C244.903 153.781 244.23 158.948 244.002 160.677C243.881 161.594 243.574 163.963 243.319 165.941C243.024 168.243 242.797 169.697 242.689 169.978C242.333 170.904 241.285 171.893 240.208 172.316L239.684 172.522L220.511 172.506C209.965 172.497 183.002 172.463 160.592 172.429L119.846 172.369L118.9 170.822C117.261 168.143 115.323 165.426 113.783 163.647C109.508 158.71 100.762 154.592 88.2829 151.641C85.6746 151.024 81.6193 150.234 79.4381 149.918L78.6987 149.811L78.6513 149.453C78.4952 148.272 78.2547 140.589 78.361 140.176C78.4461 139.846 78.7761 139.75 79.8269 139.75C82.446 139.75 84.5373 138.979 86.1168 137.432C87.7478 135.834 88.7112 133.538 89.0845 130.361C89.2607 128.862 89.2625 125.875 89.0882 124C89.0165 123.228 88.9569 122.563 88.9559 122.523C88.9548 122.483 89.3894 122.017 89.9216 121.488C91.1082 120.31 91.3185 119.939 91.2665 119.116C91.2263 118.481 91.1527 118.331 90.3323 117.212L89.8591 116.566L90.1143 116.203C91.4204 114.344 91.5704 111.383 90.5329 107.943C90.0851 106.458 89.4248 104.845 89.2214 104.739C89.0875 104.669 88.7918 104.777 87.7789 105.266C87.0781 105.604 86.4943 105.881 86.4816 105.881C86.4688 105.881 86.4332 105.673 86.4026 105.419C86.2441 104.104 85.1114 101.371 83.6229 98.7111L83.1216 97.8154L83.6299 97.4449C84.9808 96.46 85.9002 95.5 86.8352 94.0977C88.6888 91.3176 89.7117 87.3387 89.406 84.098C89.1306 81.1798 88.0963 78.9683 86.4817 77.8451C84.4399 76.4249 81.3555 76.0854 77.8145 76.8909C75.7018 77.3714 72.6163 78.5127 69.2316 80.0656C68.8157 80.2564 67.8191 80.7129 67.0168 81.0801C64.4468 82.2566 62.7243 82.6499 57.3587 83.286C50.5207 84.0967 47.4358 84.8499 43.8873 86.5752L42.5229 87.2385L42.222 87.0363C41.5102 86.5578 41.8977 86.572 30.2587 86.5973L19.5074 86.6206L19.0378 86.8619C18.4412 87.1685 17.9987 87.6 17.685 88.181C17.4659 88.587 17.438 88.733 17.438 89.4723C17.438 90.2076 17.4665 90.3587 17.68 90.7541C17.9811 91.3114 18.697 91.9492 19.2604 92.1622C19.6624 92.3143 20.1777 92.3252 28.0424 92.348L36.3974 92.3723L36.111 92.743C35.1875 93.938 34.0362 95.9199 33.4997 97.2377C33.3425 97.6238 33.2005 97.954 33.1841 97.9716C33.1676 97.9891 33.0203 97.9239 32.8569 97.8264C32.0921 97.3707 32.0679 97.3693 25.1265 97.3693C18.9145 97.3693 18.6491 97.376 18.0853 97.5457C17.3424 97.7694 16.6919 98.318 16.3389 99.0186C15.9969 99.6976 15.9802 100.771 16.3009 101.468C16.5504 102.011 17.2241 102.656 17.8226 102.925C18.247 103.116 18.2499 103.117 25.0731 103.117H31.899L31.8482 103.468C31.8202 103.661 31.7709 104.815 31.7386 106.032L31.6799 108.246L24.1984 108.27L16.7169 108.293L16.3307 108.495C15.7766 108.783 15.2498 109.332 14.9775 109.904C14.6573 110.577 14.6469 111.585 14.9531 112.26C15.2314 112.873 15.9453 113.521 16.6101 113.764C17.1265 113.952 17.1626 113.953 24.8649 113.953H32.6011L32.6589 114.194C32.8774 115.108 33.3101 116.555 33.6894 117.64C33.9344 118.341 34.1348 118.943 34.1348 118.978C34.1348 119.013 30.0047 119.042 24.9567 119.042C15.9189 119.042 15.771 119.045 15.2844 119.222C14.5879 119.476 13.9679 120.049 13.655 120.727C13.3006 121.494 13.2977 122.415 13.6473 123.112C13.9414 123.698 14.4728 124.229 15.0341 124.499L15.4567 124.702L26.1996 124.746L36.9427 124.789L37.5729 125.842C38.8859 128.036 40.8098 130.722 42.5369 132.774C44.6146 135.243 47.7936 138.4 50.3375 140.523C51.308 141.332 51.7364 141.746 51.7448 141.881C51.7515 141.988 51.8075 142.49 51.8694 142.996C51.9475 143.637 51.9635 144.519 51.9219 145.892C51.868 147.664 51.7052 149.511 51.5944 149.604C51.5714 149.624 50.9451 149.746 50.2025 149.875C45.1985 150.75 41.0584 152.031 37.0896 153.935C30.918 156.895 26.106 161.028 22.6766 166.315C22.057 167.27 20.5345 170.185 19.9846 171.469L19.6839 172.171L18.6055 172.166C17.6944 172.162 17.4433 172.129 16.987 171.955C16.2643 171.679 15.5052 170.934 15.2383 170.238C14.8833 169.313 14.893 168.963 15.3701 165.459C15.5049 164.469 15.6289 163.536 16.0815 160.107C16.2057 159.165 16.4304 157.468 16.5809 156.333C16.7314 155.199 16.88 154.045 16.911 153.768L16.9675 153.263L24.6735 153.241L32.3795 153.219V152.955V152.692L19.1023 152.633C3.70114 152.564 3.90043 152.568 3.34972 152.323C2.37918 151.893 1.62441 150.888 1.4694 149.821C1.37273 149.156 1.37209 149.161 2.17953 143.128C2.2952 142.264 2.68082 139.353 2.90028 137.688C3.00208 136.916 3.20804 135.356 3.35809 134.222C3.50815 133.088 3.76883 131.114 3.93734 129.835C4.10585 128.556 4.34537 126.74 4.46959 125.798C4.5939 124.857 4.7788 123.456 4.88061 122.684C5.12689 120.814 5.53528 117.736 5.82333 115.576C5.95214 114.611 6.17619 112.913 6.32138 111.803C6.46649 110.693 6.78865 108.245 7.03736 106.363C7.45296 103.217 7.61228 102.018 7.98747 99.212C8.06164 98.657 8.42548 95.893 8.79589 93.0698C9.16639 90.2467 9.55121 87.3248 9.65113 86.5768C9.75104 85.8288 9.89272 84.7626 9.96582 84.2077C10.099 83.1965 10.3198 81.5359 10.648 79.0746C10.7445 78.3507 10.8832 77.3044 10.9563 76.7494C11.0293 76.1944 11.1701 75.1283 11.2693 74.3803C11.3685 73.6323 11.5238 72.4599 11.6144 71.7752C11.7842 70.4927 11.7598 70.2563 11.4576 70.2563C11.2216 70.2563 11.1242 70.4156 11.0551 70.9144C11.0216 71.1557 10.7938 72.8733 10.5488 74.7313C10.3036 76.5893 10.0425 78.5635 9.96825 79.1185C9.33445 83.8585 9.13075 85.3972 8.61479 89.3407C8.3433 91.4159 8.03959 93.7257 7.93976 94.4738C7.84002 95.2218 7.69807 96.2879 7.62444 96.8428C7.55072 97.3978 7.40912 98.4639 7.30975 99.212C7.02719 101.337 6.78028 103.201 6.63526 104.301C6.56217 104.856 6.42022 105.922 6.31994 106.67C6.13856 108.023 5.04182 116.337 4.52585 120.271C4.37715 121.405 4.19217 122.806 4.11485 123.386C3.61211 127.151 3.38537 128.865 2.98867 131.897C2.65256 134.465 1.86339 140.449 1.6866 141.768C1.61234 142.323 1.4676 143.409 1.36498 144.181C1.26245 144.953 1.09953 146.157 1.00303 146.857C0.644772 149.455 0.675016 150.1 1.20466 151.154C1.72612 152.191 2.76318 152.956 3.93302 153.167C4.28065 153.23 6.50483 153.262 10.3974 153.262H16.3319L16.2792 153.548C16.2502 153.704 16.1052 154.761 15.9569 155.895C15.6919 157.922 15.5579 158.939 15.0954 162.432C14.308 168.378 14.2611 168.819 14.3471 169.451C14.4983 170.562 15.1182 171.585 15.9962 172.175C16.6852 172.637 17.4139 172.829 18.4802 172.829C18.9709 172.829 19.3724 172.848 19.3724 172.871C19.3724 172.894 19.1058 173.693 18.7802 174.646C17.2567 179.104 16.3429 183.852 16.1622 188.25C16.1299 189.035 16.085 189.676 16.0624 189.676C16.0398 189.676 15.6181 189.439 15.1255 189.149C13.9031 188.429 13.3153 188.244 12.3962 188.29C10.4213 188.39 8.93064 189.929 8.93064 191.869C8.93064 192.436 9.68686 195.334 11.5054 201.737C14.6934 212.961 19.6357 222.078 27.0152 230.346C28.4784 231.985 32.3888 235.744 34.1869 237.24C46.1771 247.214 61.1023 253.765 79.5789 257.164C81.6665 257.548 81.8877 257.551 81.8877 257.189C81.8877 256.944 81.5668 256.836 80.0874 256.583C75.0691 255.725 69.3103 254.289 64.1998 252.622C61.4116 251.712 61.1129 251.605 58.3078 250.508C43.4675 244.704 31.4085 235.738 23.0494 224.291C18.5017 218.064 14.8371 210.642 12.6087 203.145C11.7967 200.414 9.63744 192.498 9.58919 192.076C9.55184 191.75 9.59054 191.455 9.72863 191.012C10.0647 189.933 10.9786 189.165 12.17 188.961C12.9654 188.824 13.561 189.013 15.0767 189.88C27.3144 196.887 43.2469 201.083 60.9593 201.964C64.1165 202.122 70.8659 202.129 74.6415 201.979C78.4585 201.828 78.7541 201.849 79.8346 202.349C80.6884 202.745 81.6859 203.68 82.0941 204.469C82.2944 204.856 82.6831 206.233 83.5058 209.47C85.2911 216.497 85.8862 218.516 87.3813 222.624C90.9134 232.329 96.6256 242.421 103.076 250.352C105.503 253.336 110.261 259.078 110.437 259.236C110.612 259.393 110.694 259.415 110.833 259.342C110.929 259.292 111.008 259.179 111.008 259.09C111.008 259.002 110.69 258.539 110.301 258.062C109.428 256.99 109.195 256.603 107.77 253.861C104.714 247.982 102.562 242.271 101.52 237.278C100.971 234.644 100.884 233.781 100.883 230.916C100.881 229.079 100.918 228.046 100.999 227.62L101.117 227L100.738 226.216C100.529 225.785 99.8142 224.307 99.1485 222.931C96.3012 217.049 95.345 215.032 95.345 214.908C95.345 214.748 95.6712 214.565 95.8094 214.648C95.9249 214.718 96.1993 215.273 99.5083 222.131C100.355 223.886 101.134 225.446 101.238 225.597C101.343 225.748 101.646 226.266 101.912 226.748C102.178 227.231 102.463 227.744 102.546 227.889C102.629 228.034 103.049 228.79 103.48 229.569C104.525 231.46 105.09 231.97 106.59 232.376L107.14 232.525L107.691 233.585C107.994 234.168 108.373 234.882 108.533 235.172C108.693 235.461 109.503 236.981 110.334 238.55C112.032 241.755 112.402 242.412 113.244 243.727C117.827 250.881 124.817 256.227 133.056 258.879C135.264 259.59 137.899 260.147 140.532 260.461C142.111 260.648 146.098 260.661 152.414 260.499C154.667 260.441 159.184 260.335 162.451 260.262C165.719 260.19 171.612 260.053 175.548 259.958C179.484 259.862 184.406 259.745 186.485 259.698C188.564 259.65 191.562 259.571 193.146 259.523C194.73 259.474 197.505 259.394 199.312 259.345C203.232 259.239 204.37 259.199 207.098 259.071C209.378 258.965 209.992 258.997 210.9 259.27C211.653 259.496 211.988 259.659 213.13 260.354C215.663 261.897 218.27 262.842 220.776 263.128C221.893 263.255 224.27 263.182 225.372 262.988C227.173 262.669 228.858 262.178 230.97 261.357C232.895 260.608 233.668 260.166 235.388 258.83L236.284 258.134L237.309 258.659C237.873 258.947 238.779 259.413 239.324 259.694C242.026 261.086 241.294 260.866 248.667 262.502C252.849 263.43 252.965 263.445 252.959 263.042C252.957 262.907 252.75 262.664 251.071 260.823C245.746 254.985 245.438 254.667 244.574 254.111C244.112 253.815 242.9 253.039 241.881 252.388L240.027 251.204L239.972 250.515C239.942 250.135 239.856 249.655 239.781 249.448C239.265 248.026 237.631 247.152 234.929 246.851L234.045 246.753L233.753 245.997C232.547 242.871 229.856 240.834 226.256 240.323C225.404 240.202 225.122 240.196 224.411 240.286C223.949 240.344 223.49 240.413 223.391 240.438C223.262 240.471 222.359 239.94 220.219 238.574C210.96 232.662 209.565 231.781 209.275 231.663C209.1 231.592 208.721 231.507 208.433 231.476C207.605 231.385 207.241 231.128 206.743 230.283C206.609 230.055 206.371 229.764 206.214 229.635C205.177 228.787 193.322 221.544 192.336 221.156C192.009 221.027 191.674 220.978 191.112 220.975C190.434 220.972 190.266 221.005 189.751 221.24C189.02 221.573 188.51 222.015 188.118 222.656C186.461 225.365 185.26 227.444 185.133 227.824C184.904 228.509 184.981 229.736 185.296 230.413C185.722 231.329 186.134 231.628 190.717 234.346C193.043 235.726 195.554 237.163 196.297 237.541C197.701 238.254 198.248 238.536 199.656 239.271C200.412 239.666 200.573 239.716 201.277 239.773C202.231 239.851 202.537 239.997 202.989 240.591C203.181 240.844 203.415 241.115 203.508 241.194C203.602 241.273 205.197 242.119 207.053 243.074C212.18 245.712 212.805 246.045 212.82 246.14C212.847 246.315 212.392 246.535 211.557 246.751L210.705 246.971L208.092 246.843C200.15 246.453 188.727 245.295 179.914 243.986C158.286 240.776 144.131 236.307 138.259 230.835C136.929 229.596 136.827 229.43 135.467 226.31C134.794 224.765 133.518 221.842 132.63 219.814C131.742 217.786 130.988 216.042 130.955 215.939L130.894 215.751L136.366 215.71C142.142 215.665 142.266 215.658 144.02 215.217C145.092 214.948 145.782 214.694 148.454 213.585C149.766 213.041 152.763 211.798 155.115 210.823C157.467 209.848 159.937 208.822 160.606 208.542C161.274 208.263 163.036 207.532 164.521 206.918C169.982 204.661 171.114 204.175 171.748 203.814C174.987 201.971 177.105 198.893 177.523 195.424C177.585 194.909 177.618 190.877 177.618 183.867L177.619 173.1L208.606 173.153L239.594 173.205L240.276 172.973L240.958 172.742H243.923C246.521 172.742 246.963 172.722 247.483 172.581C248.84 172.214 249.991 171.199 250.394 170.012C250.466 169.8 250.646 168.679 250.793 167.521C250.941 166.363 251.167 164.625 251.295 163.66C251.423 162.695 251.748 160.207 252.017 158.132C252.286 156.057 252.63 153.412 252.781 152.253C252.932 151.095 253.299 148.272 253.597 145.98C253.895 143.687 254.219 141.2 254.317 140.452C254.415 139.704 254.533 138.796 254.579 138.434C254.624 138.072 254.885 136.058 255.159 133.959C255.433 131.859 255.821 128.878 256.022 127.334C256.224 125.79 256.527 123.46 256.697 122.157C256.867 120.854 257.188 118.386 257.411 116.673C257.634 114.96 257.98 112.295 258.181 110.75C258.383 109.206 258.747 106.403 258.992 104.52C259.237 102.638 259.52 100.467 259.622 99.6945C259.724 98.9224 260.051 96.4151 260.347 94.1228C260.644 91.8305 261.006 89.0468 261.153 87.9368C261.299 86.8268 261.644 84.1814 261.919 82.0579C262.194 79.9345 262.5 77.5852 262.598 76.8372C262.697 76.0891 262.814 75.181 262.86 74.819C262.905 74.4571 263.167 72.4434 263.44 70.3441C263.714 68.2448 264.103 65.2637 264.304 63.7194C264.505 62.1751 264.809 59.8455 264.979 58.5425C265.148 57.2395 265.47 54.7716 265.692 53.0584C265.915 51.3452 266.262 48.68 266.463 47.1357C266.664 45.5914 267.029 42.788 267.274 40.9058C267.518 39.0237 267.885 36.24 268.089 34.7199C268.581 31.044 268.612 30.42 268.356 29.4091C267.828 27.3286 266.28 25.6652 264.348 25.1015C263.843 24.9542 263.299 24.9458 255.999 24.9714C248.984 24.996 248.19 24.9849 248.19 24.8624C248.19 24.7388 248.741 20.4443 249.463 14.9335C249.711 13.043 249.729 12.7469 249.641 12.038C249.408 10.1411 248.338 8.27707 246.797 7.08217C246.145 6.57597 245.142 6.03643 244.32 5.74924L243.735 5.54489L212.353 5.52225C183.743 5.50154 180.962 5.5119 180.853 5.63921ZM100.923 7.19009C99.814 7.7363 99.7361 9.17347 100.775 9.92403C101.023 10.1032 101.129 10.1082 105.218 10.1321L109.408 10.1566L109.794 9.93588C110.628 9.45969 110.82 8.22223 110.169 7.52949C110.061 7.41454 109.81 7.24757 109.612 7.15851C109.28 7.0089 108.95 6.99635 105.288 6.9946C101.354 6.99267 101.321 6.99416 100.923 7.19009ZM115.996 7.15903C115.05 7.57792 114.77 8.78713 115.437 9.5756C115.948 10.1801 115.544 10.1515 123.566 10.1515C131.457 10.1515 131.04 10.1773 131.548 9.65474C131.849 9.34386 131.981 9.01237 131.981 8.56285C131.981 8.18705 131.744 7.65496 131.47 7.41279C130.985 6.98539 131.121 6.99258 123.5 6.9946C116.748 6.99644 116.344 7.0053 115.996 7.15903ZM99.7107 13.9611C99.1398 14.2095 98.7655 14.7856 98.7655 15.4161C98.7655 15.8558 98.8983 16.1884 99.1989 16.5018C99.7046 17.029 98.4341 16.9955 117.914 16.9955C129.334 16.9955 135.919 16.9644 136.116 16.9095C136.96 16.6735 137.442 15.6057 137.078 14.7772C136.928 14.4357 136.528 14.0571 136.183 13.9301C136.007 13.8652 130.444 13.8378 117.955 13.8401C103.138 13.843 99.9333 13.8643 99.7107 13.9611ZM164.521 15.6021C166.288 16.0703 168.454 16.4196 170.192 16.5167C171.824 16.608 172.433 16.9075 172.91 17.8528C173.152 18.3338 173.163 18.4106 173.163 19.6278C173.163 20.7445 173.131 21.0254 172.898 21.9243C172.583 23.1469 172.601 23.1948 173.373 23.2019C174.533 23.2126 174.987 23.8161 174.807 25.1108C174.658 26.1916 174.112 26.8083 173.087 27.0551C172.557 27.1824 172.376 27.1882 171.782 27.0972C171.15 27.0002 171.083 27.0044 170.978 27.1484C170.915 27.2348 170.66 27.6107 170.41 27.9837C169.481 29.3728 167.88 30.7862 166.504 31.4312C165.517 31.8939 164.621 32.0875 163.467 32.0875C161.253 32.0875 160.313 31.5543 159.723 29.9632C159.497 29.3547 159.485 29.2427 159.489 27.6565C159.492 26.3135 159.532 25.776 159.697 24.8925C160.229 22.0432 161.167 19.0179 162.679 15.2702L162.756 15.0804L163.324 15.2577C163.636 15.3552 164.175 15.5102 164.521 15.6021ZM171.712 27.7841C171.876 27.8448 171.975 27.9843 172.071 28.2887C172.143 28.52 172.83 30.506 173.597 32.7018C174.363 34.8976 175.279 37.5233 175.632 38.5368C175.985 39.5502 176.344 40.4441 176.429 40.5232C176.514 40.6023 178.393 41.6473 180.605 42.8453C182.817 44.0433 184.609 45.0514 184.587 45.0855C184.478 45.2576 181.227 46.2006 179.329 46.6105C172.054 48.1821 164.372 47.5055 158.312 44.7595L157.773 44.5153L158.087 44.388C158.425 44.2506 163.602 42.364 165.036 41.8554C165.568 41.6669 165.929 41.4886 165.957 41.401C165.982 41.3218 165.584 39.3615 165.072 37.0451C164.253 33.3436 164.158 32.8266 164.286 32.7777C164.366 32.747 164.695 32.6748 165.017 32.6172C167.131 32.2384 169.477 30.5469 171.017 28.2926C171.239 27.9669 171.436 27.7003 171.454 27.7003C171.471 27.7003 171.588 27.7381 171.712 27.7841ZM104.338 31.5263C108.818 35.7721 108.537 35.4191 110.423 39.151C112.034 42.3371 113.45 45.5937 115.517 50.8648L116.394 53.1023L112.375 57.0269C110.165 59.1854 108.332 60.9227 108.302 60.8876C108.271 60.8525 108.178 60.2118 108.094 59.4638C107.955 58.2189 107.702 56.0609 107.364 53.2339C107.292 52.6307 107.151 51.4363 107.05 50.5797C106.45 45.476 106.426 45.3339 105.994 44.328C105.645 43.5147 105.038 42.6901 104.284 42.004C103.293 41.1015 102.528 40.7728 99.3956 39.9028C96.5975 39.1256 95.5895 38.7676 94.4898 38.1605C92.4552 37.0373 91.5146 36.1123 88.6786 32.4459C87.4686 30.8816 86.4481 29.5523 86.4109 29.4922C86.2407 29.2166 87.9548 28.5996 88.6081 28.7014C89.6927 28.8705 91.3608 29.8983 93.4404 31.6789C95.5493 33.4846 96.1739 33.7319 98.384 33.6359C101.746 33.49 101.916 33.4677 101.916 33.1728C101.916 33.1058 101.685 32.7466 101.403 32.3746C100.496 31.1794 100.028 30.076 100.027 29.1279C100.026 28.5851 100.237 27.8758 100.4 27.8758C100.447 27.8758 102.219 29.5186 104.338 31.5263ZM19.4384 37.8811C18.4179 38.1314 18.0231 38.5681 18.0225 39.4468C18.0217 40.7244 17.5185 43.0826 17.0567 43.973C16.9305 44.2164 16.6541 44.6328 16.4425 44.8982C15.6676 45.8703 15.5448 46.548 15.6604 49.2119C15.7389 51.0214 15.7547 51.1361 15.9885 51.602C16.3761 52.3744 16.9377 52.7448 19.1234 53.6705C20.6047 54.2977 20.935 54.7908 21.0356 56.5243C21.352 61.98 21.5814 64.7715 21.8109 65.9569C22.0853 67.3745 23.5692 70.8593 24.3991 72.0351C24.878 72.7137 25.6398 73.0453 26.0774 72.7658C26.4294 72.541 26.388 71.938 25.9351 70.695C25.0568 68.2846 24.9347 67.8629 24.9312 67.2291C24.9271 66.4828 25.0455 66.1902 25.7384 65.2336C26.4245 64.2864 26.9765 63.4052 27.5938 62.2716C28.2923 60.989 28.6035 60.2162 28.8174 59.2327C29.1095 57.8899 29.5611 57.308 30.5178 57.0414C31.1975 56.852 32.2399 56.3748 32.4921 56.1376C32.78 55.8668 32.752 55.5245 32.3376 54.2523C31.8626 52.7943 31.7949 52.1535 32.0595 51.6207C32.268 51.2008 32.779 50.7789 33.5047 50.4275C34.3451 50.0206 34.7058 49.5143 34.6987 48.7519C34.6934 48.189 34.4745 47.7034 33.9912 47.1818C33.5099 46.6626 32.9347 46.3506 31.7494 45.966C30.4309 45.538 29.5757 45.0878 28.9411 44.4875C28.2893 43.8707 28.1083 43.4555 28.1058 42.5706C28.1029 41.533 27.9349 41.3737 26.3485 40.9045C24.9829 40.5006 24.5704 40.2287 23.8285 39.2436C23.0751 38.2434 22.2739 37.8783 20.7226 37.8284C20.2028 37.8117 19.625 37.8354 19.4384 37.8811ZM165.231 40.9107C165.296 41.0764 165.418 41.0255 162.136 42.2085C156.32 44.3051 156.69 44.1544 156.69 44.4281C156.69 44.6463 156.776 44.7165 157.5 45.0882C160.26 46.5051 164.432 47.613 168.392 47.9808C169.881 48.1191 173.175 48.1187 174.693 47.9801C177.604 47.7144 180.76 47.0591 183.677 46.1153C185.683 45.4662 185.83 45.3964 185.793 45.1074C185.769 44.9175 185.337 44.6556 182.592 43.1675C180.847 42.2213 179.434 41.4325 179.452 41.4145C179.51 41.358 182.274 41.9823 184.01 42.4441C187.418 43.3509 197.896 46.9495 203.363 49.0911C212.644 52.7268 220.503 56.8137 225.056 60.3724C227.847 62.5533 229.458 64.3458 230.629 66.5711C233.618 72.2545 234.748 79.4956 233.826 87.0594C233.685 88.217 233.326 90.2669 233.157 90.8783L233.065 91.2136L232.549 91.0147C232.265 90.9052 231.628 90.6623 231.132 90.475C230.637 90.2876 230.172 90.068 230.097 89.9871C229.984 89.864 226.589 88.5821 217.81 85.3479C217.068 85.0743 214.941 84.2849 213.084 83.5937C211.228 82.9025 209.284 82.1804 208.764 81.9891C208.244 81.7979 207.576 81.5509 207.279 81.4402C206.981 81.3296 206.483 81.1469 206.17 81.0343C205.651 80.8475 205.605 80.8103 205.644 80.6102C205.667 80.4895 205.776 79.9959 205.884 79.5134C206.046 78.7957 206.073 78.4681 206.032 77.7146C205.969 76.5626 205.808 75.9572 205.289 74.9324C204.642 73.6546 203.665 72.7111 202.193 71.9433C200.668 71.1479 197.99 69.7357 196.342 68.8572C194.306 67.7726 194.288 67.7646 194.125 67.8964C193.948 68.0399 193.965 68.1905 194.322 69.6258C195.389 73.9081 196.719 78.1763 198.213 82.1114C199.297 84.9668 202.058 91.3621 203.734 94.9028C203.926 95.3077 204.083 95.6802 204.083 95.7306C204.083 95.8197 201.189 101.211 200.979 101.513C200.884 101.649 200.689 101.56 198.99 100.604C196.94 99.4515 195.786 98.863 195.056 98.5985C193.418 98.0049 191.513 98.012 189.979 98.6171C189.071 98.9752 183.472 102.266 181.039 103.872C178.515 105.538 178.054 106.048 178.048 107.189C178.045 107.892 178.203 108.285 178.7 108.811C179.321 109.468 179.808 109.606 181.489 109.6C182.534 109.597 183.156 109.547 183.965 109.4C185.328 109.153 187.514 108.623 188.915 108.198C190.851 107.613 191.856 107.659 196.612 108.556C200.362 109.264 201.787 109.441 203.125 109.368C203.577 109.344 204.122 109.263 204.335 109.19C205.132 108.916 206.069 108.123 207.418 106.582C207.927 106 208.372 105.555 208.407 105.593C208.598 105.802 209.75 109.303 210.146 110.882C210.805 113.502 211.163 116.903 210.957 118.576L210.9 119.03L210.44 118.848C207.206 117.57 203.622 117.15 200.077 117.633C199.335 117.735 198.302 117.875 197.782 117.945C197.262 118.015 195.075 118.311 192.921 118.603C190.768 118.896 188.58 119.192 188.06 119.261C187.54 119.331 185.94 119.548 184.505 119.744C183.069 119.94 181.469 120.157 180.949 120.227C180.429 120.296 178.384 120.573 176.403 120.843C174.423 121.112 172.236 121.409 171.543 121.501C170.849 121.594 168.662 121.89 166.682 122.159C164.701 122.429 162.656 122.706 162.136 122.775C161.616 122.844 160.017 123.059 158.582 123.253C157.148 123.446 155.675 123.605 155.31 123.605C152.925 123.605 150.823 121.945 150.205 119.575C149.735 117.774 149.325 114.107 149.071 109.434C148.947 107.162 148.942 98.4047 149.062 94.251C149.157 90.9521 149.058 85.9246 148.894 85.732C148.716 85.5222 148.562 85.595 147.678 86.3085C145.786 87.8358 143.923 89.0054 141.658 90.0883C135.257 93.1471 128.162 93.8342 120.369 92.1499C114.888 90.9655 108.87 88.4718 102.951 84.9329C101.478 84.0521 100.225 83.2565 100.167 83.1649C100.125 83.0977 101.321 81.9275 104.977 78.4619C105.893 77.594 107.574 75.9968 108.712 74.9125C109.851 73.8281 111.552 72.2082 112.493 71.3126C113.433 70.4171 115.094 68.8347 116.183 67.7963C120.782 63.4121 125.306 59.1201 125.727 58.7422L126.179 58.3364L126.578 58.9659C126.797 59.3122 127.303 59.9138 127.701 60.303C129.225 61.7912 130.989 62.4142 133.003 62.1754C135.456 61.8846 137.803 60.4766 140.761 57.5214C142.12 56.1638 143.121 55.0213 145.673 51.9178C146.685 50.6871 147.773 49.3686 148.09 48.9878C151.372 45.0514 157.049 42.1108 163.529 40.9917C164.96 40.7445 165.162 40.7349 165.231 40.9107ZM121.801 55.15C123.197 57.2896 124.327 59.0714 124.312 59.1094C124.297 59.1473 121.571 61.756 118.254 64.9064C114.937 68.0567 111.311 71.5053 110.197 72.5697C107.211 75.4233 104.853 77.6668 103.983 78.4816L103.214 79.2017L101.591 77.7781C100.699 76.9952 99.2109 75.6904 98.2853 74.8787C97.3597 74.067 96.6201 73.3748 96.6418 73.3405C96.7139 73.2268 119.224 51.2113 119.244 51.2357C119.254 51.2489 120.405 53.0104 121.801 55.15ZM147.676 65.3873C147.647 65.4601 147.67 66.7533 147.726 68.2609C147.783 69.7686 147.869 72.2657 147.918 73.81C148.194 82.5315 148.274 84.2453 148.412 84.3799C148.515 84.4803 148.584 84.4889 148.703 84.4159C148.84 84.3317 148.859 84.1546 148.859 82.9695C148.859 82.2268 148.804 80.0398 148.737 78.1094C148.67 76.1791 148.546 72.5449 148.461 70.0334C148.377 67.522 148.277 65.4195 148.24 65.3611C148.145 65.2103 147.738 65.2293 147.676 65.3873ZM209.934 83.1315C211.048 83.545 212.526 84.0924 213.22 84.3479C213.913 84.6034 215.108 85.0462 215.875 85.3319C217.562 85.9599 228.324 89.9451 229.006 90.1939L229.49 90.3707L229.428 91.0329C229.239 93.0762 228.27 96.4 226.852 99.87C226.032 101.879 225.967 102.02 225.87 102.02C225.823 102.02 224.315 101.038 222.518 99.8372C217.606 96.5561 217.138 96.2441 215.335 95.0438C214.419 94.4343 212.88 93.4078 211.914 92.7627C210.949 92.1175 209.754 91.321 209.259 90.9926C207.938 90.1167 205.123 88.2303 205.087 88.1974C205.054 88.1671 205.557 86.8467 206.607 84.2077C206.962 83.3149 207.287 82.4961 207.33 82.3881C207.399 82.2146 207.437 82.2028 207.658 82.2857C207.796 82.3374 208.82 82.7179 209.934 83.1315ZM41.5149 87.4156L41.9188 87.5963L41.2198 88.056C40.1426 88.7646 38.861 89.808 37.8722 90.7815L36.9737 91.6659H28.4591C19.0073 91.6659 19.4352 91.6917 18.7944 91.085C18.1738 90.4975 17.9236 89.7122 18.1124 88.9449C18.3197 88.1026 19.0449 87.4208 19.8813 87.2819C20.1212 87.242 24.9961 87.2152 30.7143 87.2221C41.0067 87.2348 41.115 87.2367 41.5149 87.4156ZM211.107 93.022C212.916 94.2307 214.492 95.2808 214.609 95.3558L214.821 95.4919L213.636 97.2203C210.239 102.178 207.295 105.941 205.551 107.554C204.623 108.412 204.367 108.553 203.475 108.697C202.475 108.858 200.187 108.598 196.927 107.952C193.87 107.346 191.616 107.055 190.659 107.142C190.328 107.172 189.578 107.335 188.991 107.505C185.664 108.469 183.143 108.952 181.436 108.952C179.821 108.952 179.186 108.689 178.838 107.878C178.658 107.457 178.661 106.907 178.846 106.527C179.079 106.048 179.862 105.43 181.939 104.085C183.78 102.893 188.053 100.349 189.501 99.583C190.589 99.007 191.346 98.8176 192.561 98.8176C194.234 98.8176 194.947 99.0972 198.807 101.265C199.975 101.922 200.987 102.458 201.056 102.458C201.124 102.458 201.221 102.409 201.269 102.349C201.356 102.242 202.271 100.586 203.318 98.6416C203.603 98.1108 203.948 97.479 204.084 97.2377C204.22 96.9964 204.604 96.2857 204.939 95.6583C205.274 95.0309 205.659 94.3202 205.795 94.0789C205.93 93.8376 206.254 93.2453 206.513 92.7627C207.521 90.8876 207.628 90.7111 207.722 90.7673C207.775 90.7987 209.299 91.8133 211.107 93.022ZM81.7925 97.6418C81.9877 97.6947 82.251 97.8471 82.3776 97.9806C82.6473 98.265 84.0761 100.954 84.6634 102.283C85.3922 103.932 85.9142 105.736 85.7692 106.104C85.724 106.219 77.8594 110.064 77.3433 110.223C77.163 110.279 77.162 110.251 77.1633 105.645C77.1647 100.624 77.1841 100.385 77.6639 99.462C78.0878 98.6466 78.9364 97.968 79.9074 97.6678C80.3581 97.5285 81.3246 97.5151 81.7925 97.6418ZM32.0361 98.1639C32.1755 98.2149 32.4364 98.3551 32.6161 98.4755L32.9426 98.6944L32.7374 99.3261C32.6246 99.6736 32.4221 100.471 32.2874 101.098C32.1528 101.726 32.0285 102.289 32.0114 102.349C31.9867 102.435 30.5397 102.458 25.1586 102.458L18.3372 102.457L17.8727 102.197C17.1181 101.775 16.7355 101.126 16.7355 100.266C16.7355 99.3722 17.2408 98.6005 18.0652 98.2354C18.4053 98.0849 18.8324 98.075 25.105 98.0732C29.5772 98.0719 31.8664 98.1019 32.0361 98.1639ZM89.573 107.186C91.0232 111.414 90.8393 114.625 89.0453 116.401C88.7481 116.696 88.4706 116.936 88.4285 116.936C88.3865 116.936 88.2611 116.611 88.1501 116.212C87.8609 115.176 87.2758 113.763 86.4918 112.208C86.1174 111.465 85.7658 110.645 85.7105 110.386C85.5864 109.803 85.6815 109.153 86.1059 107.682L86.409 106.631L87.6556 106.047L88.9022 105.462L89.0595 105.805C89.146 105.993 89.3772 106.615 89.573 107.186ZM85.5333 107.158C85.5333 107.184 85.4118 107.662 85.2633 108.22C84.9771 109.294 84.9194 110.137 85.0908 110.738C85.144 110.925 85.4325 111.577 85.732 112.186C86.7322 114.223 86.9712 114.754 87.2416 115.541C87.6306 116.672 87.8727 117.939 87.9688 119.345C88.0151 120.023 88.0924 120.874 88.1405 121.236C88.5785 124.529 88.6858 128.688 88.3837 130.66C88.0267 132.991 87.4939 134.536 86.6062 135.813C85.0509 138.052 82.7405 139.133 79.5023 139.135C78.4607 139.136 78.1357 139.249 77.8194 139.72C77.6731 139.938 77.6596 140.154 77.6825 141.896C77.7343 145.825 77.9651 150.137 78.2558 152.604C78.4977 154.657 78.4574 155.24 78.0125 156.117C77.6276 156.877 76.9312 157.56 76.2168 157.88C75.6814 158.119 73.6891 158.652 71.7054 159.087C64.8421 160.591 58.6395 160.778 54.1181 159.617C52.4773 159.195 51.7382 158.698 51.2152 157.662C50.9545 157.146 50.9226 157.002 50.9226 156.336C50.9226 155.72 50.9834 155.393 51.2648 154.491C52.2126 151.453 52.8036 146.587 52.5872 143.601C52.5348 142.878 52.516 142.249 52.5452 142.203C52.5746 142.157 52.6967 142.119 52.8168 142.119C53.4025 142.119 56.3341 141.426 58.0474 140.883C61.6877 139.728 64.1004 138.403 66.2575 136.374C69.7745 133.066 71.6588 128.53 71.5644 123.6L71.536 122.122L71.9197 122.55C72.686 123.404 74.0051 124.044 75.0016 124.044C75.496 124.044 76.4777 123.77 76.9438 123.502C77.2873 123.304 77.3339 123.042 77.0559 122.872C76.9405 122.802 76.7916 122.836 76.4258 123.016C75.1324 123.652 73.9028 123.445 72.7418 122.398C71.9953 121.724 71.3598 120.742 71.1708 119.971C71.0871 119.629 70.9032 118.954 70.7623 118.471C70.2311 116.65 70.0639 115.327 70.2302 114.26C70.5043 112.501 71.5848 110.602 72.5306 110.216C73.2102 109.94 74.0879 110.192 74.8601 110.885C75.3625 111.337 75.803 111.499 76.2564 111.4C76.564 111.332 78.0004 110.665 83.328 108.114C85.3883 107.128 85.5333 107.065 85.5333 107.158ZM31.877 109.851C31.9765 110.716 32.2142 112.204 32.3893 113.057L32.447 113.339H24.9339C18.7696 113.339 17.3458 113.317 17.0038 113.216C14.8658 112.589 14.8852 109.582 17.0315 108.946C17.1555 108.909 20.521 108.875 24.5102 108.871L31.7634 108.864L31.877 109.851ZM89.9416 117.81C90.9598 119.185 90.9015 119.661 89.5555 120.959L88.8872 121.604L88.8284 121.298C88.796 121.13 88.7092 120.248 88.6354 119.337L88.501 117.682L88.702 117.551C88.8126 117.478 89.0056 117.333 89.131 117.229C89.2564 117.124 89.3678 117.047 89.3786 117.058C89.3894 117.068 89.6427 117.407 89.9416 117.81ZM205.181 118.207C206.906 118.404 209.579 119.088 209.899 119.414C210.299 119.823 211.915 124.391 212.902 127.904C213.385 129.624 214.435 133.849 214.435 134.075C214.435 134.126 214.208 133.817 213.932 133.388C210.053 127.367 205.978 123.258 202.889 122.254C200.46 121.464 198.385 122.378 194.946 125.749C193.718 126.954 193.08 127.647 189.371 131.812C187.368 134.06 185.19 136.227 184.235 136.921C183.071 137.768 181.889 138.247 181.274 138.122C179.976 137.859 178.169 135.545 176.138 131.546C175.326 129.947 174.266 127.604 173.598 125.93C173.424 125.496 173.186 124.903 173.069 124.614C172.525 123.266 172.139 122.155 172.198 122.105C172.234 122.074 172.648 122.001 173.118 121.941C173.588 121.882 174.945 121.702 176.133 121.54C177.322 121.378 179.489 121.085 180.949 120.889C182.41 120.692 184.01 120.474 184.505 120.404C185 120.334 186.6 120.116 188.06 119.92C189.521 119.724 191.708 119.428 192.921 119.263C199.23 118.404 200.415 118.245 201.029 118.175C202.11 118.053 203.954 118.067 205.181 118.207ZM34.7612 120.38C34.987 120.922 36.1005 123.222 36.5455 124.066C36.5646 124.102 31.9287 124.13 26.2435 124.127C17.8437 124.124 15.8435 124.102 15.5691 124.006C15.0712 123.833 14.6379 123.477 14.356 123.01C14.1386 122.649 14.1065 122.504 14.1065 121.883C14.1065 121.202 14.122 121.148 14.4433 120.693C14.768 120.233 15.2337 119.896 15.7561 119.742C15.8885 119.703 20.1509 119.668 25.2281 119.664L34.4595 119.656L34.7612 120.38ZM167.4 123.056C167.051 125.145 166.626 126.77 165.961 128.563C164.445 132.647 162.198 136.854 158.87 141.837C158.475 142.43 158.108 142.901 158.056 142.885C157.91 142.837 157.401 141.89 157.152 141.204C156.285 138.808 155.864 135.504 155.649 129.396C155.562 126.933 155.582 124.437 155.689 124.332C155.704 124.317 156.908 124.144 158.364 123.947C159.82 123.749 162.388 123.398 164.071 123.166C165.755 122.934 167.205 122.741 167.293 122.736C167.431 122.729 167.447 122.777 167.4 123.056ZM161.936 173.093H171.143L171.114 183.03C171.082 193.857 171.118 193.071 170.583 194.678C169.886 196.771 168.178 198.903 166.136 200.228C165.037 200.942 164.885 201.011 159.625 203.186C157.318 204.141 153.648 205.663 151.469 206.569C146.063 208.817 145.066 209.209 144.203 209.425C142.446 209.866 142.302 209.876 136.858 209.919L131.698 209.959L131.755 209.579C131.84 209.014 131.654 206.823 131.401 205.426C130.437 200.091 128.853 194.043 126.99 188.58C125.18 183.273 123.403 179.091 121.084 174.679L120.188 172.976L136.459 173.034C145.408 173.066 156.873 173.093 161.936 173.093ZM176.898 184.126C176.898 196.067 176.904 195.906 176.409 197.354C175.86 198.96 174.955 200.336 173.619 201.594C172.427 202.718 171.324 203.399 169.472 204.155C168.977 204.357 167.357 205.028 165.872 205.645C164.386 206.262 161.389 207.506 159.211 208.409C157.032 209.312 153.933 210.597 152.324 211.265C144.691 214.431 145.073 214.281 143.825 214.599C142.287 214.992 141.591 215.031 136.098 215.033L130.897 215.034L130.942 214.837C130.967 214.728 131.068 214.284 131.167 213.85C131.382 212.904 131.588 211.755 131.666 211.064L131.724 210.559H136.558C141.34 210.559 142.186 210.521 143.59 210.24C144.966 209.965 145.776 209.658 152.234 206.96C152.903 206.681 154.665 205.95 156.15 205.336C157.635 204.722 160.086 203.709 161.596 203.085C164.94 201.702 165.736 201.32 166.742 200.618C169.354 198.797 170.986 196.412 171.586 193.544C171.762 192.704 171.768 192.356 171.768 182.943C171.768 177.59 171.795 173.183 171.828 173.151C171.861 173.119 173.015 173.093 174.393 173.093H176.898L176.898 184.126ZM193.236 182.226C190.741 182.642 188.472 184.485 187.565 186.834C187.069 188.118 186.916 190.27 187.213 191.794C187.687 194.233 189.339 196.263 191.622 197.212L192.24 197.469L189.632 197.507C186.83 197.547 186.6 197.58 185.585 198.077C184.452 198.631 183.526 199.603 183.035 200.752C182.597 201.778 182.554 202.413 182.59 207.23C182.621 211.469 182.627 211.583 182.828 212.183C183.422 213.953 184.886 215.325 186.665 215.776C187.141 215.897 191.29 215.912 225.753 215.912C258.315 215.912 264.355 215.893 264.606 215.791C265.206 215.546 265.579 214.761 265.389 214.143C265.259 213.718 264.884 213.287 264.513 213.136C264.351 213.07 263.935 213.016 263.587 213.016C262.972 213.016 262.955 213.01 262.9 212.775C262.869 212.642 262.788 212.336 262.72 212.095C261.797 208.816 261.854 204.756 262.875 201.061L263.062 200.381L263.75 200.381C264.278 200.381 264.506 200.34 264.731 200.206C265.072 200.004 265.359 199.584 265.439 199.171C265.5 198.855 265.284 198.187 265.063 198.008C264.992 197.95 264.933 197.868 264.933 197.826C264.933 197.783 265.724 197.749 266.692 197.749H268.451L268.825 197.409C269.176 197.09 269.201 197.034 269.234 196.509C269.264 196.033 269.238 195.906 269.059 195.652C268.754 195.22 268.327 195.029 267.668 195.029H267.115L266.893 194.568C266.159 193.045 265.814 191.548 265.814 189.896C265.814 188.212 266.081 187.049 266.832 185.46L267.112 184.868L267.816 184.837C268.417 184.81 268.555 184.774 268.76 184.587C269.519 183.896 269.401 182.71 268.532 182.284C268.235 182.139 266.264 182.131 230.952 182.141C210.456 182.146 193.484 182.185 193.236 182.226ZM266.283 184.937C266.283 184.985 266.141 185.359 265.967 185.769C265.793 186.178 265.542 186.939 265.408 187.459C265.189 188.311 265.166 188.555 265.171 189.94C265.175 191.358 265.196 191.552 265.448 192.485C265.598 193.041 265.847 193.804 266.002 194.181C266.157 194.558 266.283 194.903 266.283 194.948C266.283 194.997 259.146 195.028 248.033 195.027C227.816 195.026 229.14 195.064 228.105 194.451C227.52 194.105 226.888 193.449 226.602 192.891C226.197 192.1 226.118 191.533 226.155 189.688C226.186 188.168 226.213 187.909 226.388 187.485C226.954 186.106 228.161 185.153 229.647 184.911C230.16 184.827 266.283 184.853 266.283 184.937ZM230.787 187.804C230.663 187.926 230.734 188.27 230.902 188.357C231.089 188.455 261.656 188.49 262.027 188.393C262.269 188.33 262.378 188.048 262.229 187.873C262.135 187.763 260.044 187.746 246.484 187.746C237.884 187.746 230.82 187.772 230.787 187.804ZM264.516 198.419C264.849 198.743 264.838 199.171 264.49 199.51L264.227 199.767H233.769C200.415 199.767 202.829 199.729 201.816 200.267C201.208 200.589 200.526 201.325 200.185 202.026L199.897 202.619V206.743V210.867L200.176 211.437C200.743 212.597 201.853 213.428 203.096 213.625C203.494 213.688 213.29 213.717 233.995 213.718L264.312 213.718L264.532 213.95C264.846 214.281 264.83 214.71 264.49 215.041L264.227 215.298H225.878C198.402 215.298 187.394 215.27 187.052 215.201C186.226 215.035 185.306 214.547 184.696 213.952C184.072 213.343 183.529 212.378 183.381 211.618C183.327 211.34 183.29 209.322 183.29 206.661C183.29 201.753 183.297 201.674 183.826 200.652C184.379 199.583 185.574 198.642 186.794 198.314C187.122 198.226 195.036 198.202 225.742 198.195L264.278 198.188L264.516 198.419ZM262.321 200.447C262.32 200.483 262.239 200.809 262.141 201.171C262.043 201.533 261.857 202.401 261.729 203.101C261.443 204.663 261.338 207.457 261.504 209.111C261.609 210.146 261.973 212.1 262.145 212.54C262.193 212.663 262.233 212.821 262.233 212.891C262.233 213.001 258.358 213.015 232.55 212.995L202.868 212.972L202.418 212.758C201.749 212.438 201.088 211.787 200.786 211.149L200.527 210.603L200.497 207.094C200.477 204.666 200.5 203.4 200.573 202.989C200.802 201.709 201.882 200.698 203.261 200.47C203.795 200.382 262.323 200.359 262.321 200.447ZM206.172 204.347C206.017 204.498 206.038 204.828 206.206 204.891C206.284 204.92 217.785 204.944 231.763 204.944C255.047 204.944 257.191 204.932 257.324 204.802C257.452 204.678 257.454 204.637 257.342 204.473L257.215 204.286L231.747 204.264C212.014 204.247 206.255 204.265 206.172 204.347ZM206.098 208.58C206.071 208.65 206.062 208.778 206.079 208.865C206.11 209.018 206.935 209.025 227.139 209.046C249.85 209.07 248.478 209.097 248.327 208.633L248.268 208.454H227.208C208.95 208.454 206.141 208.47 206.098 208.58ZM131.839 219.663C132.527 221.243 133.244 222.892 133.432 223.326C133.619 223.761 134.315 225.356 134.978 226.872L136.183 229.629L136.907 230.432C142.001 236.088 155.765 240.834 176.718 244.158C178.842 244.495 182.607 245.041 184.01 245.214C184.381 245.261 185.456 245.397 186.398 245.517C192.656 246.316 200.712 247.071 207.098 247.456C210.165 247.641 210.764 247.63 211.823 247.369C213.445 246.968 214.023 246.872 214.767 246.881C215.32 246.888 215.522 246.859 215.577 246.764C215.693 246.564 217.88 246.413 219.746 246.476C221.57 246.537 222.883 246.732 224.651 247.203L225.912 247.539L230.004 247.517C235.163 247.489 236.381 247.604 237.721 248.247C238.822 248.775 239.281 249.497 239.277 250.696C239.274 251.449 239.199 251.789 238.725 253.203C237.925 255.591 237.154 256.618 234.778 258.462C233.559 259.408 232.64 259.955 231.403 260.468C228.572 261.643 226.406 262.25 224.114 262.513C222.952 262.646 220.866 262.563 219.729 262.338C217.789 261.954 215.591 261.065 213.652 259.881C211.309 258.45 210.357 258.211 207.65 258.374C204.264 258.578 185.373 259.111 170.237 259.43C167.935 259.479 164.472 259.559 162.541 259.608C155.109 259.798 146.429 259.972 144.403 259.971C138.64 259.97 133.236 258.703 128.07 256.141C124.729 254.483 121.775 252.383 119.011 249.697C116.007 246.779 114.02 244.06 111.728 239.734C111.216 238.769 110.689 237.782 110.557 237.541C110.12 236.748 108.037 232.788 108.037 232.751C108.037 232.731 108.695 232.728 109.5 232.744C111.077 232.776 112.443 232.666 113.794 232.398C119.477 231.27 124.444 227.956 127.655 223.151C128.735 221.536 130.021 218.736 130.38 217.22C130.436 216.983 130.506 216.789 130.535 216.789C130.565 216.789 131.151 218.083 131.839 219.663ZM203.59 228.709C204.777 229.473 205.833 230.194 205.936 230.31C206.039 230.426 206.231 230.705 206.362 230.929C206.802 231.682 207.399 232.034 208.423 232.146C208.986 232.207 209.11 232.264 210.268 233.006C210.951 233.444 213.211 234.887 215.29 236.213C223.234 241.28 226.588 243.42 227.892 244.254C228.635 244.73 229.819 245.485 230.525 245.933C231.23 246.381 231.808 246.777 231.808 246.812C231.808 246.902 228.317 246.942 226.853 246.869C226.182 246.835 225.453 246.749 225.232 246.677C224.606 246.473 223.48 246.214 222.446 246.038C221.179 245.822 216.762 245.813 215.38 246.024L214.48 246.161L213.715 245.766C213.294 245.549 212.706 245.244 212.409 245.088C212.112 244.931 211.343 244.534 210.699 244.205C204.727 241.153 204.124 240.826 203.781 240.458C203.59 240.253 203.317 239.958 203.173 239.802C202.783 239.379 202.411 239.232 201.533 239.153C200.661 239.074 200.874 239.167 197.22 237.26L195.803 236.521L195.96 236.232C196.603 235.048 201.267 227.322 201.34 227.32C201.39 227.319 202.403 227.944 203.59 228.709ZM190.544 229.998C191.876 230.805 193.338 231.687 193.793 231.958C194.248 232.23 194.639 232.521 194.662 232.607C194.703 232.752 194.516 233.022 194.376 233.022C194.284 233.022 193.298 232.442 190.312 230.634C188.56 229.573 187.646 228.968 187.624 228.858C187.588 228.677 187.856 228.431 188.021 228.493C188.076 228.514 189.212 229.191 190.544 229.998ZM206.275 233.089C206.218 233.125 205.517 234.217 204.718 235.517C203.194 237.996 203.054 238.331 203.543 238.331C203.742 238.331 203.944 238.044 205.276 235.875C206.105 234.524 206.783 233.392 206.783 233.358C206.783 233.28 206.519 233.022 206.439 233.023C206.406 233.024 206.332 233.054 206.275 233.089ZM209.602 235.359C209.571 235.438 209.582 235.56 209.628 235.63C209.779 235.864 220.322 242.328 220.511 242.303C220.644 242.285 220.691 242.213 220.691 242.024C220.691 241.783 220.408 241.595 215.393 238.493C212.164 236.495 210.011 235.216 209.877 235.216C209.757 235.216 209.633 235.28 209.602 235.359ZM225.869 240.922C226.828 241.036 228.058 241.373 228.91 241.757C230.796 242.606 232.273 244.09 233.01 245.878C233.337 246.673 233.367 246.798 233.231 246.798C233.165 246.798 232.221 246.229 231.132 245.534C230.043 244.838 228.565 243.895 227.847 243.437C224.606 241.37 224.156 241.074 224.156 241.003C224.156 240.962 224.369 240.914 224.629 240.896C224.889 240.878 225.103 240.856 225.104 240.848C225.105 240.839 225.449 240.872 225.869 240.922ZM241.484 252.927C242.276 253.431 243.322 254.096 243.808 254.405C244.294 254.714 244.678 254.994 244.662 255.028C244.646 255.062 244.208 255.899 243.69 256.888C242.544 259.073 242.549 259.061 242.724 259.231C243.015 259.515 243.191 259.292 244.193 257.371C244.733 256.335 245.199 255.487 245.228 255.486C245.258 255.485 245.686 255.929 246.18 256.472C247.101 257.483 247.705 258.143 250.201 260.862C250.989 261.721 251.618 262.435 251.6 262.45C251.581 262.464 250.452 262.227 249.09 261.923C247.729 261.618 245.785 261.185 244.77 260.96C242.195 260.39 241.979 260.315 240.049 259.326C237.651 258.096 236.993 257.751 236.922 257.689C236.888 257.659 237.16 257.283 237.527 256.854C238.163 256.11 238.862 254.941 239.095 254.234C239.154 254.053 239.223 253.905 239.248 253.905C239.272 253.905 239.983 254.326 240.828 254.841C242.426 255.814 242.613 255.871 242.683 255.412C242.706 255.262 242.553 255.128 241.891 254.719C241.44 254.441 240.738 254.005 240.332 253.752C239.926 253.499 239.558 253.28 239.513 253.265C239.469 253.251 239.495 253.043 239.573 252.804C239.65 252.565 239.738 252.259 239.769 252.125C239.805 251.962 239.861 251.902 239.934 251.945C239.995 251.981 240.692 252.423 241.484 252.927Z" fill="#181818"/>
</svg>
