<svg width="86" height="60" viewBox="0 0 86 60" fill="none" xmlns="http://www.w3.org/2000/svg">
<path d="M4.85069 10.6457V25.1656H0.847209V6.93992H4.61812L4.85069 10.6457ZM4.20282 15.379L2.84064 15.3622C2.84064 14.1044 2.99569 12.9422 3.30578 11.8754C3.61586 10.8085 4.06992 9.88209 4.66795 9.09601C5.26598 8.29871 6.00798 7.68669 6.89395 7.25997C7.791 6.82201 8.82648 6.60303 10.0004 6.60303C10.8199 6.60303 11.5674 6.72656 12.243 6.97361C12.9296 7.20943 13.5221 7.58563 14.0205 8.10219C14.5299 8.61875 14.9175 9.2813 15.1833 10.0898C15.4602 10.8984 15.5986 11.8754 15.5986 13.0208V25.1656H11.5951V13.3745C11.5951 12.4874 11.4622 11.7911 11.1964 11.2858C10.9417 10.7805 10.5707 10.4211 10.0834 10.2077C9.60724 9.98316 9.03689 9.87086 8.37242 9.87086C7.61934 9.87086 6.97701 10.0168 6.44543 10.3088C5.92492 10.6008 5.49855 10.9994 5.16631 11.5048C4.83407 12.0101 4.59043 12.594 4.43539 13.2566C4.28034 13.9191 4.20282 14.6266 4.20282 15.379ZM15.3494 14.301L13.4723 14.7221C13.4723 13.6216 13.6218 12.5828 13.9208 11.6058C14.2309 10.6176 14.6794 9.75295 15.2664 9.01179C15.8644 8.25941 16.6009 7.66985 17.4758 7.24312C18.3507 6.8164 19.3529 6.60303 20.4825 6.60303C21.4017 6.60303 22.2212 6.73217 22.9411 6.99045C23.672 7.23751 24.2922 7.63054 24.8016 8.16957C25.3111 8.70859 25.6987 9.41044 25.9645 10.2751C26.2302 11.1286 26.3631 12.1617 26.3631 13.3745V25.1656H22.3431V13.3577C22.3431 12.4368 22.2102 11.7238 21.9444 11.2184C21.6897 10.7131 21.3242 10.365 20.848 10.1741C20.3718 9.97193 19.8014 9.87086 19.137 9.87086C18.5168 9.87086 17.9686 9.98877 17.4924 10.2246C17.0272 10.4492 16.6341 10.7692 16.3129 11.1847C15.9918 11.589 15.7481 12.055 15.582 12.5828C15.427 13.1106 15.3494 13.6833 15.3494 14.301Z" fill="#181818"/>
<path d="M34.7688 6.93992V25.1656H30.7487V6.93992H34.7688ZM30.4829 2.15609C30.4829 1.53846 30.6822 1.02751 31.0809 0.623245C31.4907 0.207748 32.0555 0 32.7754 0C33.4841 0 34.0434 0.207748 34.4532 0.623245C34.8629 1.02751 35.0678 1.53846 35.0678 2.15609C35.0678 2.76249 34.8629 3.26783 34.4532 3.67209C34.0434 4.07636 33.4841 4.2785 32.7754 4.2785C32.0555 4.2785 31.4907 4.07636 31.0809 3.67209C30.6822 3.26783 30.4829 2.76249 30.4829 2.15609Z" fill="#181818"/>
<path d="M50.6664 6.93992H54.3044V24.6603C54.3044 26.2998 53.9611 27.6923 53.2745 28.8377C52.5879 29.9832 51.6299 30.8535 50.4006 31.4486C49.1713 32.055 47.7482 32.3582 46.1314 32.3582C45.4447 32.3582 44.6806 32.2572 43.8389 32.055C43.0083 31.8529 42.1999 31.5272 41.4136 31.078C40.6383 30.6401 39.9905 30.0618 39.47 29.3431L41.3471 26.9512C41.9894 27.726 42.6982 28.2931 43.4734 28.6524C44.2487 29.0118 45.0626 29.1915 45.9154 29.1915C46.8346 29.1915 47.6153 29.0174 48.2577 28.6693C48.9111 28.3324 49.415 27.8327 49.7694 27.1701C50.1238 26.5076 50.3009 25.699 50.3009 24.7445V11.0668L50.6664 6.93992ZM38.4566 16.2549V15.9012C38.4566 14.5199 38.6228 13.2622 38.955 12.128C39.2872 10.9826 39.7634 10 40.3836 9.18024C41.0038 8.34924 41.7569 7.71477 42.6428 7.27681C43.5288 6.82762 44.5311 6.60303 45.6496 6.60303C46.8124 6.60303 47.8036 6.8164 48.6231 7.24312C49.4537 7.66985 50.1459 8.28186 50.6996 9.07917C51.2534 9.86524 51.6853 10.8085 51.9954 11.909C52.3165 12.9983 52.5546 14.2111 52.7097 15.5474V16.676C52.5657 17.9787 52.3221 19.169 51.9788 20.2471C51.6354 21.3251 51.1814 22.2572 50.6166 23.0432C50.0518 23.8293 49.3541 24.4357 48.5235 24.8624C47.7039 25.2892 46.7349 25.5025 45.6164 25.5025C44.52 25.5025 43.5288 25.2723 42.6428 24.8119C41.7679 24.3515 41.0149 23.7058 40.3836 22.8748C39.7634 22.0438 39.2872 21.0668 38.955 19.9439C38.6228 18.8097 38.4566 17.58 38.4566 16.2549ZM42.4601 15.9012V16.2549C42.4601 17.0859 42.5376 17.8608 42.6927 18.5795C42.8588 19.2981 43.108 19.9326 43.4402 20.4829C43.7835 21.0219 44.2154 21.4486 44.7359 21.7631C45.2675 22.0663 45.8932 22.2179 46.6131 22.2179C47.5544 22.2179 48.3241 22.0157 48.9222 21.6115C49.5313 21.2072 49.9964 20.6625 50.3176 19.9775C50.6498 19.2813 50.8824 18.5065 51.0153 17.653V14.6042C50.9488 13.9416 50.8104 13.324 50.6 12.7513C50.4006 12.1786 50.1293 11.6788 49.786 11.2521C49.4427 10.8141 49.0108 10.4773 48.4902 10.2414C47.9697 9.99439 47.3551 9.87086 46.6463 9.87086C45.9265 9.87086 45.3008 10.0281 44.7692 10.3425C44.2376 10.6569 43.8001 11.0893 43.4568 11.6395C43.1246 12.1898 42.8754 12.8299 42.7093 13.5598C42.5432 14.2897 42.4601 15.0702 42.4601 15.9012Z" fill="#181818"/>
<path d="M62.4775 10.4099V25.1656H58.474V6.93992H62.2948L62.4775 10.4099ZM67.9761 6.82201L67.9428 10.5952C67.6992 10.5503 67.4334 10.5166 67.1455 10.4941C66.8686 10.4716 66.5917 10.4604 66.3149 10.4604C65.6282 10.4604 65.0247 10.5615 64.5042 10.7636C63.9836 10.9545 63.5462 11.2353 63.1918 11.6058C62.8485 11.9652 62.5827 12.4031 62.3944 12.9197C62.2062 13.4363 62.0954 14.0146 62.0622 14.6547L61.1485 14.7221C61.1485 13.5766 61.2593 12.5154 61.4808 11.5385C61.7023 10.5615 62.0345 9.70241 62.4775 8.96126C62.9316 8.2201 63.4964 7.64177 64.1719 7.22628C64.8585 6.81078 65.6504 6.60303 66.5474 6.60303C66.7911 6.60303 67.0513 6.62549 67.3282 6.67041C67.6161 6.71533 67.8321 6.76586 67.9761 6.82201Z" fill="#181818"/>
<path d="M69.2884 16.2549V15.8675C69.2884 14.5536 69.4767 13.3352 69.8532 12.2122C70.2297 11.078 70.7724 10.0955 71.4812 9.26446C72.201 8.42223 73.0759 7.77092 74.1059 7.3105C75.1469 6.83885 76.3208 6.60303 77.6276 6.60303C78.9455 6.60303 80.1194 6.83885 81.1493 7.3105C82.1903 7.77092 83.0708 8.42223 83.7906 9.26446C84.5105 10.0955 85.0587 11.078 85.4352 12.2122C85.8117 13.3352 86 14.5536 86 15.8675V16.2549C86 17.5688 85.8117 18.7872 85.4352 19.9102C85.0587 21.0331 84.5105 22.0157 83.7906 22.8579C83.0708 23.6889 82.1959 24.3403 81.1659 24.8119C80.136 25.2723 78.9676 25.5025 77.6608 25.5025C76.3429 25.5025 75.1635 25.2723 74.1225 24.8119C73.0925 24.3403 72.2176 23.6889 71.4978 22.8579C70.7779 22.0157 70.2297 21.0331 69.8532 19.9102C69.4767 18.7872 69.2884 17.5688 69.2884 16.2549ZM73.2919 15.8675V16.2549C73.2919 17.0747 73.3749 17.8495 73.541 18.5795C73.7072 19.3094 73.9674 19.9495 74.3218 20.4997C74.6762 21.05 75.1303 21.4823 75.684 21.7967C76.2377 22.1112 76.8967 22.2684 77.6608 22.2684C78.4028 22.2684 79.0451 22.1112 79.5878 21.7967C80.1415 21.4823 80.5956 21.05 80.95 20.4997C81.3044 19.9495 81.5646 19.3094 81.7307 18.5795C81.9079 17.8495 81.9965 17.0747 81.9965 16.2549V15.8675C81.9965 15.059 81.9079 14.2953 81.7307 13.5766C81.5646 12.8467 81.2988 12.201 80.9334 11.6395C80.579 11.078 80.1249 10.6401 79.5712 10.3257C79.0285 10 78.3807 9.83717 77.6276 9.83717C76.8745 9.83717 76.2211 10 75.6674 10.3257C75.1247 10.6401 74.6762 11.078 74.3218 11.6395C73.9674 12.201 73.7072 12.8467 73.541 13.5766C73.3749 14.2953 73.2919 15.059 73.2919 15.8675Z" fill="#181818"/>
<path d="M10.9307 54.7277C10.9307 54.3234 10.831 53.9585 10.6316 53.6328C10.4323 53.2959 10.0502 52.9927 9.48542 52.7232C8.93169 52.4537 8.11216 52.2066 7.02685 51.982C6.07443 51.7687 5.19954 51.516 4.40216 51.224C3.61586 50.9208 2.94031 50.5559 2.37551 50.1291C1.8107 49.7024 1.37325 49.1971 1.06316 48.6131C0.753075 48.0292 0.59803 47.3554 0.59803 46.5918C0.59803 45.8506 0.758612 45.1488 1.07978 44.4862C1.40094 43.8237 1.86054 43.2398 2.45857 42.7344C3.0566 42.2291 3.78198 41.8304 4.63473 41.5385C5.49855 41.2465 6.46204 41.1005 7.52521 41.1005C9.03136 41.1005 10.3216 41.3588 11.3958 41.8754C12.4811 42.3807 13.3117 43.0713 13.8876 43.9472C14.4635 44.8119 14.7514 45.7889 14.7514 46.8782H10.7479C10.7479 46.3953 10.6261 45.9461 10.3825 45.5306C10.1499 45.1039 9.79551 44.7614 9.3193 44.5031C8.84309 44.2336 8.24506 44.0988 7.52521 44.0988C6.83858 44.0988 6.26824 44.2111 5.81418 44.4357C5.37119 44.6491 5.03895 44.9298 4.81746 45.2779C4.60704 45.6261 4.50183 46.0079 4.50183 46.4234C4.50183 46.7266 4.55721 47.0017 4.66795 47.2487C4.78978 47.4846 4.98912 47.7035 5.26598 47.9057C5.54285 48.0966 5.91939 48.2762 6.3956 48.4447C6.88288 48.6131 7.49198 48.776 8.22291 48.9332C9.59616 49.2252 10.7756 49.6013 11.7613 50.0618C12.758 50.5109 13.5221 51.0949 14.0537 51.8136C14.5853 52.5211 14.8511 53.4194 14.8511 54.5087C14.8511 55.3172 14.6794 56.0584 14.3361 56.7322C14.0039 57.3947 13.5166 57.973 12.8743 58.4672C12.2319 58.95 11.4622 59.3262 10.5652 59.5957C9.67922 59.8652 8.68251 60 7.57504 60C5.94707 60 4.56828 59.708 3.43867 59.1241C2.30906 58.5289 1.45078 57.7709 0.863821 56.8501C0.28794 55.918 0 54.9523 0 53.9528H3.87058C3.91488 54.7052 4.11976 55.306 4.48522 55.7552C4.86176 56.1931 5.32689 56.5132 5.88063 56.7153C6.44543 56.9062 7.02685 57.0017 7.62488 57.0017C8.34473 57.0017 8.9483 56.9062 9.43558 56.7153C9.92286 56.5132 10.2939 56.2437 10.5486 55.9068C10.8033 55.5587 10.9307 55.1656 10.9307 54.7277Z" fill="#181818"/>
<path d="M26.5957 41.4374V44.402H16.4624V41.4374H26.5957ZM19.3861 36.9736H23.3896V54.6266C23.3896 55.1881 23.4671 55.6204 23.6222 55.9236C23.7883 56.2156 24.0153 56.4121 24.3033 56.5132C24.5912 56.6143 24.929 56.6648 25.3166 56.6648C25.5935 56.6648 25.8592 56.648 26.114 56.6143C26.3687 56.5806 26.5736 56.5469 26.7286 56.5132L26.7452 59.6126C26.413 59.7136 26.0254 59.8035 25.5824 59.8821C25.1505 59.9607 24.6521 60 24.0873 60C23.1681 60 22.3541 59.8372 21.6454 59.5115C20.9366 59.1746 20.3828 58.63 19.9842 57.8776C19.5855 57.1252 19.3861 56.1258 19.3861 54.8793V36.9736Z" fill="#181818"/>
<path d="M28.5227 50.7524V50.365C28.5227 49.0511 28.711 47.8327 29.0875 46.7097C29.464 45.5755 30.0067 44.5929 30.7155 43.7619C31.4353 42.9197 32.3102 42.2684 33.3402 41.808C34.3812 41.3363 35.5551 41.1005 36.8619 41.1005C38.1798 41.1005 39.3537 41.3363 40.3836 41.808C41.4246 42.2684 42.3051 42.9197 43.0249 43.7619C43.7448 44.5929 44.293 45.5755 44.6695 46.7097C45.046 47.8327 45.2343 49.0511 45.2343 50.365V50.7524C45.2343 52.0663 45.046 53.2847 44.6695 54.4076C44.293 55.5306 43.7448 56.5132 43.0249 57.3554C42.3051 58.1864 41.4302 58.8377 40.4002 59.3094C39.3703 59.7698 38.2019 60 36.8951 60C35.5772 60 34.3978 59.7698 33.3568 59.3094C32.3268 58.8377 31.4519 58.1864 30.7321 57.3554C30.0122 56.5132 29.464 55.5306 29.0875 54.4076C28.711 53.2847 28.5227 52.0663 28.5227 50.7524ZM32.5262 50.365V50.7524C32.5262 51.5722 32.6092 52.347 32.7754 53.0769C32.9415 53.8069 33.2017 54.4469 33.5561 54.9972C33.9105 55.5474 34.3646 55.9798 34.9183 56.2942C35.472 56.6086 36.131 56.7659 36.8951 56.7659C37.6371 56.7659 38.2794 56.6086 38.8221 56.2942C39.3758 55.9798 39.8299 55.5474 40.1843 54.9972C40.5387 54.4469 40.7989 53.8069 40.965 53.0769C41.1422 52.347 41.2308 51.5722 41.2308 50.7524V50.365C41.2308 49.5564 41.1422 48.7928 40.965 48.0741C40.7989 47.3442 40.5331 46.6985 40.1677 46.137C39.8133 45.5755 39.3592 45.1376 38.8055 44.8231C38.2628 44.4975 37.615 44.3346 36.8619 44.3346C36.1088 44.3346 35.4554 44.4975 34.9017 44.8231C34.359 45.1376 33.9105 45.5755 33.5561 46.137C33.2017 46.6985 32.9415 47.3442 32.7754 48.0741C32.6092 48.7928 32.5262 49.5564 32.5262 50.365Z" fill="#181818"/>
<path d="M52.61 44.9074V59.6631H48.6065V41.4374H52.4273L52.61 44.9074ZM58.1086 41.3195L58.0753 45.0926C57.8317 45.0477 57.5659 45.014 57.278 44.9916C57.0011 44.9691 56.7242 44.9579 56.4474 44.9579C55.7607 44.9579 55.1572 45.059 54.6367 45.2611C54.1162 45.452 53.6787 45.7327 53.3243 46.1033C52.981 46.4627 52.7152 46.9006 52.5269 47.4172C52.3387 47.9337 52.2279 48.5121 52.1947 49.1522L51.2811 49.2195C51.2811 48.0741 51.3918 47.0129 51.6133 46.0359C51.8348 45.059 52.167 44.1999 52.61 43.4587C53.0641 42.7176 53.6289 42.1392 54.3044 41.7238C54.9911 41.3083 55.7829 41.1005 56.6799 41.1005C56.9236 41.1005 57.1838 41.123 57.4607 41.1679C57.7486 41.2128 57.9646 41.2633 58.1086 41.3195Z" fill="#181818"/>
<path d="M68.2086 60C66.8797 60 65.6781 59.781 64.6038 59.3431C63.5407 58.8939 62.6325 58.2706 61.8795 57.4733C61.1375 56.676 60.5671 55.7383 60.1684 54.6603C59.7698 53.5823 59.5704 52.42 59.5704 51.1735V50.4997C59.5704 49.0736 59.7753 47.7821 60.1851 46.6255C60.5948 45.4688 61.1652 44.4806 61.8961 43.6609C62.627 42.8299 63.4908 42.1954 64.4875 41.7574C65.4843 41.3195 66.564 41.1005 67.7269 41.1005C69.0115 41.1005 70.1356 41.3195 71.0991 41.7574C72.0626 42.1954 72.86 42.813 73.4912 43.6103C74.1335 44.3964 74.6097 45.3341 74.9198 46.4234C75.241 47.5126 75.4016 48.7142 75.4016 50.0281V51.7631H61.514V48.849H71.4479V48.5289C71.4258 47.799 71.2818 47.114 71.016 46.4739C70.7613 45.8338 70.3682 45.3172 69.8366 44.9242C69.305 44.5312 68.5962 44.3346 67.7103 44.3346C67.0458 44.3346 66.4533 44.4806 65.9328 44.7726C65.4233 45.0533 64.997 45.4632 64.6537 46.0022C64.3103 46.5413 64.0446 47.1926 63.8563 47.9562C63.6791 48.7086 63.5905 49.5564 63.5905 50.4997V51.1735C63.5905 51.9708 63.6957 52.712 63.9061 53.397C64.1276 54.0707 64.4488 54.6603 64.8696 55.1656C65.2905 55.671 65.7999 56.0696 66.3979 56.3616C66.9959 56.6423 67.677 56.7827 68.4412 56.7827C69.4047 56.7827 70.263 56.5862 71.016 56.1931C71.7691 55.8001 72.4225 55.2442 72.9762 54.5255L75.086 56.5974C74.6983 57.1701 74.1945 57.7204 73.5743 58.2482C72.9541 58.7647 72.1955 59.1859 71.2984 59.5115C70.4125 59.8372 69.3825 60 68.2086 60Z" fill="#181818"/>
<path d="M78.6908 57.6418C78.6908 57.0129 78.9012 56.4851 79.322 56.0584C79.7428 55.6204 80.3132 55.4015 81.033 55.4015C81.764 55.4015 82.3343 55.6204 82.7441 56.0584C83.1649 56.4851 83.3753 57.0129 83.3753 57.6418C83.3753 58.2706 83.1649 58.7984 82.7441 59.2252C82.3343 59.6519 81.764 59.8652 81.033 59.8652C80.3132 59.8652 79.7428 59.6519 79.322 59.2252C78.9012 58.7984 78.6908 58.2706 78.6908 57.6418Z" fill="#181818"/>
</svg>
