<svg width="360" height="280" viewBox="0 0 360 280" fill="none" xmlns="http://www.w3.org/2000/svg">
<path fill-rule="evenodd" clip-rule="evenodd" d="M83.1998 6.09784C80.7918 6.26416 77.6427 6.87975 75.2356 7.65467C64.5786 11.0854 56.1459 19.2066 52.1525 29.885C49.9361 35.8115 49.2794 42.6824 50.3218 49.037C51.2472 54.6783 53.3951 59.9212 56.7062 64.6214C58.5936 67.3005 61.4868 70.3221 64.1011 72.3445C68.439 75.7001 73.1249 77.8927 78.5922 79.1249C78.7263 79.155 78.8335 79.2398 78.8335 79.3154C78.8335 79.3904 78.7561 80.3267 78.6615 81.3961C78.567 82.4657 78.4088 84.2878 78.3102 85.4454C78.2116 86.603 78.072 88.2354 77.9999 89.0728C77.9279 89.9102 77.7888 91.5426 77.6909 92.7002C77.4928 95.0424 77.2351 98.0503 77.0347 100.358C76.962 101.196 76.7448 103.755 76.5519 106.045C76.359 108.336 76.1419 110.895 76.0691 111.733C75.8688 114.041 75.611 117.049 75.4129 119.391C75.3151 120.548 75.1751 122.181 75.1019 123.018C75.0287 123.856 74.8321 126.153 74.6649 128.123C74.4977 130.094 74.321 132.17 74.272 132.736C74.2231 133.303 74.1033 134.733 74.0058 135.916C73.9083 137.098 73.7904 138.468 73.7437 138.961C73.6971 139.453 73.5795 140.824 73.4823 142.006C73.3852 143.188 73.2466 144.821 73.1742 145.633C73.0487 147.042 72.9146 148.611 72.516 153.336C72.4184 154.494 72.2597 156.348 72.1634 157.456C71.8846 160.667 71.7389 162.37 71.55 164.621C71.3565 166.928 71.0953 170.002 70.8917 172.369C70.7138 174.438 70.4445 177.587 70.2331 180.071C70.1366 181.204 69.9981 182.817 69.9252 183.654C69.7544 185.617 69.2098 192.024 69.0953 193.417C69.0467 194.008 68.9665 194.935 68.9171 195.477C68.8676 196.019 68.6699 198.336 68.4777 200.627C68.2854 202.917 68.0681 205.477 67.9949 206.314C67.4434 212.62 67.3208 213.832 67.1658 214.509C66.8501 215.889 66.553 217.761 66.4716 218.881C66.4007 219.859 66.4721 221.854 66.5899 222.187C66.6113 222.248 66.5514 223.194 66.4568 224.291C66.3623 225.387 66.2849 226.292 66.2849 226.302C66.2849 226.312 65.9592 226.197 65.5609 226.046C59.0634 223.594 53.4316 223.625 49.7134 226.134C46.133 228.55 44.9901 233.859 46.9519 238.961C48.9671 244.2 54.2793 249.998 60.6688 253.931C65.8597 257.127 72.1811 259.351 78.9894 260.378L80.33 260.58L80.0124 260.895C79.5896 261.314 79.233 261.854 78.9922 262.439C78.8223 262.852 78.795 263.076 78.7974 264.039C78.7999 265.032 78.8264 265.227 79.0305 265.759C79.9513 268.156 82.0893 269.635 85.0903 269.949C87.7685 270.229 91.7112 269.127 96.3332 266.804C96.9086 266.515 97.4191 266.278 97.4676 266.278C97.516 266.278 97.9337 266.534 98.3957 266.846C101.254 268.778 104.053 270.065 106.244 270.455C107.223 270.629 109.142 270.578 109.94 270.356C114.148 269.188 115.858 264.655 113.131 261.897C112.849 261.612 112.618 261.352 112.618 261.321C112.618 261.289 112.739 261.263 112.887 261.263C113.035 261.263 113.665 261.182 114.287 261.083C114.908 260.985 116.041 260.822 116.804 260.723C122.752 259.945 129.229 258.169 134.625 255.835C139.92 253.545 144.59 250.612 148.393 247.189L149.375 246.305H164.107H178.839L179.08 247.174C179.853 249.968 181.261 252.755 182.717 254.374C184.953 256.859 187.938 257.999 191.376 257.682C194.761 257.369 197.249 256.243 199.366 254.065C201.119 252.263 202.402 249.891 203.128 247.111L203.327 246.35H231.659H259.992L261.188 251.052C263.007 258.198 262.985 258.119 263.239 258.391L263.464 258.63L263.37 259.832C263.318 260.492 263.256 261.065 263.233 261.103C263.21 261.142 263.01 261.173 262.788 261.173C262.39 261.173 262.375 261.184 261.148 262.409C259.779 263.775 259.154 264.301 257.98 265.073C256.772 265.867 255.258 266.571 253.373 267.214C252.23 267.603 251.611 267.86 251.509 267.987C250.753 268.927 251.48 270.902 253.054 272.18C254.763 273.568 256.906 274.22 260.502 274.444C264.083 274.667 268.367 274.109 271.96 272.951C273.239 272.538 273.817 271.762 273.818 270.452C273.82 268.841 273.389 266.063 272.903 264.553C272.627 263.696 272.122 262.657 271.842 262.372C271.596 262.12 271.069 262.082 270.771 262.295C270.587 262.426 270.577 262.419 270.488 262.081C270.268 261.247 270.043 259.999 269.99 259.314C269.941 258.685 269.955 258.549 270.084 258.403C270.444 257.996 271.296 253.025 271.712 248.903C271.813 247.893 271.917 246.895 271.942 246.686L271.987 246.305L275.075 246.3C276.773 246.297 278.349 246.263 278.576 246.225C278.819 246.184 279.024 246.191 279.074 246.241C279.124 246.292 279.886 246.309 280.985 246.283C283.039 246.235 283.864 246.075 285.146 245.476C286.617 244.788 288.195 243.45 289.087 242.133C289.555 241.442 290.316 239.901 290.316 239.645C290.316 239.407 290.444 239.474 290.759 239.879C290.922 240.088 291.705 241.036 292.5 241.985C293.689 243.404 294.002 243.727 294.269 243.809C294.553 243.896 294.655 244.016 295.093 244.771C295.626 245.691 296.241 246.945 296.539 247.718L296.722 248.191L296.481 248.284C295.809 248.545 295.75 248.813 295.894 250.927C296.073 253.568 295.879 255.633 295.22 258.083C294.936 259.137 294.75 259.643 293.865 261.765C293.554 262.509 293.3 263.211 293.3 263.324C293.3 263.642 293.69 264.249 294.062 264.511C295.898 265.8 298.92 265.431 301.687 263.58C305.78 260.842 310.066 255.249 312.676 249.241C313.424 247.519 313.324 247.135 311.805 245.901C308.94 243.575 305.842 241.916 304.08 241.763C303.534 241.716 303.48 241.728 303.266 241.947C303.14 242.075 303.013 242.302 302.984 242.452C302.955 242.601 302.904 242.723 302.871 242.723C302.746 242.723 301.66 241.891 301.232 241.467C300.799 241.037 300.784 241.005 300.775 240.507C300.756 239.334 300.044 234.455 299.478 231.616C298.124 224.827 296.061 218.545 293.602 213.72C292.855 212.253 292.877 212.399 293.079 210.222C293.209 208.819 293.406 206.534 293.738 202.597C293.835 201.44 293.972 199.827 294.043 199.015C294.114 198.202 294.254 196.569 294.354 195.387C294.454 194.205 294.612 192.351 294.705 191.267C294.798 190.183 294.954 188.35 295.053 187.192C295.151 186.034 295.29 184.402 295.362 183.564C295.54 181.495 295.81 178.346 296.021 175.862C296.117 174.729 296.256 173.117 296.329 172.279C296.553 169.709 297.066 163.655 297.16 162.472C297.209 161.856 297.289 160.929 297.337 160.412C297.385 159.895 297.582 157.597 297.774 155.307C297.967 153.016 298.184 150.477 298.257 149.664C298.33 148.851 298.547 146.312 298.74 144.021C299.327 137.044 299.222 137.844 299.704 136.722C300.652 134.515 301.189 132.209 301.388 129.495C301.552 127.257 301.397 125.84 300.714 123.322C300.542 122.689 300.565 122.294 301.157 115.674C301.292 114.166 301.517 111.531 301.812 108.016C301.909 106.858 302.046 105.246 302.116 104.433C302.187 103.621 302.327 101.988 302.427 100.806C302.527 99.6236 302.685 97.7696 302.778 96.6859C302.871 95.6021 303.027 93.7683 303.126 92.6106C303.224 91.453 303.363 89.8207 303.436 88.9832C303.613 86.9141 303.883 83.765 304.094 81.2806C304.191 80.1476 304.329 78.5354 304.402 77.698C304.475 76.8605 304.672 74.5632 304.839 72.5928C305.006 70.6223 305.204 68.3048 305.278 67.4427C305.351 66.5807 305.452 65.3917 305.501 64.8005C305.551 64.2094 305.725 62.1539 305.889 60.2327C306.053 58.3115 306.213 56.3971 306.245 55.9783C306.277 55.5596 306.317 55.0667 306.333 54.8829C306.376 54.404 306.147 52.8052 305.944 52.1565C304.881 48.7721 301.892 46.6635 298.157 46.6635C297.266 46.6635 297.243 46.6687 297.144 46.8909C297.074 47.0456 296.998 47.1001 296.904 47.0612C296.828 47.0298 296.411 46.928 295.976 46.835C295.205 46.6699 293.142 46.6658 208.637 46.6647L122.087 46.6635L122.157 45.5216C122.311 43.0113 122.201 39.9678 121.871 37.6174C120.178 25.5668 112.611 15.0089 101.868 9.7102C95.994 6.81266 89.9059 5.6346 83.1998 6.09784ZM90.4217 9.92883C92.6669 10.2713 94.0638 10.5996 96.0424 11.2494C110.088 15.8627 119.377 29.6394 118.579 44.6769C118.186 52.0963 115.643 58.6701 110.917 64.4871C110.086 65.509 108.039 67.5869 106.958 68.5056C98.2473 75.9068 86.5415 78.2053 75.806 74.6225C65.7881 71.2792 57.904 63.0861 54.7834 52.7758C53.2939 47.855 52.9531 42.2635 53.832 37.1696C56.3043 22.8407 67.7311 11.7074 81.8171 9.9033C83.4638 9.69238 83.4951 9.69112 86.4679 9.72023C88.6916 9.74199 89.4648 9.78283 90.4217 9.92883ZM84.2302 10.752C82.7677 10.8249 81.4526 10.9963 79.7814 11.3318C78.2162 11.6459 78.0058 11.7252 77.9732 12.0126C77.9325 12.3698 78.1343 12.3883 79.2593 12.1308C83.2887 11.2085 88.0944 11.1446 92.0177 11.9613C92.9214 12.1494 93.173 12.1172 93.2079 11.8087C93.2306 11.6086 93.189 11.5561 92.9447 11.4768C92.5784 11.3578 91.445 11.1484 90.1974 10.9692C89.3361 10.8455 86.3331 10.6463 85.7659 10.6752C85.6452 10.6814 84.9542 10.7159 84.2302 10.752ZM175.536 11.2493C168.549 11.5398 163.044 12.1154 156.67 13.2218C153.662 13.744 148.982 14.7148 148.662 14.8828C148.476 14.981 148.462 15.2541 148.636 15.4016C148.771 15.5159 148.705 15.5267 151.097 14.9997C157.517 13.5855 164.859 12.5589 171.939 12.0856C174.217 11.9332 181.306 11.8784 183.961 11.9926C195.267 12.4789 205.662 14.6196 214.827 18.3486C220.158 20.5178 225.337 23.393 228.667 26.0328C229.003 26.2992 229.335 26.5057 229.404 26.4917C229.614 26.4493 229.737 26.176 229.626 25.9963C229.412 25.6495 226.724 23.734 224.829 22.5777C219.279 19.1912 212.437 16.3511 205.197 14.4286C199.113 12.8131 192.622 11.8125 185.365 11.3712C183.878 11.2808 176.87 11.1938 175.536 11.2493ZM85.5021 12.3488C84.8369 12.5711 84.4711 12.8997 84.1937 13.5243C83.8439 14.312 84.0203 15.2294 84.6364 15.826C84.9513 16.131 85.4691 16.3904 85.7631 16.3904C85.9362 16.3904 85.942 16.4466 85.9612 18.316C85.9722 19.3751 85.982 20.6128 85.9832 21.0665L85.9853 21.8913L85.6903 21.9528C85.5282 21.9867 85.3361 22.075 85.2636 22.1491C85.0152 22.4025 84.1023 26.5832 83.7537 29.0639C83.2537 32.621 83.32 36.1881 83.9314 38.6351L84.1074 39.3394L83.5745 39.9059C83.2441 40.2571 82.9339 40.7043 82.7584 41.0825C82.4904 41.6599 82.4752 41.7479 82.4752 42.7226C82.4752 43.7294 82.4826 43.7679 82.8015 44.4338C84.2514 47.4609 88.3742 47.4931 89.8468 44.4887C90.0155 44.1445 90.1535 43.8124 90.1535 43.7506C90.1535 43.6888 90.2916 43.6118 90.4603 43.5795C91.0805 43.4607 93.4011 42.7812 94.9799 42.2562C99.9535 40.6019 104.798 38.4565 111.89 34.7685C112.694 34.3504 113.39 33.9277 113.491 33.7959C113.747 33.4638 113.724 33.1051 113.43 32.8671C113.221 32.6981 113.115 32.6785 112.649 32.722L112.109 32.7724L111.999 32.4856C111.939 32.3277 111.656 31.6698 111.372 31.0233L110.854 29.8479L111.114 29.5832C111.952 28.7275 111.361 27.3091 110.216 27.4283C110.017 27.4491 109.789 27.4956 109.71 27.5317C109.599 27.5825 109.451 27.4281 109.057 26.8528C107.01 23.8617 104.519 21.3264 101.751 19.4158C101.203 19.0381 101.115 18.9421 101.163 18.7779C101.382 18.0286 101.231 17.4978 100.693 17.1311C100.184 16.7843 99.4034 16.9208 99.048 17.4187L98.8735 17.6633L98.2649 17.3511C95.5799 15.974 91.8715 14.884 89.0566 14.6445C88.0757 14.5612 88.0475 14.5487 88.0475 14.2009C88.0475 13.5724 87.5791 12.8435 86.9722 12.5275C86.5836 12.3252 85.8424 12.235 85.5021 12.3488ZM86.6259 13.1127C86.9996 13.3112 87.238 13.6247 87.355 14.0719C87.4545 14.4518 87.446 14.5207 87.2508 14.9228C87.089 15.2561 86.945 15.4084 86.6468 15.5619C86.1618 15.8115 85.925 15.8146 85.4459 15.5779C84.4939 15.1075 84.4269 13.805 85.3229 13.1887C85.6645 12.9537 86.261 12.919 86.6259 13.1127ZM99.426 13.9423C99.3938 13.975 99.3675 14.0938 99.3675 14.206C99.3675 14.374 99.5348 14.5012 100.311 14.9239C103.122 16.4547 105.255 18.0418 107.517 20.2865C112.706 25.4367 115.932 32.133 116.792 39.5431C116.998 41.3159 116.996 44.4836 116.787 46.3805C116.649 47.6356 116.644 47.8554 116.75 47.9241C117.125 48.1664 117.251 47.9618 117.416 46.8387C117.635 45.345 117.633 40.6439 117.412 39.0057C116.653 33.3737 114.823 28.5996 111.72 24.1498C109.266 20.6314 105.601 17.2237 101.956 15.0711C100.303 14.0945 99.5888 13.7761 99.426 13.9423ZM223.692 15.1407C223.059 15.2474 222.417 15.488 222.36 15.6402C222.3 15.8001 222.449 16.1217 222.583 16.1217C222.634 16.1217 222.952 16.0362 223.289 15.9318C224.007 15.7091 224.655 15.736 225.013 16.0033C225.142 16.0998 225.392 16.4812 225.567 16.8508C226.186 18.1552 226.883 18.4886 228.459 18.2338C229.881 18.004 230.278 18.0536 230.758 18.5208C231.034 18.7894 231.22 19.3746 231.305 20.2417C231.44 21.6226 231.797 22.4744 232.426 22.9158C233.173 23.441 233.836 23.4919 235.427 23.1464C238.021 22.5829 238.691 22.9446 239.068 25.1126C239.295 26.4196 239.382 26.6941 239.697 27.0826C240.434 27.9934 241.823 27.9974 243.568 27.0938C244.659 26.5296 244.786 26.4299 244.756 26.165C244.721 25.8571 244.428 25.8105 244.045 26.0521C243.431 26.4393 242.508 26.8532 241.934 26.9987C241.184 27.1888 240.738 27.1229 240.336 26.7627C240.008 26.469 239.915 26.2024 239.727 25.0143C239.502 23.5992 239.168 22.9741 238.383 22.5031C238.008 22.2787 237.895 22.257 237.095 22.2578C236.48 22.2584 235.972 22.32 235.399 22.4636C234.405 22.7122 233.5 22.7337 233.057 22.5192C232.413 22.2074 232.14 21.6054 231.957 20.0975C231.759 18.4629 231.345 17.8061 230.319 17.4995C229.875 17.3666 229.724 17.3615 229.109 17.4586C227.02 17.7889 226.764 17.7105 226.189 16.5649C225.741 15.6721 225.642 15.5513 225.171 15.3273C224.719 15.1123 224.228 15.0504 223.692 15.1407ZM71.4146 17.0893C70.7755 17.4998 70.6107 18.3397 71.0528 18.9314C71.6813 19.7724 73.0643 19.4453 73.2545 18.4106C73.3287 18.007 73.0667 17.3655 72.7379 17.1456C72.3845 16.9092 71.7378 16.8817 71.4146 17.0893ZM175.668 17.3466C166.303 17.5923 156.26 19.1252 146.315 21.8266C142.648 22.8228 138.291 24.1838 138.08 24.3991C137.92 24.5621 138.022 24.8328 138.261 24.8809C138.334 24.8956 139.416 24.5869 140.665 24.195C151.51 20.7929 161.028 18.95 171.588 18.2081C174.748 17.986 182.239 17.987 185.277 18.21C193.796 18.8351 200.864 20.2454 208.049 22.7536C212.067 24.1566 216.306 26.116 219.241 27.9273C219.895 28.3308 220.472 28.6608 220.524 28.6608C220.683 28.6608 220.834 28.4109 220.78 28.2371C220.673 27.8912 217.353 25.9748 214.75 24.7561C207.011 21.1329 198.157 18.7791 188.699 17.8309C184.271 17.387 180.073 17.2309 175.668 17.3466ZM72.4664 17.8434C72.6517 18.1132 72.6383 18.3902 72.4305 18.582C71.9077 19.0649 71.1364 18.3395 71.6075 17.8081C71.8162 17.5727 72.2943 17.5924 72.4664 17.8434ZM100.436 17.7925C100.524 17.874 100.596 18.0491 100.596 18.1817C100.596 18.6899 99.9266 18.935 99.6141 18.5412C99.4194 18.2957 99.4132 18.1037 99.5919 17.8434C99.7577 17.6018 100.2 17.5751 100.436 17.7925ZM62.8302 21.0527C60.8767 23.1721 58.9057 26.1069 57.6189 28.8122C57.0576 29.9922 56.9984 30.2806 57.2936 30.3963C57.3642 30.4239 57.4713 30.4247 57.5316 30.3981C57.592 30.3714 57.9742 29.6651 58.3812 28.8287C59.6981 26.1217 61.5394 23.4084 63.3967 21.4377C63.9287 20.8734 64.0642 20.4982 63.7768 20.3856C63.54 20.2929 63.5126 20.3122 62.8302 21.0527ZM86.4993 23.8467C87.444 26.8988 87.9559 29.079 88.3658 31.7956C88.5881 33.2693 88.5885 37.0529 88.3663 38.1962C88.2805 38.6376 88.1935 39.0267 88.1728 39.0608C88.1522 39.095 87.9279 39.0381 87.6745 38.9345C87.0639 38.685 85.6341 38.6648 85.1162 38.8983C84.9279 38.9833 84.7583 39.037 84.7393 39.0178C84.687 38.9644 84.389 37.6259 84.3277 37.1696C83.8147 33.3446 84.1303 29.4059 85.3758 24.093C85.7491 22.5007 85.7236 22.5704 85.9323 22.5704C86.0764 22.5704 86.1679 22.7764 86.4993 23.8467ZM61.1338 27.5771C60.3522 28.0783 60.4031 29.3695 61.2201 29.7652C62.5281 30.3987 63.6448 28.7428 62.5992 27.7203C62.25 27.3788 61.5497 27.3104 61.1338 27.5771ZM62.0128 28.1369C62.2602 28.2698 62.3331 28.3868 62.3347 28.6538C62.3367 28.9699 62.0932 29.1982 61.7541 29.1982C61.1675 29.1982 61.0153 28.424 61.5478 28.1491C61.8139 28.0116 61.7812 28.0125 62.0128 28.1369ZM110.632 28.2195C111.058 28.5613 110.837 29.1982 110.293 29.1982C109.758 29.1982 109.551 28.6484 109.938 28.2538C110.2 27.9855 110.332 27.979 110.632 28.2195ZM112.806 33.4848C112.515 33.7134 107.326 36.3517 105.119 37.3933C101.372 39.1619 98.9337 40.1719 95.6819 41.3026C94.1312 41.8418 91.1615 42.7455 90.5647 42.8598L90.2413 42.9217L90.2394 42.4415C90.2374 41.9105 89.9299 40.9177 89.6379 40.4991C89.5354 40.3522 89.4515 40.2109 89.4515 40.1852C89.4515 39.9149 95.9729 37.4778 99.2798 36.5123C101.415 35.889 105.596 34.8236 107.265 34.4778C107.482 34.4328 108.805 34.1563 110.205 33.8634C111.605 33.5706 112.809 33.3289 112.881 33.3266C112.968 33.3237 112.943 33.3772 112.806 33.4848ZM251.875 34.9578C249.487 35.6471 248.593 38.5434 250.161 40.5143C250.432 40.8544 250.71 41.0706 251.216 41.3344C251.865 41.6728 251.945 41.6924 252.66 41.687C253.283 41.6824 253.505 41.6399 253.921 41.4455C254.623 41.1177 255.311 40.4286 255.621 39.7421C255.846 39.2459 255.874 39.0866 255.874 38.2891C255.874 37.4898 255.846 37.333 255.619 36.8308C254.979 35.4159 253.263 34.5574 251.875 34.9578ZM253.545 35.7269C254.22 35.9888 254.646 36.386 254.969 37.0557C255.348 37.8417 255.368 38.6619 255.027 39.4087C254.572 40.4025 253.825 40.9324 252.78 41.0021C252.197 41.0409 252.094 41.0202 251.577 40.7603C249.542 39.7379 249.524 36.8634 251.546 35.8322C252.195 35.501 252.87 35.4654 253.545 35.7269ZM87.7202 39.6967C88.66 40.1443 89.3608 41.0914 89.5596 42.1825C89.8152 43.5859 89.0201 45.1278 87.7202 45.7496C87.2757 45.9622 87.1066 45.9918 86.3363 45.9918C85.5514 45.9918 85.4056 45.9651 84.9552 45.7394C83.6242 45.0723 82.818 43.4531 83.1344 42.0828C83.4055 40.9084 84.1152 40.052 85.1955 39.5955C85.8501 39.3189 87.026 39.366 87.7202 39.6967ZM57.4219 40.9794C55.797 41.4943 55.5042 43.7877 56.9471 44.698C57.949 45.33 59.3041 44.9408 59.8263 43.8712C60.3983 42.6998 59.8186 41.3439 58.5837 40.9646C58.0986 40.8156 57.932 40.8177 57.4219 40.9794ZM113.401 40.9805C112.966 41.1173 112.445 41.5754 112.204 42.0327C111.964 42.4869 111.992 43.4824 112.257 43.9172C112.703 44.6491 113.271 44.9842 114.066 44.9842C115.229 44.9842 116.04 44.1413 116.04 42.9329C116.04 41.9908 115.499 41.246 114.622 40.98C114.077 40.815 113.927 40.8151 113.401 40.9805ZM58.6487 41.7152C59.5991 42.2025 59.6009 43.6542 58.6519 44.1689C57.9475 44.551 57.1934 44.274 56.8146 43.4941C56.6193 43.0921 56.6108 43.0232 56.7103 42.6434C56.9489 41.7324 57.8452 41.3032 58.6487 41.7152ZM114.791 41.7976C115.226 42.1291 115.382 42.4327 115.382 42.9465C115.382 43.2911 115.331 43.4956 115.201 43.6734C114.741 44.3031 114.058 44.4941 113.432 44.1683C112.462 43.6632 112.457 42.2069 113.423 41.7039C113.795 41.5107 114.476 41.5573 114.791 41.7976ZM295.949 47.5156C297.226 47.7852 298.393 48.3981 299.327 49.2888C300.077 50.0049 300.525 50.6304 300.935 51.5335C301.641 53.0894 301.736 54.0629 301.471 57.0531C301.232 59.7576 301.109 61.1802 300.499 68.3384C300.401 69.496 300.261 71.1283 300.189 71.9658C300.019 73.9456 299.851 75.9198 299.576 79.1758C299.453 80.629 299.295 82.483 299.223 83.2958C299.152 84.1086 298.935 86.6478 298.742 88.9385C298.548 91.2291 298.331 93.7884 298.258 94.6259C298.057 96.9336 297.8 99.9416 297.602 102.284C297.504 103.441 297.365 105.074 297.293 105.911C297.063 108.585 296.824 111.402 296.635 113.659C296.534 114.865 296.423 116.079 296.389 116.355L296.327 116.858L295.615 116.44C294.973 116.064 294.464 115.839 292.598 115.113C291.031 114.502 289.503 113.568 288.427 112.562C287.754 111.932 287.406 111.297 286.872 109.718C286.363 108.214 286.044 107.417 285.691 106.771C285.099 105.685 283.634 104.328 281.892 103.253C277.904 100.792 273.089 100.082 270.002 101.499C267.691 102.56 266.065 104.476 265.357 106.974C265.161 107.664 265.131 107.938 265.131 109.078C265.13 111.386 264.811 112.24 262.049 117.339C260.728 119.779 260.552 120.183 260.502 120.906C260.478 121.237 260.504 121.719 260.558 121.977C260.659 122.459 261.694 124.896 262.324 126.135L262.679 126.834L261.865 127.227C261.388 127.457 260.851 127.645 260.568 127.682C259.819 127.778 258.825 128.127 258.191 128.517C257.335 129.044 255.816 129.338 253.625 129.399C252.726 129.424 251.61 129.416 251.146 129.38L250.301 129.316V128.977C250.301 128.67 250.369 127.834 250.785 123.018C251.042 120.045 251.265 117.437 251.44 115.36C251.538 114.203 251.676 112.59 251.747 111.778C251.817 110.965 251.957 109.333 252.057 108.15C252.306 105.214 252.557 102.271 252.716 100.448C252.788 99.6102 253.005 97.0509 253.197 94.7602C253.389 92.4696 253.605 89.9304 253.677 89.1176C253.749 88.3048 253.887 86.7128 253.984 85.5798C254.081 84.4468 254.2 83.0562 254.249 82.4897C254.297 81.9232 254.338 81.3893 254.338 81.3032C254.338 81.1549 255.236 81.1455 271.593 81.124L288.847 81.1015L288.971 80.9103C289.08 80.7432 289.078 80.7011 288.954 80.5745C288.824 80.4422 287.334 80.4297 271.619 80.4297C262.163 80.4297 254.426 80.3995 254.427 80.3626C254.427 80.3257 254.466 79.852 254.513 79.3102C254.743 76.6822 255.059 73.0109 255.218 71.1149C255.316 69.9573 255.435 68.5466 255.484 67.9801C255.534 67.4136 255.669 65.8216 255.786 64.4423C255.903 63.063 256.042 61.4372 256.094 60.8293C256.166 59.9937 256.164 59.6933 256.087 59.5978C255.931 59.4066 255.66 59.4462 255.573 59.6729C255.53 59.7837 255.411 60.9022 255.308 62.1584C255.13 64.3456 254.929 66.7091 254.644 69.9953C254.356 73.2981 253.888 78.8155 253.829 79.5789L253.768 80.385L231.755 80.4075L209.743 80.4301L209.795 80.0045C209.824 79.7703 209.946 78.3899 210.067 76.9367C210.188 75.4835 210.346 73.6093 210.419 72.7719C210.564 71.1138 210.908 67.0893 211.123 64.5318C211.198 63.6451 211.317 62.2979 211.387 61.5379C211.569 59.5714 211.561 59.2297 211.33 59.1548C211.218 59.1188 211.098 59.1432 211.028 59.2159C210.896 59.3527 210.864 59.6946 209.805 72.1897C209.681 73.6429 209.524 75.4566 209.455 76.2202C209.387 76.9837 209.282 78.2433 209.223 79.0191L209.116 80.4297H187.983H166.849L166.85 80.1386C166.85 79.8824 166.985 78.211 167.282 74.7871C167.331 74.2206 167.451 72.8099 167.548 71.6523C167.646 70.4947 167.825 68.3988 167.946 66.9949C168.511 60.4827 168.501 60.6816 168.265 60.5528C167.869 60.3363 167.836 60.4855 167.554 63.8153C167.176 68.2775 166.956 70.8492 166.806 72.548C166.735 73.3608 166.597 74.973 166.499 76.1306C166.402 77.2882 166.278 78.7292 166.223 79.3326L166.123 80.4297H146.103H126.083L126.191 79.1086C126.309 77.6851 126.468 75.8247 126.745 72.6375C126.841 71.5292 127 69.6752 127.098 68.5175C127.195 67.3599 127.352 65.526 127.447 64.4423C127.756 60.8903 127.762 60.6698 127.56 60.5593C127.181 60.3524 127.107 60.5619 126.962 62.2479C126.756 64.6546 126.412 68.7039 126.308 69.9506C126.257 70.5663 126.117 72.1987 125.998 73.578C125.758 76.3503 125.431 80.2578 125.43 80.3626C125.43 80.3995 117.476 80.4297 107.755 80.4297C98.0338 80.4297 90.0177 80.4542 89.9413 80.4841C89.7778 80.5481 89.7574 80.8853 89.9078 81.0388C89.989 81.1216 94.0556 81.1463 107.678 81.1463C121.004 81.1463 125.342 81.1717 125.342 81.25C125.342 81.3387 124.991 85.4628 124.508 91.0433C124.286 93.6132 124.039 96.4955 123.852 98.7011C123.754 99.8587 123.615 101.491 123.543 102.329C123.47 103.166 123.331 104.798 123.234 105.956C123.07 107.897 122.924 109.612 122.579 113.614C122.384 115.886 122.111 119.088 121.916 121.406C121.82 122.539 121.683 124.131 121.612 124.944C121.481 126.427 121.285 128.728 120.956 132.646C120.858 133.804 120.721 135.416 120.65 136.229C120.579 137.042 120.44 138.674 120.34 139.856C120.239 141.039 120.082 142.893 119.988 143.977C119.895 145.06 119.739 146.894 119.64 148.052C119.541 149.209 119.402 150.842 119.33 151.679C119.137 153.917 118.878 156.947 118.675 159.337C118.577 160.495 118.437 162.127 118.364 162.964C118.214 164.692 117.688 170.863 117.491 173.22C116.898 180.284 116.662 182.915 116.619 182.959C116.599 182.979 116.195 182.874 115.72 182.725C114.976 182.492 113.739 182.168 113.079 182.034C112.965 182.011 112.881 181.928 112.881 181.839C112.881 181.666 113.333 176.076 113.538 173.712C113.692 171.932 114.15 166.36 114.332 164.039C114.402 163.152 114.483 162.215 114.514 161.956C114.574 161.445 114.474 161.218 114.19 161.218C113.935 161.218 113.876 161.444 113.768 162.83C113.666 164.123 113.571 165.272 113.234 169.279C113.072 171.197 112.768 174.918 112.363 179.914C112.278 180.961 112.192 181.833 112.172 181.851C112.152 181.869 111.543 181.812 110.819 181.723C110.095 181.634 108.634 181.493 107.572 181.411C106.511 181.328 105.631 181.25 105.617 181.238C105.59 181.213 105.92 176.251 105.999 175.494L106.046 175.036L106.765 174.984C107.721 174.915 108.086 174.794 108.506 174.407C108.935 174.011 109.103 173.693 109.251 172.996C109.479 171.919 109.347 169.195 109.015 168.147C108.941 167.914 108.964 167.779 109.148 167.352C109.521 166.494 109.478 166.32 108.704 165.532C108.336 165.158 107.945 164.73 107.834 164.58C107.594 164.258 106.462 162.362 106.496 162.339C106.509 162.331 106.666 162.234 106.845 162.124C107.263 161.867 107.648 161.369 107.936 160.71C108.556 159.292 108.136 157.011 107.022 155.746C106.277 154.9 105.363 154.665 104.158 155.01C103.61 155.168 103.457 155.296 102.332 156.537C101.839 157.082 101.599 157.148 99.8501 157.223C99.2227 157.249 98.4795 157.315 98.1984 157.369C96.832 157.632 95.0456 158.731 93.7681 160.095C93.1119 160.795 92.8905 161.107 92.5712 161.78C92.0926 162.789 92.0012 163.179 91.9984 164.226C91.9938 166.019 92.8063 167.902 94.5445 170.13C95.7951 171.732 97.7761 173.6 98.5417 173.899L98.9005 174.039L98.8342 174.458C98.7639 174.903 98.3664 176.487 98.0168 177.716C97.5373 179.402 97.0604 180.977 96.9849 181.124C96.924 181.242 96.7925 181.281 96.4467 181.282C95.5701 181.284 92.8853 181.543 91.8084 181.729C89.7759 182.08 88.2137 182.522 86.3967 183.261C84.0192 184.226 81.8451 185.498 79.9621 187.025L79.204 187.64H78.3167H77.4294V187.329C77.4294 187.158 77.5689 185.334 77.7394 183.276C77.9098 181.218 78.1064 178.809 78.1762 177.922C78.246 177.035 78.3437 175.866 78.3933 175.324C78.4869 174.301 78.9218 168.995 79.1419 166.189C79.2115 165.302 79.3091 164.133 79.3588 163.591C79.4084 163.049 79.5484 161.337 79.6697 159.785C79.7909 158.233 79.9109 156.833 79.9361 156.673L79.9821 156.382L87.7211 156.359C95.0906 156.338 95.4616 156.329 95.4905 156.176C95.5728 155.739 95.8636 155.754 87.3764 155.754H79.4434L79.3692 155.956C79.3284 156.067 79.2499 156.762 79.1945 157.501C79.1392 158.24 79.0359 159.509 78.9649 160.322C78.8939 161.135 78.7546 162.808 78.6553 164.039C78.465 166.401 78.224 169.327 77.999 172.011C77.8409 173.894 77.1921 181.823 77.1156 182.803C77.0869 183.173 77.0492 183.576 77.0319 183.699C76.953 184.261 76.7713 186.946 76.7713 187.55V188.222L77.6376 188.248L78.5038 188.273L77.5915 189.233C75.5544 191.375 74.1134 193.554 73.0181 196.148C72.3016 197.845 70.2954 203.592 69.2662 206.896C68.5063 209.336 68.4043 209.643 68.3972 209.517C68.391 209.405 68.7135 205.542 68.9602 202.776C69.0326 201.963 69.1921 200.109 69.3145 198.656C69.6161 195.076 69.9506 191.16 70.2328 187.908C70.3289 186.8 70.4867 184.946 70.5835 183.788C70.6802 182.631 70.8186 180.998 70.891 180.161C71.0436 178.397 71.3062 175.311 71.554 172.369C71.6495 171.236 71.786 169.664 71.8574 168.876C71.9288 168.088 72.0279 166.919 72.0777 166.278C72.1275 165.638 72.2062 164.711 72.2526 164.218C72.299 163.726 72.4176 162.355 72.516 161.173C72.6944 159.032 72.9219 156.367 73.1733 153.47C73.246 152.633 73.463 150.074 73.6555 147.783C73.848 145.492 74.0648 142.933 74.1373 142.096C74.2099 141.258 74.3286 139.888 74.4013 139.05C74.5513 137.322 74.7412 135.099 74.9291 132.87C74.9998 132.033 75.1181 130.642 75.1922 129.78C75.2663 128.918 75.4637 126.601 75.631 124.63C75.7984 122.66 75.9953 120.363 76.0686 119.525C76.1419 118.688 76.3596 116.128 76.5523 113.838C76.7451 111.547 76.9613 109.008 77.0327 108.195C77.2323 105.924 77.4987 102.816 77.6931 100.492C77.8775 98.2884 78.0148 96.6823 78.306 93.3272C78.4021 92.2188 78.56 90.3648 78.6567 89.2072C78.8423 86.9867 78.9833 85.3441 79.2717 82.0419C79.3685 80.9335 79.4477 79.8699 79.4477 79.6784V79.33L79.8646 79.3845C80.0938 79.4145 80.7158 79.4991 81.2467 79.5723C84.7771 80.0597 88.6118 79.9818 92.3034 79.3481C95.2302 78.8456 98.6753 77.7336 101.462 76.392L102.377 75.9515H112.099C117.995 75.9515 121.842 75.9187 121.872 75.8682C121.9 75.8224 122.039 73.9987 122.181 71.8153C122.323 69.6321 122.48 67.2815 122.53 66.5919C122.775 63.2177 122.822 61.9827 122.71 61.8455C122.617 61.7307 122.202 61.7105 119.935 61.7105C118.469 61.7105 117.269 61.6956 117.269 61.6772C117.269 61.6589 117.478 61.2659 117.733 60.804C119.744 57.1642 121.274 52.5739 121.835 48.4996C121.889 48.1055 121.954 47.6924 121.98 47.5816L122.027 47.38H208.667C285.683 47.38 295.378 47.3951 295.949 47.5156ZM299.952 47.5106C302.991 48.1633 305.164 50.5493 305.598 53.7104C305.705 54.4956 305.665 55.3416 305.363 58.6653C305.236 60.0704 305.031 62.4457 304.707 66.2784C304.506 68.6645 304.238 71.8005 304.049 73.981C303.979 74.7938 303.843 76.3858 303.747 77.5189C303.42 81.387 303.215 83.7876 303.083 85.3111C302.836 88.151 302.174 95.9237 301.989 98.1637C301.938 98.7795 301.839 99.9282 301.769 100.716C301.699 101.505 301.56 103.117 301.461 104.299C301.361 105.481 301.222 107.114 301.151 107.926C301.079 108.739 300.864 111.278 300.671 113.569C300.478 115.86 300.261 118.419 300.189 119.256C300.116 120.094 300.047 120.92 300.035 121.093C300.013 121.403 300.01 121.4 299.647 120.73C299.143 119.797 298.301 118.655 297.588 117.936L296.989 117.333L297.117 115.742C297.188 114.867 297.287 113.708 297.336 113.166C297.422 112.225 297.553 110.706 297.948 106.045C298.046 104.888 298.187 103.256 298.26 102.418C298.333 101.581 298.549 99.0213 298.741 96.7307C298.933 94.44 299.15 91.9008 299.223 91.088C299.297 90.2752 299.514 87.736 299.706 85.4454C299.899 83.1548 300.115 80.6156 300.186 79.8028C300.258 78.99 300.476 76.4508 300.67 74.1601C300.864 71.8695 301.081 69.3102 301.153 68.4727C301.302 66.7444 301.446 65.0557 301.767 61.2627C301.89 59.8095 302.05 57.9907 302.121 57.2209C302.397 54.243 302.26 52.8046 301.556 51.2701C300.828 49.685 299.899 48.6517 298.337 47.692L297.83 47.38H298.586C299.003 47.38 299.617 47.4388 299.952 47.5106ZM61.2059 56.1315C60.3812 56.5462 60.3695 57.916 61.187 58.3474C62.0527 58.8044 63.1341 58.0565 62.9938 57.0979C62.8606 56.1868 62.0101 55.7271 61.2059 56.1315ZM109.725 56.1353C108.919 56.5505 108.863 57.7571 109.626 58.2813C110.171 58.6562 110.983 58.4821 111.349 57.9117C111.528 57.632 111.545 56.9968 111.381 56.6498C111.1 56.0523 110.343 55.8171 109.725 56.1353ZM114.218 56.0903C114.17 56.1519 113.95 56.5695 113.73 57.0184C113.243 58.0132 112.45 59.4246 111.986 60.1243C111.573 60.7458 111.564 61.0388 111.958 61.0388C112.195 61.0388 112.275 60.948 112.827 60.0536C113.161 59.5117 113.746 58.4534 114.126 57.7018C114.701 56.5655 114.802 56.3051 114.724 56.1567C114.618 55.956 114.352 55.921 114.218 56.0903ZM62.2053 56.875C62.4086 57.1043 62.3377 57.4934 62.0534 57.7092C61.8525 57.8615 61.7791 57.8738 61.5914 57.7865C61.2802 57.6418 61.1378 57.2978 61.2682 57.0057C61.4448 56.6102 61.9127 56.545 62.2053 56.875ZM110.744 56.9256C110.925 57.2079 110.866 57.4924 110.58 57.709C110.38 57.8615 110.306 57.8738 110.118 57.7865C109.807 57.6418 109.665 57.2978 109.795 57.0057C109.983 56.5856 110.498 56.5421 110.744 56.9256ZM218.951 61.5675C218.862 61.6581 218.798 62.1761 218.722 63.426C218.663 64.379 218.578 65.6828 218.531 66.3232C218.485 66.9636 218.387 68.4347 218.314 69.5923C218.242 70.7499 218.123 72.5591 218.051 73.6125C217.952 75.0422 217.944 75.559 218.018 75.6502C218.102 75.7524 220.468 75.7721 232.564 75.771C240.901 75.7702 247.063 75.7357 247.135 75.6895C247.223 75.6321 247.279 75.2952 247.331 74.5042C247.486 72.1148 247.767 67.8693 247.85 66.6366C247.898 65.9224 247.976 64.6729 248.022 63.8601C248.069 63.0473 248.124 62.2491 248.146 62.0864C248.175 61.8738 248.138 61.7413 248.015 61.6161C247.847 61.4449 247.594 61.4418 233.459 61.4418C221.231 61.4418 219.056 61.4606 218.951 61.5675ZM133.341 61.79C133.251 61.848 133.162 62.7897 132.974 65.6623C132.837 67.7499 132.66 70.4051 132.58 71.5627C132.5 72.7204 132.428 74.1713 132.42 74.7871L132.406 75.9067L146.989 75.9293C160.822 75.9508 161.574 75.9439 161.618 75.795C161.643 75.7086 161.725 74.6304 161.8 73.3988C161.875 72.1673 161.977 70.6156 162.026 69.9506C162.377 65.1836 162.548 61.951 162.453 61.8347C162.368 61.7298 160.113 61.7107 147.906 61.7119C139.96 61.7127 133.406 61.7478 133.341 61.79ZM174.411 61.7887C174.327 61.8428 174.26 62.3806 174.172 63.6907C173.973 66.6607 173.793 69.3722 173.6 72.2801C173.501 73.783 173.431 75.2138 173.447 75.4597L173.474 75.9067L188.061 75.9293L202.648 75.952L202.693 75.7502C202.717 75.6392 202.836 73.9765 202.958 72.0554C203.08 70.1342 203.218 68.0182 203.267 67.3532C203.543 63.5425 203.616 61.9508 203.519 61.8323C203.436 61.7305 201.05 61.7108 188.974 61.7119C181.028 61.7127 174.475 61.7473 174.411 61.7887ZM261.985 61.8289C261.893 61.9424 261.789 63.0544 261.627 65.6514C261.586 66.3164 261.422 68.8368 261.263 71.2523C261.104 73.6678 261 75.7132 261.032 75.7978C261.086 75.9421 261.974 75.9515 275.662 75.9515C287.241 75.9515 290.242 75.9284 290.271 75.8395C290.291 75.778 290.39 74.4781 290.489 72.951C290.943 66.0022 291.023 64.8006 291.118 63.4377C291.2 62.2724 291.198 61.9582 291.109 61.8479C291.009 61.7255 289.425 61.7105 276.539 61.7105C264.665 61.7105 262.064 61.7317 261.985 61.8289ZM247.439 62.6734C247.401 63.2004 247.199 66.3378 246.875 71.4284C246.775 73.0048 246.673 74.4657 246.649 74.6751L246.605 75.0558H232.614C224.919 75.0558 218.623 75.0357 218.623 75.0109C218.623 74.9731 218.901 70.7642 219.232 65.7858C219.278 65.0961 219.34 64.0683 219.37 63.5018C219.4 62.9353 219.445 62.4014 219.469 62.3151C219.51 62.1667 220.253 62.1584 233.494 62.1584H247.477L247.439 62.6734ZM122.095 62.857C122.095 63.0934 122.056 63.8089 122.008 64.4468C121.96 65.0847 121.861 66.5336 121.789 67.6666C121.418 73.4785 121.296 75.2742 121.272 75.2985C121.258 75.3133 117.281 75.3151 112.435 75.3026L103.623 75.2797L104.369 74.8236C109.242 71.8434 113.115 68.1013 116.203 63.3899L116.834 62.4271H119.465H122.095V62.857ZM161.846 62.6286C161.846 62.8013 161.699 64.9998 161.545 67.1292C161.52 67.4741 161.418 69.046 161.318 70.6223C161.217 72.1987 161.108 73.8914 161.074 74.3841L161.013 75.2797L147.066 75.3024C139.394 75.3148 133.092 75.2947 133.06 75.2576C133.028 75.2205 133.073 74.1624 133.159 72.9062C133.316 70.6287 133.374 69.7144 133.631 65.5619C133.706 64.355 133.789 63.1559 133.817 62.8973L133.867 62.4271H147.857H161.847L161.846 62.6286ZM202.915 62.5407C202.915 62.6457 202.679 66.2439 202.344 71.2493C202.269 72.3823 202.178 73.7526 202.144 74.2945L202.082 75.2797L188.062 75.3024L174.043 75.325L174.088 74.8546C174.147 74.2487 174.558 68.0696 174.746 64.9797C174.794 64.1915 174.858 63.2948 174.888 62.9868L174.943 62.4271H188.929C200.172 62.4271 202.915 62.4494 202.915 62.5407ZM290.458 63.2108C290.427 63.6418 290.363 64.6192 290.316 65.3827C290.239 66.6288 290.109 68.6455 289.78 73.6899L289.673 75.3245H275.706C268.024 75.3245 261.721 75.3068 261.7 75.2851C261.679 75.2633 261.709 74.548 261.768 73.6953C261.875 72.1314 262.053 69.4096 262.283 65.7858C262.352 64.702 262.434 63.503 262.465 63.1212L262.522 62.4271H276.518H290.515L290.458 63.2108ZM62.0947 63.382C62.0345 63.4069 61.985 63.5454 61.985 63.6898C61.985 63.9109 62.2388 64.2122 63.5865 65.5913C65.2382 67.2814 66.6162 68.4709 68.2135 69.5856C69.2197 70.2877 69.5528 70.3743 69.6017 69.9466C69.6243 69.7484 69.5214 69.6466 68.8119 69.1652C67.1825 68.0597 65.8842 66.9493 64.1044 65.1389C63.1222 64.14 62.293 63.3259 62.2616 63.3298C62.2301 63.3336 62.1551 63.3572 62.0947 63.382ZM71.4146 66.6244C70.8254 66.9911 70.6444 67.6291 70.9539 68.2488C71.2061 68.7538 71.6156 68.991 72.1411 68.9366C72.6462 68.8843 72.9377 68.6678 73.1438 68.192C73.6202 67.0929 72.416 66.0012 71.4146 66.6244ZM99.3937 67.0809C99.0382 67.3021 98.841 67.6882 98.841 68.1634C98.841 68.6428 99.0463 68.9887 99.4778 69.2362C100.13 69.6102 100.893 69.3047 101.173 68.5582C101.369 68.0333 101.248 67.574 100.811 67.1824C100.559 66.9563 100.426 66.9054 100.088 66.9057C99.8329 66.9059 99.5671 66.9729 99.3937 67.0809ZM72.3718 67.2701C72.8095 67.6215 72.5867 68.2488 72.0241 68.2488C71.7042 68.2488 71.4623 67.9923 71.4623 67.6532C71.4623 67.454 71.8329 67.0845 72.0327 67.0845C72.0921 67.0845 72.2447 67.168 72.3718 67.2701ZM100.421 67.7114C100.778 68.0759 100.548 68.6966 100.056 68.6966C99.7645 68.6966 99.4553 68.4178 99.4553 68.1552C99.4553 68.0545 99.5522 67.8731 99.6707 67.7522C99.9317 67.4856 100.186 67.4718 100.421 67.7114ZM85.6343 69.4942C84.3033 69.8387 83.6568 71.1858 84.2246 72.4306C84.7041 73.4818 85.9461 73.9 86.9836 73.3597C88.4873 72.5767 88.3566 70.2305 86.7751 69.6128C86.3931 69.4636 85.936 69.4161 85.6343 69.4942ZM86.6873 70.3326C86.9312 70.4717 87.1032 70.6664 87.2508 70.9703C87.446 71.3724 87.4545 71.4413 87.355 71.8211C87.1734 72.5148 86.6856 72.9062 86.0027 72.9062C84.9855 72.9062 84.3422 71.7034 84.8823 70.8114C85.2713 70.169 86.0416 69.9647 86.6873 70.3326ZM166.025 81.7508C165.996 82.0834 165.912 83.0406 165.839 83.878C165.686 85.6236 165.14 92.0407 165.008 93.6407C164.96 94.2318 164.88 95.1588 164.83 95.7007C164.781 96.2425 164.583 98.5601 164.392 100.851C164.2 103.141 163.983 105.681 163.909 106.493C163.836 107.306 163.618 109.845 163.426 112.136C163.234 114.427 163.016 116.986 162.943 117.823C162.869 118.661 162.652 121.2 162.461 123.466C162.269 125.732 162.053 128.271 161.98 129.109C161.907 129.946 161.769 131.558 161.672 132.691C161.461 135.176 161.192 138.325 161.014 140.394C160.819 142.658 160.554 145.769 160.355 148.141C160.258 149.299 160.099 151.153 160.003 152.261C159.719 155.538 159.577 157.198 159.39 159.427C159.125 162.579 158.878 165.475 158.733 167.129C158.661 167.942 158.522 169.574 158.424 170.757C158.326 171.939 158.208 173.309 158.161 173.802C158.115 174.294 157.997 175.665 157.9 176.847C157.802 178.029 157.682 179.46 157.633 180.027C157.584 180.593 157.407 182.669 157.24 184.639C157.072 186.61 156.875 188.907 156.802 189.745C156.729 190.582 156.511 193.141 156.318 195.432C156.126 197.723 155.908 200.262 155.835 201.075C155.762 201.887 155.545 204.427 155.353 206.717C155.16 209.008 154.943 211.567 154.87 212.405C154.644 214.994 154.315 218.856 154.157 220.779C154.074 221.789 153.999 222.626 153.991 222.639C153.983 222.652 153.624 222.575 153.195 222.468C152.023 222.177 150.168 222.196 148.684 222.514C147.468 222.775 145.853 223.265 144.516 223.778C142.436 224.577 138.876 226.318 136.167 227.862C135.482 228.252 134.902 228.571 134.877 228.571C134.852 228.571 135.008 228.185 135.224 227.713C135.755 226.554 136.518 224.187 136.766 222.929C136.939 222.05 136.969 221.629 136.967 220.062C136.966 217.934 136.97 217.954 135.918 214.733C135.056 212.093 133.011 206.442 131.266 201.881C130.333 199.438 129.276 196.687 128.703 195.208C127.148 191.194 125.096 188.399 121.907 185.953C120.877 185.162 119.138 184.118 118.069 183.649L117.265 183.296L117.311 182.982C117.336 182.81 117.417 181.943 117.49 181.057C117.563 180.17 117.723 178.296 117.844 176.892C117.965 175.488 118.122 173.654 118.192 172.817C118.442 169.826 118.586 168.138 118.716 166.681C118.789 165.869 118.927 164.256 119.024 163.099C119.219 160.78 119.48 157.699 119.683 155.351C119.755 154.514 119.893 152.882 119.99 151.724C120.087 150.566 120.226 148.954 120.299 148.141C120.372 147.329 120.45 146.422 120.474 146.126C120.497 145.831 120.575 144.904 120.647 144.066C120.72 143.229 120.859 141.596 120.957 140.439C121.151 138.135 121.407 135.151 121.613 132.781C121.685 131.943 121.902 129.384 122.095 127.093C122.288 124.803 122.505 122.243 122.578 121.406C122.651 120.569 122.789 118.956 122.886 117.823C123.324 112.689 123.421 111.55 123.541 110.166C123.612 109.353 123.751 107.72 123.851 106.538C124.048 104.217 124.3 101.262 124.508 98.8355C124.654 97.1382 124.792 95.5222 125.122 91.6254C125.245 90.1722 125.403 88.3384 125.472 87.5502C125.542 86.762 125.682 85.0894 125.784 83.8332C125.886 82.5771 125.987 81.4586 126.009 81.3478L126.048 81.1463H146.062H166.077L166.025 81.7508ZM209.002 81.5269C208.983 81.7363 208.892 82.8144 208.799 83.9228C208.705 85.0312 208.54 86.9759 208.431 88.2443L208.234 90.5506L195.636 90.5515L183.039 90.5524L182.6 90.7612C182.071 91.0125 181.629 91.501 181.515 91.9601C181.469 92.1455 181.368 93.063 181.29 93.9989C181.212 94.9349 181.09 96.3455 181.018 97.1337C180.877 98.6709 180.177 106.714 179.965 109.225C179.895 110.063 179.778 111.413 179.706 112.226C179.441 115.207 179.223 117.693 179.05 119.704C178.952 120.837 178.736 123.316 178.568 125.213C178.154 129.904 178.122 130.483 178.254 130.892C178.462 131.536 179.1 132.104 179.968 132.417C180.377 132.565 181.228 132.579 192.534 132.623L204.661 132.671L204.624 132.905C204.604 133.034 204.546 133.643 204.496 134.259C204.446 134.874 204.346 136.063 204.274 136.901C204.201 137.738 203.985 140.298 203.792 142.588C203.6 144.879 203.383 147.438 203.31 148.276C203.237 149.113 203.099 150.725 203.002 151.858C202.702 155.381 202.48 157.977 202.344 159.561C202.272 160.398 202.133 162.031 202.035 163.188C201.938 164.346 201.78 166.2 201.684 167.308C201.196 172.981 200.988 175.41 200.722 178.594C200.625 179.751 200.487 181.363 200.416 182.176C200.24 184.192 199.971 187.34 199.754 189.924C199.655 191.106 199.499 192.92 199.407 193.954C199.315 194.989 199.213 196.189 199.18 196.621C199.129 197.291 199.099 197.401 198.978 197.363C198.329 197.158 197.37 197.037 196.396 197.038C195.778 197.038 195.235 197.062 195.189 197.091C195.033 197.19 195.104 196.965 195.377 196.491C195.527 196.232 195.922 195.464 196.256 194.786C196.618 194.046 196.913 193.551 196.989 193.551C197.178 193.551 197.299 193.258 197.299 192.799C197.299 192.576 197.377 192.19 197.473 191.942C197.774 191.165 198.324 189.252 198.569 188.135C199.288 184.859 199.419 180.494 198.914 176.623C198.756 175.408 198.757 175.367 199.147 170.801C199.242 169.693 199.379 168.081 199.451 167.219C199.67 164.595 199.925 161.55 200.109 159.382C200.205 158.249 200.342 156.616 200.414 155.754C200.548 154.136 200.779 151.375 201.074 147.873C201.167 146.764 201.31 145.084 201.392 144.139C201.514 142.729 201.521 142.395 201.428 142.28C201.326 142.154 199.463 142.14 182.815 142.14C162.156 142.14 164.041 142.076 164.041 142.785C164.041 142.984 163.983 143.777 163.912 144.547C163.841 145.317 163.701 146.934 163.601 148.141C163.36 151.057 163.104 154.101 162.94 156.023C162.866 156.885 162.65 159.465 162.459 161.755C162.12 165.821 162.031 166.882 161.674 171.115C161.579 172.248 161.421 174.142 161.323 175.324C161.225 176.507 161.085 178.159 161.013 178.997C160.941 179.834 160.803 181.466 160.707 182.624C160.367 186.709 160.177 188.962 159.989 191.106C159.835 192.88 159.821 193.299 159.913 193.412C160.013 193.535 160.669 193.551 165.521 193.555L171.017 193.559L171.368 194.113C172.159 195.361 173.554 196.989 174.779 198.094L175.382 198.638L174.637 198.994C173.574 199.502 172.88 200.006 172.026 200.889C171.154 201.791 170.546 202.777 170.159 203.915C169.914 204.634 169.891 204.806 169.884 205.911C169.876 207.247 170.02 207.911 170.553 208.998C171.104 210.12 172.229 211.43 173.262 212.154C174.054 212.709 175.449 213.326 176.26 213.481C176.441 213.516 176.589 213.57 176.588 213.601C176.587 213.633 176.341 213.754 176.04 213.871C174.878 214.324 173.469 215.314 172.712 216.21C170.22 219.158 170.967 222.519 174.791 225.57C176.937 227.283 178.96 228.258 181.422 228.767C182.331 228.955 182.659 228.974 184.928 228.974H187.43L187.401 229.288C187.386 229.46 187.317 230.062 187.249 230.625C187.119 231.699 187.152 231.885 187.471 231.885C187.747 231.885 187.812 231.671 187.963 230.268C188.044 229.507 188.119 228.874 188.128 228.861C188.187 228.782 190.22 228.477 190.273 228.539C190.309 228.581 190.447 228.927 190.58 229.308L190.821 229.999L190.667 230.668C190.501 231.388 190.556 231.616 190.899 231.616C191.109 231.616 191.124 231.586 191.363 230.646C191.585 229.773 191.736 229.535 192.477 228.889C193.569 227.938 194.809 227.575 195.857 227.899C196.586 228.125 196.541 227.664 196.199 231.42C196.09 232.625 196.081 233 196.163 233.1C196.32 233.293 196.59 233.255 196.685 233.027C196.732 232.916 196.846 231.885 196.94 230.735C197.034 229.585 197.126 228.628 197.145 228.609C197.165 228.589 197.54 228.851 197.979 229.191C199.314 230.224 200.156 230.675 201.374 231.009C202.391 231.289 204.45 231.286 205.622 231.004C208.186 230.386 210.008 229.075 210.716 227.339C210.874 226.951 210.936 226.598 210.969 225.9L211.012 224.976L211.329 225.283C212.236 226.162 213.628 226.983 214.718 227.281C215.538 227.506 217.028 227.545 217.964 227.365C218.75 227.214 219.849 226.804 220.512 226.412C221.978 225.548 223.309 224.109 224.131 222.501C224.827 221.137 224.941 220.704 224.941 219.416C224.94 216.621 224.108 214.331 222.446 212.551C221.101 211.111 219.443 210.339 217.472 210.235C216.668 210.193 215.348 210.303 214.993 210.442C214.933 210.465 214.783 210.233 214.636 209.888C214.095 208.621 212.974 207.246 211.837 206.456C211.187 206.004 210.2 205.571 209.348 205.364C208.268 205.101 206.681 205.156 205.723 205.489C205.361 205.615 205.042 205.691 205.015 205.658C204.987 205.625 204.899 205.235 204.818 204.792C204.505 203.059 203.744 201.252 202.842 200.1C202.239 199.328 201.294 198.525 200.386 198.011L199.743 197.647L199.791 197.234C199.818 197.006 199.861 196.558 199.886 196.238C199.955 195.392 200.261 191.781 200.414 190.013C200.487 189.176 200.704 186.616 200.896 184.326C201.089 182.035 201.306 179.496 201.379 178.683C201.452 177.87 201.669 175.331 201.861 173.041C202.054 170.75 202.252 168.432 202.301 167.891C202.35 167.349 202.43 166.422 202.479 165.831C202.603 164.319 203.15 157.892 203.309 156.068C203.383 155.23 203.6 152.671 203.793 150.38C203.986 148.09 204.203 145.551 204.276 144.738C204.349 143.925 204.566 141.386 204.759 139.095C204.952 136.805 205.156 134.417 205.214 133.788L205.318 132.646L211.071 132.647C214.235 132.647 218.69 132.673 220.97 132.706L225.116 132.765V133.026C225.116 133.739 226.013 135.742 227.021 137.285C230.806 143.073 238.12 147.886 246.864 150.343L247.771 150.598L247.72 151.183C247.693 151.505 247.61 152.454 247.538 153.291C247.403 154.848 247.19 157.336 246.878 160.994C246.782 162.127 246.643 163.739 246.57 164.577C246.498 165.414 246.281 167.953 246.09 170.219C245.898 172.485 245.682 175.024 245.608 175.862C245.535 176.699 245.317 179.259 245.125 181.549C244.932 183.84 244.715 186.379 244.642 187.192C244.569 188.005 244.352 190.544 244.159 192.835C243.966 195.125 243.75 197.664 243.679 198.477C243.608 199.29 243.468 200.922 243.368 202.105C243.12 205.041 242.868 207.984 242.71 209.807C242.637 210.645 242.42 213.204 242.228 215.495C242.036 217.785 241.82 220.324 241.747 221.137C241.619 222.56 241.462 224.4 241.09 228.795C240.994 229.928 240.869 231.407 240.811 232.082C240.727 233.074 240.729 233.335 240.82 233.448C240.962 233.622 241.122 233.625 241.259 233.457C241.318 233.385 241.421 232.693 241.489 231.912C241.718 229.317 241.875 227.485 242.228 223.287C242.421 220.996 242.638 218.437 242.711 217.599C242.784 216.762 242.922 215.15 243.019 214.017C243.255 211.25 243.518 208.167 243.677 206.314C243.748 205.477 243.886 203.865 243.983 202.732C244.194 200.247 244.463 197.098 244.641 195.029C244.845 192.662 245.106 189.589 245.299 187.281C245.488 185.03 245.634 183.327 245.913 180.116C246.009 179.008 246.167 177.154 246.265 175.996C246.362 174.839 246.52 172.985 246.617 171.876C246.893 168.694 247.04 166.973 247.23 164.711C247.563 160.752 247.763 158.396 247.886 157.008C247.954 156.245 248.1 154.542 248.211 153.224C248.441 150.48 248.313 150.719 249.409 151.002C251.847 151.63 255.942 152.271 259.465 152.575C260.33 152.65 261.044 152.721 261.051 152.733C261.058 152.744 261.032 153.278 260.992 153.918C260.804 156.971 260.01 161.177 258.356 167.877C257.684 170.599 257.582 171.106 257.684 171.21C257.863 171.392 260.071 172.364 261.573 172.922C262.294 173.19 262.946 173.446 263.021 173.491C263.103 173.54 260.526 173.574 256.463 173.575C251.189 173.577 249.761 173.602 249.731 173.69C249.71 173.752 249.632 174.547 249.559 175.459C249.485 176.37 249.405 177.337 249.382 177.608C249.358 177.879 249.259 179.129 249.162 180.385C249.065 181.641 248.925 183.414 248.852 184.326C248.778 185.237 248.699 186.245 248.676 186.565C248.653 186.885 248.575 187.852 248.503 188.715C248.431 189.577 248.293 191.31 248.196 192.566C248.099 193.822 247.961 195.575 247.888 196.462C247.816 197.349 247.677 199.082 247.58 200.313C247.483 201.545 247.343 203.297 247.269 204.207C247.141 205.769 247.142 205.868 247.286 205.976C247.403 206.063 248.158 206.09 250.494 206.09C253.344 206.09 253.548 206.101 253.548 206.247C253.547 206.333 253.508 206.646 253.459 206.941C253.266 208.127 253.022 210.989 253.022 212.067C253.024 213.686 253.258 215.621 253.865 219.032C254.271 221.311 254.433 222.13 255.446 227.004C255.967 229.506 257.391 235.644 258.818 241.536C259.346 243.716 259.779 245.54 259.779 245.589C259.779 245.648 250.273 245.678 231.654 245.678H203.529V245.476C203.529 245.365 203.569 245.133 203.617 244.961C203.855 244.115 204.075 241.385 204.078 239.229C204.081 237.054 203.876 234.189 203.692 233.833C203.615 233.685 202.907 233.676 190.712 233.676H177.814L177.728 233.906C177.618 234.203 177.62 236.92 177.733 238.647C177.886 240.996 178.249 243.867 178.522 244.872C178.569 245.045 178.607 245.296 178.607 245.432L178.608 245.678H164.348C156.505 245.678 150.088 245.652 150.088 245.62C150.088 245.588 150.434 245.195 150.857 244.747C154.082 241.327 156.809 236.875 157.974 233.127C158.466 231.543 158.554 230.976 158.554 229.377C158.554 227.805 158.47 227.324 158.011 226.256C157.462 224.978 156.337 223.798 155.016 223.114L154.635 222.916L154.687 222.318C154.94 219.411 155.019 218.489 155.178 216.614C155.431 213.629 155.681 210.71 155.837 208.912C155.91 208.074 156.127 205.515 156.319 203.224C156.512 200.933 156.729 198.374 156.802 197.537C157.053 194.64 157.28 191.975 157.459 189.834C157.557 188.652 157.676 187.281 157.722 186.789C157.769 186.296 157.847 185.369 157.897 184.729C157.947 184.088 158.046 182.92 158.117 182.131C158.189 181.343 158.327 179.751 158.424 178.594C158.521 177.436 158.66 175.804 158.732 174.966C158.902 172.99 159.168 169.861 159.391 167.219C159.637 164.307 159.897 161.27 160.05 159.516C160.121 158.703 160.259 157.091 160.356 155.934C160.453 154.776 160.611 152.922 160.707 151.813C161.068 147.662 161.154 146.652 161.495 142.588C161.688 140.298 161.905 137.738 161.978 136.901C162.105 135.44 162.244 133.816 162.633 129.243C162.732 128.085 162.872 126.453 162.944 125.616C163.017 124.778 163.156 123.146 163.254 121.988C163.429 119.906 163.654 117.282 163.91 114.33C163.983 113.493 164.2 110.934 164.393 108.643C164.585 106.352 164.802 103.793 164.875 102.955C164.947 102.118 165.086 100.506 165.182 99.3729C165.61 94.3604 165.717 93.1013 165.841 91.6702C165.913 90.8328 165.994 89.8655 166.021 89.5206C166.048 89.1758 166.124 88.3093 166.189 87.595C166.255 86.8807 166.394 85.2282 166.498 83.9228C166.602 82.6174 166.705 81.4586 166.726 81.3478L166.765 81.1463H187.9H209.036L209.002 81.5269ZM253.693 81.303C253.669 81.3893 253.627 81.762 253.599 82.1315C253.52 83.1787 252.863 90.9631 252.715 92.6106C252.643 93.4235 252.425 95.9626 252.232 98.2533C252.039 100.544 251.823 103.083 251.752 103.896C251.681 104.709 251.541 106.341 251.442 107.523C251.274 109.538 251.096 111.615 250.783 115.226C250.711 116.063 250.494 118.623 250.301 120.913C249.995 124.558 249.832 126.436 249.635 128.6L249.584 129.166L249.219 129.107C248.133 128.931 246.085 128.327 244.619 127.752C243.922 127.478 243.808 127.404 243.808 127.227C243.808 127.047 244.256 121.867 244.641 117.599C244.715 116.787 244.932 114.288 245.123 112.046C245.315 109.805 245.532 107.306 245.605 106.493C245.678 105.681 245.818 104.088 245.916 102.955C246.014 101.822 246.151 100.251 246.221 99.4624C246.291 98.6742 246.427 97.1024 246.525 95.9694C246.623 94.8364 246.727 93.6362 246.756 93.3024C246.804 92.7638 246.783 92.6407 246.577 92.2093C246.315 91.6643 246.01 91.3681 245.353 91.0201C244.922 90.7921 244.83 90.7805 242.974 90.7193C241.912 90.6843 234.755 90.6521 227.069 90.6479C214.943 90.6412 213.094 90.6231 213.094 90.5107C213.094 90.2493 213.274 88.0786 213.319 87.7965L213.366 87.5054H230.368H247.371L247.26 88.7772C247.145 90.1045 247.173 90.282 247.493 90.282C247.578 90.282 247.687 90.2316 247.736 90.17C247.84 90.0391 248.051 87.7166 248.006 87.1919L247.976 86.8337L230.401 86.8111L212.827 86.7884L212.752 86.9902C212.711 87.1011 212.623 87.9376 212.557 88.8489L212.436 90.5059L210.658 90.5301L208.88 90.5544L208.925 90.2167C208.949 90.0309 209.05 88.8914 209.148 87.6845C209.245 86.4777 209.383 84.8655 209.453 84.1019C209.523 83.3384 209.607 82.361 209.638 81.93L209.696 81.1463H231.716C252.645 81.1463 253.733 81.1541 253.693 81.303ZM85.9929 86.8169C85.8549 86.9199 85.7993 87.3875 85.5435 90.6011C85.383 92.6176 85.1889 95.0536 85.1121 96.0141C85.0353 96.9747 84.8161 99.7356 84.625 102.149C84.4339 104.563 84.2166 107.284 84.142 108.195C84.0674 109.106 83.9308 110.819 83.8384 112.002C83.746 113.184 83.5837 115.226 83.4776 116.54C83.3716 117.854 83.3087 118.992 83.338 119.07C83.3858 119.198 84.2069 119.212 91.6453 119.212C99.2062 119.212 99.9041 119.199 99.9547 119.065C99.9849 118.984 99.9695 118.854 99.9203 118.774C99.8394 118.643 99.0899 118.627 91.9209 118.607L84.0109 118.584L84.0104 118.338C84.0102 118.203 84.0694 117.387 84.142 116.525C84.2145 115.663 84.4323 112.942 84.6261 110.479C84.8198 108.016 85.0369 105.295 85.1085 104.433C85.1801 103.571 85.2601 102.564 85.2863 102.194C85.3126 101.825 85.3901 100.857 85.4585 100.045C85.5269 99.2318 85.6641 97.4987 85.7634 96.1933C85.8626 94.8879 85.9827 93.3764 86.0302 92.8346C86.0777 92.2927 86.176 91.0433 86.2485 90.058C86.3211 89.0728 86.4039 88.0752 86.4324 87.8413L86.4844 87.4158H89.6761C92.867 87.4158 92.8677 87.4158 92.9702 87.2203C93.0575 87.0538 93.0435 87.0006 92.8758 86.8621C92.6934 86.7113 92.4386 86.6993 89.4146 86.6993C86.8588 86.6993 86.1163 86.7249 85.9929 86.8169ZM103.382 86.7953C103.205 86.9017 103.181 87.1525 103.334 87.3084C103.414 87.3904 105.348 87.4158 111.502 87.4158H119.564L119.515 87.9756C119.437 88.842 119.22 91.5261 119.023 94.0437C118.925 95.2999 118.765 97.3151 118.669 98.522C118.573 99.7289 118.434 101.462 118.362 102.373C117.583 112.122 117.627 111.292 117.893 111.378C118.259 111.496 118.326 111.279 118.459 109.529C118.528 108.623 118.643 107.176 118.715 106.314C118.787 105.452 118.926 103.699 119.025 102.418C119.124 101.137 119.263 99.3841 119.335 98.522C119.406 97.6599 119.485 96.6725 119.509 96.3276C119.533 95.9828 119.611 94.9953 119.682 94.1333C119.754 93.2712 119.891 91.5381 119.988 90.282C120.084 89.0258 120.183 87.7764 120.208 87.5054C120.232 87.2345 120.214 86.9523 120.168 86.8785C120.094 86.7609 119.053 86.7416 111.81 86.7237C106.267 86.71 103.485 86.7336 103.382 86.7953ZM169.414 86.9005C169.364 86.9623 169.298 87.3755 169.266 87.8189C169.234 88.2622 169.171 89.0079 169.126 89.4759C169.081 89.9438 168.986 91.0724 168.915 91.9837C168.844 92.895 168.625 95.5753 168.429 97.9398C168.232 100.304 168.015 102.964 167.945 103.851C167.875 104.738 167.777 105.907 167.728 106.449C167.678 106.99 167.54 108.643 167.42 110.121C166.877 116.836 166.762 118.209 166.711 118.61C166.617 119.348 166.301 119.301 171.324 119.301C176.105 119.301 176.072 119.304 175.933 118.858C175.876 118.676 175.831 118.674 171.675 118.674C169.364 118.674 167.456 118.644 167.434 118.607C167.412 118.57 167.467 117.653 167.558 116.569C167.648 115.486 167.783 113.833 167.859 112.897C167.934 111.961 168.053 110.53 168.124 109.718C168.194 108.905 168.41 106.285 168.603 103.896C168.797 101.507 169.013 98.887 169.083 98.0742C169.153 97.2614 169.379 94.551 169.584 92.0512L169.956 87.5061L180.788 87.4834C190.995 87.462 191.625 87.4516 191.717 87.3039C191.787 87.1896 191.787 87.1047 191.717 86.9904C191.625 86.8427 190.984 86.8323 180.562 86.8109C171.782 86.7929 169.485 86.8114 169.414 86.9005ZM257.168 87.3487C257.12 87.4103 257.014 88.2869 256.933 89.2967C256.564 93.8907 256.436 95.4958 256.269 97.6263C256.171 98.8825 256.031 100.616 255.959 101.478C255.888 102.34 255.809 103.327 255.784 103.672C255.76 104.017 255.682 105.004 255.612 105.866C255.541 106.728 255.403 108.482 255.304 109.762C255.206 111.043 255.068 112.776 254.997 113.614C254.927 114.451 254.828 115.701 254.778 116.39C254.727 117.08 254.646 118.061 254.596 118.571C254.529 119.263 254.532 119.529 254.608 119.623C254.735 119.779 254.989 119.786 255.106 119.637C255.154 119.576 255.258 118.699 255.338 117.689C255.478 115.909 255.696 113.175 255.962 109.852C256.033 108.965 256.25 106.225 256.443 103.762C256.637 101.299 256.854 98.578 256.925 97.7159C256.996 96.8538 257.138 95.0804 257.241 93.775C257.343 92.4696 257.492 90.6156 257.572 89.655L257.716 87.9085L274.236 87.8853L290.755 87.8623V88.1702C290.755 88.3394 290.657 89.7 290.537 91.1936C290.295 94.2166 290.172 95.7558 289.754 100.985C289.596 102.955 289.484 104.616 289.505 104.676C289.56 104.835 289.868 104.911 290 104.799C290.129 104.69 290.161 104.364 290.67 97.895C290.862 95.4566 291.077 92.7562 291.147 91.8941C291.476 87.8847 291.498 87.4077 291.364 87.321C291.289 87.2727 284.307 87.2389 274.247 87.2381C260.757 87.237 257.237 87.2598 257.168 87.3487ZM230.382 91.3469L244.554 91.4034L245.015 91.6153C245.522 91.8481 245.965 92.2995 246.06 92.6794C246.094 92.814 246.053 93.7101 245.97 94.6707C245.619 98.7387 244.791 108.239 244.643 109.897C244.571 110.71 244.354 113.208 244.161 115.45C243.968 117.691 243.748 120.21 243.672 121.048C243.597 121.885 243.365 124.518 243.158 126.898C242.74 131.694 242.779 131.511 242.092 131.879C241.761 132.056 241.588 132.065 238.121 132.091C234.613 132.117 234.488 132.112 234.21 131.937C234.052 131.838 233.35 131.157 232.65 130.425C231.514 129.236 231.332 129.081 230.959 128.985C230.729 128.926 230.475 128.896 230.395 128.918C229.776 129.087 229.781 129.089 229.672 128.684C229.528 128.148 229.551 127.846 229.782 127.252L229.984 126.735L233.715 126.734C235.767 126.733 237.533 126.709 237.64 126.679C237.747 126.65 237.854 126.56 237.878 126.479C237.902 126.398 238.004 125.331 238.105 124.108C238.246 122.396 238.265 121.854 238.185 121.757C238.098 121.649 237.082 121.63 231.599 121.63C226.472 121.63 225.116 121.607 225.116 121.518C225.116 121.425 224.985 121.129 224.52 120.174C224.502 120.138 227.608 120.107 231.421 120.107C237.95 120.107 238.358 120.098 238.398 119.951C238.47 119.683 238.533 119.053 238.677 117.167C238.784 115.764 238.792 115.317 238.712 115.219C238.564 115.036 185.527 115.026 185.379 115.209C185.28 115.33 185.031 117.965 184.992 119.301L184.97 120.063L203.156 120.085C213.159 120.098 221.343 120.136 221.343 120.171C221.343 120.206 221.234 120.548 221.102 120.932L220.861 121.629L202.904 121.63C188.161 121.63 184.93 121.651 184.852 121.748C184.762 121.858 184.399 125.433 184.399 126.204C184.399 126.454 184.446 126.575 184.569 126.642C184.685 126.705 190.574 126.735 202.981 126.735H221.223L221.379 127.069C221.753 127.871 222.592 128.922 223.997 130.35C224.992 131.361 225.454 131.89 225.395 131.95C225.336 132.01 217.884 132.012 202.857 131.956C184.418 131.886 180.347 131.85 180.075 131.75C179.633 131.589 179.052 131.071 178.901 130.701C178.802 130.458 178.796 130.214 178.87 129.397C179.101 126.834 179.249 125.144 179.573 121.361C179.764 119.12 179.982 116.621 180.055 115.808C180.129 114.995 180.327 112.738 180.496 110.792C180.664 108.847 180.88 106.368 180.976 105.284C181.071 104.2 181.307 101.48 181.5 99.2385C182.04 92.9858 182.128 92.1399 182.266 91.8649C182.344 91.7093 182.568 91.5265 182.848 91.3901L183.303 91.1686L199.756 91.2295C208.806 91.263 222.587 91.3159 230.382 91.3469ZM195.867 95.947C195.654 96.1063 195.27 100.577 195.45 100.798C195.555 100.927 197.214 100.94 213.358 100.94C227.486 100.94 231.168 100.917 231.239 100.828C231.287 100.767 231.391 99.9304 231.469 98.9698C231.547 98.0092 231.633 96.9769 231.66 96.6757C231.699 96.2407 231.68 96.098 231.566 95.9815C231.434 95.8468 229.994 95.835 213.719 95.835C199.695 95.835 195.985 95.8583 195.867 95.947ZM230.967 97.0665C230.939 97.3497 230.869 98.1761 230.81 98.9026L230.705 100.224H213.388H196.07L196.073 99.8879C196.075 99.7032 196.133 98.9676 196.202 98.2533C196.272 97.539 196.33 96.8639 196.331 96.7531L196.334 96.5515H213.676H231.019L230.967 97.0665ZM186.443 102.127C186.397 102.189 186.312 102.803 186.254 103.493C185.997 106.554 185.984 106.795 186.081 106.914C186.207 107.069 239.374 107.089 239.468 106.934C239.5 106.881 239.599 105.964 239.688 104.895C239.897 102.381 239.903 102.25 239.826 102.123C239.729 101.962 186.564 101.966 186.443 102.127ZM239.154 102.978C239.148 103.634 238.92 106.198 238.858 106.3C238.784 106.422 186.809 106.454 186.735 106.332C186.693 106.261 186.93 102.974 186.994 102.754C187.02 102.665 192.315 102.642 213.092 102.642H239.157L239.154 102.978ZM185.91 108.665C185.802 108.8 185.424 113.21 185.503 113.421C185.555 113.558 187.488 113.569 212.221 113.569C227.972 113.569 238.903 113.536 238.932 113.488C238.959 113.444 239.068 112.353 239.175 111.064C239.344 109.022 239.352 108.711 239.241 108.639C239.164 108.589 228.612 108.556 212.557 108.555C191.417 108.554 185.982 108.576 185.91 108.665ZM238.602 109.324C238.658 109.472 238.392 112.739 238.314 112.868C238.289 112.909 226.538 112.942 212.199 112.942H186.129L186.182 112.425C186.212 112.141 186.278 111.345 186.33 110.656C186.382 109.968 186.441 109.354 186.462 109.292C186.492 109.203 191.784 109.18 212.524 109.18C236.29 109.18 238.553 109.193 238.602 109.324ZM270.655 110.304C271.511 110.51 272.275 110.933 272.75 111.463C273.42 112.211 273.993 113.454 274.173 114.546C274.289 115.25 274.506 115.45 275.155 115.45C275.963 115.45 276.233 115.663 276.411 116.445C276.441 116.574 276.42 116.85 276.365 117.058C276.212 117.637 275.654 118.142 274.587 118.667C274.086 118.914 273.605 119.196 273.518 119.294C273.293 119.548 273.037 121.42 272.971 123.287C272.86 126.462 273.549 129.532 274.847 131.643C275.102 132.057 275.311 132.413 275.311 132.432C275.311 132.517 273.591 132.456 272.675 132.338C270.433 132.05 268.383 131.513 267.323 130.936C266.826 130.666 266.272 130.212 266.272 130.075C266.272 130.035 266.627 129.68 267.061 129.286C267.495 128.893 267.913 128.437 267.99 128.273C268.155 127.921 268.177 127.62 268.33 123.645C268.411 121.562 268.419 120.564 268.358 120.487C268.308 120.425 268.046 120.309 267.775 120.229C267.114 120.034 265.925 119.461 265.68 119.22C265.431 118.975 265.429 118.697 265.666 117.447C265.915 116.137 265.873 115.731 265.411 115.006C265.209 114.689 265.044 114.387 265.044 114.335C265.045 114.283 265.184 114.144 265.354 114.026C265.922 113.631 266.57 112.814 267.001 111.951C267.233 111.486 267.49 111.024 267.572 110.925C267.798 110.649 268.219 110.37 268.557 110.271C269.018 110.136 270.022 110.152 270.655 110.304ZM238.074 116.413C238.045 116.745 237.975 117.572 237.918 118.249L237.815 119.48H230.861C224.12 119.48 223.895 119.475 223.525 119.303C223.035 119.076 222.61 119.076 222.177 119.301C221.836 119.479 221.659 119.48 203.73 119.48H185.628L185.629 119.279C185.63 119.168 185.688 118.412 185.76 117.599C185.831 116.787 185.89 116.051 185.89 115.965C185.891 115.816 187.194 115.808 212.009 115.808H238.126L238.074 116.413ZM124.907 118.249C124.863 118.36 124.743 119.518 124.64 120.824C124.37 124.253 124.317 124.911 124.024 128.426C123.748 131.732 123.751 131.84 124.121 131.84C124.374 131.84 124.434 131.617 124.542 130.273C124.598 129.583 124.8 127.105 124.992 124.765C125.184 122.425 125.362 120.208 125.39 119.839C125.417 119.469 125.457 119.076 125.48 118.965L125.521 118.764H130.076C134.1 118.764 134.647 118.747 134.769 118.623C134.845 118.546 134.907 118.433 134.907 118.372C134.907 118.055 134.783 118.047 129.842 118.047H124.987L124.907 118.249ZM150.808 118.155C150.65 118.316 150.681 118.567 150.872 118.671C150.983 118.731 152.578 118.764 155.447 118.764H159.851L159.797 119.279C159.766 119.562 159.583 121.728 159.389 124.093C159.195 126.457 158.996 128.851 158.948 129.411C158.856 130.483 158.897 130.676 159.215 130.676C159.464 130.676 159.539 130.493 159.595 129.736C159.646 129.051 159.83 126.832 160.319 120.974C160.491 118.904 160.518 118.274 160.438 118.175C160.35 118.067 159.595 118.047 155.624 118.047C152.077 118.047 150.887 118.074 150.808 118.155ZM223.409 120.02C223.958 120.366 224.446 121.35 224.768 122.76C225.036 123.935 225.575 124.875 226.28 125.399C226.606 125.642 226.708 125.672 227.1 125.64C227.722 125.589 228.278 125.23 228.813 124.535C229.289 123.917 229.475 123.84 229.847 124.106C230.03 124.237 230.047 124.303 230.004 124.71C229.975 124.981 229.756 125.629 229.466 126.297C228.879 127.655 228.812 128.038 229.024 128.836C229.11 129.16 229.164 129.44 229.145 129.458C228.993 129.603 226.171 131.303 226.083 131.303C225.816 131.303 223.738 129.241 222.879 128.123C221.722 126.617 221.31 125.483 221.304 123.779C221.299 122.253 221.668 120.848 222.264 120.125C222.549 119.779 222.967 119.741 223.409 120.02ZM220.654 123.431C220.626 124.378 220.683 124.991 220.876 125.817L220.923 126.019H202.999H185.075L185.133 125.19C185.164 124.734 185.235 123.908 185.29 123.354L185.39 122.346H203.038H220.685L220.654 123.431ZM237.544 122.861C237.466 123.588 237.317 125.478 237.315 125.772L237.314 126.019H233.838H230.361L230.422 125.817C230.862 124.372 230.769 123.806 230.033 123.422C229.354 123.069 229.006 123.208 228.271 124.126C227.793 124.722 227.194 125.093 226.877 124.99C226.406 124.838 225.565 123.498 225.428 122.682L225.372 122.346H231.486H237.6L237.544 122.861ZM263.14 127.688C263.294 127.769 263.508 127.905 263.615 127.99C263.77 128.113 264.079 128.158 265.112 128.209C265.827 128.244 266.546 128.301 266.709 128.335L267.005 128.397L266.288 129.066C265.46 129.838 265.386 130.077 265.812 130.602C266.194 131.075 266.355 131.192 267.194 131.614C268.455 132.248 270.432 132.75 272.851 133.049C274.716 133.279 275.785 133.194 276.059 132.794C276.243 132.526 276.228 132.464 275.842 131.937C275.507 131.478 274.888 130.339 274.7 129.836C274.615 129.606 274.622 129.593 274.806 129.646C275.425 129.825 276.91 130.491 277.732 130.958C282.367 133.589 285.53 138.426 286.979 145.101C287.727 148.548 287.988 151.129 288.122 156.381C288.277 162.5 288.796 168.043 289.685 173.109L289.847 174.028L289.414 174.159C287.627 174.701 285.116 175.183 282.865 175.417C280.832 175.629 275.979 175.563 273.948 175.297C268.9 174.636 263.822 173.268 259.823 171.491C259.436 171.319 258.936 171.097 258.71 170.996L258.3 170.814L258.601 169.666C260.275 163.279 261.389 157.587 261.637 154.167L261.742 152.714L262.362 152.755C262.703 152.777 263.936 152.817 265.102 152.843C266.961 152.885 267.24 152.873 267.362 152.749C267.438 152.671 267.501 152.557 267.501 152.497C267.501 152.21 267.289 152.172 265.706 152.17C259.021 152.161 252.168 151.218 246.528 149.528C242.19 148.229 238.002 146.262 234.648 143.948C232.554 142.504 230.032 140.186 228.684 138.468C227.009 136.334 225.591 133.495 225.803 132.703C225.911 132.298 226.201 132.075 228.257 130.821C230.862 129.231 230.596 129.23 232.108 130.847C233.324 132.147 234.191 132.896 235.543 133.813C240.406 137.114 247.26 138.295 256.005 137.34C257.513 137.176 258.871 136.975 258.991 136.9C259.129 136.812 259.089 136.408 258.936 136.348C258.859 136.317 258.336 136.359 257.773 136.44C254.979 136.843 253.014 136.961 249.863 136.917C247.443 136.884 246.586 136.839 245.595 136.692C242.799 136.28 240.741 135.708 238.617 134.754C237.689 134.337 235.948 133.334 235.515 132.966L235.252 132.742L238.489 132.739C240.552 132.737 241.84 132.701 242.043 132.639C242.532 132.489 243.042 132.093 243.251 131.702C243.401 131.42 243.468 131.028 243.58 129.787C243.657 128.929 243.735 128.212 243.753 128.194C243.771 128.176 244.057 128.267 244.389 128.395C248.848 130.126 252.799 130.55 256.792 129.728C257.908 129.498 258.007 129.461 258.604 129.055C259.024 128.769 259.893 128.477 260.672 128.36C261.03 128.306 261.541 128.133 261.988 127.914C262.39 127.718 262.75 127.553 262.789 127.549C262.827 127.545 262.985 127.607 263.14 127.688ZM298.44 139.7C298.408 140.082 298.324 141.059 298.253 141.872C298.182 142.685 297.967 145.224 297.775 147.514C297.318 152.956 297.232 153.886 297.189 153.842C297.169 153.822 297.079 153.488 296.987 153.101C296.896 152.713 296.68 151.892 296.508 151.276C295.983 149.405 295.834 148.445 295.834 146.932C295.835 144.802 296.321 142.682 297.181 141.069C297.541 140.392 298.404 139.006 298.465 139.006C298.483 139.006 298.472 139.318 298.44 139.7ZM123.111 140.669C123.035 140.746 122.972 140.918 122.971 141.05C122.97 141.182 122.873 142.438 122.755 143.842C122.354 148.622 122.24 150.258 122.296 150.409C122.349 150.549 123.262 150.56 135.501 150.56C145.61 150.56 148.673 150.535 148.754 150.452C148.913 150.291 148.881 150.04 148.69 149.936C148.575 149.873 144.38 149.843 135.734 149.843H122.947L123.005 148.97C123.067 148.032 123.321 144.975 123.552 142.371C123.689 140.832 123.688 140.76 123.536 140.646C123.333 140.495 123.279 140.498 123.111 140.669ZM200.809 143.047C200.809 143.152 200.75 143.908 200.678 144.727C200.606 145.546 200.488 146.921 200.416 147.783C200.343 148.645 200.206 150.277 200.11 151.41C200.014 152.543 199.856 154.438 199.757 155.62C199.659 156.802 199.499 158.697 199.403 159.83C199.307 160.963 199.169 162.595 199.097 163.457C199.025 164.319 198.808 166.893 198.615 169.176C198.422 171.459 198.263 173.353 198.261 173.385C198.259 173.417 198.106 173.061 197.921 172.593C197.22 170.816 196.513 169.722 195.197 168.379C193.032 166.169 190.535 165.035 187.089 164.698C184.796 164.473 181.563 164.922 179.499 165.753C175.813 167.236 172.69 170.056 170.632 173.757C167.501 179.389 167.299 186.116 170.089 191.843C170.334 192.347 170.535 192.796 170.535 192.841C170.535 192.891 168.528 192.924 165.533 192.924H160.531V192.71C160.531 192.592 160.57 192.098 160.618 191.612C160.666 191.127 160.764 189.984 160.837 189.073C160.909 188.161 161.049 186.469 161.147 185.311C161.245 184.153 161.462 181.554 161.629 179.534C161.796 177.514 161.973 175.419 162.022 174.877C162.071 174.335 162.189 172.964 162.283 171.831C162.624 167.726 162.816 165.443 162.945 163.95C163.017 163.112 163.234 160.533 163.426 158.217C163.619 155.902 163.835 153.323 163.906 152.485C163.977 151.648 164.177 149.23 164.351 147.111C164.524 144.993 164.684 143.169 164.706 143.058L164.746 142.857H182.778H200.809V143.047ZM296.857 158.24C296.83 158.523 296.729 159.702 296.632 160.86C296.43 163.281 296.161 166.427 295.975 168.562C295.904 169.375 295.766 170.987 295.669 172.145C295.402 175.328 295.195 177.757 294.706 183.43C294.611 184.539 294.453 186.393 294.355 187.55C294.258 188.708 294.118 190.34 294.045 191.178C293.972 192.015 293.775 194.312 293.608 196.283C293.44 198.253 293.243 200.571 293.169 201.433C293.095 202.295 292.994 203.484 292.945 204.075C292.668 207.412 292.322 211.238 292.295 211.266C292.247 211.315 291.688 210.267 291.204 209.219C290.67 208.062 290.208 206.869 289.822 205.648L289.526 204.713L289.705 202.603C289.804 201.442 289.943 199.827 290.013 199.015C290.083 198.202 290.219 196.61 290.314 195.477C290.409 194.344 290.586 192.268 290.708 190.864C290.83 189.46 290.969 187.808 291.018 187.192C291.067 186.576 291.147 185.649 291.196 185.132C291.245 184.615 291.442 182.317 291.634 180.027C291.826 177.736 292.041 175.197 292.113 174.384C292.184 173.571 292.343 171.717 292.467 170.264C292.59 168.811 292.747 166.977 292.816 166.189C292.885 165.401 292.968 164.375 293.002 163.909L293.062 163.062L293.925 162.22C295.22 160.956 296.15 159.61 296.645 158.286C296.76 157.979 296.866 157.727 296.88 157.726C296.895 157.725 296.884 157.957 296.857 158.24ZM106.09 163.032C106.193 163.192 106.427 163.585 106.612 163.905C107.113 164.773 107.53 165.319 108.176 165.951C108.496 166.264 108.757 166.531 108.757 166.545C108.757 166.558 108.658 166.797 108.538 167.076C108.275 167.681 108.271 167.826 108.488 168.897C108.725 170.071 108.794 171.321 108.676 172.311C108.512 173.685 108.177 174.109 107.117 174.283C106.128 174.446 104.922 174.166 103.987 173.556C103.66 173.343 103.527 173.299 103.416 173.37C103.154 173.538 103.197 173.813 103.524 174.068C103.861 174.33 104.939 174.826 105.181 174.829C105.375 174.832 105.377 175.023 105.201 177.384C104.908 181.332 104.889 181.76 105.005 181.878C105.066 181.94 105.737 182.086 106.497 182.203C107.258 182.319 107.902 182.438 107.929 182.465C108.036 182.575 107.708 183.138 107.329 183.492C106.621 184.156 105.225 184.75 103.397 185.164C100.343 185.856 97.768 185.561 95.8324 184.297C95.308 183.955 94.5411 183.247 94.5411 183.105C94.5411 183.056 95.1185 182.881 95.8242 182.714C96.5299 182.547 97.1773 182.348 97.2629 182.271C97.5248 182.036 99.3471 175.663 99.5053 174.429C99.5528 174.058 99.6094 173.95 99.8348 173.802C100.488 173.371 100.683 172.621 100.314 171.951C100.092 171.547 99.7563 171.311 99.192 171.161C98.0073 170.845 97.2534 169.848 97.2376 168.575C97.2267 167.697 97.5212 167.219 98.0721 167.219C98.5242 167.219 99.4135 167.99 100.048 168.933C100.362 169.4 100.683 169.54 100.979 169.339C101.157 169.218 101.166 169.142 101.166 167.835C101.166 166.538 101.18 166.428 101.395 165.961C101.831 165.012 102.25 164.672 104.589 163.375C105.216 163.027 105.769 162.742 105.817 162.742C105.866 162.742 105.989 162.872 106.09 163.032ZM292.298 164.375C292.266 164.831 292.183 165.828 292.114 166.592C292.045 167.355 291.908 168.947 291.808 170.13C291.473 174.125 291.28 176.393 291.148 177.877C291.029 179.21 290.701 183.058 290.359 187.147C290.075 190.533 289.961 191.87 289.837 193.238C289.767 194.026 289.624 195.678 289.521 196.91C289.071 202.288 289.038 202.585 288.93 202.194C288.764 201.591 288.484 199.573 288.389 198.298C288.16 195.23 288.342 192.678 289.04 189.162C289.201 188.35 289.387 187.261 289.452 186.744C289.623 185.388 289.601 181.912 289.412 180.36C289.251 179.035 288.846 176.881 288.568 175.862C288.474 175.517 288.424 175.208 288.457 175.176C288.507 175.127 290.333 174.563 290.441 174.563C290.576 174.563 290.543 174.085 290.32 172.834C289.938 170.684 289.395 166.583 289.334 165.387L289.307 164.853L289.853 164.686C290.153 164.594 290.804 164.305 291.301 164.044C291.797 163.783 292.238 163.565 292.28 163.558C292.323 163.552 292.331 163.911 292.298 164.375ZM188.148 165.516C193.446 166.399 196.865 169.834 198.049 175.465C198.492 177.571 198.672 182.412 198.402 184.949C198.15 187.32 197.535 189.913 196.714 192.068C196.276 193.217 195.138 195.594 194.55 196.587C194.072 197.397 193.952 197.777 194.14 197.895C194.189 197.926 194.63 197.882 195.121 197.798C198.441 197.232 201.626 198.835 203.15 201.839C203.639 202.802 204.01 203.914 204.233 205.078L204.418 206.045L204.083 206.31C202.939 207.217 201.99 208.542 201.536 209.869C201.29 210.589 201.074 211.87 201.073 212.615L201.072 213.093L200.441 212.497C198.987 211.122 197.122 210.698 195.472 211.367C194.102 211.922 192.858 213.096 191.582 215.038C189.983 217.47 189.355 219.616 189.362 222.615C189.366 224.229 189.508 225.442 189.869 226.936C190.045 227.666 190.053 227.769 189.933 227.804C189.67 227.881 188.24 228.133 188.221 228.106C188.21 228.091 188.253 227.373 188.316 226.511C189.192 214.488 188.021 200.356 184.934 185.714C184.376 183.065 183.518 179.472 183.347 179.064C183.25 178.833 182.981 178.799 182.82 178.997C182.73 179.107 182.793 179.466 183.157 180.945C185.466 190.304 186.997 200.256 187.707 210.524C187.936 213.829 187.933 222.981 187.702 226.019C187.613 227.201 187.526 228.182 187.511 228.2C187.495 228.217 186.841 228.272 186.058 228.322C182.21 228.568 179.153 227.808 176.407 225.924C172.937 223.544 171.498 221.19 172.067 218.822C172.44 217.271 173.819 215.75 175.759 214.754C176.549 214.348 177.99 213.891 178.893 213.76C179.659 213.649 179.882 213.49 179.694 213.188C179.61 213.052 179.476 213.035 178.685 213.06C175.384 213.162 172.367 211.352 171.06 208.487C170.669 207.629 170.526 206.954 170.525 205.956C170.523 204.302 171.132 202.843 172.395 201.477C173.347 200.447 174.339 199.79 175.712 199.279C176.266 199.073 176.374 198.999 176.397 198.814C176.418 198.635 176.305 198.497 175.782 198.07C172.377 195.282 169.931 191.123 169.095 186.699C167.549 178.522 171.942 169.808 179.222 166.611C180.509 166.045 182.334 165.57 183.873 165.4C184.894 165.288 187.14 165.349 188.148 165.516ZM57.7071 172.874C57.2607 173.473 56.8954 174.035 56.8954 174.125C56.8954 174.363 57.2188 174.519 57.3974 174.368C57.4742 174.303 57.8922 173.77 58.3261 173.183C59.1543 172.064 59.2141 171.86 58.7293 171.809C58.5538 171.791 58.384 171.968 57.7071 172.874ZM52.731 172.624C52.4318 172.847 52.6171 173.099 53.6925 173.932C54.7473 174.748 54.9862 174.848 55.1702 174.548C55.2946 174.346 55.198 174.24 54.1155 173.395C52.9851 172.513 52.9248 172.479 52.731 172.624ZM263.494 175.616C260.652 181.651 260.229 182.585 259.316 184.863C256.847 191.016 254.958 197.687 253.931 203.873L253.682 205.374H250.753H247.824L247.878 204.903C247.907 204.645 247.972 203.889 248.021 203.224C248.107 202.07 248.218 200.658 248.504 197.089C248.677 194.935 248.909 192.004 249.335 186.61C249.726 181.641 249.871 179.834 250.127 176.676C250.223 175.498 250.301 174.461 250.301 174.37C250.301 174.211 250.559 174.205 257.23 174.205H264.159L263.494 175.616ZM57.2474 176.309C57.1878 176.382 57.1598 176.497 57.1852 176.564C57.2283 176.679 58.7525 177.92 59.2871 178.275C59.4865 178.407 59.5526 178.416 59.6645 178.321C59.9545 178.075 59.7704 177.82 58.7049 176.989C58.1315 176.541 57.5934 176.175 57.5091 176.175C57.4246 176.175 57.3069 176.235 57.2474 176.309ZM54.7651 176.825C54.6006 177.034 54.2031 177.561 53.8817 177.995C53.3926 178.656 53.3123 178.813 53.3884 178.958C53.5908 179.344 53.8371 179.171 54.6797 178.053C55.4861 176.983 55.6461 176.613 55.3526 176.498C55.1186 176.407 55.0744 176.431 54.7651 176.825ZM283.211 180.254C283.46 180.56 283.113 184.385 282.641 186.544C282.006 189.441 281.044 191.695 279.304 194.357C278.251 195.97 277.831 196.738 277.3 198.033C275.759 201.788 274.835 206.557 274.209 213.977L274.152 214.655L274.957 216.296C277.361 221.198 280.379 226.03 285.138 232.602L286.339 234.259L286.182 236.095C285.983 238.434 285.791 239.289 285.186 240.537C283.969 243.048 281.852 244.768 279.172 245.424C278.518 245.585 278.045 245.613 275.334 245.653C273.633 245.678 272.19 245.678 272.127 245.653C272.038 245.618 272.027 245.426 272.079 244.77C272.273 242.328 272.467 237.655 272.633 231.437C272.805 224.978 272.927 221.345 273.035 219.435C273.267 215.334 273.439 213.242 273.55 213.166C273.586 213.141 273.683 212.436 273.765 211.599C274.461 204.518 275.652 199.536 277.479 196.061C277.698 195.644 278.264 194.717 278.736 194.001C281.195 190.275 282.299 186.769 282.596 181.747C282.682 180.291 282.724 180.121 283 180.118C283.055 180.117 283.15 180.178 283.211 180.254ZM203.981 182.115C203.928 182.18 203.826 182.916 203.755 183.75C203.262 189.495 203.281 189.15 203.449 189.258C203.862 189.525 203.954 189.281 204.099 187.54C204.17 186.684 204.288 185.298 204.361 184.46C204.434 183.623 204.494 182.887 204.494 182.826C204.495 182.736 208.23 182.714 222.877 182.714H241.259L241.219 182.96C241.197 183.095 241.119 183.932 241.045 184.818C240.971 185.705 240.852 187.116 240.78 187.953C240.601 190.038 240.334 193.179 240.121 195.701C239.876 198.613 239.616 201.649 239.462 203.403C239.391 204.216 239.253 205.828 239.156 206.986C238.939 209.578 238.669 212.728 238.497 214.689C238.425 215.501 238.209 218.041 238.016 220.331C237.824 222.622 237.606 225.181 237.533 226.019C237.461 226.856 237.322 228.488 237.226 229.646C237.13 230.804 237.029 231.962 237.001 232.221L236.95 232.691H232.531C228.631 232.691 228.096 232.708 227.975 232.832C227.812 232.999 227.81 233.01 227.928 233.234C228.016 233.402 228.161 233.408 232.699 233.408C236.595 233.408 237.397 233.387 237.482 233.283C237.595 233.144 237.596 233.132 237.841 230.228C238.017 228.145 238.259 225.311 238.499 222.525C238.708 220.092 238.966 217.048 239.157 214.778C239.254 213.62 239.391 212.008 239.462 211.195C239.617 209.423 239.879 206.368 240.121 203.493C240.449 199.611 240.648 197.279 240.781 195.79C240.853 194.977 241.07 192.438 241.263 190.148C241.456 187.857 241.676 185.277 241.753 184.415C241.829 183.553 241.879 182.667 241.863 182.445L241.833 182.042L222.956 182.019C207.385 182.001 204.061 182.017 203.981 182.115ZM124.947 203.09C125.932 203.592 126.63 204.534 126.833 205.632C126.953 206.282 126.954 235.93 126.835 236.677C126.647 237.844 125.942 238.806 124.903 239.309L124.421 239.543H101.298H78.1753L77.672 239.302C76.6813 238.828 75.9434 237.809 75.7591 236.661C75.6466 235.96 75.6466 206.405 75.7591 205.703C75.9798 204.328 76.9976 203.17 78.2578 202.86C78.4055 202.823 88.8526 202.8 101.474 202.807L124.421 202.821L124.947 203.09ZM209.453 206.086C210.817 206.488 212.168 207.388 212.993 208.446C213.496 209.092 214.079 210.157 214.244 210.735C214.306 210.949 214.408 211.145 214.471 211.169C214.534 211.194 214.951 211.143 215.397 211.057C218.387 210.477 221.009 211.507 222.713 213.93C223.68 215.307 224.327 217.509 224.327 219.43C224.327 220.269 224.211 220.736 223.752 221.74C222.516 224.445 220.257 226.283 217.614 226.736C215.368 227.121 213.215 226.315 211.463 224.433C210.798 223.719 210.464 223.255 210.064 222.497C209.8 221.996 209.596 221.82 209.378 221.906C209.115 222.009 209.149 222.245 209.528 222.962C210.139 224.118 210.311 224.716 210.316 225.712C210.32 226.514 210.301 226.611 210.009 227.234C209.471 228.38 208.609 229.158 207.158 229.805C206.033 230.307 205.287 230.464 203.793 230.515C202.613 230.554 202.33 230.536 201.661 230.373C200.595 230.113 199.725 229.656 198.44 228.679C196.942 227.54 196.273 227.21 195.356 227.156C194.271 227.092 193.313 227.377 192.489 228.008C192.329 228.131 192.182 228.215 192.163 228.195C192.114 228.145 192.816 226.569 193.218 225.827C196.286 220.168 201.675 216.932 207.698 217.134C209.885 217.207 211.971 217.657 213.874 218.467C214.338 218.665 214.826 218.872 214.959 218.927C215.155 219.008 215.226 219 215.341 218.883C215.608 218.61 215.418 218.399 214.561 218.016C210.738 216.309 206.416 215.98 202.603 217.104C198.121 218.426 194.443 221.706 192.216 226.368C191.884 227.063 191.52 227.903 191.407 228.235C191.294 228.568 191.178 228.84 191.149 228.84C190.994 228.84 190.344 226.22 190.154 224.828C189.817 222.364 190.058 219.937 190.849 217.822C191.58 215.871 193.534 213.261 194.886 212.43C196.42 211.488 197.96 211.507 199.376 212.486C199.876 212.832 200.688 213.674 201.133 214.308C201.53 214.872 201.744 214.986 201.944 214.74C202.024 214.642 202.023 214.524 201.937 214.225C201.87 213.994 201.824 213.314 201.822 212.539C201.819 211.441 201.85 211.13 202.021 210.524C202.355 209.345 202.855 208.481 203.705 207.61C204.678 206.614 205.587 206.128 206.952 205.874C207.411 205.789 208.86 205.912 209.453 206.086ZM153.335 223.196C154.549 223.545 155.399 224.042 156.239 224.896C157.087 225.757 157.488 226.487 157.769 227.676C157.976 228.547 157.975 230.215 157.768 231.25C156.842 235.886 153.402 241.46 148.657 246.013C146.576 248.009 143.245 250.504 140.514 252.11C133.842 256.034 125.049 258.966 116.699 260.053C116.119 260.128 114.974 260.288 114.154 260.409C111.487 260.8 111.709 260.805 110.881 260.338C110.485 260.114 110.086 259.907 109.994 259.877C109.901 259.847 109.785 259.772 109.735 259.711C109.664 259.624 110.149 259.459 111.899 258.974C114.042 258.379 114.155 258.337 114.179 258.126C114.215 257.815 110.7 252.184 110.446 252.144C110.269 252.117 109.92 252.239 104.889 254.082C102.33 255.02 102.188 255.061 101.847 254.968C101.37 254.838 100.914 254.98 100.486 255.393C100.305 255.567 100.124 255.71 100.083 255.71C100.042 255.71 99.2531 255.446 98.329 255.123C96.4574 254.47 96.2424 254.452 95.7301 254.912L95.4477 255.165L94.7803 254.234C94.4133 253.721 94.0037 253.229 93.8703 253.14C93.7109 253.034 93.4454 252.974 93.0971 252.966C92.5945 252.955 92.4795 252.904 90.9064 252.003C89.9933 251.48 89.2183 251.052 89.1841 251.052C89.0313 251.052 88.8866 251.4 88.4884 252.725C88.2541 253.504 87.9011 254.671 87.7039 255.317C87.5067 255.964 87.3454 256.553 87.3454 256.626C87.3454 256.7 87.6487 256.964 88.0194 257.214C88.6848 257.663 88.6901 257.669 88.4362 257.732C85.4124 258.477 82.647 259.313 81.5812 259.805C81.1406 260.009 80.6564 259.973 78.1315 259.552C70.294 258.246 63.3573 255.37 57.7081 251.086C54.4159 248.589 51.1161 245.064 49.2644 242.064C47.1981 238.716 46.3315 235.439 46.7492 232.553C47.3071 228.698 49.5104 226.254 53.2925 225.293C56.9912 224.354 61.7632 225.121 67.4016 227.56L68.7375 228.138L69.0181 228.646C70.0542 230.52 71.9259 232.985 73.768 234.901C74.7096 235.88 75.0661 236.309 75.0452 236.437C75.0213 236.584 74.4474 236.189 71.7255 234.153C66.7076 230.4 64.3097 228.661 64.1524 228.661C63.9838 228.661 63.8082 228.955 63.8758 229.125C63.9017 229.19 64.4826 229.646 65.1664 230.139C66.5325 231.123 74.0127 236.689 74.8195 237.322C75.0973 237.54 75.3885 237.847 75.4665 238.004C75.7117 238.497 76.2122 239.115 76.617 239.424L77.0071 239.722L75.8362 239.776C74.4779 239.839 74.0613 239.98 73.4772 240.576C72.227 241.853 72.5541 244.007 74.1266 244.853L74.5775 245.096L79.8472 245.141L85.1169 245.186L87.2508 246.885C88.4244 247.82 89.4029 248.634 89.4251 248.693C89.4474 248.752 89.4 249.129 89.3199 249.53C89.2398 249.931 89.1959 250.316 89.2223 250.387C89.29 250.567 89.6926 250.546 89.788 250.358C89.9184 250.101 90.1889 248.588 90.1317 248.436C90.0881 248.32 88.9834 247.403 86.464 245.391L86.1608 245.149L100.442 245.145C108.297 245.143 114.724 245.159 114.724 245.18C114.724 245.212 111.936 247.432 109.086 249.671C108.809 249.888 108.581 250.124 108.581 250.195C108.581 250.265 108.769 250.546 108.998 250.819C109.43 251.333 109.692 251.439 109.9 251.184C109.993 251.07 109.965 250.981 109.734 250.653L109.457 250.259L109.831 249.954C110.321 249.555 112.54 247.803 114.43 246.324L115.935 245.146L121.626 245.121L127.317 245.096L127.725 244.851C128.262 244.528 128.806 243.888 128.977 243.373C129.156 242.837 129.146 241.973 128.955 241.492C128.536 240.441 127.664 239.859 126.381 239.774L125.596 239.722L125.988 239.409C126.628 238.898 127.936 237.758 128.715 237.032C130.447 235.419 132.633 232.6 133.898 230.349L134.233 229.752L135.676 228.924C137.677 227.776 138.673 227.239 140.324 226.418C144.328 224.426 147.168 223.404 149.869 222.984C150.014 222.962 150.705 222.957 151.405 222.975C152.36 222.998 152.841 223.053 153.335 223.196ZM67.4239 225.257C67.5351 225.577 67.7562 226.131 67.9153 226.488L68.2045 227.136L67.8809 226.995C67.7029 226.918 67.4063 226.792 67.2218 226.715C66.9509 226.603 66.8948 226.54 66.9304 226.387C66.9548 226.283 67.0025 225.822 67.0364 225.363C67.0704 224.904 67.126 224.562 67.16 224.602C67.194 224.642 67.3127 224.937 67.4239 225.257ZM203.253 235.423C203.436 237.081 203.427 241.124 203.236 242.765C202.282 250.97 198.961 255.468 192.87 256.803C192.142 256.962 191.703 256.995 190.323 256.994C188.798 256.993 188.581 256.972 187.78 256.754C186.732 256.469 185.363 255.798 184.562 255.176C182.003 253.192 180.122 249.474 179.145 244.469C178.639 241.88 178.435 239.845 178.371 236.744L178.32 234.303L190.727 234.326L203.135 234.348L203.253 235.423ZM287.183 235.317C287.256 235.431 287.894 236.263 288.6 237.166L289.885 238.808L289.701 239.389C288.767 242.338 286.15 244.769 283.224 245.407C282.489 245.567 280.839 245.74 280.839 245.657C280.839 245.634 281.129 245.47 281.482 245.291C283.341 244.354 284.954 242.648 285.891 240.628C286.479 239.362 286.676 238.4 286.853 235.938C286.886 235.482 286.943 235.109 286.981 235.109C287.019 235.109 287.109 235.203 287.183 235.317ZM127.254 240.622C127.878 240.889 128.35 241.526 128.465 242.257C128.574 242.955 128.129 243.824 127.454 244.228L127.053 244.469H100.947H74.8408L74.4897 244.276C73.7714 243.88 73.3928 243.251 73.3928 242.454C73.3928 241.67 73.7875 241.016 74.468 240.672L74.8408 240.484L100.884 240.483C124.231 240.483 126.961 240.498 127.254 240.622ZM300.883 242.075C301.18 242.359 301.766 242.812 302.184 243.082L302.944 243.573L302.946 244.872C302.948 246.662 302.724 247.28 301.866 247.859C301.296 248.244 300.795 248.307 299.015 248.22L297.42 248.141L297.043 247.195C296.715 246.374 295.849 244.655 295.446 244.028C295.316 243.825 295.319 243.822 295.753 243.77C296.92 243.629 298.618 242.884 299.662 242.056C300 241.788 300.291 241.566 300.309 241.563C300.327 241.561 300.585 241.791 300.883 242.075ZM305.357 242.761C306.603 243.188 309.359 244.73 309.359 245C309.359 245.128 308.827 246.59 308.397 247.646C307.689 249.383 306.219 251.897 305.018 253.426C304.169 254.507 303.211 255.53 303.048 255.53C302.847 255.53 302.676 255.327 302.395 254.756C302.078 254.11 301.782 253.889 301.304 253.944C301.097 253.967 300.854 254.054 300.764 254.137C300.675 254.22 300.452 254.698 300.27 255.2C299.288 257.909 297.633 259.91 295.294 261.218L294.699 261.55L294.891 261.071C296.357 257.398 296.824 254.48 296.55 250.703C296.462 249.484 296.461 249.142 296.548 249.036C296.639 248.924 297.021 248.903 298.924 248.903C301.587 248.903 301.866 248.841 302.656 248.078C303.444 247.318 303.512 247.06 303.566 244.622C303.601 243.053 303.641 242.518 303.726 242.464C303.885 242.364 304.551 242.485 305.357 242.761ZM310.616 245.828C312.6 247.361 312.665 247.462 312.292 248.427C311.931 249.359 311.019 251.23 310.272 252.575C307.489 257.578 303.505 261.96 300.168 263.687C299.793 263.881 299.151 264.15 298.741 264.284C298.076 264.502 297.86 264.529 296.766 264.53C295.555 264.532 295.53 264.528 294.95 264.238C294.396 263.962 294.002 263.577 294.002 263.312C294.002 263.247 294.065 263.026 294.142 262.821C294.267 262.487 294.343 262.42 294.851 262.2C296.047 261.681 297.759 260.42 298.566 259.464C299.624 258.209 300.151 257.325 300.759 255.781C301.33 254.331 301.42 254.287 301.885 255.23C302.308 256.089 302.812 256.384 303.415 256.127C303.757 255.981 304.973 254.631 305.951 253.31C307.38 251.379 308.636 249.018 309.534 246.574C309.933 245.489 309.966 245.41 310.021 245.41C310.05 245.41 310.318 245.598 310.616 245.828ZM91.031 252.847C91.5861 253.157 92.0513 253.419 92.0648 253.429C92.0785 253.438 91.7737 253.905 91.3876 254.466C91.0016 255.027 90.4583 255.934 90.1803 256.483L89.6749 257.48L89.2135 257.179C88.9597 257.013 88.5958 256.777 88.4048 256.654L88.0576 256.43L88.2215 255.913C88.3117 255.629 88.5854 254.725 88.8298 253.904C89.0741 253.084 89.3142 252.305 89.3632 252.173L89.4524 251.934L89.7371 252.108C89.8938 252.204 90.476 252.537 91.031 252.847ZM111.868 255.427C112.677 256.725 113.305 257.817 113.263 257.853C113.222 257.89 112.557 258.094 111.784 258.306C111.012 258.518 110.124 258.764 109.81 258.851C105.699 259.993 104.662 260.276 104.581 260.277C104.528 260.277 104.435 260.046 104.374 259.762C104.215 259.021 103.718 257.695 103.181 256.578L102.717 255.61L102.951 255.515C103.079 255.464 103.56 255.289 104.018 255.128C104.477 254.967 105.563 254.572 106.432 254.25C110.247 252.838 110.201 252.854 110.301 252.963C110.354 253.02 111.059 254.129 111.868 255.427ZM98.0911 255.754C98.8535 256.025 99.4991 256.247 99.5255 256.247C99.552 256.247 99.4784 256.35 99.362 256.477L99.1504 256.707L98.986 256.499C98.6973 256.135 98.3813 255.98 97.9289 255.979C97.573 255.978 92.9836 256.752 92.292 256.93C92.1776 256.959 92.0841 256.958 92.0841 256.927C92.0841 256.832 93.1711 255.739 93.3726 255.632C93.7529 255.43 94.2036 255.512 94.786 255.89C95.5121 256.36 95.6272 256.351 95.8972 255.808C96.2397 255.117 96.2948 255.116 98.0911 255.754ZM98.3055 256.762C98.4078 256.848 98.5421 257.1 98.604 257.322C98.7446 257.826 98.8977 257.86 99.6533 257.551C100.297 257.288 100.734 257.26 101.018 257.463C101.126 257.54 101.51 258.029 101.871 258.549C102.446 259.378 102.527 259.542 102.527 259.886C102.527 260.249 102.479 260.332 101.912 260.955C101.574 261.327 101.298 261.674 101.298 261.725C101.298 261.777 101.397 261.939 101.517 262.085C101.831 262.465 101.806 262.811 101.445 263.105C100.979 263.485 98.2316 265.07 96.5594 265.924C93.3373 267.57 90.834 268.531 88.3628 269.072C87.0904 269.35 84.8856 269.35 83.8792 269.071C80.9258 268.255 79.1084 265.948 79.4543 263.454C79.6118 262.32 80.3892 261.229 81.4508 260.651C83.5373 259.516 88.6793 258.222 96.7788 256.795C98.018 256.576 98.0834 256.575 98.3055 256.762ZM146.006 258.366C145.697 258.682 145.905 258.866 148.465 260.534C151.981 262.824 155.186 264.491 159.215 266.122C166.066 268.896 173.209 270.52 181.635 271.222C183.738 271.397 191.214 271.373 193.031 271.185C193.796 271.106 194.461 271.002 194.508 270.954C194.555 270.906 194.58 270.771 194.564 270.655C194.537 270.461 194.493 270.443 194.052 270.444C193.787 270.445 192.78 270.504 191.815 270.575C188.274 270.837 182.707 270.686 178.585 270.217C166.79 268.872 156.407 265.179 147.763 259.254C146.218 258.195 146.189 258.18 146.006 258.366ZM269.302 259.27C269.378 260.046 269.662 261.585 269.87 262.356L270.033 262.957L269.184 263.692C268.221 264.525 267.805 264.751 267.233 264.754C266.483 264.757 266.049 264.44 264.868 263.025C263.918 261.887 263.813 261.727 263.855 261.487C263.976 260.798 264.073 259.82 264.076 259.27L264.078 258.665H266.66H269.242L269.302 259.27ZM158.793 259.131C158.443 259.488 158.747 259.682 161.013 260.546C168.246 263.305 176.806 265.18 185.321 265.87C188.712 266.145 190.894 266.212 194.754 266.16C201.882 266.064 207.728 265.395 214.498 263.9C217.054 263.336 218.026 263.079 218.109 262.946C218.218 262.771 218.199 262.641 218.047 262.512C217.933 262.415 217.613 262.467 216.138 262.819C213.894 263.354 213.88 263.357 212.568 263.624C202.954 265.576 192.599 266.028 182.612 264.929C174.849 264.075 166.535 262.074 160.479 259.601C159.701 259.283 159.027 259.023 158.982 259.023C158.936 259.023 158.851 259.072 158.793 259.131ZM91.8769 259.427C91.7595 259.547 91.7672 259.643 91.9466 260.3C92.6206 262.769 93.1675 264.636 93.2448 264.733C93.2939 264.795 93.4068 264.845 93.4957 264.845C93.8709 264.845 93.8373 264.594 93.1195 262.024C92.7341 260.645 92.3782 259.466 92.3285 259.404C92.2075 259.254 92.0376 259.263 91.8769 259.427ZM109.664 260.464C111.724 261.516 112.641 262.18 113.156 262.994C113.596 263.687 113.759 264.264 113.757 265.108C113.751 267.176 112.116 269.049 109.753 269.693C108.937 269.916 107.132 269.959 106.214 269.778C104.761 269.492 102.604 268.6 100.734 267.512C99.4021 266.737 98.1988 265.913 98.281 265.831C98.3236 265.789 98.8322 265.486 99.4114 265.157C100.846 264.342 101.734 263.783 102.02 263.516C102.325 263.232 102.469 262.786 102.397 262.352L102.341 262.012L103.465 261.701C104.458 261.428 104.587 261.37 104.571 261.209C104.555 261.047 104.701 260.984 105.887 260.649C106.621 260.441 107.478 260.197 107.792 260.105C108.105 260.014 108.415 259.935 108.48 259.929C108.544 259.924 109.077 260.164 109.664 260.464ZM82.4516 260.658C82.0542 261.158 81.8649 263.121 82.1167 264.13C82.5137 265.721 83.6356 267.242 85.1481 268.239C85.7774 268.654 85.7909 268.658 85.9753 268.47C86.1773 268.264 86.0451 268.038 85.5027 267.661C83.1121 266.002 82.123 263.616 82.8778 261.329C83.0133 260.918 83.0299 260.769 82.9508 260.672C82.8241 260.516 82.5701 260.509 82.4516 260.658ZM263.091 261.961C263.176 262.049 263.755 262.735 264.379 263.485C265.392 264.704 265.573 264.88 266.08 265.134C266.545 265.368 266.752 265.419 267.228 265.419C268.074 265.418 268.558 265.152 269.957 263.918C270.607 263.344 271.205 262.875 271.284 262.875C271.715 262.875 272.696 265.735 272.901 267.595L272.959 268.114L271.566 268.63C268.892 269.621 266.684 270.044 264.061 270.07C262.898 270.081 262.48 270.056 262.395 269.97C262.304 269.876 262.326 269.731 262.517 269.191C262.785 268.429 262.742 268.015 262.369 267.765C262.046 267.549 261.746 267.587 260.664 267.981C260.122 268.178 259.296 268.404 258.829 268.483C257.329 268.735 255.281 268.522 254.044 267.986L253.693 267.834L254.52 267.543C257.106 266.631 259.379 265.157 261.529 262.998C262.183 262.342 262.768 261.804 262.828 261.803C262.888 261.801 263.007 261.872 263.091 261.961ZM253.419 268.458C255.948 269.54 258.618 269.555 261.21 268.503C262.098 268.142 262.163 268.2 261.849 269.065C261.576 269.818 261.601 270.079 261.982 270.453L262.247 270.712L263.695 270.74C265.792 270.782 267.885 270.5 269.959 269.898C270.681 269.689 271.188 269.51 272.431 269.027L273.018 268.798L273.064 269.039C273.089 269.171 273.135 269.623 273.166 270.044C273.231 270.924 273.116 271.325 272.659 271.807C272.296 272.189 271.001 272.612 268.629 273.125C266.213 273.647 265.123 273.753 262.148 273.752C259.694 273.751 259.258 273.729 258.265 273.553C256.902 273.312 256.177 273.111 255.268 272.725C253.48 271.965 252.072 270.508 251.906 269.245C251.835 268.706 251.932 268.445 252.256 268.3C252.648 268.125 252.637 268.124 253.419 268.458Z" fill="#181818"/>
</svg>
