<svg width="360" height="280" viewBox="0 0 360 280" fill="none" xmlns="http://www.w3.org/2000/svg">
<path fill-rule="evenodd" clip-rule="evenodd" d="M80.8467 9.08203C74.6727 9.49154 68.354 11.5797 62.9305 15.0029C53.5165 20.9449 47.0532 30.7923 45.4283 41.669C44.4013 48.5434 45.2243 55.3806 47.8634 61.9004C48.4915 63.452 49.968 66.2983 50.899 67.7518C54.824 73.8804 60.2296 78.7175 66.6693 81.8636C71.0294 83.9938 75.7334 85.2837 80.5766 85.6773C81.9844 85.7917 85.4319 85.7913 86.8953 85.6765C94.3522 85.0915 101.63 82.2708 107.564 77.6657C109.134 76.4474 111.019 74.7125 112.383 73.2293C113.446 72.0737 115.442 69.6089 116.069 68.6769C116.74 67.6805 118.254 64.9294 118.882 63.5656C120.923 59.1327 122.059 54.7568 122.385 50.0699C123.166 38.8305 119.04 28.0158 110.961 20.1274C110.043 19.2309 108.927 18.2009 108.481 17.8387C102.791 13.2118 96.1398 10.3018 89.0513 9.33781C86.6568 9.0121 83.4217 8.91128 80.8467 9.08203ZM208.128 9.4245C207.009 9.53427 205.323 9.85366 204.576 10.0977C201.238 11.1873 198.557 14.2165 197.674 17.8967C197.423 18.9447 197.445 21.0495 197.717 22.0645C197.982 23.0528 198.846 24.7271 199.595 25.7059C200.547 26.9493 202.985 29.2561 204.419 30.2697L204.668 30.4464L204.446 31.3665C203.872 33.7478 203.814 34.1897 203.81 36.2352C203.807 38.0287 203.822 38.2089 204.017 38.7764C204.615 40.5169 205.628 41.2316 207.765 41.4203C208.415 41.4778 208.424 41.482 208.473 41.7524C208.501 41.9031 208.751 43.0529 209.029 44.3077C209.846 48.0009 209.973 48.5926 209.973 48.7126C209.973 48.7783 209.868 48.8267 209.726 48.8269C209.589 48.8271 208.925 48.9237 208.25 49.0414C201.605 50.2004 195.886 53.193 192.48 57.2939C192.079 57.7764 190.923 59.1782 189.911 60.4088C185.299 66.0188 183.06 68.1399 180.379 69.4409C178.972 70.1232 177.479 70.3766 176.172 70.1547C174.43 69.8589 172.816 68.6141 171.804 66.7855C171.518 66.2694 171.386 66.1122 171.239 66.1122C171.122 66.1122 170.806 66.3442 170.433 66.7044C170.041 67.084 169.797 67.2606 169.756 67.1962C169.72 67.141 168.517 65.295 167.082 63.0942C164.868 59.6994 164.441 59.0926 164.264 59.0926C164.116 59.0926 163.746 59.4022 162.985 60.1644C162.396 60.754 161.895 61.2179 161.873 61.1954C161.851 61.1729 161.549 60.4241 161.203 59.5313C158.35 52.1745 155.556 46.1586 153.886 43.7724C153.505 43.2283 145.584 35.7188 145.352 35.6821C144.979 35.6229 144.425 36.5837 144.3 37.5075C144.19 38.3281 144.754 39.9728 145.519 41.0559C145.669 41.2692 145.792 41.4602 145.792 41.4803C145.792 41.5005 145.013 41.5646 144.06 41.6229C141.392 41.7859 140.957 41.6466 139.037 40.0125C137.103 38.3663 135.852 37.5045 134.631 36.9774C134.219 36.7998 133.99 36.7635 133.274 36.7626C132.442 36.7617 132.385 36.7745 131.653 37.1286C130.841 37.5218 130.49 37.7844 130.49 37.9997C130.49 38.1263 134.483 43.3551 135.313 44.3143C137.044 46.3162 139.103 47.6637 141.658 48.4661C142.274 48.6592 143.708 49.0782 144.846 49.397C145.984 49.716 147.156 50.0963 147.45 50.2422C148.894 50.9572 149.979 52.1948 150.519 53.7422C150.686 54.2217 150.819 54.9987 151.015 56.6355C151.162 57.8663 151.322 59.1891 151.371 59.5752C151.419 59.9613 151.541 60.978 151.641 61.8346C151.869 63.7824 152.116 65.8631 152.412 68.3444L152.643 70.2694L146.652 76.1112C143.357 79.3243 140.662 81.9957 140.662 82.0478C140.662 82.161 141.271 82.724 143.407 84.5863C143.853 84.9745 145.001 85.9784 145.959 86.8173L147.7 88.3424L145.936 90.0014C144.707 91.157 144.172 91.7182 144.173 91.8505C144.173 91.9673 144.286 92.1132 144.465 92.2287C148.896 95.0841 152.238 96.8941 156.144 98.5524C160.879 100.563 164.962 101.674 169.646 102.229C171.483 102.446 175.236 102.446 177.028 102.229C182.752 101.534 187.97 99.4216 192.42 95.9965L193.275 95.3383L193.347 96.3218C193.386 96.8627 193.396 98.9439 193.369 100.947C193.186 114.636 193.199 116.176 193.55 121.107C193.814 124.827 194.299 128.048 194.771 129.223C195.272 130.472 196.477 131.736 197.733 132.332C198.397 132.646 198.705 132.742 199.676 132.933C199.863 132.97 199.865 133.002 199.919 136.591C200.013 142.905 200.466 146.982 201.377 149.72C201.667 150.592 201.681 150.687 201.598 151.223C201.549 151.537 201.346 152.959 201.148 154.383C200.949 155.807 200.727 157.386 200.654 157.893C200.454 159.274 200.161 161.393 200.161 161.459C200.161 161.49 188.678 161.496 174.643 161.471C154.971 161.436 149.091 161.45 148.978 161.531C148.781 161.67 148.891 162.003 149.152 162.056C149.562 162.14 272.611 162.258 273.088 162.175C274.175 161.986 275.566 161.071 276.214 160.118C276.747 159.333 276.813 159.014 277.436 154.2C277.763 151.671 278.132 148.831 278.256 147.89C278.38 146.949 278.724 144.303 279.022 142.011C279.319 139.719 279.643 137.231 279.741 136.483C279.839 135.735 279.956 134.827 280.002 134.465C280.048 134.103 280.29 132.237 280.54 130.319C280.989 126.874 281.562 122.472 282.261 117.092C282.458 115.571 282.763 113.229 282.938 111.886C283.272 109.322 283.269 109.195 282.872 109.195C282.777 109.195 282.667 109.282 282.626 109.392C282.584 109.501 282.402 110.754 282.221 112.178C282.04 113.602 281.81 115.378 281.71 116.126C281.54 117.407 281.026 121.361 280.005 129.244C279.244 135.117 278.662 139.592 278.333 142.099C277.986 144.741 277.491 148.567 276.724 154.515C276.451 156.638 276.182 158.533 276.127 158.726C275.848 159.706 274.884 160.76 273.822 161.251L273.209 161.534L266.183 161.558L259.157 161.582L258.996 160.242C258.021 152.09 256.776 144.733 255.468 139.387C255.297 138.692 255.174 138.108 255.193 138.089C255.297 137.988 257.914 141.737 259.144 143.748C259.89 144.968 259.986 145.088 260.196 145.064C260.358 145.046 260.435 144.978 260.456 144.836C260.494 144.573 259.863 141.579 259.287 139.291C258.22 135.053 257.209 131.866 255.981 128.868C255.793 128.411 255.793 128.406 255.971 128.498C256.095 128.563 256.204 128.564 256.323 128.503C256.801 128.253 256.664 123.646 256.095 120.865C255.725 119.055 254.56 115.226 253.962 113.852L253.831 113.551L254.518 112.643L255.206 111.735L257.096 111.788C260.832 111.891 264.868 111.573 269.035 110.846L269.633 110.742L270.262 111.161C270.61 111.393 270.967 111.567 271.06 111.55C271.168 111.531 271.347 111.279 271.557 110.851C271.865 110.226 271.909 110.178 272.229 110.12C272.813 110.013 275.945 108.978 277.034 108.532C284.256 105.574 288.393 100.954 289.001 95.1682C289.169 93.5624 289.092 91.3872 288.783 89.0573C288.313 85.5137 288.215 82.6369 288.503 80.8093C288.861 78.5344 289.594 76.5604 290.833 74.5356C292.058 72.5348 293.403 71.1258 295.846 69.2846C298.477 67.3021 299.431 65.9652 300.008 63.4474C300.183 62.6859 300.212 62.3132 300.209 60.8475C300.205 59.0458 300.117 58.3601 299.667 56.6187C299.122 54.5082 297.915 51.8833 296.59 49.9233C294.417 46.7074 291.585 44.1739 288.601 42.7752C286.561 41.8187 284.781 41.4226 282.525 41.4225C280.673 41.4224 279.003 41.6719 276.134 42.3773C270.738 43.7039 267.965 43.4809 264.837 41.469C264.011 40.9374 262.511 39.4731 261.963 38.6627C261.263 37.6281 260.63 36.3654 259.799 34.3487C258.292 30.69 257.332 29.4408 255.312 28.508C254.242 28.0137 253.397 27.8391 252.055 27.8349C250.113 27.8288 248.865 28.1894 244.965 29.8835C241.336 31.4601 240.196 31.7615 238.117 31.6944C237.038 31.6595 236.741 31.6178 236.176 31.4222C234.727 30.9201 233.566 30.1358 231.932 28.5576C229.836 26.5318 227.774 23.876 225.973 20.88C224.827 18.9733 223.803 17.4241 222.957 16.3176C222.05 15.1314 220.403 13.4113 219.444 12.6491C217.486 11.0923 215.382 10.1121 212.989 9.64062C211.783 9.40318 209.418 9.29806 208.128 9.4245ZM140.482 9.48943C139.268 9.69028 138.032 10.5433 137.509 11.5405C137.304 11.93 137.096 12.7316 137.02 13.4217C136.96 13.9612 136.627 16.6859 136.383 18.6425C136.263 19.5989 135.924 22.3359 135.384 26.7044C135.199 28.2035 135.267 28.8017 135.722 29.6751C136.073 30.3506 136.835 31.0694 137.575 31.4231L138.096 31.6725L158.584 31.6952L179.073 31.7179L179.934 33.2746C180.408 34.1308 181.484 36.0751 182.325 37.5953C183.544 39.7983 183.895 40.3652 184.052 40.3886C184.434 40.4454 184.386 40.6961 184.995 35.5333C185.218 33.6511 185.42 32.0249 185.445 31.9194C185.488 31.7327 185.53 31.727 187.042 31.7001C188.576 31.6729 188.602 31.6692 189.204 31.3909C189.98 31.0328 190.715 30.3277 191.065 29.6058C191.341 29.0378 191.399 28.75 191.695 26.4956C191.797 25.7234 192.084 23.5518 192.334 21.6697C193.491 12.9484 193.442 13.3883 193.329 12.7197C193.091 11.3004 192.124 10.1829 190.665 9.64053C190.226 9.4775 189.582 9.47294 165.461 9.46267C151.846 9.45688 140.605 9.4689 140.482 9.48943ZM85.8425 9.69528C90.675 9.96483 95.9686 11.2802 99.81 13.1659C100.515 13.512 100.517 13.5172 100.279 14.5451C100.016 15.678 99.458 16.5009 98.6696 16.917C98.3573 17.0818 98.1662 17.107 97.2294 17.107C96.2751 17.107 96.0615 17.0776 95.3968 16.8553C94.258 16.4743 93.6636 16.5987 93.1571 17.324C92.851 17.7625 92.7638 18.1497 92.7121 19.3006C92.6266 21.1998 93.0453 23.2691 93.5955 23.6668C93.8965 23.8844 94.12 23.8196 94.6211 23.3694C94.9951 23.0333 95.2154 22.7236 96.0784 21.3199C96.5477 20.5568 96.8059 20.3832 97.2471 20.5344C97.3807 20.5802 97.5731 20.7557 97.6747 20.9243C97.8404 21.1993 97.8588 21.3713 97.8537 22.591C97.849 23.715 97.8197 24.0084 97.6851 24.2818C97.3414 24.9798 96.8063 25.1528 94.945 25.168C93.3251 25.1812 92.9064 25.3013 92.4508 25.8835C92.2065 26.1957 92.1894 26.2759 92.1326 27.3636C92.0538 28.8779 91.8402 29.4572 91.0634 30.2635C90.4579 30.892 90.2333 31.3687 90.1821 32.134C90.1506 32.6044 90.1797 32.8738 90.2934 33.1641C90.8392 34.5572 92.1851 33.9586 94.0933 31.4739C95.0967 30.1675 95.8432 29.4011 96.3416 29.1659C96.6757 29.0083 96.8569 28.9813 97.3495 29.0156C97.8759 29.0524 98.1095 29.137 99.2409 29.7006C100.418 30.2871 100.581 30.3443 101.086 30.3499C102.147 30.3615 102.634 29.8059 102.898 28.285C103.087 27.1973 103.18 26.9782 103.455 26.9782C104.295 26.9782 105.736 28.5706 105.735 29.4983C105.735 29.9085 105.47 30.3491 104.983 30.7509C104.201 31.3952 103.587 32.0346 103.528 32.2664C103.355 32.9381 103.838 33.7018 104.683 34.0914C104.99 34.2329 105.288 34.3486 105.347 34.3486C105.405 34.3487 105.598 34.4817 105.774 34.6442C106.206 35.0411 106.201 35.3198 105.754 35.7553C105.291 36.2064 104.6 36.4015 103.653 36.3481C103.034 36.3131 102.847 36.2577 102.077 35.8801C101.066 35.3842 100.575 35.3328 99.8848 35.6501C99.662 35.7526 99.3887 35.8374 99.2775 35.8384C98.9816 35.8412 98.4246 35.3073 98.0047 34.6184C97.5796 33.921 97.1816 33.559 96.8399 33.5591C96.4605 33.5592 95.5897 34.0055 94.717 34.6473C93.5028 35.5402 93.2609 35.6906 92.1021 36.2736C90.2975 37.1814 89.4405 37.8823 89.1131 38.7179C88.9629 39.1011 88.9656 39.1539 89.2034 40.5693C89.4874 42.2598 89.4912 42.3813 89.2975 43.5733C89.1052 44.7573 89.1602 46.2984 89.4199 46.9986C90.1103 48.8602 91.5826 49.4324 94.6 49.012C96.1624 48.7943 96.7374 48.7837 97.5772 48.9572C98.359 49.1186 98.9207 49.4382 99.2342 49.8996L99.4797 50.2611L99.5365 52.7684C99.5679 54.1474 99.6419 55.5126 99.7012 55.8022C99.7673 56.1254 99.9639 56.5829 100.21 56.9867C100.768 57.902 100.92 58.4351 100.914 59.4436C100.907 60.4469 100.716 61.0511 100.046 62.1855C99.1446 63.7113 98.836 65.0657 98.9237 67.1113C99.0097 69.1155 99.4278 70.2808 100.122 70.4506C100.679 70.5869 101.651 69.7635 103.369 67.7019C103.997 66.9482 105.086 65.7787 105.788 65.1031C107.168 63.7767 107.594 63.2117 108.389 61.6569C109.576 59.3361 110.252 57.0629 110.261 55.3635C110.264 54.6855 110.228 54.4869 110.003 53.9596C109.45 52.661 109.667 51.9027 111.136 50.0111C112.103 48.7641 112.307 48.2598 112.307 47.1075C112.307 46.3899 112.296 46.3518 111.839 45.5155C111.385 44.6835 111.371 44.6383 111.376 43.9567C111.384 42.9675 111.708 42.1715 112.627 40.8857C113.091 40.237 113.24 39.8048 113.187 39.2652C113.123 38.616 112.789 38.0534 112.021 37.2995C111.287 36.5797 111.179 36.3752 111.519 36.3545C112.914 36.2701 114.158 37.1313 114.975 38.7473C115.466 39.719 115.749 40.6203 116.131 42.424C116.655 44.9066 117.097 46.2802 117.488 46.6375C117.78 46.9049 117.88 46.8469 118.492 46.0553L118.962 45.4484L118.943 44.0883C118.921 42.5746 118.932 42.532 119.607 41.6698C119.981 41.1905 120.621 39.9219 120.721 39.4608C120.755 39.3045 120.812 39.1588 120.848 39.1369C120.916 39.0959 121.211 40.5807 121.439 42.1141C121.692 43.819 121.791 45.2965 121.79 47.3787C121.79 51.8254 121.176 55.4786 119.716 59.7261C119.213 61.1916 119.212 61.1932 118.888 61.2926C117.82 61.6197 116.035 63.0943 115.598 64.0103C115.472 64.2736 115.368 64.6271 115.366 64.796C115.361 65.224 115.02 66.1578 114.646 66.7621C114.192 67.498 113.379 68.2655 112.342 68.9396C110.422 70.1871 110.089 70.9103 110.311 73.3511L110.399 74.3163L109.665 75.0032C104.761 79.5947 98.4539 82.8666 91.7385 84.3037C79.3166 86.962 66.3922 83.2797 57.2622 74.4813C51.1722 68.6124 47.2651 61.0402 46.0623 52.775C45.5512 49.2624 45.5648 45.2637 46.0998 41.7537C47.0688 35.3976 49.5679 29.5923 53.5747 24.3897C54.325 23.4156 55.8161 21.6903 55.9465 21.6454C56.0848 21.5977 55.8334 23.1489 55.5798 23.9071C55.475 24.2208 55.0511 25.1128 54.6379 25.8893C53.0785 28.8199 52.6176 30.7458 52.4766 34.9218C52.4296 36.3119 52.4458 36.7088 52.5732 37.2909C53.1005 39.6989 54.9026 43.2397 56.9705 45.931C57.7155 46.9006 58.5986 47.8262 58.946 48.0017C59.765 48.4155 60.2458 47.7267 60.3422 46.0019C60.4255 44.5121 60.0785 42.934 59.2366 40.9734C58.641 39.5863 58.4977 39.16 58.4027 38.4918C58.2523 37.4335 58.4845 36.67 59.023 36.4526C59.4194 36.2925 59.7939 36.4082 60.2922 36.8449C60.9402 37.4129 61.6302 37.7163 62.3663 37.7568C62.9388 37.7884 62.9873 37.7757 63.2384 37.5311C63.57 37.2078 63.6669 36.8556 63.7806 35.5586C63.8301 34.9935 63.9308 34.4176 64.0043 34.279C64.0779 34.1404 64.4544 33.8144 64.841 33.5544C65.7859 32.9192 66.2921 32.4079 66.704 31.6725C66.8932 31.3347 67.1881 30.8907 67.3593 30.686C67.9434 29.9872 69.3022 29.1832 71.3419 28.3294C71.9067 28.093 72.4773 27.8008 72.6098 27.6801C72.8385 27.4718 72.8534 27.4059 72.908 26.364C72.9716 25.1502 73.0682 24.764 73.6615 23.352C73.8842 22.8219 74.0881 22.184 74.1144 21.9345C74.159 21.5136 74.1405 21.4564 73.8598 21.1447C73.2988 20.522 72.5702 20.3498 71.6379 20.6197C71.3791 20.6946 70.6911 21.0671 70.0863 21.4598C68.2843 22.6297 67.8616 22.7405 67.3359 22.1809C66.9408 21.7604 66.8156 21.3685 66.8745 20.7357C66.9615 19.8001 67.6489 18.6966 68.5002 18.1258C69.0779 17.7383 69.6709 17.5845 70.898 17.5042C72.2032 17.4186 72.8775 17.215 73.3019 16.7781C74.0832 15.9738 73.7781 15.0118 72.5672 14.4622C71.8445 14.1341 71.5552 14.1792 70.1799 14.8338C67.2558 16.2256 65.8964 16.6969 64.2398 16.8925C63.2408 17.0105 61.5088 16.9307 61.5639 16.7691C61.6115 16.6298 63.869 15.1658 65.0841 14.4863C71.4171 10.9448 78.5852 9.29034 85.8425 9.69528ZM190.473 10.3027C191.834 10.7591 192.691 11.9277 192.69 13.326C192.69 13.6199 192.448 15.6767 192.154 17.8967C191.859 20.1166 191.494 22.8805 191.343 24.0388C190.765 28.4748 190.723 28.7325 190.496 29.2169C190.196 29.8547 189.61 30.4497 188.958 30.7776C188.419 31.0488 188.401 31.0513 186.689 31.0985C185.74 31.1246 184.936 31.1728 184.903 31.2055C184.869 31.2382 184.785 31.712 184.716 32.2585C184.435 34.4751 184.031 37.8481 183.984 38.363C183.957 38.6647 183.909 38.9107 183.879 38.9099C183.849 38.9091 183.665 38.6228 183.472 38.2738C183.279 37.9247 182.333 36.2177 181.371 34.4803C180.409 32.743 179.58 31.2725 179.529 31.2126C179.457 31.1266 175.123 31.0989 158.902 31.081L138.366 31.0583L137.853 30.824C136.881 30.3796 136.159 29.4308 135.987 28.371C135.932 28.0348 135.981 27.3644 136.17 25.8444C136.311 24.7066 136.487 23.282 136.56 22.6787C136.634 22.0755 136.777 20.9107 136.879 20.0903C137.209 17.4284 137.32 16.5245 137.558 14.5726C137.702 13.392 137.861 12.4743 137.97 12.1899C138.301 11.3274 139.042 10.6271 139.958 10.3098C140.423 10.149 141.164 10.1439 165.199 10.1377C189.541 10.1314 189.97 10.1342 190.473 10.3027ZM76.3738 11.094C75.1379 11.2473 74.204 11.6227 73.75 12.1486C73.5508 12.3794 73.5329 12.4491 73.6143 12.677C73.7834 13.1497 74.145 13.3128 75.1535 13.3711C76.0387 13.4222 76.0553 13.4272 76.3068 13.7208C76.6795 14.1561 76.751 14.657 76.751 16.8361C76.751 17.913 76.7923 19.0062 76.8427 19.2655C77.0196 20.1745 77.7245 21.169 78.3302 21.3638C78.9749 21.5712 79.4004 21.1213 79.7993 19.8103C80.2179 18.4345 80.2461 18.3958 81.2517 17.8104C82.793 16.9131 84.198 15.6877 84.5756 14.9114C84.9338 14.1749 84.8263 13.2491 84.3081 12.607C83.9833 12.2045 83.3121 11.803 82.5946 11.582C81.3687 11.2046 77.7631 10.9217 76.3738 11.094ZM111.31 14.3065C111.225 14.4073 111.218 14.4856 111.287 14.5917C111.374 14.7265 112.191 14.7396 121.813 14.7605C131.41 14.7813 132.254 14.7716 132.354 14.6387C132.43 14.5382 132.436 14.4446 132.374 14.3309C132.287 14.173 131.934 14.1675 121.856 14.1675C112.452 14.1675 111.417 14.1811 111.31 14.3065ZM225.81 14.3057C225.724 14.4072 225.717 14.4855 225.786 14.5917C225.874 14.7275 228.096 14.7409 257.151 14.7817L288.421 14.8256L289.132 15.0707C291.408 15.855 293.177 17.7046 293.773 19.9211C293.974 20.6702 294.011 21.7208 293.869 22.6787C293.822 22.9924 293.541 25.1246 293.244 27.4169C292.946 29.7092 292.476 33.3221 292.198 35.4455C291.53 40.5614 291.566 40.1653 291.749 40.3129C291.942 40.4691 292.168 40.3472 292.252 40.0415C292.285 39.9223 292.468 38.6125 292.659 37.1306L293.007 34.4365L296.385 34.4378C300.15 34.4392 300.447 34.4722 301.563 35.0118C303.318 35.8605 304.616 37.2936 305.264 39.0982C305.545 39.8789 305.634 41.0644 305.494 42.158C305.442 42.5682 305.155 44.7793 304.857 47.0716C304.558 49.364 304.129 52.661 303.903 54.3983C303.677 56.1356 303.33 58.8009 303.132 60.321C302.934 61.8412 302.572 64.6249 302.328 66.507C301.35 74.0469 300.981 76.8858 299.808 85.8985C299.607 87.4428 299.22 90.4239 298.948 92.5232C298.676 94.6225 298.351 97.11 298.226 98.0511C298.101 98.9921 297.962 100.058 297.918 100.42C297.874 100.782 297.651 102.5 297.424 104.237C297.196 105.974 296.81 108.936 296.567 110.818C295.558 118.61 295.109 122.069 294.857 123.98C294.711 125.09 294.366 127.735 294.092 129.858C293.817 131.982 293.453 134.785 293.282 136.088C293.112 137.391 292.767 140.037 292.516 141.967C292.266 143.897 291.838 147.194 291.565 149.294C291.292 151.393 290.87 154.651 290.626 156.533C289.859 162.448 289.187 167.614 288.958 169.343C288.837 170.26 288.53 172.629 288.276 174.608C287.98 176.91 287.753 178.364 287.645 178.644C287.29 179.571 286.242 180.559 285.165 180.983L284.64 181.189L265.467 181.173C254.922 181.164 227.959 181.129 205.549 181.096L164.803 181.035L163.857 179.489C162.218 176.81 160.28 174.092 158.74 172.314C154.465 167.376 145.719 163.259 133.239 160.308C130.631 159.691 126.576 158.901 124.395 158.585L123.655 158.478L123.608 158.119C123.452 156.938 123.211 149.256 123.318 148.842C123.403 148.512 123.733 148.416 124.783 148.416C127.403 148.416 129.494 147.646 131.073 146.098C132.704 144.5 133.668 142.205 134.041 139.028C134.217 137.528 134.219 134.541 134.045 132.666C133.973 131.894 133.913 131.229 133.912 131.189C133.911 131.149 134.346 130.684 134.878 130.155C136.065 128.976 136.275 128.605 136.223 127.783C136.183 127.148 136.109 126.998 135.289 125.878L134.816 125.232L135.071 124.869C136.377 123.01 136.527 120.05 135.489 116.609C135.042 115.124 134.381 113.511 134.178 113.405C134.044 113.335 133.748 113.443 132.735 113.932C132.035 114.27 131.451 114.547 131.438 114.547C131.425 114.547 131.39 114.339 131.359 114.086C131.201 112.771 130.068 110.037 128.579 107.378L128.078 106.482L128.586 106.111C129.937 105.127 130.857 104.167 131.792 102.764C133.645 99.9841 134.668 96.0052 134.363 92.7645C134.087 89.8463 133.053 87.6348 131.438 86.5116C129.396 85.0914 126.312 84.7519 122.771 85.5574C120.658 86.0379 117.573 87.1792 114.188 88.7321C113.772 88.9229 112.776 89.3794 111.973 89.7466C109.403 90.9231 107.681 91.3164 102.315 91.9525C95.4772 92.7632 92.3923 93.5164 88.8439 95.2417L87.4794 95.905L87.1786 95.7028C86.4667 95.2243 86.8543 95.2385 75.2152 95.2638L64.4639 95.2871L63.9943 95.5284C63.3977 95.835 62.9552 96.2665 62.6416 96.8475C62.4224 97.2535 62.3945 97.3995 62.3945 98.1388C62.3945 98.8741 62.423 99.0252 62.6365 99.4206C62.9376 99.9779 63.6535 100.616 64.2169 100.829C64.6189 100.981 65.1343 100.992 72.999 101.014L81.354 101.039L81.0676 101.41C80.1441 102.604 78.9927 104.586 78.4562 105.904C78.299 106.29 78.157 106.621 78.1406 106.638C78.1242 106.656 77.9769 106.59 77.8134 106.493C77.0487 106.037 77.0244 106.036 70.083 106.036C63.871 106.036 63.6057 106.042 63.0419 106.212C62.2989 106.436 61.6485 106.985 61.2954 107.685C60.9534 108.364 60.9367 109.437 61.2574 110.135C61.507 110.677 62.1806 111.322 62.7791 111.592C63.2036 111.783 63.2064 111.783 70.0297 111.783H76.8556L76.8047 112.134C76.7767 112.327 76.7275 113.481 76.6952 114.699L76.6365 116.912L69.155 116.936L61.6735 116.96L61.2872 117.161C60.7332 117.449 60.2063 117.998 59.934 118.57C59.6139 119.243 59.6034 120.251 59.9096 120.926C60.188 121.54 60.9019 122.188 61.5666 122.43C62.083 122.619 62.1191 122.619 69.8214 122.619H77.5577L77.6154 122.861C77.834 123.775 78.2666 125.221 78.646 126.307C78.891 127.008 79.0914 127.61 79.0914 127.645C79.0914 127.68 74.9612 127.709 69.9133 127.709C60.8754 127.709 60.7275 127.711 60.241 127.889C59.5444 128.143 58.9244 128.715 58.6115 129.393C58.2571 130.161 58.2543 131.082 58.6039 131.779C58.898 132.364 59.4293 132.896 59.9907 133.165L60.4133 133.368L71.1562 133.412L81.8992 133.456L82.5295 134.509C83.8424 136.702 85.7663 139.389 87.4934 141.441C89.5712 143.909 92.7501 147.067 95.2941 149.189C96.2646 149.999 96.693 150.412 96.7013 150.547C96.708 150.654 96.7641 151.156 96.8259 151.663C96.9041 152.303 96.9201 153.186 96.8784 154.558C96.8246 156.331 96.6617 158.177 96.5509 158.271C96.528 158.29 95.9017 158.412 95.159 158.542C90.155 159.416 86.015 160.698 82.0462 162.601C75.8746 165.561 71.0626 169.695 67.6332 174.982C67.0135 175.937 65.491 178.852 64.9411 180.136L64.6405 180.838L63.5621 180.833C62.651 180.828 62.3998 180.796 61.9435 180.621C61.2208 180.345 60.4618 179.6 60.1949 178.905C59.8399 177.98 59.8495 177.629 60.3267 174.125C60.4614 173.136 60.5855 172.202 61.0381 168.773C61.1623 167.832 61.387 166.134 61.5375 165C61.688 163.866 61.8365 162.711 61.8676 162.434L61.9241 161.93L69.6301 161.908L77.3361 161.885V161.622V161.359L64.0589 161.299C48.6577 161.23 48.857 161.234 48.3063 160.99C47.3357 160.559 46.5809 159.555 46.4259 158.488C46.3293 157.822 46.3286 157.828 47.1361 151.794C47.2517 150.93 47.6374 148.02 47.8568 146.354C47.9586 145.582 48.1646 144.023 48.3146 142.888C48.4647 141.754 48.7254 139.78 48.8939 138.501C49.0624 137.222 49.3019 135.406 49.4261 134.465C49.5504 133.524 49.7353 132.122 49.8371 131.35C50.0834 129.481 50.4918 126.402 50.7799 124.243C50.9087 123.278 51.1327 121.58 51.2779 120.47C51.423 119.36 51.7452 116.912 51.9939 115.03C52.4095 111.884 52.5688 110.684 52.944 107.878C53.0182 107.323 53.382 104.56 53.7524 101.736C54.1229 98.9132 54.5078 95.9913 54.6077 95.2433C54.7076 94.4953 54.8493 93.4292 54.9224 92.8742C55.0556 91.863 55.2763 90.2024 55.6045 87.7411C55.7011 87.0172 55.8398 85.9709 55.9128 85.4159C55.9858 84.8609 56.1267 83.7948 56.2259 83.0468C56.3251 82.2988 56.4803 81.1264 56.571 80.4417C56.7408 79.1592 56.7164 78.9228 56.4142 78.9228C56.1782 78.9228 56.0808 79.0821 56.0116 79.5809C55.9781 79.8222 55.7503 81.5398 55.5053 83.3978C55.2602 85.2558 54.9991 87.23 54.9248 87.785C54.291 92.525 54.0873 94.0637 53.5713 98.0072C53.2998 100.082 52.9961 102.392 52.8963 103.14C52.7966 103.888 52.6546 104.954 52.581 105.509C52.5073 106.064 52.3657 107.13 52.2663 107.878C51.9837 110.004 51.7368 111.867 51.5918 112.968C51.5187 113.523 51.3768 114.589 51.2765 115.337C51.0951 116.69 49.9984 125.004 49.4824 128.937C49.3337 130.071 49.1487 131.473 49.0714 132.052C48.5687 135.818 48.3419 137.532 47.9452 140.563C47.6091 143.132 46.8199 149.115 46.6431 150.434C46.5689 150.989 46.4241 152.075 46.3215 152.847C46.219 153.62 46.0561 154.824 45.9596 155.524C45.6013 158.121 45.6316 158.767 46.1612 159.82C46.6827 160.857 47.7197 161.623 48.8896 161.833C49.2372 161.896 51.4614 161.929 55.354 161.929H61.2885L61.2357 162.214C61.2068 162.371 61.0617 163.427 60.9135 164.561C60.6485 166.588 60.5145 167.605 60.052 171.098C59.2645 177.045 59.2176 177.485 59.3037 178.118C59.4549 179.228 60.0747 180.252 60.9527 180.841C61.6418 181.304 62.3705 181.496 63.4368 181.496C63.9275 181.496 64.3289 181.515 64.3289 181.538C64.3289 181.561 64.0624 182.359 63.7367 183.312C62.2132 187.77 61.2995 192.519 61.1187 196.917C61.0865 197.701 61.0416 198.343 61.019 198.343C60.9963 198.343 60.5747 198.105 60.082 197.815C58.8596 197.096 58.2718 196.911 57.3528 196.957C55.3778 197.057 53.8872 198.596 53.8872 200.535C53.8872 201.102 54.6434 204 56.462 210.403C59.6499 221.628 64.5922 230.744 71.9717 239.012C73.4349 240.652 77.3453 244.411 79.1434 245.907C91.1337 255.881 106.059 262.432 124.535 265.831C126.623 266.215 126.844 266.217 126.844 265.856C126.844 265.611 126.523 265.503 125.044 265.25C120.026 264.392 114.267 262.956 109.156 261.288C106.368 260.378 106.069 260.271 103.264 259.174C88.424 253.371 76.3651 244.405 68.0059 232.958C63.4582 226.731 59.7936 219.308 57.5652 211.812C56.7533 209.08 54.594 201.165 54.5457 200.743C54.5084 200.417 54.5471 200.121 54.6852 199.678C55.0213 198.6 55.9351 197.832 57.1266 197.627C57.9219 197.491 58.5176 197.679 60.0332 198.547C72.2709 205.553 88.2035 209.749 105.916 210.631C109.073 210.788 115.822 210.795 119.598 210.646C123.415 210.495 123.711 210.516 124.791 211.016C125.645 211.411 126.642 212.347 127.051 213.135C127.251 213.522 127.64 214.899 128.462 218.137C130.248 225.163 130.843 227.183 132.338 231.291C135.87 240.996 141.582 251.088 148.032 259.018C150.46 262.002 155.218 267.745 155.394 267.902C155.569 268.059 155.651 268.081 155.789 268.009C155.886 267.959 155.964 267.845 155.964 267.757C155.964 267.668 155.646 267.206 155.258 266.729C154.384 265.656 154.151 265.27 152.726 262.528C149.671 256.648 147.519 250.938 146.477 245.944C145.927 243.31 145.841 242.447 145.839 239.583C145.838 237.745 145.874 236.712 145.955 236.287L146.073 235.667L145.694 234.883C145.486 234.451 144.771 232.973 144.105 231.598C141.258 225.715 140.302 223.698 140.302 223.575C140.302 223.414 140.628 223.232 140.766 223.315C140.881 223.384 141.156 223.94 144.465 230.797C145.312 232.553 146.09 234.113 146.195 234.263C146.299 234.414 146.602 234.932 146.868 235.415C147.134 235.897 147.42 236.411 147.503 236.555C147.586 236.7 148.006 237.456 148.437 238.236C149.481 240.126 150.046 240.636 151.547 241.043L152.096 241.192L152.647 242.252C152.951 242.835 153.329 243.549 153.489 243.838C153.649 244.128 154.46 245.648 155.291 247.216C156.989 250.422 157.358 251.079 158.2 252.393C162.784 259.547 169.774 264.893 178.012 267.545C180.221 268.256 182.856 268.814 185.489 269.127C187.068 269.315 191.055 269.328 197.371 269.166C199.624 269.108 204.14 269.001 207.408 268.929C210.675 268.857 216.569 268.719 220.505 268.624C224.441 268.529 229.362 268.412 231.442 268.364C233.521 268.316 236.518 268.237 238.103 268.189C239.687 268.141 242.462 268.061 244.269 268.012C248.189 267.905 249.326 267.865 252.055 267.738C254.335 267.632 254.949 267.664 255.856 267.936C256.609 268.162 256.944 268.325 258.086 269.021C260.619 270.563 263.226 271.509 265.732 271.794C266.85 271.921 269.226 271.849 270.328 271.654C272.129 271.335 273.815 270.844 275.926 270.023C277.851 269.275 278.625 268.832 280.345 267.496L281.241 266.801L282.265 267.325C282.829 267.614 283.736 268.079 284.28 268.36C286.983 269.753 286.25 269.532 293.623 271.169C297.805 272.097 297.922 272.111 297.915 271.708C297.913 271.574 297.706 271.33 296.027 269.49C290.702 263.651 290.394 263.333 289.531 262.778C289.069 262.481 287.857 261.706 286.837 261.054L284.984 259.871L284.929 259.181C284.899 258.802 284.812 258.322 284.737 258.114C284.221 256.692 282.588 255.818 279.886 255.518L279.001 255.42L278.71 254.663C277.503 251.537 274.812 249.5 271.213 248.989C270.361 248.868 270.079 248.863 269.367 248.952C268.906 249.011 268.447 249.079 268.348 249.104C268.219 249.137 267.316 248.606 265.176 247.24C255.916 241.328 254.521 240.447 254.232 240.329C254.057 240.258 253.678 240.174 253.389 240.142C252.562 240.051 252.198 239.794 251.7 238.949C251.566 238.722 251.328 238.43 251.171 238.302C250.133 237.454 238.279 230.211 237.293 229.822C236.966 229.694 236.63 229.644 236.069 229.642C235.39 229.639 235.223 229.671 234.707 229.906C233.977 230.24 233.467 230.682 233.075 231.323C231.417 234.032 230.217 236.111 230.089 236.491C229.86 237.175 229.938 238.403 230.253 239.08C230.679 239.996 231.09 240.295 235.673 243.013C238 244.392 240.511 245.83 241.253 246.207C242.658 246.92 243.204 247.202 244.613 247.938C245.369 248.333 245.529 248.382 246.233 248.44C247.187 248.518 247.493 248.664 247.945 249.258C248.138 249.51 248.372 249.782 248.465 249.86C248.558 249.939 250.153 250.785 252.01 251.741C257.136 254.379 257.762 254.711 257.776 254.806C257.803 254.981 257.348 255.201 256.514 255.417L255.662 255.637L253.048 255.509C245.107 255.119 233.684 253.961 224.871 252.653C203.243 249.443 189.087 244.973 183.216 239.502C181.886 238.262 181.783 238.097 180.424 234.976C179.751 233.432 178.474 230.509 177.586 228.481C176.699 226.453 175.945 224.709 175.911 224.606L175.85 224.418L181.322 224.376C187.099 224.332 187.222 224.324 188.977 223.884C190.049 223.615 190.738 223.361 193.41 222.252C194.722 221.707 197.72 220.464 200.071 219.489C202.423 218.514 204.894 217.488 205.562 217.209C206.231 216.929 207.993 216.198 209.478 215.584C214.939 213.328 216.071 212.842 216.704 212.481C219.943 210.637 222.061 207.56 222.479 204.09C222.541 203.576 222.575 199.544 222.575 192.534L222.575 181.767L253.563 181.819L284.55 181.872L285.232 181.64L285.914 181.408H288.88C291.478 181.408 291.919 181.388 292.44 181.248C293.797 180.881 294.947 179.865 295.35 178.679C295.422 178.467 295.602 177.346 295.75 176.187C295.898 175.029 296.124 173.292 296.252 172.327C296.38 171.361 296.705 168.874 296.974 166.799C297.242 164.724 297.586 162.078 297.737 160.92C297.889 159.762 298.256 156.938 298.554 154.646C298.851 152.354 299.175 149.866 299.274 149.118C299.372 148.37 299.49 147.462 299.535 147.1C299.581 146.738 299.842 144.724 300.116 142.625C300.389 140.526 300.778 137.545 300.979 136.001C301.18 134.456 301.484 132.127 301.654 130.824C301.824 129.521 302.145 127.053 302.367 125.34C302.59 123.626 302.937 120.961 303.138 119.417C303.339 117.873 303.704 115.069 303.948 113.187C304.193 111.305 304.477 109.133 304.579 108.361C304.681 107.589 305.007 105.082 305.304 102.789C305.6 100.497 305.963 97.7133 306.109 96.6033C306.255 95.4933 306.6 92.8479 306.875 90.7244C307.151 88.601 307.456 86.2517 307.555 85.5037C307.653 84.7556 307.771 83.8475 307.816 83.4855C307.862 83.1236 308.123 81.1099 308.397 79.0106C308.671 76.9113 309.059 73.9302 309.26 72.3859C309.462 70.8416 309.765 68.512 309.935 67.209C310.105 65.906 310.426 63.4381 310.649 61.7249C310.872 60.0117 311.218 57.3465 311.419 55.8022C311.62 54.2579 311.985 51.4545 312.23 49.5723C312.475 47.6902 312.842 44.9065 313.045 43.3864C313.537 39.7105 313.569 39.0866 313.312 38.0756C312.784 35.9951 311.237 34.3317 309.305 33.768C308.8 33.6207 308.255 33.6123 300.956 33.6379C293.94 33.6625 293.147 33.6514 293.147 33.5289C293.147 33.4053 293.697 29.1108 294.419 23.6C294.667 21.7095 294.685 21.4134 294.598 20.7045C294.364 18.8076 293.294 16.9436 291.754 15.7487C291.101 15.2425 290.098 14.7029 289.276 14.4157L288.691 14.2114L257.31 14.1888C228.7 14.168 225.918 14.1784 225.81 14.3057ZM145.88 15.8566C144.771 16.4028 144.693 17.84 145.731 18.5905C145.979 18.7697 146.085 18.7747 150.175 18.7986L154.364 18.8231L154.75 18.6024C155.584 18.1262 155.777 16.8887 155.125 16.196C155.017 16.081 154.767 15.9141 154.569 15.825C154.236 15.6754 153.906 15.6629 150.245 15.6611C146.311 15.6592 146.278 15.6607 145.88 15.8566ZM160.953 15.8255C160.007 16.2444 159.727 17.4536 160.394 18.2421C160.905 18.8466 160.5 18.818 168.523 18.818C176.413 18.818 175.997 18.8439 176.504 18.3212C176.806 18.0104 176.938 17.6789 176.938 17.2294C176.938 16.8535 176.701 16.3215 176.426 16.0793C175.941 15.6519 176.077 15.6591 168.457 15.6611C161.704 15.6629 161.3 15.6718 160.953 15.8255ZM144.667 22.6276C144.096 22.876 143.722 23.4521 143.722 24.0826C143.722 24.5223 143.855 24.855 144.155 25.1683C144.661 25.6955 143.391 25.662 162.87 25.662C174.291 25.662 180.876 25.6309 181.072 25.576C181.916 25.34 182.398 24.2722 182.035 23.4437C181.885 23.1022 181.485 22.7236 181.14 22.5966C180.964 22.5317 175.401 22.5043 162.912 22.5067C148.095 22.5095 144.89 22.5308 144.667 22.6276ZM209.478 24.2686C211.245 24.7368 213.41 25.0861 215.149 25.1832C216.781 25.2745 217.39 25.574 217.866 26.5193C218.108 27.0003 218.119 27.0771 218.119 28.2944C218.119 29.411 218.087 29.6919 217.855 30.5908C217.539 31.8134 217.557 31.8613 218.329 31.8684C219.49 31.8791 219.943 32.4827 219.764 33.7773C219.614 34.8582 219.069 35.4748 218.043 35.7216C217.514 35.8489 217.333 35.8548 216.739 35.7637C216.106 35.6667 216.04 35.6709 215.935 35.8149C215.872 35.9014 215.616 36.2772 215.367 36.6502C214.438 38.0393 212.836 39.4527 211.461 40.0977C210.474 40.5604 209.578 40.754 208.424 40.754C206.21 40.754 205.27 40.2208 204.679 38.6297C204.453 38.0212 204.442 37.9092 204.445 36.323C204.448 34.98 204.489 34.4425 204.654 33.559C205.186 30.7097 206.123 27.6844 207.636 23.9367L207.712 23.7469L208.28 23.9242C208.592 24.0217 209.131 24.1767 209.478 24.2686ZM216.669 36.4506C216.832 36.5113 216.931 36.6508 217.027 36.9552C217.1 37.1865 217.787 39.1725 218.553 41.3683C219.32 43.5641 220.236 46.1898 220.589 47.2033C220.942 48.2167 221.3 49.1106 221.385 49.1897C221.47 49.2688 223.35 50.3138 225.562 51.5119C227.773 52.7098 229.565 53.7179 229.544 53.7521C229.435 53.9241 226.183 54.8671 224.285 55.2771C217.011 56.8486 209.329 56.172 203.268 53.426L202.729 53.1818L203.043 53.0545C203.382 52.9171 208.559 51.0305 209.993 50.5219C210.524 50.3334 210.885 50.1551 210.913 50.0675C210.939 49.9883 210.54 48.028 210.028 45.7116C209.21 42.0101 209.115 41.4931 209.243 41.4442C209.323 41.4135 209.651 41.3413 209.973 41.2837C212.087 40.9049 214.434 39.2134 215.973 36.9591C216.196 36.6334 216.392 36.3668 216.41 36.3668C216.428 36.3668 216.544 36.4046 216.669 36.4506ZM149.294 40.1928C153.775 44.4386 153.493 44.0856 155.38 47.8175C156.991 51.0036 158.407 54.2602 160.473 59.5313L161.35 61.7688L157.332 65.6934C155.122 67.8519 153.289 69.5892 153.258 69.5541C153.228 69.519 153.134 68.8783 153.051 68.1303C152.911 66.8854 152.658 64.7274 152.321 61.9004C152.248 61.2972 152.107 60.1028 152.006 59.2462C151.407 54.1425 151.383 54.0005 150.951 52.9945C150.601 52.1812 149.995 51.3566 149.241 50.6705C148.249 49.768 147.485 49.4393 144.352 48.5693C141.554 47.7921 140.546 47.4341 139.446 46.827C137.412 45.7038 136.471 44.7788 133.635 41.1124C132.425 39.5481 131.405 38.2189 131.367 38.1587C131.197 37.8831 132.911 37.2661 133.565 37.3679C134.649 37.537 136.317 38.5648 138.397 40.3454C140.506 42.1511 141.13 42.3984 143.341 42.3024C146.703 42.1565 146.873 42.1342 146.873 41.8393C146.873 41.7723 146.642 41.4131 146.359 41.0411C145.453 39.8459 144.985 38.7425 144.983 37.7944C144.982 37.2516 145.194 36.5423 145.357 36.5423C145.404 36.5423 147.176 38.1851 149.294 40.1928ZM64.395 46.5476C63.3745 46.7979 62.9796 47.2346 62.9791 48.1133C62.9782 49.3909 62.4751 51.7491 62.0133 52.6395C61.887 52.8829 61.6106 53.2993 61.399 53.5647C60.6242 54.5368 60.5013 55.2145 60.617 57.8784C60.6955 59.6879 60.7112 59.8026 60.9451 60.2685C61.3327 61.0409 61.8942 61.4113 64.0799 62.337C65.5612 62.9642 65.8916 63.4573 65.9921 65.1908C66.3085 70.6465 66.538 73.438 66.7674 74.6234C67.0419 76.041 68.5258 79.5258 69.3556 80.7016C69.8346 81.3802 70.5963 81.7118 71.0339 81.4323C71.3859 81.2075 71.3445 80.6045 70.8916 79.3615C70.0134 76.9511 69.8912 76.5294 69.8878 75.8956C69.8836 75.1493 70.002 74.8568 70.695 73.9001C71.381 72.9529 71.933 72.0718 72.5503 70.9381C73.2489 69.6555 73.56 68.8827 73.7739 67.8992C74.066 66.5564 74.5176 65.9745 75.4743 65.7079C76.154 65.5185 77.1965 65.0413 77.4486 64.8042C77.7365 64.5333 77.7086 64.191 77.2941 62.9188C76.8191 61.4608 76.7514 60.82 77.0161 60.2872C77.2245 59.8673 77.7356 59.4454 78.4613 59.094C79.3016 58.6871 79.6623 58.1808 79.6552 57.4184C79.6499 56.8555 79.4311 56.3699 78.9477 55.8483C78.4665 55.3291 77.8912 55.0171 76.706 54.6325C75.3874 54.2045 74.5322 53.7543 73.8977 53.154C73.2458 52.5372 73.0649 52.122 73.0623 51.2371C73.0595 50.1996 72.8914 50.0402 71.3051 49.571C69.9395 49.1671 69.5269 48.8952 68.785 47.9101C68.0316 46.9099 67.2305 46.5448 65.6791 46.4949C65.1593 46.4782 64.5815 46.5019 64.395 46.5476ZM210.188 49.5772C210.253 49.7429 210.374 49.692 207.093 50.875C201.277 52.9716 201.647 52.8209 201.647 53.0946C201.647 53.3128 201.733 53.383 202.457 53.7547C205.217 55.1716 209.389 56.2795 213.349 56.6474C214.837 56.7856 218.131 56.7852 219.65 56.6467C222.56 56.3809 225.717 55.7256 228.634 54.7818C230.64 54.1327 230.786 54.0629 230.749 53.7739C230.725 53.584 230.293 53.3221 227.548 51.834C225.803 50.8878 224.39 50.099 224.409 50.081C224.467 50.0245 227.23 50.6488 228.966 51.1106C232.375 52.0174 242.853 55.616 248.319 57.7576C257.6 61.3933 265.46 65.4802 270.013 69.0389C272.804 71.2198 274.415 73.0123 275.585 75.2376C278.575 80.921 279.705 88.1621 278.783 95.7259C278.642 96.8835 278.283 98.9334 278.114 99.5448L278.021 99.8801L277.505 99.6812C277.221 99.5717 276.584 99.3288 276.089 99.1415C275.594 98.9541 275.128 98.7345 275.054 98.6536C274.941 98.5305 271.546 97.2486 262.767 94.0144C262.024 93.7408 259.898 92.9514 258.041 92.2602C256.184 91.569 254.24 90.8469 253.72 90.6556C253.2 90.4644 252.532 90.2174 252.235 90.1067C251.938 89.9961 251.439 89.8134 251.126 89.7008C250.607 89.514 250.561 89.4768 250.6 89.2767C250.624 89.156 250.732 88.6624 250.841 88.1799C251.003 87.4622 251.03 87.1346 250.989 86.3811C250.926 85.2291 250.764 84.6237 250.245 83.5989C249.599 82.3211 248.621 81.3776 247.149 80.6098C245.624 79.8144 242.947 78.4022 241.298 77.5238C239.263 76.4391 239.244 76.4312 239.081 76.5629C238.904 76.7064 238.921 76.857 239.279 78.2923C240.346 82.5746 241.676 86.8428 243.17 90.7779C244.254 93.6333 247.014 100.029 248.691 103.569C248.883 103.974 249.04 104.347 249.04 104.397C249.04 104.486 246.145 109.878 245.936 110.179C245.841 110.316 245.646 110.226 243.947 109.271C241.897 108.118 240.743 107.529 240.013 107.265C238.374 106.671 236.47 106.678 234.935 107.284C234.028 107.642 228.429 110.933 225.996 112.538C223.471 114.204 223.011 114.715 223.005 115.855C223.001 116.559 223.159 116.952 223.657 117.478C224.278 118.134 224.765 118.272 226.446 118.267C227.491 118.264 228.112 118.213 228.921 118.067C230.284 117.82 232.471 117.289 233.872 116.865C235.807 116.279 236.813 116.326 241.568 117.223C245.318 117.93 246.744 118.108 248.081 118.035C248.534 118.01 249.079 117.93 249.292 117.856C250.089 117.582 251.025 116.79 252.374 115.248C252.884 114.666 253.329 114.221 253.363 114.259C253.555 114.468 254.706 117.97 255.103 119.548C255.761 122.169 256.119 125.569 255.913 127.242L255.857 127.697L255.396 127.515C252.163 126.237 248.579 125.817 245.034 126.3C244.291 126.401 243.258 126.541 242.738 126.611C242.219 126.681 240.031 126.977 237.878 127.27C235.724 127.562 233.537 127.859 233.017 127.928C232.497 127.997 230.897 128.215 229.461 128.411C228.026 128.607 226.426 128.824 225.906 128.893C225.386 128.963 223.34 129.24 221.36 129.509C219.38 129.779 217.192 130.075 216.499 130.168C215.806 130.261 213.619 130.557 211.638 130.826C209.658 131.095 207.612 131.372 207.093 131.441C206.573 131.511 204.974 131.726 203.539 131.919C202.104 132.113 200.632 132.271 200.266 132.271C197.882 132.271 195.779 130.611 195.161 128.241C194.692 126.44 194.282 122.773 194.027 118.101C193.904 115.829 193.898 107.071 194.019 102.917C194.114 99.6186 194.015 94.5911 193.851 94.3985C193.672 94.1887 193.519 94.2615 192.635 94.975C190.743 96.5023 188.88 97.672 186.614 98.7548C180.214 101.814 173.119 102.501 165.326 100.816C159.845 99.632 153.827 97.1383 147.908 93.5994C146.435 92.7186 145.182 91.923 145.124 91.8314C145.081 91.7642 146.278 90.594 149.934 87.1284C150.849 86.2605 152.53 84.6633 153.669 83.579C154.807 82.4946 156.509 80.8747 157.449 79.9791C158.39 79.0836 160.051 77.5012 161.14 76.4628C165.739 72.0786 170.263 67.7866 170.684 67.4088L171.136 67.0029L171.534 67.6324C171.754 67.9787 172.259 68.5803 172.658 68.9695C174.181 70.4577 175.945 71.0807 177.96 70.8419C180.412 70.5511 182.76 69.1431 185.717 66.1879C187.076 64.8303 188.078 63.6878 190.63 60.5843C191.642 59.3537 192.73 58.0351 193.047 57.6543C196.328 53.7179 202.006 50.7773 208.486 49.6582C209.916 49.411 210.118 49.4014 210.188 49.5772ZM166.758 63.8165C168.154 65.9562 169.284 67.7379 169.269 67.7759C169.254 67.8138 166.527 70.4225 163.21 73.5729C159.893 76.7233 156.268 80.1718 155.154 81.2362C152.168 84.0898 149.809 86.3333 148.939 87.1481L148.17 87.8682L146.548 86.4446C145.655 85.6617 144.167 84.3569 143.242 83.5452C142.316 82.7335 141.577 82.0413 141.598 82.007C141.67 81.8933 164.181 59.8778 164.2 59.9022C164.21 59.9154 165.361 61.6769 166.758 63.8165ZM192.632 74.0538C192.604 74.1266 192.626 75.4198 192.683 76.9274C192.739 78.4352 192.825 80.9322 192.874 82.4765C193.15 91.198 193.23 92.9118 193.368 93.0464C193.471 93.1468 193.541 93.1554 193.66 93.0824C193.796 92.9982 193.815 92.8211 193.815 91.636C193.815 90.8933 193.76 88.7063 193.693 86.7759C193.626 84.8456 193.502 81.2114 193.418 78.7C193.333 76.1885 193.234 74.086 193.197 74.0276C193.101 73.8768 192.695 73.8958 192.632 74.0538ZM254.891 91.798C256.004 92.2115 257.483 92.7589 258.176 93.0144C258.869 93.2699 260.064 93.7127 260.831 93.9984C262.518 94.6264 273.281 98.6116 273.963 98.8604L274.447 99.0372L274.385 99.6994C274.195 101.743 273.226 105.067 271.809 108.537C270.988 110.545 270.924 110.686 270.826 110.686C270.78 110.686 269.272 109.704 267.475 108.504C262.563 105.223 262.095 104.911 260.291 103.71C259.376 103.101 257.836 102.074 256.871 101.429C255.905 100.784 254.71 99.9875 254.215 99.6591C252.895 98.7832 250.08 96.8968 250.044 96.8639C250.011 96.8336 250.514 95.5132 251.563 92.8742C251.918 91.9814 252.244 91.1626 252.287 91.0546C252.356 90.8811 252.394 90.8693 252.615 90.9522C252.753 91.0039 253.777 91.3845 254.891 91.798ZM86.4714 96.0821L86.8753 96.2628L86.1763 96.7225C85.0991 97.4311 83.8175 98.4745 82.8287 99.448L81.9303 100.332H73.4157C63.9638 100.332 64.3917 100.358 63.7509 99.7515C63.1304 99.164 62.8801 98.3787 63.069 97.6114C63.2763 96.7691 64.0014 96.0873 64.8379 95.9484C65.0778 95.9085 69.9526 95.8817 75.6708 95.8886C85.9633 95.9013 86.0716 95.9032 86.4714 96.0821ZM256.064 101.689C257.873 102.897 259.448 103.947 259.565 104.022L259.777 104.158L258.593 105.887C255.196 110.845 252.252 114.607 250.507 116.22C249.579 117.079 249.323 117.22 248.431 117.363C247.431 117.524 245.143 117.264 241.883 116.618C238.826 116.013 236.572 115.722 235.615 115.808C235.285 115.838 234.534 116.002 233.948 116.172C230.62 117.135 228.099 117.618 226.393 117.618C224.778 117.618 224.142 117.356 223.795 116.545C223.614 116.124 223.617 115.573 223.802 115.193C224.035 114.715 224.818 114.097 226.896 112.752C228.736 111.56 233.009 109.016 234.457 108.25C235.545 107.673 236.303 107.484 237.518 107.484C239.19 107.484 239.904 107.764 243.763 109.932C244.931 110.588 245.943 111.125 246.012 111.125C246.081 111.125 246.177 111.076 246.226 111.015C246.313 110.908 247.227 109.253 248.274 107.308C248.56 106.777 248.905 106.146 249.04 105.904C249.176 105.663 249.561 104.952 249.896 104.325C250.23 103.697 250.615 102.987 250.751 102.745C250.887 102.504 251.21 101.912 251.47 101.429C252.478 99.5541 252.585 99.3776 252.679 99.4338C252.732 99.4652 254.255 100.48 256.064 101.689ZM126.749 106.308C126.944 106.361 127.208 106.514 127.334 106.647C127.604 106.932 129.033 109.621 129.62 110.95C130.349 112.598 130.871 114.402 130.726 114.771C130.681 114.885 122.816 118.73 122.3 118.89C122.12 118.946 122.118 118.918 122.12 114.312C122.121 109.29 122.141 109.052 122.62 108.129C123.044 107.313 123.893 106.634 124.864 106.334C125.315 106.195 126.281 106.182 126.749 106.308ZM76.9927 106.83C77.132 106.881 77.393 107.022 77.5726 107.142L77.8991 107.361L77.694 107.993C77.5812 108.34 77.3787 109.138 77.244 109.765C77.1093 110.392 76.985 110.955 76.9679 111.015C76.9432 111.102 75.4963 111.125 70.1152 111.124L63.2937 111.123L62.8293 110.864C62.0747 110.442 61.692 109.792 61.692 108.933C61.692 108.039 62.1974 107.267 63.0217 106.902C63.3618 106.751 63.7889 106.742 70.0615 106.74C74.5337 106.738 76.823 106.768 76.9927 106.83ZM134.53 115.852C135.98 120.08 135.796 123.292 134.002 125.068C133.705 125.362 133.427 125.603 133.385 125.603C133.343 125.603 133.218 125.277 133.107 124.879C132.817 123.842 132.232 122.429 131.448 120.875C131.074 120.132 130.722 119.312 130.667 119.052C130.543 118.47 130.638 117.819 131.062 116.348L131.366 115.297L132.612 114.713L133.859 114.129L134.016 114.471C134.103 114.66 134.334 115.281 134.53 115.852ZM130.49 115.824C130.49 115.851 130.368 116.329 130.22 116.886C129.934 117.961 129.876 118.803 130.047 119.405C130.101 119.592 130.389 120.243 130.689 120.853C131.689 122.889 131.928 123.42 132.198 124.207C132.587 125.339 132.829 126.606 132.925 128.012C132.972 128.689 133.049 129.54 133.097 129.902C133.535 133.196 133.642 137.354 133.34 139.327C132.983 141.657 132.45 143.202 131.563 144.48C130.007 146.719 127.697 147.799 124.459 147.802C123.417 147.803 123.092 147.916 122.776 148.386C122.63 148.604 122.616 148.82 122.639 150.562C122.691 154.492 122.922 158.803 123.212 161.271C123.454 163.324 123.414 163.906 122.969 164.784C122.584 165.543 121.888 166.227 121.173 166.546C120.638 166.786 118.646 167.319 116.662 167.754C109.799 169.258 103.596 169.445 99.0747 168.283C97.4338 167.862 96.6948 167.364 96.1717 166.329C95.911 165.813 95.8791 165.668 95.8791 165.002C95.8791 164.387 95.9399 164.06 96.2213 163.157C97.1692 160.119 97.7601 155.253 97.5437 152.267C97.4913 151.545 97.4725 150.916 97.5018 150.869C97.5311 150.823 97.6532 150.785 97.7733 150.785C98.3591 150.785 101.291 150.093 103.004 149.549C106.644 148.395 109.057 147.07 111.214 145.041C114.731 141.733 116.615 137.197 116.521 132.266L116.493 130.788L116.876 131.216C117.643 132.071 118.962 132.71 119.958 132.71C120.453 132.71 121.434 132.436 121.9 132.168C122.244 131.97 122.29 131.709 122.012 131.539C121.897 131.468 121.748 131.502 121.382 131.682C120.089 132.318 118.859 132.112 117.698 131.064C116.952 130.391 116.316 129.409 116.127 128.637C116.044 128.296 115.86 127.62 115.719 127.137C115.188 125.316 115.02 123.994 115.187 122.927C115.461 121.168 116.541 119.268 117.487 118.883C118.167 118.606 119.044 118.858 119.817 119.552C120.319 120.003 120.76 120.166 121.213 120.066C121.521 119.999 122.957 119.332 128.285 116.781C130.345 115.794 130.49 115.731 130.49 115.824ZM76.8335 118.517C76.9331 119.383 77.1707 120.87 77.3458 121.723L77.4036 122.005H69.8904C63.7262 122.005 62.3023 121.983 61.9604 121.883C59.8223 121.256 59.8418 118.249 61.988 117.612C62.112 117.576 65.4775 117.542 69.4667 117.538L76.7199 117.53L76.8335 118.517ZM134.898 126.477C135.916 127.851 135.858 128.327 134.512 129.626L133.844 130.27L133.785 129.965C133.753 129.797 133.666 128.914 133.592 128.004L133.458 126.349L133.659 126.217C133.769 126.145 133.962 126 134.088 125.895C134.213 125.791 134.324 125.714 134.335 125.724C134.346 125.735 134.599 126.073 134.898 126.477ZM250.137 126.874C251.863 127.07 254.536 127.754 254.855 128.08C255.256 128.489 256.872 133.058 257.859 136.571C258.342 138.29 259.391 142.516 259.391 142.741C259.391 142.793 259.165 142.484 258.888 142.054C255.01 136.033 250.935 131.924 247.846 130.92C245.417 130.131 243.341 131.044 239.903 134.416C238.674 135.62 238.037 136.314 234.327 140.478C232.325 142.726 230.146 144.894 229.191 145.588C228.027 146.434 226.846 146.913 226.231 146.789C224.932 146.526 223.125 144.212 221.094 140.212C220.282 138.613 219.222 136.27 218.554 134.597C218.381 134.162 218.143 133.57 218.026 133.28C217.481 131.932 217.096 130.822 217.155 130.771C217.19 130.74 217.604 130.667 218.074 130.608C218.545 130.549 219.902 130.368 221.09 130.206C222.278 130.045 224.445 129.752 225.906 129.555C227.366 129.359 228.966 129.141 229.461 129.07C229.956 129 231.556 128.782 233.017 128.586C234.477 128.39 236.665 128.095 237.878 127.93C244.186 127.07 245.371 126.911 245.985 126.842C247.067 126.72 248.91 126.734 250.137 126.874ZM79.7178 129.047C79.9435 129.589 81.057 131.888 81.5021 132.732C81.5211 132.768 76.8853 132.796 71.2 132.794C62.8003 132.791 60.8001 132.768 60.5256 132.673C60.0277 132.499 59.5945 132.144 59.3126 131.676C59.0952 131.316 59.063 131.171 59.063 130.549C59.063 129.869 59.0785 129.814 59.3999 129.359C59.7246 128.9 60.1902 128.563 60.7127 128.409C60.8451 128.37 65.1075 128.335 70.1847 128.33L79.416 128.323L79.7178 129.047ZM212.357 131.723C212.007 133.812 211.583 135.436 210.917 137.229C209.401 141.314 207.154 145.521 203.827 150.504C203.431 151.096 203.065 151.568 203.013 151.551C202.867 151.504 202.358 150.557 202.109 149.87C201.242 147.474 200.821 144.17 200.605 138.062C200.518 135.599 200.538 133.103 200.646 132.998C200.661 132.984 201.864 132.81 203.32 132.613C204.776 132.416 207.345 132.065 209.028 131.833C210.711 131.601 212.161 131.407 212.25 131.402C212.387 131.395 212.403 131.443 212.357 131.723ZM206.893 181.759H216.1L216.071 191.696C216.039 202.523 216.075 201.737 215.54 203.344C214.843 205.438 213.135 207.57 211.093 208.895C209.993 209.608 209.841 209.677 204.582 211.853C202.274 212.807 198.604 214.33 196.426 215.235C191.02 217.483 190.023 217.875 189.159 218.092C187.402 218.533 187.259 218.543 181.814 218.585L176.654 218.626L176.712 218.246C176.797 217.68 176.61 215.489 176.358 214.093C175.393 208.757 173.81 202.71 171.946 197.246C170.137 191.939 168.36 187.757 166.04 183.346L165.144 181.642L181.415 181.701C190.364 181.733 201.829 181.759 206.893 181.759ZM221.855 192.793C221.854 204.734 221.86 204.573 221.365 206.02C220.816 207.626 219.911 209.002 218.576 210.261C217.384 211.384 216.281 212.065 214.429 212.822C213.934 213.024 212.313 213.694 210.828 214.311C209.343 214.929 206.345 216.172 204.167 217.076C201.989 217.979 198.89 219.264 197.281 219.931C189.647 223.097 190.03 222.947 188.782 223.266C187.244 223.659 186.548 223.698 181.054 223.699L175.854 223.701L175.899 223.504C175.923 223.395 176.024 222.951 176.123 222.516C176.338 221.57 176.544 220.422 176.623 219.731L176.681 219.226H181.515C186.296 219.226 187.143 219.188 188.547 218.907C189.923 218.631 190.732 218.324 197.191 215.627C197.859 215.347 199.621 214.617 201.107 214.003C202.592 213.389 205.042 212.376 206.552 211.751C209.897 210.368 210.693 209.987 211.699 209.285C214.31 207.464 215.943 205.079 216.543 202.21C216.718 201.371 216.724 201.022 216.724 191.609C216.724 186.256 216.751 181.85 216.784 181.818C216.817 181.785 217.972 181.759 219.35 181.759H221.855L221.855 192.793ZM238.193 190.892C235.698 191.308 233.428 193.152 232.521 195.501C232.026 196.785 231.873 198.936 232.169 200.461C232.644 202.9 234.296 204.93 236.579 205.879L237.196 206.136L234.589 206.173C231.787 206.214 231.556 206.246 230.541 206.743C229.408 207.298 228.483 208.269 227.992 209.419C227.554 210.445 227.51 211.08 227.546 215.897C227.578 220.136 227.583 220.249 227.785 220.849C228.378 222.62 229.843 223.991 231.621 224.443C232.098 224.564 236.247 224.578 270.71 224.578C303.272 224.578 309.311 224.56 309.562 224.457C310.163 224.213 310.536 223.428 310.346 222.809C310.215 222.384 309.84 221.954 309.469 221.803C309.307 221.737 308.891 221.683 308.544 221.683C307.929 221.683 307.911 221.677 307.856 221.442C307.825 221.309 307.744 221.003 307.676 220.762C306.754 217.482 306.811 213.423 307.831 209.728L308.019 209.048L308.707 209.047C309.234 209.047 309.463 209.006 309.688 208.873C310.028 208.671 310.315 208.25 310.395 207.837C310.456 207.521 310.241 206.853 310.02 206.675C309.948 206.617 309.89 206.535 309.89 206.492C309.89 206.45 310.681 206.415 311.648 206.415H313.407L313.781 206.075C314.132 205.756 314.158 205.7 314.191 205.176C314.221 204.699 314.195 204.573 314.016 204.318C313.711 203.887 313.284 203.695 312.625 203.695H312.071L311.849 203.235C311.116 201.712 310.77 200.215 310.77 198.562C310.77 196.878 311.037 195.715 311.788 194.126L312.068 193.535L312.772 193.503C313.374 193.477 313.511 193.44 313.717 193.253C314.475 192.563 314.358 191.376 313.488 190.951C313.192 190.805 311.22 190.798 275.909 190.807C255.413 190.813 238.44 190.851 238.193 190.892ZM311.24 193.604C311.24 193.651 311.098 194.025 310.924 194.435C310.75 194.845 310.498 195.605 310.365 196.125C310.146 196.978 310.123 197.221 310.127 198.606C310.132 200.025 310.153 200.218 310.404 201.152C310.554 201.707 310.803 202.47 310.958 202.847C311.113 203.224 311.24 203.569 311.24 203.614C311.24 203.663 304.103 203.695 292.989 203.694C272.773 203.693 274.097 203.731 273.062 203.118C272.476 202.771 271.845 202.116 271.559 201.557C271.154 200.767 271.075 200.199 271.112 198.354C271.143 196.835 271.17 196.575 271.344 196.151C271.91 194.773 273.117 193.82 274.604 193.577C275.117 193.494 311.24 193.52 311.24 193.604ZM275.744 196.471C275.62 196.592 275.691 196.936 275.858 197.024C276.045 197.121 306.612 197.157 306.984 197.06C307.225 196.997 307.335 196.715 307.186 196.54C307.092 196.429 305 196.412 291.441 196.412C282.84 196.412 275.777 196.439 275.744 196.471ZM309.472 207.085C309.805 207.41 309.795 207.837 309.446 208.177L309.183 208.433H278.725C245.372 208.433 247.786 208.396 246.772 208.933C246.165 209.256 245.482 209.992 245.142 210.692L244.854 211.285V215.409V219.533L245.133 220.103C245.7 221.263 246.81 222.095 248.053 222.292C248.45 222.354 258.247 222.384 278.951 222.384L309.268 222.385L309.489 222.617C309.803 222.947 309.786 223.376 309.446 223.708L309.183 223.964H270.834C243.358 223.964 232.35 223.937 232.009 223.868C231.183 223.701 230.263 223.213 229.653 222.618C229.029 222.009 228.485 221.045 228.337 220.284C228.283 220.007 228.246 217.989 228.246 215.328C228.246 210.42 228.253 210.34 228.782 209.318C229.336 208.249 230.53 207.309 231.751 206.98C232.078 206.892 239.993 206.868 270.698 206.862L309.235 206.854L309.472 207.085ZM307.278 209.113C307.277 209.15 307.196 209.475 307.098 209.837C306.999 210.199 306.814 211.068 306.686 211.768C306.399 213.33 306.295 216.123 306.461 217.777C306.565 218.813 306.93 220.766 307.102 221.206C307.15 221.33 307.189 221.488 307.189 221.558C307.189 221.668 303.314 221.681 277.507 221.662L247.824 221.639L247.374 221.424C246.706 221.105 246.045 220.454 245.743 219.816L245.484 219.27L245.454 215.76C245.433 213.332 245.457 212.067 245.53 211.655C245.759 210.376 246.838 209.364 248.218 209.137C248.752 209.049 307.28 209.026 307.278 209.113ZM251.128 213.014C250.974 213.164 250.994 213.494 251.162 213.557C251.241 213.586 262.742 213.61 276.72 213.61C300.004 213.61 302.148 213.598 302.281 213.469C302.408 213.344 302.41 213.303 302.299 213.14L302.171 212.952L276.704 212.93C256.97 212.913 251.212 212.932 251.128 213.014ZM251.054 217.247C251.027 217.316 251.019 217.445 251.036 217.532C251.066 217.684 251.891 217.691 272.096 217.713C294.806 217.736 293.434 217.763 293.283 217.3L293.225 217.12H272.164C253.907 217.12 251.098 217.137 251.054 217.247ZM176.796 228.329C177.484 229.91 178.201 231.558 178.388 231.993C178.576 232.427 179.272 234.023 179.935 235.539L181.14 238.295L181.864 239.099C186.957 244.755 200.721 249.5 221.675 252.825C223.799 253.162 227.564 253.707 228.966 253.881C229.338 253.927 230.412 254.063 231.355 254.184C237.612 254.983 245.668 255.738 252.055 256.123C255.121 256.308 255.72 256.297 256.779 256.035C258.401 255.634 258.98 255.539 259.723 255.548C260.277 255.554 260.478 255.525 260.533 255.431C260.649 255.231 262.837 255.079 264.702 255.142C266.526 255.203 267.84 255.398 269.608 255.87L270.868 256.206L274.961 256.183C280.12 256.155 281.337 256.27 282.678 256.913C283.779 257.442 284.237 258.164 284.233 259.363C284.231 260.116 284.156 260.456 283.682 261.87C282.882 264.257 282.111 265.284 279.735 267.129C278.516 268.075 277.597 268.621 276.359 269.135C273.528 270.309 271.362 270.917 269.07 271.18C267.909 271.313 265.823 271.229 264.685 271.004C262.746 270.62 260.548 269.732 258.608 268.547C256.266 267.117 255.314 266.878 252.607 267.04C249.221 267.244 230.329 267.778 215.194 268.097C212.892 268.145 209.428 268.225 207.498 268.275C200.065 268.464 191.385 268.638 189.36 268.638C183.596 268.636 178.193 267.369 173.027 264.807C169.685 263.15 166.731 261.049 163.967 258.364C160.963 255.446 158.976 252.727 156.684 248.401C156.173 247.436 155.646 246.449 155.513 246.207C155.077 245.415 152.994 241.454 152.994 241.417C152.993 241.398 153.652 241.395 154.456 241.411C156.033 241.443 157.4 241.333 158.751 241.064C164.433 239.936 169.401 236.622 172.612 231.817C173.691 230.203 174.977 227.403 175.336 225.887C175.392 225.65 175.462 225.456 175.492 225.456C175.521 225.456 176.108 226.749 176.796 228.329ZM248.546 237.375C249.734 238.14 250.789 238.86 250.892 238.976C250.996 239.093 251.187 239.371 251.318 239.595C251.758 240.348 252.355 240.701 253.379 240.812C253.943 240.873 254.066 240.931 255.224 241.673C255.907 242.11 258.167 243.553 260.246 244.88C268.191 249.947 271.544 252.086 272.848 252.921C273.591 253.396 274.776 254.151 275.481 254.6C276.187 255.048 276.764 255.443 276.764 255.478C276.764 255.568 273.274 255.608 271.809 255.535C271.139 255.502 270.41 255.416 270.189 255.344C269.563 255.139 268.436 254.881 267.403 254.704C266.136 254.488 261.719 254.479 260.336 254.69L259.436 254.828L258.671 254.433C258.25 254.216 257.663 253.911 257.366 253.754C257.069 253.598 256.299 253.201 255.656 252.872C249.684 249.82 249.08 249.493 248.738 249.125C248.547 248.92 248.273 248.625 248.13 248.469C247.739 248.045 247.368 247.898 246.49 247.819C245.618 247.74 245.83 247.834 242.177 245.927L240.76 245.187L240.916 244.899C241.559 243.714 246.223 235.988 246.296 235.987C246.347 235.986 247.359 236.611 248.546 237.375ZM235.5 238.664C236.833 239.471 238.295 240.353 238.749 240.625C239.204 240.896 239.595 241.188 239.619 241.273C239.659 241.418 239.473 241.689 239.332 241.689C239.24 241.689 238.254 241.109 235.268 239.3C233.517 238.239 232.602 237.635 232.58 237.524C232.545 237.344 232.812 237.098 232.977 237.16C233.033 237.18 234.168 237.857 235.5 238.664ZM251.232 241.756C251.175 241.791 250.474 242.884 249.674 244.184C248.15 246.662 248.01 246.997 248.499 246.997C248.698 246.997 248.9 246.71 250.232 244.541C251.062 243.19 251.74 242.058 251.74 242.025C251.74 241.946 251.475 241.688 251.396 241.69C251.362 241.691 251.288 241.72 251.232 241.756ZM254.558 244.026C254.527 244.105 254.539 244.227 254.584 244.297C254.736 244.53 265.278 250.994 265.467 250.969C265.6 250.952 265.647 250.879 265.647 250.691C265.647 250.45 265.365 250.261 260.35 247.159C257.121 245.161 254.967 243.882 254.834 243.882C254.713 243.882 254.589 243.947 254.558 244.026ZM270.825 249.588C271.785 249.702 273.014 250.04 273.866 250.423C275.753 251.272 277.229 252.757 277.966 254.544C278.294 255.339 278.324 255.464 278.187 255.464C278.122 255.464 277.177 254.895 276.088 254.2C275 253.505 273.521 252.561 272.803 252.104C269.563 250.037 269.113 249.74 269.113 249.67C269.113 249.629 269.326 249.58 269.585 249.562C269.845 249.545 270.059 249.523 270.06 249.514C270.062 249.505 270.406 249.539 270.825 249.588ZM286.441 261.593C287.233 262.097 288.279 262.763 288.765 263.072C289.251 263.38 289.635 263.661 289.619 263.695C289.602 263.729 289.165 264.566 288.646 265.555C287.501 267.739 287.506 267.728 287.68 267.898C287.972 268.182 288.148 267.958 289.149 266.037C289.689 265.001 290.155 264.153 290.185 264.152C290.214 264.152 290.643 264.595 291.137 265.138C292.057 266.15 292.662 266.81 295.157 269.529C295.945 270.387 296.575 271.102 296.556 271.116C296.538 271.131 295.408 270.894 294.047 270.589C292.686 270.285 290.741 269.852 289.726 269.627C287.151 269.056 286.936 268.982 285.006 267.992C282.608 266.762 281.949 266.418 281.878 266.355C281.844 266.325 282.117 265.95 282.483 265.521C283.12 264.776 283.819 263.607 284.051 262.901C284.111 262.72 284.179 262.572 284.204 262.572C284.229 262.572 284.94 262.993 285.785 263.507C287.382 264.48 287.569 264.538 287.639 264.079C287.662 263.929 287.509 263.795 286.847 263.386C286.396 263.107 285.695 262.672 285.289 262.419C284.883 262.166 284.514 261.947 284.47 261.932C284.425 261.917 284.452 261.709 284.529 261.471C284.606 261.232 284.695 260.926 284.725 260.791C284.762 260.629 284.818 260.568 284.891 260.611C284.951 260.647 285.649 261.089 286.441 261.593Z" fill="#181818"/>
</svg>
