<svg width="1199" height="89" viewBox="0 0 1199 89" fill="none" xmlns="http://www.w3.org/2000/svg">
<path d="M126.086 0.246143C123.767 0.661388 121.802 1.72257 120.328 3.32204C118.301 5.55206 117.548 8.5972 118.301 11.5654C119.191 15.0412 121.495 17.2251 126.639 19.4397C132.474 21.962 134.286 23.6076 134.286 26.3912C134.286 27.8061 133.795 28.8366 132.72 29.6978C130.125 31.7433 125.764 31.1127 121.771 28.1291C120.174 26.9295 119.775 27.0526 118.531 29.1595C117.487 30.8974 117.502 30.9589 118.961 32.1278C121.863 34.4501 126.639 35.8342 130.324 35.3882C135.791 34.7423 139.507 31.3127 139.784 26.6527C139.922 23.9767 139.185 21.8697 137.419 20.0088C135.76 18.2401 133.687 16.979 129.449 15.1642C125.994 13.6878 124.366 12.5343 123.568 11.0118C123.23 10.3505 123.153 10.0275 123.153 8.99706C123.153 7.93588 123.215 7.67443 123.568 7.05925C124.52 5.44441 125.794 4.76771 128.098 4.64467C130.063 4.5524 131.123 4.84461 133.856 6.25952C135.699 7.21305 135.822 7.25918 136.267 7.07463C136.82 6.85932 138.432 4.46012 138.432 3.8757C138.432 3.10672 136.62 1.90713 134.04 0.98436C131.369 0.0308304 128.681 -0.21524 126.086 0.246143Z" fill="black"/>
<path d="M169.067 0.153938C165.166 0.769119 161.635 2.59927 158.932 5.39834C155.554 8.90485 153.941 12.9497 153.941 17.8711C153.941 24.5458 157.611 30.5438 163.493 33.5428C170.111 36.8955 178.188 35.7882 183.578 30.7898C190.949 23.9613 191.164 12.3499 184.054 5.21378C181.582 2.75307 178.802 1.21512 175.439 0.446148C173.919 0.0924225 170.464 -0.0613747 169.067 0.153938Z" fill="black"/>
<path d="M206.32 0.39991C205.997 0.815155 205.997 0.845913 205.997 17.5326C205.997 33.7734 206.013 34.2655 206.289 34.6192C206.565 34.973 206.673 34.9883 208.5 34.9883C210.174 34.9883 210.466 34.9576 210.742 34.6961C211.065 34.4039 211.065 34.3732 211.095 22.3003L211.141 10.1812L221.783 22.8539L232.425 35.5266H233.162C233.668 35.5266 234.022 35.4343 234.267 35.2344L234.636 34.9422V17.994V1.04585L234.267 0.753635C233.96 0.507565 233.653 0.461426 232.102 0.461426C230.551 0.461426 230.244 0.507565 229.937 0.753635L229.568 1.04585L229.522 12.8265L229.492 24.6072L218.865 12.3036L208.239 4.19617e-05H207.441C206.75 4.19617e-05 206.581 0.0615616 206.32 0.39991Z" fill="black"/>
<path d="M254.215 0.30764C253.907 0.615227 253.907 0.815163 253.907 17.4404C253.907 33.7734 253.923 34.2655 254.199 34.6192C254.476 34.973 254.583 34.9883 256.441 34.9883C258.299 34.9883 258.407 34.973 258.683 34.6192C258.96 34.2809 258.975 33.8503 258.975 22.1926V10.1351L268.818 21.8696C274.238 28.329 279.06 34.0502 279.521 34.5885L280.381 35.5574L281.179 35.4959C282.607 35.3728 282.469 37.1876 282.469 18.0555C282.469 1.27655 282.469 1.07661 282.162 0.769024C281.886 0.492191 281.655 0.461433 280.028 0.461433C278.461 0.461433 278.154 0.507572 277.847 0.753643L277.479 1.04585L277.402 12.8111L277.325 24.5764L266.73 12.2882L256.134 4.95911e-05H255.336C254.721 4.95911e-05 254.445 0.0769463 254.215 0.30764Z" fill="black"/>
<path d="M0.368538 0.738209L0 1.0458V17.7479C0 33.5734 0.0153558 34.45 0.276404 34.7115C0.50674 34.9421 0.829211 34.9883 2.54906 34.9883C4.46852 34.9883 4.57602 34.9729 4.85242 34.6192C5.12882 34.2808 5.14418 33.9425 5.14418 28.3751V22.4848L9.79697 22.4233C14.1427 22.3617 14.4958 22.331 15.4325 22.008C18.4576 20.9468 20.6996 18.9783 22.0355 16.2253C22.8187 14.6105 23.1411 13.1956 23.1411 11.3654C23.1411 6.52089 19.9471 2.36843 15.0947 0.892002C14.0352 0.569035 13.6513 0.553654 7.35541 0.492138C0.952057 0.445999 0.737076 0.445999 0.368538 0.738209ZM13.7588 5.78267C15.4172 6.27482 16.8146 7.47441 17.567 9.0585C17.9202 9.81209 17.9662 10.1197 17.9662 11.4577C17.9662 12.7957 17.9048 13.1033 17.5516 13.8877C17.0142 15.0411 15.8164 16.2868 14.6187 16.9328L13.6666 17.4557L9.41308 17.5018L5.14418 17.548V11.55V5.5366H9.02919C12.131 5.5366 13.0831 5.58274 13.7588 5.78267Z" fill="black"/>
<path d="M39.2953 0.845867L38.9268 1.21497L38.9575 17.8248C39.0035 33.5426 39.0189 34.45 39.2799 34.7115C39.541 34.9729 40.1706 34.9883 49.7679 34.9883H59.9949L60.2866 34.6192C60.5323 34.327 60.5784 34.004 60.5784 32.6506C60.5784 31.1588 60.5477 31.0204 60.1945 30.682L59.8259 30.2975H51.9792H44.1477V25.0685V19.8395H50.7968C56.5552 19.8395 57.4765 19.8087 57.7836 19.5934C58.1061 19.3781 58.1215 19.2397 58.1215 17.548C58.1215 15.9024 58.0907 15.7024 57.799 15.441C57.4919 15.1642 57.108 15.1488 50.8121 15.1026L44.1477 15.0565V10.1504V5.22901H51.9792H59.8259L60.1945 4.84453C60.5477 4.4908 60.5784 4.36776 60.5784 2.8452C60.5784 1.32263 60.5477 1.19959 60.1945 0.845867L59.8259 0.46138H49.7526H39.6792L39.2953 0.845867Z" fill="black"/>
<path d="M78.1147 0.707314L77.7768 0.938007V17.6862C77.7768 36.2031 77.7001 34.7882 78.775 35.0035C79.0514 35.0497 79.942 35.065 80.7405 35.0343C83.0439 34.9574 82.8442 35.6187 82.8442 27.9597V21.5311H86.5296H90.215L93.5165 28.1443C96.2345 33.5886 96.8948 34.7882 97.2172 34.9112C97.7393 35.1112 101.148 35.1112 101.686 34.8959C102.177 34.7113 102.346 34.496 102.346 34.0346C102.346 33.8347 100.979 31.1433 99.2903 28.0366C97.6165 24.9146 96.0963 22.0848 95.912 21.731L95.5895 21.0697L96.388 20.6699C97.7547 19.9778 98.8449 19.1627 99.9198 18.0092C101.148 16.702 101.747 15.7331 102.3 14.0721C102.653 13.0109 102.715 12.5956 102.699 10.9962C102.699 9.42747 102.638 8.96609 102.3 7.92028C101.056 4.13693 97.8775 1.38401 93.9157 0.676556C93.0558 0.522758 90.906 0.47662 85.6083 0.461243C79.3738 0.461243 78.4218 0.492001 78.1147 0.707314ZM94.0846 5.87481C95.3131 6.44386 96.4187 7.52042 97.0176 8.75077C97.4629 9.67354 97.509 9.88885 97.509 11.2269C97.509 12.5803 97.4629 12.7802 97.0022 13.7183C96.3573 15.0256 95.3899 15.9945 94.0846 16.6404L93.0558 17.148L88.0345 17.1941L82.9978 17.2402V11.3038V5.36729L88.1113 5.41343L93.2094 5.45957L94.0846 5.87481Z" fill="black"/>
<path d="M302.432 0.569138C301.802 0.799831 301.817 0.461483 301.817 17.7634V34.404L302.14 34.6962C302.447 34.973 302.877 34.9884 312.382 35.0345C322.824 35.0807 323.085 35.0653 323.254 34.3886C323.285 34.2194 323.315 33.312 323.285 32.3739C323.239 30.759 323.223 30.6821 322.855 30.4976C322.563 30.3438 320.644 30.2976 314.686 30.2976H306.885V25.0686V19.8396H313.626H320.383L320.705 19.4244C321.012 19.0399 321.027 18.8399 320.981 17.3481C320.951 16.0101 320.889 15.641 320.659 15.4257C320.413 15.1643 319.876 15.1489 313.641 15.1027L306.885 15.0566V10.1505V5.22912H314.762C321.642 5.22912 322.671 5.19836 322.978 4.98304C323.3 4.76773 323.315 4.6447 323.315 2.8453C323.315 1.0459 323.3 0.922867 322.978 0.707554C322.671 0.492241 321.442 0.461483 312.643 0.476864C307.161 0.476864 302.554 0.523003 302.432 0.569138Z" fill="black"/>
<path d="M340.898 0.845867L340.514 1.21497V17.7325C340.514 33.7733 340.529 34.2654 340.806 34.6192L341.097 34.9883H350.249C358.818 34.9883 359.401 34.9729 359.663 34.7115C359.893 34.4808 359.939 34.1578 359.939 32.666C359.939 30.0669 360.676 30.2975 352.476 30.2975H345.735V15.7639V1.21497L345.351 0.845867C344.998 0.476761 344.89 0.46138 343.124 0.46138C341.358 0.46138 341.251 0.476761 340.898 0.845867Z" fill="black"/>
<path d="M6.23456 62.1331C3.83907 62.6406 2.14993 63.671 1.13645 65.2397C0.276529 66.5931 0.0154813 67.5774 0.107616 69.2384C0.307241 72.4834 2.16529 74.2675 7.29411 76.0515C9.76639 76.9127 12.1926 78.1431 13.0372 78.9736C14.8952 80.773 14.9873 83.3721 13.2829 85.2484C10.7184 88.0628 5.86602 88.0321 2.21135 85.1869C1.75068 84.8331 1.30536 84.4794 1.21323 84.4025C0.936827 84.2026 0.0769043 85.0023 0.0769043 85.4483C0.0769043 86.1865 3.22483 88.0936 5.37464 88.6473C9.67425 89.7546 14.1428 88.0782 15.7705 84.7716C16.2465 83.8027 16.2772 83.6489 16.2772 82.1264C16.2772 80.6038 16.2465 80.4346 15.7705 79.4811C14.7724 77.451 12.469 75.9438 8.13868 74.4366C4.54543 73.1909 3.07128 72.2374 2.28813 70.6533C1.42821 68.8693 1.85817 66.6085 3.33232 65.2858C5.48213 63.3327 9.02931 63.1481 12.4536 64.8245C13.2368 65.209 13.9432 65.5165 14.0353 65.5165C14.281 65.5165 14.8184 64.7322 14.8184 64.3477C14.8184 64.0401 14.5881 63.8709 13.4057 63.3019C12.6226 62.9174 11.563 62.5022 11.0563 62.3637C9.9353 62.0715 7.17126 61.9331 6.23456 62.1331Z" fill="black"/>
<path d="M235.174 62.0716C231.765 62.6867 229.323 63.9171 227.189 66.1317C221.046 72.4527 222.566 83.003 230.26 87.3246C232.502 88.5858 235.772 89.2317 238.321 88.9241C245.155 88.0782 250.023 82.8953 250.33 76.1284C250.621 69.6075 246.491 64.0863 240.011 62.3638C239.12 62.1177 235.941 61.9331 235.174 62.0716ZM238.49 63.8402C244.571 64.6861 249.071 70.2073 248.625 76.2822C248.41 79.3581 247.166 82.0033 244.94 84.0796C239.75 88.9549 231.381 88.1397 227.25 82.3417C222.797 76.0822 225.515 67.2083 232.732 64.4861C234.728 63.7325 236.402 63.548 238.49 63.8402Z" fill="black"/>
<path d="M55.0196 62.4561C54.7585 62.5945 54.7432 63.1943 54.7432 71.5607C54.7432 81.6496 54.7585 81.7727 55.8334 83.9566C57.0005 86.325 59.0888 87.9706 61.8068 88.6934C63.1428 89.0472 65.8454 89.0472 67.1813 88.6934C70.6364 87.7861 73.124 85.2946 74.03 81.8188C74.2603 80.9422 74.3064 79.7272 74.3525 71.9913C74.3832 67.1314 74.3832 62.9944 74.3371 62.8098C74.2296 62.3946 73.554 62.21 72.9704 62.4253L72.5558 62.5945V71.084C72.5405 80.5116 72.4791 81.2652 71.6191 83.0338C70.6517 85.0024 68.6094 86.5865 66.4443 87.0325C62.7282 87.8014 59.1349 86.2789 57.5533 83.2799C56.5859 81.4343 56.5859 81.3728 56.5859 71.6222V62.7637L56.248 62.533C55.8488 62.2561 55.4035 62.2254 55.0196 62.4561Z" fill="black"/>
<path d="M115.199 62.4714C114.953 62.656 114.938 63.4096 114.969 75.5901L115.015 88.5089L115.706 88.555C116.796 88.6319 116.781 88.678 116.781 83.7105V79.3581H120.435C124.52 79.3581 125.518 79.2197 127.176 78.4199C127.898 78.0816 128.559 77.5894 129.311 76.8359C131.046 75.098 131.875 73.114 131.875 70.7456C131.86 67.0699 129.465 63.9017 125.841 62.7175C124.935 62.4253 124.382 62.3945 120.159 62.333C116.397 62.2715 115.429 62.3023 115.199 62.4714ZM124.274 64.2862C127.96 64.8091 130.585 68.2695 130.002 71.776C129.618 74.0214 128.144 75.9438 126.04 76.9435L124.996 77.4357L120.896 77.4818L116.781 77.5279V70.8379V64.1324H120.051C121.833 64.1324 123.737 64.2093 124.274 64.2862Z" fill="black"/>
<path d="M170.326 62.4715C170.08 62.6561 170.065 63.4097 170.096 75.5902L170.142 88.509L170.894 88.5551C171.386 88.5859 171.693 88.5397 171.769 88.4013C171.846 88.2936 171.908 86.2174 171.908 83.7721V79.3582H175.562C179.708 79.3582 180.737 79.2044 182.442 78.3585C183.885 77.6511 185.39 76.1593 186.096 74.729C187.77 71.3762 187.263 67.7005 184.745 65.086C183.639 63.9326 182.503 63.2097 181.044 62.7484C180.062 62.4254 179.601 62.3946 175.286 62.3331C171.524 62.2716 170.556 62.3024 170.326 62.4715ZM180.737 64.5631C184.499 65.9473 186.281 69.9921 184.668 73.4678C183.778 75.3595 182.472 76.5437 180.538 77.1897C179.678 77.4819 179.232 77.5126 175.747 77.5126H171.908V70.8072V64.1017L175.869 64.1633C179.463 64.2248 179.893 64.2555 180.737 64.5631Z" fill="black"/>
<path d="M289.64 62.4716C289.394 62.6562 289.379 63.4098 289.41 75.5903L289.456 88.509L290.116 88.5552C291.268 88.6321 291.222 88.8166 291.222 83.4184V78.6047L295.306 78.5585L299.376 78.5124L302.17 83.5415L304.95 88.5859H305.856C306.485 88.5859 306.762 88.5244 306.823 88.3552C306.869 88.2322 305.748 86.0637 304.197 83.3262C302.708 80.6809 301.479 78.4662 301.464 78.3894C301.449 78.3278 301.817 78.1125 302.278 77.928C305.457 76.6207 307.484 73.6525 307.499 70.3613C307.499 66.8701 304.981 63.6712 301.433 62.6715C300.174 62.3178 290.07 62.1333 289.64 62.4716ZM300.297 64.2864C303.184 64.84 305.38 67.1623 305.61 69.9306C305.871 73.1296 303.675 76.0363 300.466 76.7284C299.975 76.836 297.978 76.8975 295.445 76.8975H291.222V70.5151V64.1326H295.353C297.61 64.1326 299.836 64.2095 300.297 64.2864Z" fill="black"/>
<path d="M343.247 62.3946C342.925 62.4715 342.74 63.0559 342.879 63.5942L342.971 63.9787H346.733H350.495L350.526 76.2361L350.572 88.5089L351.232 88.5551C351.601 88.5858 352 88.5243 352.123 88.4167C352.307 88.2629 352.338 86.4327 352.338 76.1131V63.9787H356.1H359.862L359.954 63.5942C360.093 63.0098 359.908 62.4869 359.524 62.3792C359.125 62.2716 343.646 62.2869 343.247 62.3946Z" fill="black"/>
<g clip-path="url(#clip0_1_922)">
<path d="M455.609 30.5782C455.609 21.4282 461.31 13.373 471.54 13.373C478.412 13.373 483.019 16.3448 485.753 22.523L480.208 24.8692C478.412 20.8807 475.679 19.082 471.54 19.082C465.605 19.082 462.091 23.8525 462.091 30.5782C462.091 37.3038 465.605 42.0743 471.54 42.0743C475.601 42.0743 478.412 40.2756 480.208 36.2871L485.753 38.6333C482.941 44.7333 478.334 47.7051 471.54 47.7051C461.31 47.7051 455.609 39.65 455.609 30.5782Z" fill="black"/>
<path d="M491.844 30.5782C491.844 21.4282 497.544 13.373 507.696 13.373C514.568 13.373 519.176 16.3448 521.909 22.523L516.364 24.8692C514.568 20.8807 511.835 19.082 507.696 19.082C501.761 19.082 498.247 23.8525 498.247 30.5782C498.247 37.3038 501.761 42.0743 507.696 42.0743C511.757 42.0743 514.568 40.2756 516.364 36.2872L521.909 38.6333C519.176 44.8115 514.568 47.7833 507.696 47.7833C497.622 47.7051 491.844 39.65 491.844 30.5782Z" fill="black"/>
<path d="M527.375 30.5782C527.375 21.741 532.842 13.373 543.306 13.373C553.848 13.373 559.002 21.2718 559.002 29.5615V32.2205H533.857C534.091 37.9295 537.84 42.0743 543.384 42.0743C547.992 42.0743 551.193 39.7282 553.224 36.0525L558.378 38.7897C555.098 44.8897 550.1 47.7051 543.306 47.7051C532.998 47.7051 527.375 39.65 527.375 30.5782ZM552.443 26.8243C551.506 22.132 548.46 19.0038 543.306 19.0038C538.23 19.0038 535.107 22.2884 534.169 26.8243H552.443Z" fill="black"/>
<path d="M570.56 34.6448V6.64737H561.579V1.0166H576.963V34.0974C576.963 39.6499 579.384 41.7615 583.288 41.7615C587.037 41.7615 589.458 39.4153 590.317 34.5666L596.017 35.6615C594.846 43.7166 590.082 47.7051 583.288 47.7051C575.636 47.7051 570.56 43.0128 570.56 34.6448Z" fill="black"/>
<path d="M602.187 13.9205H608.59V17.9871C610.074 15.641 613.666 13.373 618.039 13.373C627.957 13.373 633.267 20.4115 633.267 30.5782C633.267 40.7448 627.957 47.7051 618.039 47.7051C613.9 47.7051 610.308 45.6718 608.59 43.3256V60.6089H602.187V13.9205ZM626.551 30.5782C626.551 23.6179 622.959 19.082 617.258 19.082C611.636 19.082 608.043 23.6179 608.043 30.5782C608.043 37.5384 611.636 42.0743 617.258 42.0743C622.959 42.0743 626.551 37.5384 626.551 30.5782Z" fill="black"/>
<path d="M640.373 30.5782C640.373 21.35 646.542 13.373 656.694 13.373C666.846 13.373 673.015 21.2718 673.015 30.5782C673.015 39.8064 666.846 47.7051 656.694 47.7051C646.542 47.7051 640.373 39.8064 640.373 30.5782ZM666.69 30.5782C666.69 24.5564 663.098 19.082 656.694 19.082C650.291 19.082 646.777 24.5564 646.777 30.5782C646.777 36.6 650.369 42.0743 656.694 42.0743C663.098 42.0743 666.69 36.6 666.69 30.5782Z" fill="black"/>
<path d="M678.56 41.6051H689.648V19.5513H680.043V13.9205H696.13V41.6051H707.766V47.2359H678.638V41.6051H678.56ZM687.618 4.84872C687.618 2.11154 689.727 0 692.46 0C695.193 0 697.301 2.11154 697.301 4.84872C697.301 7.5859 695.193 9.61923 692.46 9.61923C689.727 9.54103 687.618 7.50769 687.618 4.84872Z" fill="black"/>
<path d="M715.731 13.9205H722.134V19.7859C724.555 16.1102 728.694 13.373 733.38 13.373C739.939 13.373 743.531 17.3615 743.531 23.7743V47.1577H737.128V25.4166C737.128 21.0371 734.863 19.082 731.427 19.082C726.429 19.082 722.134 24.5564 722.134 33.8628V47.2359H715.731V13.9205Z" fill="black"/>
<path d="M773.831 34.4885C773.05 39.3372 770.629 41.6834 766.803 41.6834C762.898 41.6834 760.477 39.5719 760.477 34.0193V19.6296H772.972V13.9206H760.477V4.45776H754.074V34.6449C754.074 43.0129 759.15 47.7052 766.803 47.7052C773.597 47.7052 778.36 43.7167 779.531 35.6616L773.831 34.4885Z" fill="black"/>
<path d="M431.167 51.6155H425.466V60.6091H431.167V51.6155Z" fill="black"/>
<path d="M444.052 51.6155H438.43V60.6091H444.052V51.6155Z" fill="black"/>
<path d="M420 45.9845L431.714 13.9204H438.586L450.221 45.9845V47.1576H420V45.9845ZM428.668 41.5268H441.631L435.15 22.4448L428.668 41.5268Z" fill="black"/>
</g>
<path d="M845.359 1.32664C843.168 2.32162 842.239 3.25026 841.177 5.57188C839.982 8.35782 839.916 9.81713 840.049 28.6554L840.248 48.754L858.7 48.953C878.612 49.152 881.002 48.8203 884.453 45.968C888.767 42.3198 889.033 40.9931 889.033 19.3689V0H868.656C849.806 0 848.014 0.132664 845.359 1.32664ZM860.824 6.10254C860.691 6.56686 858.899 14.991 856.775 24.8745C853.257 41.6565 852.461 44.5751 851.532 43.6464C851.001 43.1158 858.567 7.23018 859.364 6.10254C859.696 5.70454 860.227 5.30655 860.558 5.30655C860.89 5.30655 861.023 5.70454 860.824 6.10254ZM867.594 7.62817C870.979 10.5468 872.041 13.0674 871.576 17.1136C871.112 21.0936 867.395 37.7429 866.864 38.2735C865.935 39.2685 866.001 37.7429 867.129 32.171C868.789 24.5428 868.722 24.3438 866.93 26.1348C865.005 28.0584 859.364 31.375 858.567 31.0433C858.169 30.977 858.833 29.3187 859.961 27.5278C863.412 21.9559 864.674 17.578 864.275 12.2714C864.076 9.68446 863.744 7.09752 863.479 6.4342C862.682 4.5769 864.674 5.10756 867.594 7.62817ZM876.355 20.2312C877.417 21.1599 878.546 22.4865 878.745 23.1498C879.21 24.7418 878.081 27.7931 876.223 29.7167C874.762 31.3087 869.851 34.1609 869.453 33.6966C869.32 33.564 870.05 32.171 871.112 30.579C873.501 27.1298 874.165 23.8132 873.236 20.8282C872.373 17.976 873.435 17.8433 876.355 20.2312Z" fill="black"/>
<path d="M976.979 3.05123C976.647 3.11756 974.921 3.38288 973.195 3.64821C969.677 4.11254 969.146 4.97485 971.669 5.96983L973.328 6.63315V23.4815V40.3298L971.669 40.7278C968.151 41.6564 970.208 42.4524 975.983 42.4524C981.757 42.4524 983.815 41.6564 980.297 40.7278L978.638 40.3298V21.8895C978.638 11.6744 978.439 3.25022 978.173 3.11756C977.841 2.98489 977.377 2.91856 976.979 3.05123Z" fill="black"/>
<path d="M1058.49 3.78101C1056.43 4.179 1056.56 4.77599 1058.95 6.10262C1060.88 7.16393 1060.94 7.42926 1060.94 11.9398V16.5831H1056.96C1049.66 16.5831 1045.01 19.7007 1043.22 25.8032C1041.56 31.5741 1043.35 38.8043 1047.14 41.2585C1050.85 43.7128 1056.3 43.3148 1059.35 40.3962L1060.94 38.9369V40.7942V42.6515L1064.66 42.2535C1066.72 42.0545 1068.71 41.5902 1069.11 41.1922C1069.77 40.5289 1069.44 40.3299 1066.45 39.4013C1065.79 39.2023 1065.59 35.0233 1065.59 21.2263V3.31668L1062.8 3.38301C1061.21 3.44934 1059.28 3.64834 1058.49 3.78101ZM1059.48 19.6343C1060.88 20.0323 1060.94 20.2977 1060.94 28.9871V37.8756L1058.49 38.8706C1055.23 40.2636 1052.18 39.6003 1050.06 37.0796C1048.07 34.758 1047.4 31.7067 1047.8 26.7982C1048.2 21.757 1050.59 19.2363 1054.9 19.2363C1056.56 19.2363 1058.62 19.4353 1059.48 19.6343Z" fill="black"/>
<path d="M1140.06 4.77583C1138.8 6.03613 1139.06 9.15373 1140.52 9.94972C1141.25 10.2814 1142.12 10.613 1142.52 10.613C1143.71 10.613 1145.24 8.55675 1145.24 6.96478C1145.24 4.5105 1141.79 3.0512 1140.06 4.77583Z" fill="black"/>
<path d="M911.866 6.56682C911.335 7.09748 912.397 7.95979 913.591 7.95979C916.644 7.95979 916.91 9.08744 916.91 24.4764C916.91 39.9981 916.91 39.8654 913.392 40.7278C909.609 41.6564 912.596 42.4524 919.631 42.4524C926.866 42.4524 928.924 41.7227 924.742 40.5951C922.817 40.1308 922.485 39.7328 922.021 36.9468C921.755 35.2222 921.623 28.2574 921.689 21.4252L921.888 8.95477L924.211 8.75578C925.539 8.68945 927.53 9.08744 928.791 9.81709C936.092 13.7307 934.3 25.4051 926.335 26.0021C923.016 26.2674 923.614 27.8594 927.065 27.8594C933.503 27.793 938.15 23.6805 938.681 17.5779C939.145 11.7407 935.893 7.69447 930.052 6.89848C926.667 6.43416 912.264 6.16883 911.866 6.56682Z" fill="black"/>
<path d="M1083.71 6.83215C1083.44 7.23014 1086.23 8.62311 1087.43 8.62311C1088.69 8.62311 1089.35 30.1147 1088.29 37.0795C1087.89 39.7328 1087.56 40.1308 1085.7 40.5951C1081.45 41.7227 1083.51 42.4524 1090.74 42.4524C1097.85 42.4524 1101.03 41.5237 1096.85 40.7278C1095.72 40.4624 1094.53 39.9318 1094.13 39.4675C1093.66 38.9368 1093.53 33.3649 1093.6 23.8131L1093.8 8.95477L1097.05 9.0211C1099.9 9.0211 1100.57 9.35276 1102.49 11.409C1105.08 14.3277 1105.81 17.3126 1104.62 20.8282C1103.62 23.8795 1101.3 25.8031 1098.31 26.0021C1094.93 26.2674 1095.52 27.8594 1098.97 27.8594C1105.81 27.8594 1111.12 22.3538 1110.52 15.787C1109.93 8.62311 1106.28 6.69948 1093.13 6.43415C1088.16 6.36782 1083.91 6.50048 1083.71 6.83215Z" fill="black"/>
<path d="M950.23 17.3791C949.035 17.7771 947.044 19.2364 945.783 20.6294C940.274 26.7319 941.402 37.4777 947.973 41.325C950.827 42.9832 957.531 43.1159 960.451 41.5903C968.549 37.345 969.81 23.6143 962.509 18.3078C960.385 16.7158 953.681 16.2515 950.23 17.3791ZM958.593 20.2977C960.85 21.757 962.044 25.2063 962.044 30.1812C962.044 36.748 959.522 40.4626 955.075 40.4626C950.628 40.4626 947.508 35.6867 947.442 28.9872C947.442 20.4967 952.619 16.4505 958.593 20.2977Z" fill="black"/>
<path d="M988.86 17.8433C986.006 19.1699 985.01 20.6292 985.607 22.6192C986.006 23.7468 986.271 23.6805 988.528 21.8895C993.771 17.6443 998.218 18.8383 998.948 24.6755C999.28 27.0634 999.148 27.9257 998.484 28.1247C997.953 28.3237 995.829 28.9207 993.771 29.5177C991.581 30.1147 988.926 31.4413 987.598 32.569C985.607 34.2936 985.275 35.0896 985.275 37.4112C985.275 40.6615 986.536 42.1871 989.722 42.8504C992.245 43.3148 995.962 42.1871 997.555 40.4625C999.081 38.8042 999.612 38.8042 1000.08 40.4625C1000.54 42.3198 1003.33 43.2484 1005.85 42.3861C1007.71 41.7228 1008.64 40.4625 1007.18 40.4625C1006.85 40.4625 1005.92 39.8655 1005.19 39.1358C1004.06 38.0082 1003.86 36.8806 1003.86 31.3087C1003.79 19.5016 1002.13 16.583 995.364 16.583C993.108 16.583 990.453 17.1136 988.86 17.8433ZM999.214 33.6966C999.214 37.1459 998.285 38.5389 995.364 39.4675C993.373 40.0645 990.054 38.6715 989.59 37.0796C989.391 36.4162 989.523 35.2223 989.922 34.4926C990.784 32.9006 995.431 30.579 997.754 30.5127C999.081 30.5127 999.214 30.8444 999.214 33.6966Z" fill="black"/>
<path d="M1014.02 17.3789C1010.63 18.1086 1010.43 18.7056 1013.15 19.7005L1015.14 20.4302V30.1147V39.7991L1013.48 40.5951C1010.56 41.9217 1011.69 42.4524 1017.47 42.4524C1023.24 42.4524 1024.37 41.9217 1021.45 40.5951C1019.79 39.7991 1019.79 39.7991 1019.79 30.8443V21.9558L1021.78 20.8945C1023.97 19.7669 1027.29 19.5679 1029.08 20.5629C1030.94 21.5578 1031.74 25.3388 1031.74 33.0333C1031.74 39.6665 1031.67 39.8654 1030.08 40.4624C1026.83 41.7227 1028.35 42.4524 1034.06 42.4524C1039.83 42.4524 1040.96 41.9217 1038.04 40.5951C1036.38 39.8654 1036.38 39.7328 1036.38 31.5076C1036.38 19.4352 1034.79 16.5829 1028.09 16.5829C1024.77 16.5829 1022.38 17.6443 1020.65 19.8995C1019.99 20.7619 1019.86 20.5629 1019.79 18.7056C1019.79 16.3176 1019.19 16.1849 1014.02 17.3789Z" fill="black"/>
<path d="M1118.22 17.3789C1114.84 18.1086 1114.64 18.7056 1117.36 19.7005L1119.35 20.4302V30.1147V39.7991L1117.69 40.5951C1114.7 41.9217 1115.9 42.4524 1122.01 42.4524C1128.11 42.4524 1129.51 41.7891 1125.99 40.5288L1124 39.8654V30.977V22.0885L1125.72 21.2925C1127.05 20.6955 1128.05 20.6955 1129.77 21.2925C1131.7 21.8895 1132.23 21.8895 1132.69 21.1598C1134.22 18.7056 1132.76 16.5829 1129.57 16.5829C1127.91 16.5829 1126.98 17.1136 1125.72 18.7056L1124 20.8945V18.7056C1124 16.3176 1123.4 16.1849 1118.22 17.3789Z" fill="black"/>
<path d="M1139.46 17.3789C1136.28 18.0422 1135.81 18.9046 1138.27 19.5015L1139.93 19.8995V30.1147V40.3298L1138.27 40.7278C1134.75 41.6564 1136.81 42.4524 1142.58 42.4524C1148.36 42.4524 1150.48 41.6564 1146.9 40.7278C1144.77 40.1971 1144.37 37.5438 1144.71 25.6704C1144.91 15.389 1145.3 16.0523 1139.46 17.3789Z" fill="black"/>
<path d="M1152.54 21.0272C1152.54 25.5378 1153.47 26.5991 1154.13 22.9508C1154.4 21.6905 1154.93 20.3639 1155.39 20.0322C1156.32 19.2362 1165.81 18.6392 1165.81 19.3689C1165.81 19.6342 1162.96 24.1448 1159.51 29.4513C1156.06 34.6916 1152.94 39.7991 1152.54 40.7278L1151.87 42.4524H1162.49H1173.11V38.1408C1173.11 33.4976 1172.12 32.3699 1171.39 36.1509C1171.19 37.4112 1170.53 38.8041 1169.99 39.2021C1169 40.0644 1158.51 40.9268 1158.51 40.1971C1158.51 39.9318 1161.5 35.0895 1165.15 29.385C1168.8 23.6805 1171.79 18.5066 1171.79 17.9759C1171.79 17.0473 1170.46 16.9146 1162.16 16.9146H1152.54V21.0272Z" fill="black"/>
<path d="M1184.4 17.3126C1178.89 19.5015 1176.03 26.5991 1177.76 33.8292C1179.35 40.4624 1185.19 44.0443 1191.96 42.5187C1195.48 41.7227 1199 39.5338 1199 38.1408C1199 37.3448 1198.73 37.4112 1197.21 38.2071C1196.15 38.6715 1193.89 39.1358 1192.03 39.1358C1186.46 39.1358 1183.14 36.2172 1182.07 30.3136L1181.61 27.8594H1190.17H1198.8L1198.34 24.8081C1197.81 21.4915 1196.01 18.6392 1193.62 17.4452C1191.7 16.4503 1186.72 16.3839 1184.4 17.3126ZM1190.44 19.2362C1191.96 20.0985 1193.89 23.6804 1193.49 24.8744C1193.23 25.4051 1191.3 25.7367 1187.38 25.8031C1182.27 25.9357 1181.61 25.8031 1182.01 24.8744C1182.21 24.2774 1182.41 23.4151 1182.41 22.9508C1182.41 21.4915 1185.79 18.5729 1187.52 18.5729C1188.38 18.5729 1189.71 18.9045 1190.44 19.2362Z" fill="black"/>
<defs>
<clipPath id="clip0_1_922">
<rect width="360" height="61" fill="white" transform="translate(420)"/>
</clipPath>
</defs>
</svg>
