<svg width="667" height="250" viewBox="0 0 667 250" fill="none" xmlns="http://www.w3.org/2000/svg">
<path d="M263.599 65.4674C260.578 66.007 258.017 67.3859 256.096 69.4642C253.456 72.3619 252.475 76.3187 253.456 80.1757C254.616 84.692 257.617 87.5298 264.319 90.4075C271.921 93.6849 274.282 95.8231 274.282 99.4402C274.282 101.279 273.642 102.618 272.241 103.737C268.86 106.395 263.179 105.575 257.977 101.698C255.896 100.14 255.376 100.3 253.756 103.037C252.395 105.296 252.415 105.375 254.316 106.894C258.097 109.912 264.319 111.71 269.12 111.131C276.242 110.292 281.084 105.835 281.444 99.78C281.624 96.3028 280.664 93.5649 278.363 91.1469C276.202 88.8487 273.502 87.21 267.98 84.8519C263.479 82.9335 261.358 81.4346 260.318 79.4562C259.878 78.5969 259.778 78.1773 259.778 76.8383C259.778 75.4594 259.858 75.1197 260.318 74.3203C261.558 72.222 263.219 71.3427 266.219 71.1828C268.78 71.0629 270.161 71.4426 273.722 73.2812C276.122 74.5202 276.282 74.5801 276.863 74.3403C277.583 74.0605 279.684 70.943 279.684 70.1836C279.684 69.1844 277.323 67.6257 273.962 66.4267C270.481 65.1876 266.98 64.8679 263.599 65.4674Z" fill="black"/>
<path d="M319.596 65.3475C314.514 66.1469 309.913 68.525 306.392 72.1621C301.99 76.7184 299.89 81.9742 299.89 88.3691C299.89 97.0422 304.671 104.836 312.333 108.733C320.956 113.089 331.479 111.65 338.501 105.156C348.104 96.2828 348.384 81.1948 339.121 71.9223C335.9 68.7248 332.279 66.7264 327.898 65.7272C325.917 65.2676 321.416 65.0677 319.596 65.3475Z" fill="black"/>
<path d="M368.13 65.6673C367.71 66.2069 367.71 66.2468 367.71 87.9295C367.71 109.033 367.73 109.672 368.09 110.132C368.45 110.591 368.59 110.611 370.971 110.611C373.152 110.611 373.532 110.571 373.892 110.232C374.312 109.852 374.312 109.812 374.352 94.1245L374.412 78.3771L388.276 94.844L402.14 111.311H403.101C403.761 111.311 404.221 111.191 404.541 110.931L405.021 110.551V88.529V66.5066L404.541 66.1269C404.141 65.8072 403.741 65.7472 401.72 65.7472C399.7 65.7472 399.299 65.8072 398.899 66.1269L398.419 66.5066L398.359 81.8144L398.319 97.1221L384.475 81.1349L370.631 65.1477H369.591C368.69 65.1477 368.47 65.2277 368.13 65.6673Z" fill="black"/>
<path d="M430.529 65.5475C430.129 65.9472 430.129 66.2069 430.129 87.8097C430.129 109.033 430.149 109.672 430.509 110.132C430.869 110.591 431.009 110.611 433.43 110.611C435.851 110.611 435.991 110.591 436.351 110.132C436.711 109.692 436.731 109.133 436.731 93.9847V78.3173L449.555 93.5651C456.617 101.958 462.899 109.392 463.499 110.092L464.619 111.351L465.66 111.271C467.52 111.111 467.34 113.469 467.34 88.609C467.34 66.8065 467.34 66.5467 466.94 66.147C466.58 65.7873 466.28 65.7473 464.159 65.7473C462.118 65.7473 461.718 65.8073 461.318 66.127L460.838 66.5067L460.738 81.7945L460.638 97.0822L446.834 81.115L433.03 65.1478H431.989C431.189 65.1478 430.829 65.2477 430.529 65.5475Z" fill="black"/>
<path d="M99.8097 66.1069L99.3296 66.5066V88.2092C99.3296 108.773 99.3496 109.912 99.6897 110.252C99.9898 110.551 100.41 110.611 102.651 110.611C105.151 110.611 105.291 110.591 105.651 110.132C106.012 109.692 106.032 109.252 106.032 102.018V94.3643L112.093 94.2844C117.755 94.2045 118.215 94.1645 119.436 93.7448C123.377 92.3659 126.298 89.808 128.038 86.2308C129.059 84.1325 129.479 82.294 129.479 79.9159C129.479 73.6209 125.317 68.2252 118.995 66.3068C117.615 65.8871 117.115 65.8671 108.912 65.7872C100.57 65.7272 100.29 65.7272 99.8097 66.1069ZM117.255 72.6617C119.416 73.3012 121.236 74.8599 122.216 76.9183C122.677 77.8975 122.737 78.2972 122.737 80.0358C122.737 81.7744 122.657 82.1741 122.196 83.1933C121.496 84.6921 119.936 86.3108 118.375 87.1501L117.135 87.8296L111.593 87.8895L106.032 87.9495V80.1557V72.3419H111.093C115.134 72.3419 116.375 72.4019 117.255 72.6617Z" fill="black"/>
<path d="M150.525 66.2468L150.045 66.7264L150.085 88.3092C150.145 108.733 150.165 109.912 150.505 110.252C150.845 110.591 151.665 110.611 164.169 110.611H177.493L177.873 110.132C178.193 109.752 178.253 109.332 178.253 107.574C178.253 105.635 178.213 105.455 177.753 105.016L177.273 104.516H167.05H156.847V97.7216V90.9271H165.51C173.012 90.9271 174.212 90.8871 174.612 90.6073C175.032 90.3276 175.052 90.1477 175.052 87.9495C175.052 85.8112 175.012 85.5514 174.632 85.2116C174.232 84.8519 173.732 84.832 165.53 84.772L156.847 84.712V78.3371V71.9423H167.05H177.273L177.753 71.4427C178.213 70.983 178.253 70.8232 178.253 68.8447C178.253 66.8663 178.213 66.7065 177.753 66.2468L177.273 65.7472H164.149H151.025L150.525 66.2468Z" fill="black"/>
<path d="M201.1 66.067L200.66 66.3668V88.1293C200.66 112.19 200.56 110.352 201.96 110.631C202.32 110.691 203.481 110.711 204.521 110.671C207.522 110.571 207.262 111.431 207.262 101.479V93.1254H212.063H216.865L221.166 101.718C224.707 108.793 225.567 110.352 225.987 110.511C226.668 110.771 231.109 110.771 231.809 110.491C232.449 110.252 232.669 109.972 232.669 109.372C232.669 109.113 230.889 105.615 228.688 101.579C226.508 97.5218 224.527 93.8448 224.287 93.3851L223.867 92.5258L224.907 92.0062C226.688 91.107 228.108 90.0478 229.508 88.549C231.109 86.8504 231.889 85.5914 232.609 83.4331C233.069 82.0542 233.15 81.5146 233.13 79.4363C233.13 77.3979 233.049 76.7984 232.609 75.4395C230.989 70.5234 226.848 66.9463 221.686 66.027C220.566 65.8272 217.765 65.7672 210.863 65.7473C202.74 65.7473 201.5 65.7872 201.1 66.067ZM221.906 72.7816C223.507 73.521 224.947 74.9199 225.727 76.5186C226.307 77.7177 226.367 77.9975 226.367 79.7361C226.367 81.4947 226.307 81.7544 225.707 82.9735C224.867 84.6721 223.607 85.9311 221.906 86.7704L220.566 87.4299L214.024 87.4899L207.462 87.5498V79.836V72.1222L214.124 72.1821L220.766 72.2421L221.906 72.7816Z" fill="black"/>
<path d="M493.348 65.8871C492.527 66.1868 492.547 65.7472 492.547 88.2292V109.852L492.968 110.232C493.368 110.591 493.928 110.611 506.312 110.671C519.916 110.731 520.256 110.711 520.476 109.832C520.516 109.612 520.556 108.433 520.516 107.214C520.456 105.116 520.436 105.016 519.956 104.776C519.576 104.576 517.075 104.516 509.312 104.516H499.149V97.7216V90.927H507.932H516.735L517.155 90.3875C517.555 89.8879 517.575 89.6281 517.515 87.6896C517.475 85.951 517.395 85.4714 517.095 85.1916C516.775 84.8519 516.074 84.8319 507.952 84.7719L499.149 84.712V78.3371V71.9422H509.412C518.375 71.9422 519.716 71.9022 520.116 71.6225C520.536 71.3427 520.556 71.1828 520.556 68.8447C520.556 66.5066 520.536 66.3467 520.116 66.0669C519.716 65.7871 518.115 65.7472 506.652 65.7672C499.509 65.7672 493.508 65.8271 493.348 65.8871Z" fill="black"/>
<path d="M543.463 66.2468L542.962 66.7264V88.1893C542.962 109.033 542.982 109.672 543.343 110.132L543.723 110.611H555.646C566.81 110.611 567.57 110.591 567.91 110.252C568.21 109.952 568.27 109.532 568.27 107.594C568.27 104.216 569.23 104.516 558.547 104.516H549.764V85.6313V66.7264L549.264 66.2468C548.804 65.7672 548.664 65.7472 546.363 65.7472C544.063 65.7472 543.923 65.7672 543.463 66.2468Z" fill="black"/>
<path d="M107.452 145.883C104.331 146.543 102.13 147.882 100.81 149.92C99.6898 151.679 99.3497 152.958 99.4697 155.116C99.7298 159.333 102.151 161.651 108.833 163.969C112.053 165.088 115.214 166.687 116.315 167.766C118.735 170.104 118.856 173.481 116.635 175.919C113.294 179.576 106.972 179.536 102.211 175.839C101.61 175.38 101.03 174.92 100.91 174.82C100.55 174.56 99.4297 175.6 99.4297 176.179C99.4297 177.138 103.531 179.616 106.332 180.336C111.933 181.775 117.755 179.596 119.876 175.3C120.496 174.041 120.536 173.841 120.536 171.863C120.536 169.884 120.496 169.664 119.876 168.425C118.575 165.787 115.575 163.829 109.933 161.871C105.251 160.252 103.331 159.013 102.311 156.954C101.19 154.636 101.75 151.699 103.671 149.98C106.472 147.442 111.093 147.202 115.555 149.38C116.575 149.88 117.495 150.28 117.615 150.28C117.935 150.28 118.635 149.261 118.635 148.761C118.635 148.361 118.335 148.141 116.795 147.402C115.775 146.902 114.394 146.363 113.734 146.183C112.274 145.803 108.672 145.624 107.452 145.883Z" fill="black"/>
<path d="M405.722 145.803C401.28 146.603 398.099 148.201 395.318 151.079C387.316 159.292 389.297 173.001 399.32 178.617C402.241 180.256 406.502 181.095 409.823 180.695C418.725 179.596 425.067 172.862 425.467 164.069C425.848 155.595 420.466 148.421 412.023 146.183C410.863 145.863 406.722 145.623 405.722 145.803ZM410.043 148.101C417.965 149.201 423.827 156.375 423.247 164.268C422.967 168.265 421.346 171.703 418.445 174.4C411.683 180.735 400.78 179.676 395.398 172.142C389.597 164.009 393.138 152.478 402.541 148.941C405.141 147.962 407.322 147.722 410.043 148.101Z" fill="black"/>
<path d="M171.011 146.303C170.671 146.483 170.651 147.262 170.651 158.133C170.651 171.243 170.671 171.403 172.071 174.24C173.592 177.318 176.313 179.456 179.854 180.396C181.594 180.855 185.115 180.855 186.856 180.396C191.357 179.216 194.598 175.979 195.778 171.463C196.079 170.324 196.139 168.745 196.199 158.693C196.239 152.378 196.239 147.002 196.179 146.762C196.038 146.223 195.158 145.983 194.398 146.263L193.858 146.483V157.514C193.838 169.764 193.758 170.743 192.637 173.041C191.377 175.599 188.716 177.658 185.895 178.237C181.054 179.236 176.373 177.258 174.312 173.361C173.052 170.963 173.052 170.883 173.052 158.213V146.702L172.611 146.403C172.091 146.043 171.511 146.003 171.011 146.303Z" fill="black"/>
<path d="M249.415 146.323C249.095 146.563 249.075 147.542 249.115 163.369L249.175 180.156L250.075 180.216C251.495 180.316 251.475 180.376 251.475 173.921V168.265H256.237C261.559 168.265 262.859 168.085 265.02 167.046C265.96 166.607 266.82 165.967 267.8 164.988C270.061 162.73 271.141 160.152 271.141 157.074C271.121 152.298 268 148.181 263.279 146.643C262.099 146.263 261.378 146.223 255.877 146.143C250.975 146.063 249.715 146.103 249.415 146.323ZM261.238 148.681C266.04 149.36 269.461 153.857 268.701 158.413C268.2 161.331 266.28 163.829 263.539 165.128L262.179 165.767L256.837 165.827L251.475 165.887V157.194V148.481H255.737C258.057 148.481 260.538 148.581 261.238 148.681Z" fill="black"/>
<path d="M321.236 146.323C320.916 146.563 320.896 147.542 320.936 163.369L320.996 180.156L321.976 180.216C322.617 180.256 323.017 180.196 323.117 180.016C323.217 179.876 323.297 177.178 323.297 174.001V168.265H328.058C333.46 168.265 334.8 168.065 337.021 166.966C338.901 166.047 340.862 164.109 341.782 162.25C343.963 157.894 343.303 153.117 340.022 149.72C338.581 148.221 337.101 147.282 335.2 146.683C333.92 146.263 333.32 146.223 327.698 146.143C322.797 146.063 321.536 146.103 321.236 146.323ZM334.8 149.041C339.702 150.839 342.022 156.095 339.922 160.611C338.761 163.069 337.061 164.608 334.54 165.448C333.42 165.827 332.84 165.867 328.298 165.867H323.297V157.154V148.441L328.458 148.521C333.14 148.601 333.7 148.641 334.8 149.041Z" fill="black"/>
<path d="M476.683 146.323C476.363 146.563 476.343 147.542 476.383 163.369L476.443 180.156L477.303 180.216C478.804 180.316 478.744 180.555 478.744 173.541V167.286L484.065 167.226L489.367 167.166L493.008 173.701L496.629 180.256H497.809C498.63 180.256 498.99 180.176 499.07 179.956C499.13 179.796 497.669 176.978 495.649 173.421C493.708 169.984 492.108 167.106 492.088 167.006C492.068 166.926 492.548 166.647 493.148 166.407C497.289 164.708 499.93 160.851 499.95 156.575C499.95 152.038 496.669 147.882 492.048 146.583C490.407 146.123 477.243 145.883 476.683 146.323ZM490.567 148.681C494.328 149.4 497.189 152.418 497.489 156.015C497.829 160.172 494.968 163.949 490.787 164.848C490.147 164.988 487.546 165.068 484.245 165.068H478.744V156.774V148.481H484.125C487.066 148.481 489.967 148.581 490.567 148.681Z" fill="black"/>
<path d="M546.524 146.223C546.103 146.323 545.863 147.082 546.043 147.782L546.163 148.281H551.065H555.966L556.006 164.209L556.066 180.156L556.927 180.216C557.407 180.256 557.927 180.176 558.087 180.036C558.327 179.836 558.367 177.458 558.367 164.049V148.281H563.269H568.17L568.29 147.782C568.47 147.022 568.23 146.343 567.73 146.203C567.21 146.063 547.044 146.083 546.524 146.223Z" fill="black"/>
</svg>
