<svg width="126" height="31" viewBox="0 0 126 31" fill="none" xmlns="http://www.w3.org/2000/svg">
<path d="M44.034 0.0857382C43.2242 0.230374 42.5377 0.6 42.0229 1.15712C41.315 1.93387 41.0522 2.99453 41.315 4.02841C41.6261 5.23907 42.4305 5.99975 44.227 6.77114C46.2649 7.64967 46.8977 8.22286 46.8977 9.19246C46.8977 9.68529 46.7261 10.0442 46.3507 10.3442C45.4444 11.0567 43.9213 10.837 42.527 9.79779C41.9693 9.37995 41.8298 9.42281 41.3955 10.1567C41.0308 10.762 41.0362 10.7835 41.5456 11.1906C42.5592 11.9995 44.227 12.4816 45.5141 12.3262C47.4232 12.1013 48.721 10.9067 48.8176 9.28353C48.8658 8.35143 48.6084 7.61753 47.9917 6.96935C47.4125 6.3533 46.6885 5.91404 45.2084 5.28193C44.0018 4.76766 43.4333 4.3659 43.1545 3.83556C43.0365 3.60522 43.0097 3.49272 43.0097 3.13381C43.0097 2.76419 43.0311 2.67312 43.1545 2.45884C43.487 1.89637 43.9321 1.66067 44.7365 1.61781C45.4229 1.58567 45.793 1.68745 46.7475 2.18028C47.3911 2.51241 47.434 2.52848 47.5895 2.4642C47.7825 2.3892 48.3456 1.55353 48.3456 1.34997C48.3456 1.08212 47.7128 0.664283 46.8119 0.342869C45.8788 0.0107412 44.9403 -0.0749683 44.034 0.0857382Z" fill="black"/>
<path d="M59.0441 0.0536442C57.6819 0.26792 56.4485 0.905391 55.5046 1.88035C54.3248 3.10172 53.7617 4.51058 53.7617 6.22479C53.7617 8.54968 55.0434 10.6389 57.0974 11.6835C59.4087 12.8513 62.2296 12.4656 64.1119 10.7246C66.686 8.34612 66.7611 4.30166 64.2781 1.81606C63.4147 0.95896 62.4441 0.42327 61.2696 0.155425C60.7387 0.032217 59.5321 -0.0213528 59.0441 0.0536442Z" fill="black"/>
<path d="M72.0543 0.139121C71.9417 0.283757 71.9417 0.294471 71.9417 6.1067C71.9417 11.7636 71.947 11.935 72.0435 12.0582C72.1401 12.1814 72.1776 12.1868 72.8158 12.1868C73.4003 12.1868 73.5022 12.1761 73.5988 12.085C73.7114 11.9832 73.7114 11.9725 73.7221 7.76734L73.7382 3.54611L77.4546 7.96019L81.171 12.3743H81.4284C81.6054 12.3743 81.7287 12.3421 81.8145 12.2725L81.9433 12.1707V6.26741V0.36411L81.8145 0.262329C81.7073 0.17662 81.6 0.160548 81.0584 0.160548C80.5167 0.160548 80.4095 0.17662 80.3022 0.262329L80.1735 0.36411L80.1574 4.46749L80.1467 8.57087L76.4357 4.28536L72.7246 -0.00015831H72.4458C72.2044 -0.00015831 72.1454 0.0212688 72.0543 0.139121Z" fill="black"/>
<path d="M88.7811 0.107252C88.6738 0.21439 88.6738 0.28403 88.6738 6.07483C88.6738 11.7639 88.6792 11.9353 88.7757 12.0585C88.8723 12.1817 88.9098 12.187 89.5587 12.187C90.2076 12.187 90.2451 12.1817 90.3417 12.0585C90.4382 11.9406 90.4435 11.7906 90.4435 7.73011V3.53031L93.8811 7.61762C95.7742 9.86751 97.4581 11.8603 97.619 12.0478L97.9193 12.3853L98.1981 12.3638C98.6969 12.321 98.6486 12.9531 98.6486 6.28911C98.6486 0.444736 98.6486 0.375096 98.5414 0.267959C98.4448 0.171535 98.3644 0.160821 97.7959 0.160821C97.2489 0.160821 97.1417 0.176891 97.0344 0.262602L96.9057 0.364383L96.8789 4.46241L96.8521 8.56043L93.1518 4.28027L89.4514 0.000114441H89.1726C88.9581 0.000114441 88.8615 0.0268984 88.7811 0.107252Z" fill="black"/>
<path d="M0.128707 0.257207L0 0.364345V6.18193C0 11.6942 0.00536279 11.9995 0.0965302 12.0906C0.176972 12.1709 0.289591 12.187 0.890223 12.187C1.56057 12.187 1.59811 12.1817 1.69464 12.0584C1.79117 11.9406 1.79653 11.8227 1.79653 9.88355V7.83186L3.42146 7.81043C4.93913 7.789 5.06247 7.77829 5.3896 7.66579C6.44607 7.29617 7.22904 6.61048 7.6956 5.6516C7.9691 5.08913 8.08172 4.59629 8.08172 3.95882C8.08172 2.2714 6.96626 0.825038 5.27162 0.310776C4.90159 0.198281 4.76752 0.192924 2.56878 0.171496C0.332493 0.155426 0.257414 0.155426 0.128707 0.257207ZM4.80506 2.01427C5.38424 2.18569 5.87225 2.60353 6.13503 3.15529C6.25837 3.41778 6.27446 3.52491 6.27446 3.99096C6.27446 4.45701 6.25301 4.56415 6.12967 4.83735C5.94197 5.23912 5.52367 5.67303 5.10537 5.89802L4.77288 6.08015L3.28739 6.09622L1.79653 6.11229V4.0231V1.92856H3.15332C4.2366 1.92856 4.5691 1.94463 4.80506 2.01427Z" fill="black"/>
<path d="M13.7234 0.294706L13.5947 0.423272L13.6055 6.20872C13.6215 11.6835 13.6269 11.9995 13.7181 12.0906C13.8092 12.1817 14.0291 12.187 17.3809 12.187H20.9525L21.0544 12.0584C21.1402 11.9567 21.1563 11.8442 21.1563 11.3728C21.1563 10.8531 21.1455 10.8049 21.0222 10.6871L20.8935 10.5532H18.1531H15.4181V8.73181V6.91047H17.7402C19.7512 6.91047 20.073 6.89976 20.1802 6.82476C20.2928 6.74976 20.2982 6.70155 20.2982 6.11229C20.2982 5.53911 20.2875 5.46947 20.1856 5.3784C20.0783 5.28197 19.9443 5.27662 17.7455 5.26055L15.4181 5.24448V3.53563V1.82142H18.1531H20.8935L21.0222 1.6875C21.1455 1.56429 21.1563 1.52143 21.1563 0.991102C21.1563 0.46077 21.1455 0.417914 21.0222 0.294706L20.8935 0.160784H17.3755H13.8575L13.7234 0.294706Z" fill="black"/>
<path d="M27.2805 0.246358L27.1625 0.326711V6.16037C27.1625 12.6101 27.1357 12.1172 27.5111 12.1922C27.6076 12.2083 27.9187 12.2137 28.1975 12.2029C29.002 12.1762 28.9322 12.4065 28.9322 9.73877V7.49959H30.2193H31.5064L32.6594 9.80306C33.6086 11.6994 33.8392 12.1172 33.9518 12.1601C34.1342 12.2297 35.3247 12.2297 35.5124 12.1547C35.684 12.0905 35.743 12.0155 35.743 11.8547C35.743 11.7851 35.2657 10.8477 34.6758 9.76556C34.0913 8.67811 33.5603 7.69244 33.496 7.56923L33.3834 7.33889L33.6622 7.19961C34.1395 6.95855 34.5203 6.67463 34.8957 6.27286C35.3247 5.81753 35.5338 5.48004 35.7269 4.9015C35.8502 4.53187 35.8717 4.38724 35.8663 3.83012C35.8663 3.28372 35.8449 3.12301 35.7269 2.75874C35.2925 1.44094 34.1824 0.48206 32.7988 0.235643C32.4985 0.182075 31.7477 0.166004 29.8976 0.160647C27.7203 0.160647 27.3878 0.171361 27.2805 0.246358ZM32.8578 2.04627C33.2868 2.24448 33.673 2.61946 33.8821 3.04801C34.0376 3.36943 34.0537 3.44442 34.0537 3.91047C34.0537 4.38188 34.0376 4.45152 33.8767 4.77829C33.6515 5.23363 33.3136 5.57111 32.8578 5.7961L32.4985 5.97288L30.7449 5.98895L28.9859 6.00502V3.93726V1.8695L30.7717 1.88557L32.5521 1.90164L32.8578 2.04627Z" fill="black"/>
<path d="M105.62 0.198288C105.4 0.278642 105.406 0.160789 105.406 6.18729V11.9835L105.518 12.0852C105.626 12.1817 105.776 12.187 109.095 12.2031C112.742 12.2192 112.833 12.2138 112.892 11.9781C112.903 11.9192 112.914 11.6031 112.903 11.2763C112.887 10.7139 112.882 10.6871 112.753 10.6228C112.651 10.5692 111.981 10.5532 109.9 10.5532H107.175V8.73182V6.91048H109.53H111.889L112.002 6.76584C112.109 6.63192 112.115 6.56228 112.099 6.04266C112.088 5.57661 112.066 5.44804 111.986 5.37305C111.9 5.28198 111.712 5.27662 109.535 5.26055L107.175 5.24448V3.53563V1.82143H109.927C112.329 1.82143 112.688 1.81071 112.796 1.73572C112.908 1.66072 112.914 1.61786 112.914 0.991108C112.914 0.364351 112.908 0.321497 112.796 0.2465C112.688 0.171503 112.259 0.160789 109.187 0.166146C107.272 0.166146 105.663 0.182218 105.62 0.198288Z" fill="black"/>
<path d="M119.054 0.294706L118.92 0.423272V6.17658C118.92 11.7638 118.925 11.9352 119.022 12.0584L119.123 12.187H122.32C125.312 12.187 125.516 12.1817 125.607 12.0906C125.688 12.0102 125.704 11.8977 125.704 11.3781C125.704 10.4728 125.961 10.5532 123.097 10.5532H120.743V5.49089V0.423272L120.609 0.294706C120.486 0.166141 120.448 0.160784 119.831 0.160784C119.215 0.160784 119.177 0.166141 119.054 0.294706Z" fill="black"/>
<path d="M2.1766 21.6419C1.34001 21.8187 0.750099 22.1776 0.396155 22.724C0.0958393 23.1954 0.0046719 23.5382 0.0368486 24.1168C0.106565 25.2471 0.755462 25.8685 2.54663 26.4899C3.41004 26.7899 4.25736 27.2184 4.55232 27.5077C5.20121 28.1344 5.23339 29.0397 4.63812 29.6933C3.74253 30.6736 2.04789 30.6629 0.771551 29.6719C0.610667 29.5487 0.455146 29.4254 0.422969 29.3987C0.326439 29.329 0.026123 29.6076 0.026123 29.7629C0.026123 30.0201 1.12549 30.6843 1.87628 30.8772C3.37787 31.2629 4.93844 30.679 5.50689 29.5272C5.67314 29.1897 5.68386 29.1362 5.68386 28.6058C5.68386 28.0755 5.67314 28.0166 5.50689 27.6845C5.15831 26.9773 4.35389 26.4524 2.84159 25.9274C1.58669 25.4935 1.07187 25.1614 0.798364 24.6096C0.498048 23.9882 0.648206 23.2007 1.16303 22.74C1.91382 22.0597 3.15263 21.9954 4.34853 22.5793C4.62203 22.7133 4.86872 22.8204 4.9009 22.8204C4.9867 22.8204 5.1744 22.5472 5.1744 22.4133C5.1744 22.3061 5.09396 22.2472 4.68102 22.049C4.40752 21.9151 4.03749 21.7704 3.86052 21.7222C3.46903 21.6204 2.50373 21.5722 2.1766 21.6419Z" fill="black"/>
<path d="M82.1312 21.6204C80.9407 21.8347 80.088 22.2633 79.3426 23.0346C77.1975 25.2363 77.7284 28.9112 80.4152 30.4164C81.1981 30.8557 82.3404 31.0807 83.2306 30.9736C85.6171 30.6789 87.3171 28.8737 87.4243 26.5166C87.5262 24.2453 86.0836 22.3222 83.8205 21.7222C83.5095 21.6365 82.3994 21.5722 82.1312 21.6204ZM83.2896 22.2365C85.4133 22.5311 86.9846 24.4542 86.8291 26.5702C86.754 27.6416 86.3196 28.563 85.542 29.2861C83.7294 30.9843 80.8066 30.7004 79.3641 28.6808C77.8088 26.5006 78.7581 23.4096 81.2786 22.4615C81.9757 22.199 82.5603 22.1347 83.2896 22.2365Z" fill="black"/>
<path d="M19.2147 21.7543C19.1235 21.8025 19.1182 22.0115 19.1182 24.9256C19.1182 28.4397 19.1235 28.4826 19.4989 29.2433C19.9065 30.0682 20.6358 30.6414 21.585 30.8932C22.0516 31.0164 22.9955 31.0164 23.462 30.8932C24.6686 30.5771 25.5374 29.7093 25.8538 28.4987C25.9343 28.1933 25.9504 27.7701 25.9664 25.0756C25.9772 23.3828 25.9772 21.9418 25.9611 21.8775C25.9235 21.7329 25.6876 21.6686 25.4838 21.7436L25.339 21.8025V24.7595C25.3336 28.0433 25.3122 28.3058 25.0119 28.9219C24.674 29.6075 23.9608 30.1593 23.2046 30.3146C21.9068 30.5825 20.6519 30.0522 20.0996 29.0076C19.7617 28.3647 19.7617 28.3433 19.7617 24.947V21.8615L19.6437 21.7811C19.5043 21.6847 19.3488 21.674 19.2147 21.7543Z" fill="black"/>
<path d="M40.2315 21.7598C40.1457 21.8241 40.1403 22.0866 40.151 26.3293L40.1671 30.8291L40.4085 30.8451C40.7892 30.8719 40.7838 30.888 40.7838 29.1577V27.6417H42.0602C43.4867 27.6417 43.8353 27.5935 44.4145 27.3149C44.6665 27.1971 44.8971 27.0257 45.1599 26.7632C45.7659 26.1579 46.0555 25.4668 46.0555 24.6419C46.0501 23.3616 45.2135 22.258 43.9479 21.8456C43.6315 21.7438 43.4384 21.7331 41.9637 21.7116C40.6498 21.6902 40.3119 21.7009 40.2315 21.7598ZM43.4009 22.392C44.688 22.5741 45.605 23.7794 45.4012 25.0008C45.2671 25.7829 44.7523 26.4525 44.0176 26.8007L43.6529 26.9721L42.2211 26.9882L40.7838 27.0042V24.674V22.3384H41.9261C42.5482 22.3384 43.2132 22.3652 43.4009 22.392Z" fill="black"/>
<path d="M59.4839 21.7597C59.3981 21.824 59.3928 22.0865 59.4035 26.3291L59.4196 30.8289L59.6823 30.845C59.854 30.8557 59.9612 30.8396 59.988 30.7914C60.0148 30.7539 60.0363 30.0307 60.0363 29.179V27.6415H61.3126C62.7606 27.6415 63.1199 27.588 63.7152 27.2934C64.2193 27.0469 64.7448 26.5273 64.9915 26.0291C65.576 24.8613 65.3991 23.581 64.5196 22.6704C64.1335 22.2686 63.7366 22.0168 63.2271 21.8561C62.8839 21.7436 62.723 21.7329 61.2161 21.7115C59.9022 21.69 59.5644 21.7008 59.4839 21.7597ZM63.1199 22.4882C64.4338 22.9703 65.0559 24.3792 64.4928 25.5899C64.1817 26.2488 63.7259 26.6612 63.0502 26.8862C62.7499 26.988 62.5943 26.9987 61.377 26.9987H60.0363V24.6631V22.3275L61.4199 22.3489C62.6748 22.3704 62.8249 22.3811 63.1199 22.4882Z" fill="black"/>
<path d="M101.153 21.7597C101.067 21.824 101.062 22.0865 101.072 26.3291L101.089 30.8289L101.319 30.845C101.721 30.8718 101.705 30.9361 101.705 29.0558V27.3791L103.132 27.363L104.553 27.3469L105.529 29.0987L106.5 30.8557H106.816C107.036 30.8557 107.132 30.8343 107.154 30.7754C107.17 30.7325 106.778 29.9772 106.237 29.0237C105.717 28.1023 105.288 27.3309 105.282 27.3041C105.277 27.2827 105.406 27.2077 105.566 27.1434C106.677 26.688 107.384 25.6542 107.39 24.5078C107.39 23.2918 106.51 22.1775 105.271 21.8293C104.832 21.7061 101.303 21.6419 101.153 21.7597ZM104.875 22.3918C105.883 22.5847 106.65 23.3936 106.73 24.3578C106.821 25.472 106.054 26.4845 104.934 26.7255C104.762 26.763 104.065 26.7845 103.18 26.7845H101.705V24.5614V22.3383H103.148C103.936 22.3383 104.714 22.365 104.875 22.3918Z" fill="black"/>
<path d="M119.874 21.7328C119.762 21.7596 119.697 21.9632 119.746 22.1507L119.778 22.2846H121.092H122.406L122.416 26.554L122.432 30.8288L122.663 30.8449C122.792 30.8556 122.931 30.8342 122.974 30.7967C123.038 30.7431 123.049 30.1056 123.049 26.5112V22.2846H124.363H125.677L125.709 22.1507C125.757 21.9471 125.693 21.765 125.559 21.7275C125.42 21.69 120.014 21.6953 119.874 21.7328Z" fill="black"/>
</svg>
