<svg width="398" height="360" viewBox="0 0 398 360" fill="none" xmlns="http://www.w3.org/2000/svg">
<path d="M27.064 349.969L128.137 240.309H187.749L270.342 149.383H329.954L396.172 158.497L120.112 359.269L93.7629 359.534L27.064 349.969Z" fill="white"/>
<path d="M93.7631 359.998C93.7401 360.001 93.717 360.001 93.694 359.998L26.9931 350.434C26.9074 350.421 26.8268 350.387 26.7597 350.334C26.6927 350.281 26.6418 350.211 26.6124 350.132C26.583 350.053 26.5763 349.968 26.5928 349.886C26.6094 349.803 26.6487 349.727 26.7065 349.665L127.779 239.996C127.824 239.948 127.879 239.909 127.941 239.883C128.003 239.856 128.069 239.843 128.137 239.843H187.534L269.982 149.074C270.027 149.024 270.082 148.984 270.144 148.957C270.206 148.929 270.274 148.915 270.342 148.915H329.955H330.024L396.239 158.027C396.333 158.04 396.42 158.08 396.491 158.141C396.561 158.203 396.611 158.282 396.635 158.371C396.659 158.46 396.654 158.554 396.623 158.64C396.592 158.726 396.534 158.802 396.459 158.857L120.4 359.638C120.318 359.698 120.219 359.731 120.116 359.731L93.7692 359.998H93.7631ZM28.0132 349.635L93.7956 359.078L119.949 358.814L394.959 158.798L329.93 149.847H270.559L188.111 240.616C188.066 240.666 188.01 240.705 187.948 240.732C187.886 240.759 187.818 240.773 187.75 240.773H128.352L28.0132 349.635Z" fill="black"/>
<path d="M270.342 149.383L338.577 159.784L397.184 158.69L329.272 149.383H270.342Z" fill="white"/>
<path d="M338.577 160.248H338.504L270.267 149.841C270.148 149.823 270.041 149.762 269.966 149.67C269.892 149.579 269.855 149.463 269.865 149.347C269.874 149.231 269.928 149.122 270.016 149.043C270.104 148.964 270.22 148.919 270.34 148.918H329.272H329.339L397.251 158.224C397.369 158.242 397.476 158.301 397.55 158.392C397.625 158.482 397.663 158.595 397.655 158.711C397.648 158.826 397.596 158.935 397.511 159.015C397.425 159.096 397.311 159.142 397.192 159.146L338.587 160.242L338.577 160.248ZM276.467 149.847L338.61 159.319L391.195 158.336L329.237 149.845L276.467 149.847Z" fill="black"/>
<path d="M128.137 240.309L191.558 250.802L254.979 249.681L187.067 240.309H128.137Z" fill="white"/>
<path d="M191.558 251.267C191.531 251.268 191.504 251.268 191.477 251.267L128.055 240.775C127.938 240.754 127.834 240.692 127.762 240.6C127.69 240.508 127.655 240.394 127.665 240.279C127.675 240.164 127.729 240.057 127.816 239.979C127.904 239.9 128.018 239.856 128.137 239.854H187.069C187.091 239.853 187.114 239.853 187.136 239.854L255.048 249.226C255.166 249.244 255.273 249.304 255.347 249.394C255.422 249.485 255.459 249.598 255.452 249.714C255.445 249.829 255.393 249.938 255.308 250.018C255.222 250.099 255.108 250.145 254.989 250.149L191.568 251.27L191.558 251.267ZM133.786 240.783L191.594 250.348L248.988 249.333L187.032 240.783H133.786Z" fill="black"/>
<path d="M396.743 158.663H338.26L257.731 249.589H191.235L93.7632 359.535H396.743V158.663Z" fill="white"/>
<path d="M133.036 359.928H93.7631C93.6713 359.928 93.5814 359.903 93.504 359.855C93.4267 359.807 93.3652 359.738 93.3269 359.657C93.2886 359.577 93.2751 359.487 93.2879 359.399C93.3008 359.311 93.3394 359.228 93.3994 359.161L190.162 250.329C190.206 250.279 190.261 250.239 190.322 250.211C190.383 250.184 190.45 250.169 190.517 250.167L257.507 249.38L337.297 159.339C337.341 159.29 337.396 159.25 337.457 159.222C337.518 159.194 337.585 159.179 337.653 159.178L396.948 158.173C397.074 158.176 397.194 158.224 397.284 158.309C397.375 158.393 397.429 158.508 397.436 158.629C397.437 158.69 397.426 158.751 397.403 158.808C397.38 158.864 397.345 158.916 397.301 158.96C397.258 159.004 397.205 159.039 397.148 159.063C397.09 159.087 397.028 159.1 396.965 159.101L337.884 160.103L258.094 250.136C258.049 250.185 257.995 250.225 257.933 250.253C257.871 250.281 257.805 250.296 257.737 250.297L190.747 251.084L94.8077 359H133.036C133.163 359 133.285 359.048 133.375 359.136C133.465 359.223 133.516 359.341 133.516 359.464C133.516 359.587 133.465 359.705 133.375 359.792C133.285 359.879 133.163 359.928 133.036 359.928Z" fill="black"/>
<path d="M396.956 193.605C396.893 193.605 396.831 193.593 396.772 193.57C396.714 193.547 396.661 193.513 396.616 193.47C396.572 193.426 396.537 193.375 396.513 193.319C396.489 193.262 396.476 193.202 396.477 193.141V158.639C396.477 158.516 396.527 158.398 396.617 158.311C396.707 158.224 396.829 158.175 396.956 158.175C397.083 158.175 397.205 158.224 397.295 158.311C397.385 158.398 397.436 158.516 397.436 158.639V193.141C397.436 193.202 397.423 193.262 397.399 193.318C397.375 193.375 397.34 193.426 397.295 193.469C397.251 193.512 397.198 193.546 397.14 193.57C397.082 193.593 397.019 193.605 396.956 193.605Z" fill="black"/>
<path d="M174.484 346.533C174.392 346.533 174.302 346.507 174.225 346.46C174.148 346.412 174.086 346.344 174.048 346.263C174.009 346.183 173.995 346.093 174.008 346.005C174.02 345.917 174.058 345.835 174.118 345.767L210.115 304.864C210.152 304.808 210.2 304.761 210.257 304.724C210.314 304.688 210.379 304.664 210.446 304.654C210.514 304.643 210.583 304.647 210.649 304.665C210.715 304.682 210.776 304.714 210.828 304.756C210.881 304.798 210.923 304.851 210.953 304.911C210.982 304.97 210.999 305.035 211 305.102C211.002 305.168 210.989 305.233 210.962 305.294C210.935 305.355 210.895 305.41 210.845 305.454L174.856 346.359C174.811 346.414 174.754 346.457 174.69 346.487C174.626 346.517 174.555 346.533 174.484 346.533Z" fill="black"/>
<path d="M168.971 320.443C168.879 320.444 168.789 320.419 168.711 320.371C168.634 320.323 168.572 320.255 168.534 320.174C168.496 320.093 168.482 320.003 168.495 319.915C168.508 319.827 168.547 319.745 168.607 319.678L180.04 306.686C180.076 306.63 180.125 306.582 180.182 306.546C180.239 306.51 180.303 306.486 180.371 306.475C180.439 306.465 180.508 306.469 180.573 306.487C180.639 306.504 180.7 306.535 180.753 306.578C180.805 306.62 180.848 306.673 180.877 306.733C180.907 306.792 180.923 306.857 180.925 306.923C180.926 306.989 180.913 307.055 180.887 307.116C180.86 307.177 180.82 307.232 180.769 307.276L169.339 320.26C169.295 320.315 169.24 320.36 169.176 320.392C169.113 320.424 169.042 320.441 168.971 320.443Z" fill="black"/>
<path d="M59.2476 144.931C59.2476 144.931 86.275 158.768 94.7653 154.533C103.256 150.298 116.513 131.994 116.513 131.994L112.396 123.142C112.396 123.142 97.7139 146.749 70.3898 134.355C64.1755 131.53 59.2476 144.931 59.2476 144.931Z" fill="white"/>
<path d="M90.5076 155.798C79.5889 155.798 59.9808 145.832 59.0217 145.342C58.92 145.289 58.8411 145.203 58.7993 145.1C58.7576 144.996 58.7557 144.881 58.794 144.775C58.9302 144.408 62.1593 135.754 66.8393 133.863C67.4325 133.61 68.0755 133.485 68.7236 133.497C69.3717 133.508 70.0095 133.656 70.5927 133.93C81.7532 138.998 92.1029 138.691 101.351 133.023C108.273 128.782 111.949 122.957 111.985 122.9C112.03 122.827 112.095 122.767 112.172 122.727C112.25 122.688 112.337 122.67 112.424 122.675C112.511 122.68 112.595 122.708 112.667 122.756C112.738 122.804 112.795 122.87 112.831 122.947L116.948 131.799C116.982 131.873 116.996 131.953 116.989 132.033C116.981 132.114 116.951 132.19 116.903 132.256C116.361 133.007 103.491 150.711 94.9824 154.952C93.7916 155.54 92.2614 155.798 90.5076 155.798ZM59.8447 144.71C63.1266 146.345 86.9026 157.932 94.5455 154.12C102.345 150.231 114.446 133.997 115.964 131.931L112.319 124.102C109.53 127.958 105.989 131.248 101.896 133.788C95.3299 137.823 84.4986 141.264 70.1944 134.772C69.7322 134.552 69.2256 134.433 68.7107 134.424C68.1958 134.416 67.6852 134.517 67.2152 134.721C63.4395 136.241 60.5193 143.027 59.8447 144.71Z" fill="black"/>
<path d="M303.35 142.147L292.116 134.434C291.227 133.832 290.535 132.996 290.12 132.026C289.705 131.056 289.586 129.991 289.775 128.957C290.194 126.737 290.515 124.515 290.739 122.292C290.851 121.25 291.267 120.26 291.938 119.438C292.61 118.617 293.509 117.997 294.53 117.651L307.485 113.174C308.72 112.752 309.768 111.934 310.456 110.856C311.143 109.777 311.429 108.504 311.265 107.246L309.875 96.7275C309.704 95.4674 309.096 94.3008 308.151 93.4185C307.206 92.5362 305.98 91.9904 304.673 91.8703L290.921 90.568C289.834 90.4685 288.798 90.074 287.933 89.4298C287.067 88.7856 286.407 87.918 286.028 86.9266C285.242 84.8387 284.369 82.7849 283.409 80.7652C282.955 79.8097 282.793 78.7484 282.943 77.7068C283.092 76.6652 283.546 75.6867 284.252 74.8871L292.045 66.0108L294.949 72.1093L299.255 48.7423L283.242 47.2767C282.022 47.0183 280.749 47.1459 279.611 47.6407L267.068 53.0978C266.072 53.5318 264.97 53.6863 263.887 53.5437C262.805 53.4011 261.786 52.9671 260.945 52.2913C259.184 50.8657 257.355 49.5037 255.459 48.2053C254.567 47.5985 253.872 46.7578 253.457 45.782C253.042 44.8061 252.923 43.7358 253.115 42.697L255.526 29.662C255.712 28.6512 255.603 27.61 255.211 26.656L256.342 20.5064L240.632 19.0742C239.554 18.8832 238.441 18.9913 237.424 19.386C236.406 19.7807 235.525 20.446 234.881 21.3051L226.87 32.0581C226.235 32.9142 225.362 33.5789 224.353 33.9757C223.345 34.3725 222.24 34.4852 221.168 34.3008C218.853 33.8942 216.537 33.5801 214.22 33.3584C213.854 33.3241 213.491 33.2543 213.139 33.1499L216.452 15.1732L200.467 13.7115C199.818 13.5734 199.15 13.5435 198.492 13.623L187.534 14.9292C186.231 15.0773 185.02 15.6518 184.1 16.5577C183.18 17.4637 182.608 18.6465 182.478 19.9103L181.157 33.1007C181.055 34.1447 180.648 35.139 179.984 35.9674C179.319 36.7957 178.425 37.424 177.406 37.7789C175.211 38.5343 173.052 39.3756 170.928 40.3028C170.135 40.643 169.273 40.8056 168.406 40.7787C167.539 40.7518 166.689 40.536 165.92 40.1474L166.936 31.2948L152.421 29.8941C151.52 29.5929 150.557 29.5096 149.616 29.6515C148.674 29.7935 147.783 30.1564 147.019 30.7086L138.224 37.0982C137.177 37.8566 136.43 38.9398 136.108 40.1671C135.785 41.3943 135.908 42.6915 136.454 43.8419L142.173 55.8913C142.628 56.8447 142.792 57.9043 142.646 58.945C142.5 59.9858 142.049 60.9644 141.348 61.7655C139.866 63.4547 138.451 65.2102 137.105 67.0318C136.524 67.8097 135.747 68.4302 134.848 68.8336C133.949 69.237 132.958 69.4098 131.969 69.3355L132.943 68.5486L118.391 67.0338L117.781 66.9276C116.489 66.7009 115.156 66.9052 114 67.5069C112.843 68.1087 111.932 69.0723 111.414 70.2404L107.147 80.0039C106.64 81.1704 106.56 82.4696 106.921 83.686C107.281 84.9025 108.06 85.9632 109.128 86.6925L120.356 94.4199C121.245 95.0221 121.939 95.8574 122.356 96.8277C122.773 97.7981 122.895 98.8634 122.709 99.8987C122.29 102.12 121.969 104.342 121.746 106.564C121.633 107.605 121.217 108.595 120.545 109.416C119.874 110.237 118.975 110.857 117.954 111.203L104.999 115.666C103.764 116.088 102.716 116.906 102.028 117.984C101.34 119.062 101.055 120.336 101.219 121.594L102.615 132.12C102.769 133.259 103.28 134.324 104.08 135.171C104.879 136.019 105.929 136.608 107.086 136.859L107.163 136.873C107.248 136.891 107.336 136.909 107.421 136.922L123.65 139.956L121.618 138.284C122.69 138.388 123.711 138.781 124.566 139.418C125.42 140.055 126.072 140.91 126.45 141.888C127.243 143.997 128.123 146.071 129.092 148.112C129.54 149.065 129.697 150.122 129.545 151.159C129.392 152.195 128.937 153.168 128.232 153.963L119.344 164.084C118.496 165.048 118.015 166.265 117.982 167.53C117.949 168.796 118.366 170.034 119.163 171.038L125.845 179.348C126.861 180.642 128.387 180.922 129.984 181.392L146.444 184.481L146.755 175.286C147.597 175.14 148.461 175.176 149.286 175.39C150.112 175.604 150.879 175.991 151.533 176.523C153.297 177.949 155.132 179.33 157.032 180.627C157.924 181.236 158.618 182.079 159.033 183.057C159.448 184.034 159.567 185.106 159.375 186.147L156.963 199.184C156.736 200.434 156.956 201.721 157.586 202.834C158.217 203.947 159.221 204.818 160.432 205.304L170.615 209.435C171.314 209.717 172.064 209.865 172.822 209.87L172.75 209.915L189.03 212.943C189.03 212.943 186.908 200.569 186.969 200.746C187.004 200.844 182.511 203.726 178.568 206.234L185.6 196.792C186.236 195.935 187.109 195.271 188.119 194.875C189.129 194.479 190.233 194.367 191.306 194.553C193.618 194.959 195.934 195.273 198.252 195.493C199.332 195.6 200.359 195.999 201.216 196.645C202.073 197.291 202.724 198.157 203.096 199.144L207.815 211.589C208.628 213.716 210.632 215.264 212.962 215.264L229.774 218.317L228.774 211.855C229.464 211.02 229.888 210.008 229.994 208.943L231.313 195.751C231.418 194.703 231.83 193.705 232.499 192.875C233.169 192.045 234.069 191.417 235.094 191.065C237.262 190.315 239.4 189.481 241.508 188.565C242.506 188.132 243.61 187.981 244.693 188.126C245.777 188.272 246.796 188.71 247.635 189.389L258.202 197.948C259.052 198.635 260.086 199.073 261.183 199.211L276.678 202.117L276.963 185.167L276.3 185.757C276.224 185.5 276.128 185.248 276.014 185.004L270.295 172.954C269.84 172.001 269.676 170.941 269.823 169.9C269.969 168.86 270.42 167.881 271.122 167.08C272.603 165.39 274.017 163.634 275.363 161.814C276.005 160.956 276.883 160.29 277.899 159.895C278.914 159.5 280.023 159.39 281.1 159.579L294.687 161.928C295.979 162.155 297.312 161.95 298.468 161.349C299.625 160.747 300.536 159.783 301.054 158.615L305.321 148.852C305.833 147.684 305.917 146.382 305.558 145.163C305.199 143.943 304.42 142.879 303.35 142.147ZM199.605 159.477C173.669 155.9 155.611 132.828 159.273 107.947C162.935 83.0649 186.931 65.7925 212.867 69.3709C238.803 72.9493 256.855 96.0193 253.197 120.901C249.539 145.783 225.543 163.055 199.605 159.477Z" fill="black"/>
<path d="M320.146 144.465L308.912 136.751C308.022 136.149 307.328 135.314 306.912 134.343C306.495 133.373 306.372 132.308 306.559 131.272C306.977 129.053 307.298 126.832 307.522 124.607C307.635 123.566 308.052 122.576 308.724 121.755C309.395 120.934 310.294 120.314 311.316 119.969L324.271 115.491C325.506 115.069 326.554 114.251 327.242 113.172C327.929 112.094 328.215 110.819 328.051 109.562L326.663 99.0429C326.491 97.7827 325.883 96.6161 324.938 95.7338C323.992 94.8515 322.766 94.3058 321.458 94.1858L307.709 92.8855C306.622 92.786 305.585 92.3913 304.72 91.7467C303.854 91.1021 303.194 90.2339 302.816 89.2421C302.028 87.1542 301.155 85.1004 300.194 83.0807C299.74 82.1252 299.579 81.0639 299.728 80.0223C299.878 78.9806 300.332 78.0022 301.037 77.2025L309.928 67.0751C310.776 66.1105 311.256 64.8936 311.288 63.6277C311.321 62.3617 310.904 61.1232 310.107 60.1189L303.425 51.6598C302.624 50.6492 301.494 49.9299 300.218 49.6183C298.942 49.3066 297.595 49.4208 296.394 49.9424L283.854 55.4015C282.857 55.8356 281.754 55.99 280.672 55.847C279.589 55.7041 278.569 55.2695 277.729 54.5929C275.968 53.1673 274.139 51.806 272.242 50.5089C271.351 49.9014 270.657 49.0605 270.242 48.0849C269.827 47.1093 269.708 46.0394 269.899 45.0006L272.299 31.9735C272.526 30.7238 272.306 29.4366 271.675 28.3242C271.045 27.2119 270.041 26.341 268.83 25.8554L258.647 21.7241C257.435 21.2307 256.086 21.1486 254.82 21.4911C253.554 21.8336 252.445 22.5806 251.673 23.6107L243.664 34.3716C243.029 35.2295 242.155 35.8959 241.145 36.2934C240.135 36.691 239.029 36.8036 237.956 36.6182C235.642 36.209 233.326 35.8949 231.008 35.6759C229.929 35.5685 228.902 35.1691 228.047 34.5233C227.191 33.8776 226.54 33.0117 226.169 32.0246L221.471 19.5798C221.015 18.3862 220.155 17.377 219.032 16.7159C217.909 16.0549 216.588 15.7809 215.283 15.9384L204.326 17.2447C203.026 17.3957 201.817 17.9709 200.9 18.8757C199.983 19.7804 199.412 20.9606 199.28 22.2218L197.959 35.4142C197.857 36.4582 197.451 37.4524 196.786 38.2806C196.122 39.1087 195.227 39.7365 194.208 40.0904C192.013 40.8484 189.854 41.6897 187.731 42.6144C186.736 43.0414 185.637 43.1893 184.559 43.0411C183.481 42.893 182.468 42.4547 181.635 41.7763L171.068 33.2188C170.059 32.4009 168.795 31.9365 167.48 31.9008C166.165 31.8651 164.876 32.2601 163.821 33.022L155.026 39.4136C153.979 40.1717 153.232 41.2546 152.91 42.4815C152.587 43.7084 152.71 45.0052 153.256 46.1554L158.968 58.2225C159.424 59.1761 159.587 60.2357 159.441 61.2765C159.294 62.3173 158.843 63.2958 158.141 64.0967C156.661 65.7872 155.247 67.5427 153.9 69.363C153.26 70.2221 152.382 70.888 151.367 71.2839C150.352 71.6797 149.242 71.7892 148.166 71.5998L134.577 69.2391C133.286 69.0141 131.954 69.2196 130.8 69.822C129.645 70.4245 128.736 71.3883 128.22 72.5559L123.953 82.3194C123.446 83.4861 123.366 84.7854 123.727 86.002C124.088 87.2186 124.867 88.2792 125.936 89.008L137.162 96.7295C138.051 97.3314 138.745 98.1667 139.162 99.1372C139.578 100.108 139.7 101.173 139.513 102.208C139.094 104.427 138.773 106.649 138.55 108.873C138.437 109.915 138.021 110.904 137.349 111.726C136.678 112.547 135.779 113.167 134.758 113.512L121.803 117.99C120.568 118.412 119.521 119.23 118.833 120.308C118.145 121.386 117.86 122.66 118.023 123.917L119.413 134.438C119.585 135.698 120.193 136.865 121.138 137.747C122.083 138.629 123.31 139.175 124.617 139.295L138.365 140.595C139.446 140.693 140.477 141.083 141.34 141.722C142.203 142.361 142.862 143.222 143.242 144.207C144.036 146.316 144.916 148.391 145.883 150.431C146.331 151.384 146.488 152.441 146.335 153.477C146.183 154.513 145.728 155.486 145.024 156.28L136.145 166.402C135.298 167.366 134.818 168.583 134.785 169.849C134.753 171.115 135.17 172.354 135.967 173.358L142.648 181.817C143.448 182.826 144.576 183.544 145.85 183.856C147.123 184.168 148.468 184.055 149.667 183.536L162.21 178.079C163.206 177.645 164.308 177.491 165.391 177.634C166.473 177.777 167.493 178.211 168.333 178.888C170.094 180.315 171.926 181.676 173.829 182.972C174.721 183.579 175.416 184.419 175.831 185.395C176.246 186.371 176.364 187.441 176.173 188.48L173.762 201.513C173.535 202.763 173.754 204.05 174.385 205.162C175.015 206.274 176.019 207.145 177.229 207.631L187.414 211.762C188.626 212.256 189.974 212.338 191.24 211.995C192.506 211.653 193.615 210.906 194.387 209.876L202.397 199.115C203.032 198.258 203.905 197.593 204.914 197.196C205.923 196.799 207.027 196.686 208.1 196.87C210.415 197.28 212.731 197.594 215.047 197.813C216.128 197.919 217.155 198.318 218.012 198.964C218.869 199.609 219.521 200.476 219.892 201.464L224.59 213.907C225.045 215.101 225.904 216.111 227.027 216.772C228.15 217.434 229.472 217.708 230.776 217.55L241.733 216.244C243.035 216.094 244.244 215.518 245.162 214.613C246.08 213.707 246.651 212.525 246.781 211.263L248.104 198.068C248.208 197.019 248.619 196.019 249.289 195.188C249.959 194.356 250.86 193.726 251.886 193.373C254.054 192.624 256.192 191.791 258.302 190.874C259.3 190.441 260.404 190.289 261.487 190.434C262.571 190.58 263.59 191.018 264.428 191.698L274.996 200.256C276.005 201.074 277.269 201.538 278.585 201.574C279.9 201.609 281.189 201.214 282.244 200.453L291.039 194.061C292.087 193.303 292.834 192.22 293.156 190.993C293.478 189.766 293.356 188.469 292.809 187.319L287.095 175.274C286.639 174.32 286.475 173.26 286.621 172.219C286.767 171.178 287.218 170.199 287.92 169.398C289.402 167.71 290.816 165.955 292.163 164.133C292.804 163.273 293.683 162.606 294.699 162.21C295.715 161.815 296.826 161.706 297.904 161.897L311.491 164.243C312.783 164.471 314.116 164.266 315.272 163.665C316.429 163.063 317.34 162.099 317.857 160.931L322.125 151.167C322.635 149.999 322.718 148.697 322.357 147.478C321.997 146.258 321.217 145.195 320.146 144.465ZM216.401 161.794C190.465 158.216 172.407 135.142 176.069 110.262C179.731 85.3824 203.724 68.1099 229.663 71.6864C255.601 75.2628 273.656 98.3367 269.994 123.228C266.333 148.12 242.337 165.371 216.401 161.794Z" fill="white"/>
<path d="M230.043 218.05C228.756 218.052 227.5 217.669 226.445 216.955C225.391 216.241 224.589 215.229 224.15 214.058L219.451 201.615C219.109 200.712 218.511 199.919 217.726 199.328C216.941 198.736 216 198.37 215.011 198.271C212.696 198.051 210.337 197.732 208.025 197.323C207.041 197.156 206.029 197.261 205.104 197.625C204.18 197.989 203.38 198.598 202.796 199.383L194.787 210.143C193.956 211.263 192.756 212.076 191.384 212.447C190.012 212.818 188.55 212.726 187.24 212.185L177.055 208.054C175.74 207.532 174.65 206.59 173.967 205.383C173.283 204.177 173.049 202.78 173.301 201.427L175.711 188.392C175.884 187.438 175.773 186.457 175.391 185.562C175.009 184.667 174.371 183.897 173.553 183.34C171.645 182.037 169.786 180.654 168.026 179.232C167.254 178.614 166.318 178.216 165.325 178.085C164.332 177.954 163.32 178.095 162.405 178.49L149.865 183.95C148.566 184.519 147.107 184.645 145.725 184.307C144.343 183.969 143.12 183.188 142.256 182.09L135.575 173.631C134.706 172.544 134.252 171.201 134.29 169.827C134.327 168.453 134.852 167.134 135.778 166.093L144.666 155.971C145.31 155.244 145.726 154.353 145.866 153.405C146.006 152.457 145.864 151.49 145.457 150.616C144.486 148.578 143.589 146.471 142.795 144.359C142.443 143.456 141.837 142.667 141.045 142.082C140.252 141.497 139.306 141.139 138.314 141.05L124.562 139.755C123.145 139.631 121.814 139.042 120.79 138.086C119.765 137.13 119.109 135.863 118.929 134.497L117.541 123.976C117.357 122.613 117.664 121.23 118.409 120.061C119.155 118.891 120.293 118.005 121.634 117.553L134.589 113.075C135.524 112.757 136.346 112.19 136.961 111.438C137.577 110.686 137.96 109.782 138.066 108.828C138.288 106.605 138.615 104.349 139.033 102.124C139.202 101.176 139.089 100.201 138.707 99.3127C138.325 98.4245 137.691 97.6597 136.877 97.1073L125.64 89.3937C124.475 88.6073 123.626 87.4565 123.235 86.1351C122.844 84.8138 122.936 83.4024 123.494 82.1385L127.761 72.375C128.316 71.1044 129.303 70.0558 130.558 69.4031C131.814 68.7504 133.262 68.5329 134.662 68.7867L148.249 71.1337C149.236 71.3047 150.253 71.2034 151.184 70.8412C152.114 70.4791 152.92 69.8707 153.51 69.0858C154.862 67.2582 156.298 65.4759 157.778 63.7899C158.416 63.0557 158.826 62.1613 158.959 61.2106C159.093 60.26 158.946 59.292 158.534 58.4193L152.809 46.3601C152.21 45.1146 152.074 43.7072 152.423 42.3756C152.772 41.0441 153.586 39.87 154.726 39.0518L163.521 32.6621C164.658 31.8311 166.053 31.3981 167.478 31.4339C168.903 31.4696 170.273 31.9719 171.365 32.8589L181.932 41.4164C182.697 42.0371 183.627 42.4383 184.615 42.5746C185.604 42.7108 186.612 42.5768 187.526 42.1876C189.65 41.261 191.843 40.4072 194.041 39.6498C194.974 39.3227 195.791 38.7466 196.399 37.9883C197.006 37.23 197.38 36.3205 197.476 35.3651L198.797 22.1846C198.931 20.8149 199.547 19.5313 200.541 18.5487C201.536 17.5661 202.849 16.9439 204.261 16.7864L215.22 15.4802C216.632 15.3038 218.063 15.5971 219.279 16.3121C220.496 17.027 221.425 18.1211 221.914 19.4147L226.623 31.8615C226.965 32.7657 227.562 33.5586 228.347 34.1499C229.133 34.7412 230.073 35.1071 231.063 35.2058C233.38 35.4261 235.737 35.7448 238.049 36.154C239.033 36.3208 240.045 36.2161 240.97 35.8518C241.894 35.4876 242.694 34.8784 243.278 34.0943L251.287 23.3334C252.118 22.2137 253.318 21.4013 254.69 21.0301C256.062 20.659 257.524 20.7511 258.834 21.2914L269.017 25.4227C270.334 25.9444 271.426 26.8883 272.109 28.0963C272.793 29.3043 273.027 30.703 272.773 32.0582L270.362 45.0932C270.189 46.0438 270.299 47.0224 270.677 47.9154C271.056 48.8083 271.689 49.5787 272.502 50.1372C274.404 51.4356 276.264 52.8166 278.032 54.2448C278.804 54.8635 279.739 55.2607 280.732 55.3914C281.725 55.5221 282.736 55.3812 283.651 54.9845L296.193 49.5274C297.491 48.9587 298.95 48.8326 300.331 49.1699C301.713 49.5072 302.935 50.2879 303.799 51.3844L310.481 59.8436C311.349 60.9301 311.804 62.2736 311.766 63.6469C311.729 65.0202 311.204 66.339 310.278 67.3802L301.401 77.5017C300.758 78.2354 300.343 79.1314 300.206 80.0849C300.069 81.0384 300.215 82.01 300.627 82.886C301.588 84.9064 302.476 86.9917 303.269 89.0809C303.618 89.9899 304.225 90.7855 305.019 91.3769C305.813 91.9682 306.763 92.3315 307.76 92.4252L321.509 93.7275C322.927 93.8515 324.258 94.4404 325.282 95.3967C326.307 96.353 326.963 97.6193 327.143 98.986L328.53 109.505C328.714 110.868 328.408 112.251 327.663 113.421C326.917 114.591 325.778 115.477 324.438 115.93L311.483 120.407C310.548 120.725 309.725 121.293 309.11 122.044C308.495 122.796 308.112 123.701 308.006 124.655C307.784 126.874 307.457 129.128 307.037 131.359C306.868 132.307 306.982 133.282 307.364 134.17C307.746 135.058 308.381 135.823 309.195 136.376L320.428 144.089C321.593 144.875 322.442 146.026 322.833 147.348C323.224 148.669 323.133 150.081 322.574 151.344L318.307 161.108C317.753 162.377 316.768 163.425 315.514 164.077C314.261 164.73 312.815 164.948 311.416 164.696L297.829 162.349C296.842 162.178 295.825 162.279 294.894 162.641C293.964 163.003 293.157 163.612 292.568 164.397C291.214 166.227 289.78 168.007 288.3 169.693C287.659 170.428 287.247 171.325 287.112 172.278C286.977 173.232 287.126 174.202 287.54 175.077L293.259 187.127C293.858 188.372 293.994 189.779 293.645 191.111C293.295 192.442 292.481 193.616 291.34 194.433L282.545 200.825C281.408 201.655 280.013 202.088 278.589 202.052C277.164 202.016 275.795 201.514 274.703 200.628L264.136 192.07C263.366 191.448 262.431 191.048 261.437 190.914C260.444 190.78 259.432 190.918 258.515 191.313C256.412 192.228 254.248 193.074 252.063 193.825C251.125 194.151 250.301 194.727 249.688 195.487C249.074 196.247 248.696 197.16 248.596 198.12L247.275 211.312C247.141 212.682 246.524 213.965 245.529 214.948C244.534 215.931 243.221 216.553 241.809 216.71L230.843 218.003C230.578 218.034 230.31 218.05 230.043 218.05ZM207.092 196.312C207.458 196.312 207.824 196.344 208.185 196.406C210.481 196.811 212.806 197.126 215.094 197.343C216.264 197.46 217.375 197.893 218.303 198.592C219.23 199.291 219.937 200.228 220.341 201.297L225.04 213.74C225.453 214.839 226.24 215.769 227.272 216.377C228.304 216.985 229.519 217.234 230.717 217.084L241.677 215.778C242.872 215.645 243.983 215.119 244.826 214.288C245.669 213.457 246.191 212.371 246.306 211.212L247.627 198.019C247.744 196.884 248.191 195.804 248.917 194.905C249.642 194.006 250.616 193.325 251.726 192.94C253.88 192.196 256.026 191.366 258.105 190.455C259.186 189.99 260.38 189.827 261.551 189.985C262.723 190.142 263.826 190.614 264.735 191.346L275.303 199.904C276.227 200.658 277.388 201.087 278.597 201.118C279.805 201.15 280.989 200.784 281.954 200.079L290.749 193.687C291.713 192.997 292.402 192.005 292.698 190.879C292.994 189.754 292.88 188.564 292.375 187.51L286.656 175.461C286.166 174.427 285.99 173.279 286.148 172.151C286.306 171.024 286.793 169.963 287.55 169.093C289.013 167.427 290.432 165.666 291.769 163.858C292.464 162.93 293.416 162.211 294.514 161.782C295.613 161.354 296.814 161.234 297.979 161.436L311.566 163.783C312.753 164 313.98 163.816 315.044 163.263C316.108 162.71 316.944 161.821 317.413 160.744L321.68 150.98C322.151 149.91 322.226 148.715 321.893 147.597C321.56 146.479 320.839 145.506 319.851 144.843L308.634 137.129C307.672 136.474 306.921 135.569 306.47 134.517C306.02 133.466 305.887 132.312 306.088 131.19C306.494 128.987 306.827 126.756 307.047 124.562C307.17 123.434 307.621 122.362 308.348 121.472C309.075 120.581 310.048 119.909 311.154 119.532L324.119 115.054C325.251 114.67 326.213 113.92 326.842 112.931C327.471 111.942 327.729 110.773 327.573 109.621L326.185 99.1021C326.034 97.9434 325.478 96.8698 324.609 96.0596C323.74 95.2493 322.611 94.7513 321.41 94.6482L307.658 93.3459C306.482 93.2354 305.362 92.8069 304.426 92.1094C303.489 91.4119 302.774 90.4736 302.363 89.4016C301.584 87.3359 300.708 85.2703 299.757 83.2755C299.269 82.2391 299.095 81.0893 299.257 79.9608C299.419 78.8323 299.91 77.7719 300.672 76.9036L309.562 66.7782C310.344 65.8969 310.787 64.7815 310.817 63.6206C310.847 62.4596 310.462 61.3242 309.727 60.4063L303.045 51.9471C302.313 51.016 301.275 50.3532 300.103 50.0673C298.93 49.7814 297.692 49.8893 296.591 50.3733L284.051 55.8304C282.971 56.2968 281.779 56.462 280.608 56.3073C279.436 56.1527 278.333 55.6843 277.422 54.955C275.677 53.5425 273.837 52.1772 271.956 50.8946C270.992 50.2343 270.242 49.3226 269.792 48.2656C269.343 47.2086 269.213 46.0497 269.418 44.924L271.83 31.889C272.041 30.7424 271.84 29.5601 271.26 28.5398C270.68 27.5194 269.755 26.7226 268.641 26.2823L258.458 22.1511C257.347 21.6922 256.108 21.6134 254.945 21.9277C253.782 22.2421 252.764 22.9308 252.059 23.8803L244.052 34.6451C243.363 35.571 242.418 36.29 241.325 36.7197C240.233 37.1494 239.038 37.2725 237.877 37.0747C235.582 36.6694 233.258 36.3547 230.967 36.1383C229.798 36.0209 228.686 35.5881 227.759 34.889C226.831 34.1899 226.125 33.2527 225.72 32.1841L221.02 19.7393C220.607 18.64 219.82 17.7097 218.788 17.1018C217.756 16.4938 216.54 16.2445 215.342 16.3949L204.387 17.6973C203.19 17.8293 202.076 18.3558 201.232 19.1886C200.388 20.0213 199.865 21.1097 199.752 22.2711L198.431 35.4615C198.318 36.5923 197.876 37.6689 197.157 38.5666C196.437 39.4642 195.47 40.1461 194.367 40.5331C192.192 41.2807 190.024 42.1246 187.925 43.0413C186.846 43.5018 185.656 43.6608 184.49 43.5005C183.323 43.3403 182.226 42.8671 181.322 42.1344L170.755 33.5789C169.831 32.8244 168.67 32.3962 167.461 32.3644C166.253 32.3326 165.069 32.6991 164.104 33.4038L155.307 39.7934C154.342 40.4846 153.654 41.4769 153.357 42.6028C153.061 43.7286 153.175 44.9189 153.681 45.9725L159.404 58.0259C159.892 59.0605 160.066 60.2082 159.906 61.335C159.746 62.4618 159.258 63.5213 158.499 64.3899C157.036 66.0562 155.618 67.8189 154.283 69.6248C153.587 70.5527 152.636 71.2721 151.537 71.7004C150.439 72.1287 149.238 72.2487 148.072 72.0465L134.485 69.6995C133.3 69.484 132.074 69.6679 131.011 70.2204C129.948 70.773 129.112 71.6611 128.643 72.737L124.376 82.5004C123.904 83.57 123.827 84.7643 124.158 85.8822C124.49 87.0001 125.209 87.9734 126.194 88.6383L137.428 96.3499C138.39 97.0043 139.141 97.91 139.592 98.9616C140.043 100.013 140.175 101.167 139.974 102.289C139.568 104.488 139.237 106.717 139.017 108.915C138.893 110.044 138.441 111.115 137.714 112.006C136.987 112.896 136.014 113.569 134.908 113.947L121.955 118.42C120.821 118.802 119.857 119.551 119.225 120.54C118.594 121.529 118.334 122.699 118.488 123.852L119.889 134.379C120.04 135.537 120.596 136.61 121.464 137.421C122.332 138.231 123.461 138.729 124.662 138.833L138.412 140.133C139.583 140.241 140.699 140.665 141.633 141.358C142.567 142.05 143.281 142.982 143.695 144.048C144.482 146.139 145.368 148.22 146.337 150.237C146.819 151.273 146.986 152.42 146.818 153.544C146.651 154.669 146.155 155.724 145.39 156.585L136.501 166.707C135.72 167.588 135.277 168.703 135.247 169.864C135.217 171.025 135.602 172.161 136.337 173.079L143.018 181.538C143.751 182.469 144.789 183.132 145.961 183.417C147.134 183.703 148.372 183.596 149.472 183.111L162.013 177.654C163.092 177.187 164.284 177.022 165.455 177.177C166.626 177.331 167.729 177.8 168.64 178.53C170.379 179.936 172.22 181.304 174.106 182.59C175.07 183.25 175.821 184.162 176.271 185.219C176.72 186.276 176.851 187.435 176.646 188.561L174.234 201.596C174.021 202.742 174.22 203.924 174.799 204.945C175.378 205.966 176.301 206.763 177.414 207.204L187.599 211.336C188.71 211.794 189.949 211.873 191.113 211.558C192.276 211.244 193.294 210.556 193.999 209.606L202.009 198.846C202.59 198.065 203.353 197.429 204.237 196.988C205.12 196.548 206.098 196.316 207.092 196.312ZM223.251 162.729C220.94 162.728 218.631 162.569 216.342 162.253C190.176 158.645 171.911 135.294 175.594 110.197C179.276 85.1011 203.572 67.6202 229.73 71.2281C255.888 74.836 274.163 98.1794 270.47 123.283C269.601 129.275 267.505 135.038 264.305 140.235C261.106 145.432 256.867 149.959 251.837 153.55C243.582 159.516 233.554 162.737 223.251 162.729ZM216.468 161.334C222.562 162.196 228.772 161.886 234.743 160.423C240.714 158.959 246.328 156.371 251.264 152.806C256.193 149.288 260.346 144.853 263.481 139.761C266.616 134.669 268.669 129.022 269.521 123.152C273.138 98.5611 255.229 75.682 229.596 72.1468C203.962 68.6117 180.162 85.7385 176.543 110.329C172.923 134.92 190.835 157.799 216.468 161.334Z" fill="black"/>
<path d="M75.1346 115.257L62.2772 135.887C62.1004 136.123 60.2146 136.059 58.0849 136.267C57.0912 136.365 56.0528 136.511 55.1912 136.647C55.0342 136.671 54.8885 136.74 54.773 136.846C54.6576 136.951 54.5779 137.088 54.5445 137.239C54.511 137.389 54.5254 137.546 54.5857 137.688C54.646 137.83 54.7494 137.951 54.8823 138.036L57.1826 139.511C62.0069 142.604 67.7376 144.205 73.5109 143.825C75.0403 143.738 76.5542 143.48 78.0223 143.056L82.9461 141.557C83.107 141.509 83.2479 141.413 83.348 141.282C83.448 141.151 83.502 140.992 83.502 140.829C83.502 140.666 83.448 140.508 83.348 140.377C83.2479 140.245 83.107 140.149 82.9461 140.101L76.6749 138.26L81.9707 127.383L75.1346 115.257Z" fill="white"/>
<path d="M71.8608 144.343C66.5382 144.307 61.3433 142.761 56.9185 139.897L54.6161 138.422C54.4033 138.286 54.2379 138.09 54.1416 137.862C54.0453 137.633 54.0225 137.382 54.0764 137.14C54.1302 136.899 54.258 136.679 54.4432 136.509C54.6283 136.339 54.8621 136.228 55.1139 136.189C56.1971 136.02 57.1806 135.89 58.0362 135.807C58.8917 135.725 59.7574 135.679 60.4361 135.648C60.9391 135.635 61.441 135.597 61.9399 135.534L74.7241 115.017C74.766 114.946 74.8275 114.887 74.9017 114.848C74.976 114.808 75.0601 114.789 75.1447 114.793C75.2283 114.796 75.3097 114.82 75.3809 114.862C75.4522 114.904 75.5108 114.964 75.5512 115.035L82.3792 127.161C82.4152 127.225 82.435 127.296 82.4371 127.369C82.4393 127.442 82.4236 127.514 82.3914 127.58L77.3334 137.973L83.0762 139.667C83.3355 139.742 83.563 139.896 83.7252 140.106C83.8874 140.316 83.9758 140.571 83.9774 140.833C83.979 141.095 83.8937 141.351 83.734 141.563C83.5744 141.775 83.3488 141.931 83.0904 142.01L78.1665 143.509C76.6622 143.944 75.1108 144.208 73.5434 144.296C72.9846 144.325 72.4217 144.343 71.8608 144.343ZM75.1122 116.19L62.6877 136.126C62.4357 136.466 62.0232 136.498 60.4849 136.572C59.8163 136.604 58.9852 136.643 58.1337 136.728C57.2822 136.812 56.3332 136.936 55.2684 137.104C55.2068 137.112 55.1494 137.139 55.1039 137.18C55.0584 137.222 55.0269 137.275 55.0137 137.334C55.0005 137.393 55.0061 137.455 55.0298 137.51C55.0535 137.566 55.0942 137.614 55.1464 137.647L57.4468 139.122C62.2752 142.218 67.9693 143.723 73.4784 143.361C74.9703 143.279 76.4474 143.029 77.88 142.618L82.8018 141.119C82.8645 141.1 82.9193 141.062 82.9582 141.01C82.9971 140.959 83.0181 140.897 83.0181 140.833C83.0181 140.77 82.9971 140.708 82.9582 140.657C82.9193 140.605 82.8645 140.567 82.8018 140.548L76.5327 138.709C76.4669 138.689 76.4062 138.657 76.3547 138.613C76.3031 138.568 76.262 138.514 76.234 138.453C76.2061 138.392 76.192 138.327 76.1927 138.26C76.1934 138.193 76.2088 138.128 76.238 138.067L81.4281 127.401L75.1122 116.19Z" fill="black"/>
<path d="M74.6471 129.24C75.0483 129.791 75.4999 130.305 75.9965 130.777L76.9048 131.64C76.9048 131.64 82.5338 136.206 84.6534 135.858C86.7729 135.51 89.9369 129.464 89.9369 129.464C91.3432 129.697 92.3288 129.152 92.4405 128.739C92.5523 128.325 91.8736 126.793 91.7862 126.006C91.7151 125.365 93.2087 122.455 93.861 121.206C93.861 121.206 97.1409 117.047 90.8677 111.409C76.4923 98.4862 72.6455 120.352 72.6455 120.352C72.5913 120.798 72.554 121.241 72.5337 121.68L74.6471 129.24Z" fill="white"/>
<path d="M84.4297 136.344C82.0237 136.344 77.1648 132.461 76.5958 132.001L75.661 131.111C74.7431 130.242 73.9778 129.233 73.3952 128.125C73.3375 128.015 73.3273 127.888 73.3667 127.771C73.4062 127.653 73.4921 127.556 73.6055 127.5C73.719 127.445 73.8507 127.435 73.9717 127.473C74.0927 127.511 74.1931 127.594 74.2507 127.704C74.784 128.727 75.4878 129.657 76.3337 130.458L77.24 131.322C79.3229 133.008 83.1921 135.65 84.574 135.414C85.9559 135.178 88.3294 131.524 89.5121 129.266C89.5584 129.178 89.6328 129.106 89.7242 129.062C89.8157 129.018 89.9194 129.003 90.0201 129.02C91.2394 129.217 91.9161 128.759 91.9812 128.627C91.9126 128.243 91.812 127.865 91.6804 127.498C91.5155 127.033 91.3924 126.556 91.3126 126.071C91.2496 125.511 91.845 124.094 93.4341 121.015C93.4484 120.989 93.4647 120.964 93.4829 120.941C93.6028 120.785 96.395 117.024 90.5424 111.763C86.8276 108.419 83.6778 107.042 81.1945 107.679C77.427 108.634 75.6509 113.975 74.4743 117.504L74.2385 118.208C74.2212 118.269 74.1913 118.325 74.1508 118.374C74.1103 118.423 74.0599 118.464 74.0027 118.493C73.9456 118.523 73.8828 118.541 73.8182 118.546C73.7536 118.552 73.6885 118.545 73.6269 118.525C73.5653 118.505 73.5085 118.474 73.4598 118.433C73.4111 118.391 73.3716 118.341 73.3437 118.284C73.3157 118.227 73.2999 118.166 73.2973 118.103C73.2946 118.04 73.3051 117.978 73.3281 117.919L73.5618 117.221C74.8014 113.495 76.6751 107.864 80.9527 106.782C83.7835 106.066 87.2341 107.514 91.2049 111.085C97.3744 116.628 94.627 120.972 94.2876 121.46C92.603 124.72 92.2555 125.715 92.2758 125.985C92.3521 126.41 92.4628 126.828 92.607 127.236C92.8651 128.058 93.0135 128.54 92.9159 128.879C92.7371 129.549 91.6357 130.114 90.2213 129.99C89.4999 131.322 86.8256 136 84.7345 136.34C84.6332 136.35 84.5313 136.351 84.4297 136.344Z" fill="black"/>
<path d="M104.751 114.779C103.869 112.204 101.406 110.335 98.4656 109.997C98.7704 109.277 99.0854 108.169 98.6444 107.138C97.5999 104.693 93.1333 104.624 91.5706 104.601C88.9903 104.578 86.4465 105.192 84.1797 106.385C83.9886 105.887 83.2246 104.07 81.3631 103.353C78.5953 102.291 75.8296 104.597 75.5715 104.819C72.5619 107.404 71.8405 111.988 72.0478 115.47C72.1636 117.437 71.8324 119.572 72.0132 120.951C72.0945 121.564 73.9743 121.844 74.6103 121.793L74.9964 121.761C75.3096 121.734 75.5994 121.589 75.8029 121.357C76.0064 121.125 76.1073 120.825 76.0836 120.522C76.0138 119.656 76.1265 118.786 76.4149 117.964C76.6038 117.437 77.3435 115.307 78.636 115.273C79.5647 115.246 80.2414 116.314 80.3369 116.467C81.103 117.679 80.6966 119.092 80.4019 119.812C80.3769 119.866 80.3651 119.926 80.3675 119.986C80.3698 120.045 80.3862 120.104 80.4154 120.157C80.4446 120.209 80.4858 120.255 80.536 120.29C80.5861 120.325 80.6438 120.348 80.7047 120.358C80.9629 120.41 81.2316 120.373 81.4643 120.253C81.697 120.133 81.879 119.938 81.9789 119.701C82.0093 119.631 82.0378 119.558 82.0683 119.481C82.997 117.12 82.3731 115.613 83.3302 114.823C83.8545 114.392 84.5495 114.429 84.9559 114.439C86.9332 114.526 88.0956 116.406 90.8349 119.688C94.2367 123.76 94.5964 124.259 95.6105 124.57C98.1852 125.357 101.276 123.811 102.999 121.867C103.483 121.309 105.97 118.348 104.751 114.779Z" fill="black"/>
<path d="M97.0512 125.231C96.5131 125.233 95.9778 125.156 95.4641 125.001C94.383 124.669 94.0111 124.214 91.1112 120.746L90.463 119.959C90.02 119.43 89.6196 118.936 89.2437 118.48C87.3883 116.202 86.3682 114.939 84.9274 114.883C84.5657 114.868 84.019 114.844 83.637 115.157C83.2936 115.44 83.2306 115.893 83.1473 116.731C83.0784 117.72 82.8642 118.694 82.5112 119.625C82.4807 119.705 82.4482 119.782 82.4177 119.857C82.2728 120.191 82.0133 120.466 81.6831 120.636C81.3529 120.806 80.9721 120.861 80.605 120.791C80.4751 120.767 80.3524 120.714 80.246 120.638C80.1395 120.562 80.0518 120.464 79.9894 120.351C79.9269 120.238 79.8912 120.113 79.8849 119.985C79.8785 119.857 79.9017 119.729 79.9527 119.611C80.223 118.962 80.5786 117.722 79.9243 116.689C79.6215 116.209 79.1297 115.706 78.6461 115.716C78.2925 115.716 77.5914 116.046 76.8679 118.076C76.5954 118.847 76.4896 119.664 76.557 120.476C76.5881 120.902 76.4457 121.322 76.1603 121.647C75.875 121.971 75.4695 122.175 75.0309 122.213L74.6427 122.245C74.2952 122.272 71.686 122.162 71.5336 121C71.432 120.242 71.4787 119.288 71.5336 118.281C71.5938 117.35 71.6053 116.417 71.5681 115.485C71.4645 113.731 71.4238 107.744 75.2544 104.455C75.5796 104.174 78.5262 101.748 81.5398 102.905C83.133 103.517 84.0048 104.858 84.4214 105.728C86.6434 104.654 89.0954 104.103 91.5786 104.119C93.3141 104.146 97.9209 104.217 99.0874 106.944C99.4206 107.731 99.4288 108.616 99.1117 109.607C101.973 110.137 104.328 112.055 105.208 114.616C106.454 118.261 104.113 121.305 103.367 122.139C101.877 123.834 99.4125 125.231 97.0512 125.231ZM84.6551 113.955C84.777 113.955 84.8868 113.955 84.9802 113.955C86.862 114.038 88.0467 115.493 90.0078 117.907C90.3756 118.36 90.7739 118.849 91.2148 119.375L91.8631 120.162C94.6898 123.555 94.9702 123.876 95.7547 124.126C98.1343 124.859 101.016 123.39 102.635 121.568C103.3 120.819 105.383 118.124 104.296 114.941C103.483 112.544 101.166 110.792 98.4025 110.473C98.3293 110.465 98.259 110.44 98.1971 110.401C98.1353 110.362 98.0836 110.31 98.0461 110.248C98.0085 110.187 97.9861 110.118 97.9806 110.046C97.9751 109.975 97.9867 109.904 98.0144 109.837C98.4208 108.854 98.4879 108.018 98.1953 107.331C97.2706 105.167 92.9706 105.102 91.5562 105.081C89.0575 105.066 86.5952 105.661 84.397 106.812C84.3369 106.843 84.2705 106.861 84.2025 106.865C84.1345 106.869 84.0664 106.859 84.0028 106.835C83.9386 106.812 83.8805 106.776 83.8324 106.728C83.7844 106.681 83.7475 106.624 83.7244 106.562C83.4826 105.934 82.753 104.398 81.1801 103.808C78.6989 102.854 76.1648 104.945 75.8844 105.185C72.3749 108.199 72.4297 113.819 72.5192 115.472C72.5586 116.435 72.547 117.399 72.4846 118.362C72.4162 119.213 72.4162 120.068 72.4846 120.919C72.635 121.116 73.9071 121.409 74.5676 121.358L74.9496 121.326C75.1375 121.31 75.3113 121.223 75.4334 121.084C75.5554 120.945 75.616 120.765 75.6019 120.583C75.5251 119.651 75.6461 118.713 75.9575 117.828C76.6586 115.861 77.5507 114.852 78.6196 114.822C79.6886 114.793 80.4689 115.806 80.7432 116.239C81.5906 117.579 81.2045 119.091 80.8733 119.918C81.0124 119.929 81.1518 119.898 81.2707 119.827C81.3897 119.756 81.4819 119.65 81.5337 119.524C81.5622 119.459 81.5906 119.388 81.6191 119.316C81.9427 118.458 82.1377 117.561 82.1982 116.65C82.2897 115.763 82.3669 114.998 83.0233 114.459C83.4848 114.107 84.0621 113.928 84.649 113.955H84.6551Z" fill="white"/>
<path d="M5.18021 325.342L3.04443 343.682L11.1019 346.93L14.0688 326.935L5.18021 325.342Z" fill="white"/>
<path d="M11.1017 347.395C11.0383 347.395 10.9755 347.383 10.9168 347.36L2.85938 344.112C2.76409 344.072 2.68436 344.005 2.63202 343.918C2.57968 343.832 2.5575 343.731 2.56879 343.632L4.70457 325.291C4.71214 325.228 4.733 325.167 4.76585 325.112C4.79869 325.057 4.84284 325.009 4.89557 324.971C4.9483 324.933 5.00849 324.905 5.07245 324.891C5.13641 324.876 5.20278 324.874 5.26747 324.886L14.1561 326.479C14.2781 326.501 14.3868 326.567 14.4591 326.665C14.5315 326.763 14.562 326.884 14.5442 327.002L11.5752 346.996C11.5654 347.066 11.5388 347.133 11.4975 347.192C11.4563 347.251 11.4015 347.299 11.3375 347.334C11.2655 347.373 11.1844 347.394 11.1017 347.395ZM3.56047 343.388L10.7156 346.272L13.5302 327.311L5.60481 325.889L3.56047 343.388Z" fill="black"/>
<path d="M1.16876 341.951C0.774958 344.554 0.542201 347.177 0.471732 349.806C0.46691 350.685 0.795311 351.534 1.39464 352.194C1.99397 352.854 2.82253 353.277 3.72316 353.385C8.98437 354.038 20.9151 354.752 31.0798 353.859C31.7748 353.798 33.0063 353.308 33.3497 351.626C34.4999 345.978 24.3514 344.595 13.2315 340.497C13.0181 340.419 12.7859 340.4 12.562 340.444C12.3382 340.489 12.132 340.594 11.9676 340.747L10.7686 341.871C10.1812 342.425 9.43721 342.799 8.63062 342.944C7.82402 343.089 6.99103 343 6.23691 342.687L2.57906 341.18C2.43488 341.122 2.27888 341.096 2.12293 341.105C1.96698 341.114 1.81521 341.158 1.67918 341.232C1.54316 341.306 1.42647 341.41 1.33801 341.534C1.24956 341.659 1.19167 341.802 1.16876 341.951Z" fill="white"/>
<path d="M20.4861 354.746C13.648 354.746 7.2772 354.294 3.65795 353.845C2.64265 353.721 1.70962 353.241 1.03552 352.495C0.361413 351.75 -0.00697592 350.791 0.000100074 349.8C0.0346465 346.861 0.4553 343.58 0.703221 341.886C0.735678 341.665 0.820254 341.453 0.95042 341.269C1.08059 341.084 1.25286 340.931 1.45395 340.821C1.65504 340.71 1.87957 340.647 2.1102 340.634C2.34084 340.621 2.57141 340.66 2.78413 340.747L6.44199 342.254C7.10671 342.531 7.84129 342.61 8.55281 342.483C9.26433 342.356 9.92081 342.027 10.4392 341.538L11.6382 340.413C11.8687 340.199 12.1572 340.052 12.4701 339.991C12.783 339.929 13.1076 339.955 13.4061 340.064C16.0032 341.021 18.4987 341.813 20.9108 342.579C28.6675 345.044 34.7944 346.989 33.8312 351.716C33.4674 353.487 32.1526 354.233 31.1345 354.321C27.6636 354.626 24.0139 354.746 20.4861 354.746ZM2.18465 341.565C2.05255 341.566 1.92502 341.612 1.82564 341.697C1.72627 341.781 1.66178 341.897 1.6441 342.024C1.40024 343.696 0.985688 346.942 0.951142 349.818C0.950251 350.58 1.23749 351.316 1.75864 351.887C2.27979 352.457 2.99878 352.824 3.77988 352.916C9.21383 353.591 20.9576 354.274 31.0329 353.391C31.2808 353.369 32.5387 353.176 32.874 351.528C33.6727 347.607 28.1879 345.864 20.5958 343.462C18.1715 342.693 15.6659 341.888 13.0485 340.934C12.9203 340.886 12.7809 340.875 12.6464 340.901C12.5119 340.927 12.3878 340.99 12.2885 341.082L11.0895 342.207C10.4353 342.822 9.60761 343.236 8.7108 343.397C7.81399 343.557 6.88811 343.457 6.04978 343.11L2.39193 341.603C2.3264 341.575 2.25607 341.56 2.18465 341.558V341.565Z" fill="black"/>
<path d="M0.480033 349.375C0.480033 349.375 0.480033 349.669 0.480033 349.81C0.475211 350.689 0.803612 351.538 1.40294 352.198C2.00227 352.858 2.83083 353.281 3.73146 353.389C8.99267 354.042 20.9234 354.756 31.0881 353.863C31.7831 353.802 33.0146 353.312 33.358 351.63C33.4196 351.15 33.4332 350.666 33.3987 350.184L32.6773 350.219C22.4067 350.71 12.1127 350.471 1.87815 349.505L0.480033 349.375Z" fill="white"/>
<path d="M20.4861 354.746C13.648 354.746 7.2772 354.293 3.65795 353.845C2.64265 353.721 1.70962 353.241 1.03552 352.495C0.361413 351.75 -0.00697592 350.791 0.000100074 349.8V349.362C0.00107236 349.298 0.0158625 349.235 0.0435153 349.177C0.071168 349.119 0.111068 349.067 0.160639 349.025C0.209815 348.982 0.267786 348.95 0.330798 348.93C0.39381 348.91 0.460458 348.903 0.526424 348.909L1.91234 349.041C12.1235 350.001 22.3935 350.239 32.6403 349.751L33.3618 349.718C33.4873 349.712 33.6103 349.754 33.7041 349.835C33.798 349.916 33.8553 350.029 33.8637 350.15C33.9035 350.675 33.8871 351.203 33.8149 351.724C33.4512 353.495 32.1364 354.24 31.1183 354.329C27.6636 354.626 24.0139 354.746 20.4861 354.746ZM0.951142 349.881C0.966367 350.632 1.26081 351.352 1.78042 351.91C2.30004 352.467 3.00996 352.825 3.77988 352.916C9.21383 353.591 20.9576 354.274 31.0329 353.391C31.2808 353.369 32.5387 353.176 32.874 351.528C32.9184 351.24 32.9354 350.95 32.9248 350.66H32.6871C22.3946 351.157 12.0784 350.924 1.8209 349.966L0.951142 349.881Z" fill="black"/>
<path d="M15.7715 347.06C15.6778 347.059 15.5865 347.031 15.5088 346.981C15.4311 346.93 15.3705 346.858 15.3344 346.775C15.2983 346.691 15.2883 346.599 15.3057 346.51C15.323 346.421 15.367 346.338 15.4321 346.273L19.3359 342.49C19.4267 342.408 19.5467 342.364 19.6707 342.366C19.7946 342.368 19.9128 342.417 20.0006 342.502C20.0884 342.586 20.1389 342.701 20.1415 342.821C20.1441 342.941 20.0986 343.057 20.0146 343.145L16.1108 346.926C16.0205 347.013 15.8984 347.061 15.7715 347.06Z" fill="black"/>
<path d="M19.6063 347.454C19.4826 347.454 19.3636 347.407 19.2751 347.324C19.1836 347.238 19.1307 347.121 19.128 346.998C19.1254 346.875 19.1731 346.756 19.2608 346.667L22.3802 343.531C22.4232 343.485 22.4754 343.447 22.5337 343.421C22.592 343.394 22.6551 343.38 22.7194 343.377C22.7837 343.375 22.8479 343.385 22.908 343.407C22.9681 343.43 23.023 343.463 23.0693 343.507C23.1157 343.55 23.1526 343.602 23.1779 343.659C23.2032 343.716 23.2163 343.778 23.2165 343.84C23.2166 343.902 23.2039 343.964 23.1789 344.021C23.1539 344.079 23.1173 344.131 23.0711 344.174L19.9518 347.31C19.9072 347.355 19.8535 347.391 19.7942 347.416C19.7348 347.441 19.6709 347.453 19.6063 347.454Z" fill="black"/>
<path d="M34.4427 204.479C34.4427 204.479 29.5371 207.234 27.6229 223.393C25.7086 239.552 26.3487 258.606 13.0179 277.492C2.37148 292.577 3.30627 318.039 1.75981 334.727C1.74199 334.918 1.76462 335.11 1.8263 335.292C1.88799 335.474 1.98743 335.642 2.11853 335.786C2.24963 335.929 2.40962 336.045 2.5887 336.127C2.76778 336.208 2.96217 336.253 3.15995 336.259L13.3654 336.588C13.6829 336.598 13.9953 336.508 14.2547 336.33C14.5142 336.153 14.7064 335.898 14.8021 335.604C16.631 330.135 25.6984 303.753 35.8876 288.455C46.6579 272.288 59.753 230.325 59.753 230.325C59.753 230.325 57.3145 219.718 56.9853 209.551C56.6561 199.384 34.4427 204.479 34.4427 204.479Z" fill="black"/>
<path d="M88.8618 279.454L86.1631 297.432L93.367 297.698L99.2216 281.191L88.8618 279.454Z" fill="white"/>
<path d="M93.3667 298.162H93.3484L86.1546 297.896C86.0874 297.893 86.0216 297.877 85.9613 297.848C85.9011 297.819 85.8477 297.779 85.8048 297.729C85.7619 297.679 85.7303 297.62 85.7122 297.558C85.694 297.495 85.6897 297.429 85.6994 297.365L88.3899 279.386C88.3989 279.325 88.4206 279.266 88.4537 279.213C88.4869 279.16 88.5309 279.114 88.583 279.077C88.6349 279.041 88.6939 279.015 88.7563 279.001C88.8188 278.986 88.8835 278.984 88.9468 278.995L99.3107 280.734C99.3792 280.745 99.4444 280.77 99.5017 280.808C99.559 280.847 99.607 280.896 99.6424 280.954C99.6778 281.012 99.6998 281.077 99.7067 281.144C99.7136 281.211 99.7054 281.278 99.6826 281.342L93.828 297.849C93.7947 297.941 93.7322 298.021 93.6495 298.077C93.5667 298.133 93.4677 298.163 93.3667 298.162ZM86.7134 296.981L93.0293 297.213L98.5852 281.546L89.2658 279.972L86.7134 296.981Z" fill="black"/>
<path d="M85.9031 298.847C86.4924 300.507 86.5981 304.158 87.9231 306.745C88.3287 307.532 89.0185 308.146 89.8613 308.473C90.7042 308.799 91.6416 308.814 92.4954 308.516C97.4884 306.787 109.496 301.591 118.135 296.331C118.726 295.971 119.594 294.993 119.11 293.343C117.485 287.807 107.795 291.031 95.9602 292.268C95.7321 292.29 95.5152 292.375 95.3351 292.512C95.1551 292.65 95.0194 292.834 94.9441 293.043L94.4015 294.574C94.1366 295.323 93.6493 295.979 93.0008 296.46C92.3522 296.942 91.5713 297.227 90.7559 297.281L86.7973 297.541C86.6408 297.55 86.4888 297.595 86.3532 297.671C86.2175 297.747 86.1019 297.852 86.0153 297.979C85.9287 298.105 85.8735 298.25 85.854 298.4C85.8346 298.551 85.8514 298.704 85.9031 298.847Z" fill="white"/>
<path d="M91.2355 309.185C90.4595 309.187 89.6983 308.979 89.0379 308.584C88.3776 308.19 87.8443 307.624 87.4984 306.952C86.6306 305.256 86.2669 303.133 85.9763 301.428C85.8626 300.607 85.6881 299.795 85.454 298.998C85.3785 298.787 85.3544 298.561 85.3836 298.339C85.4128 298.117 85.4944 297.905 85.6222 297.718C85.75 297.532 85.9204 297.376 86.1203 297.264C86.3203 297.151 86.5443 297.085 86.7749 297.07L90.7335 296.809C91.4554 296.763 92.1471 296.511 92.7211 296.085C93.2951 295.659 93.7258 295.077 93.9585 294.414L94.5011 292.886C94.6055 292.593 94.7937 292.336 95.0439 292.143C95.294 291.95 95.5956 291.831 95.9134 291.798C98.6751 291.509 101.27 291.119 103.78 290.744C111.847 289.53 118.218 288.58 119.576 293.209C120.088 294.955 119.259 296.189 118.395 296.714C110.134 301.739 98.1447 307.044 92.658 308.945C92.2016 309.103 91.7204 309.184 91.2355 309.185ZM113.053 290.657C110.602 290.657 107.489 291.125 103.926 291.66C101.406 292.038 98.7991 292.429 96.0151 292.721C95.8782 292.734 95.7483 292.786 95.6403 292.868C95.5324 292.951 95.4509 293.061 95.4054 293.187L94.8628 294.715C94.5686 295.551 94.0258 296.283 93.3026 296.82C92.5794 297.358 91.7082 297.676 90.7986 297.735L86.8399 297.995C86.7562 298.001 86.6748 298.025 86.6023 298.066C86.5297 298.107 86.4678 298.163 86.4213 298.231C86.3743 298.298 86.3443 298.375 86.3338 298.456C86.3232 298.537 86.3323 298.619 86.3604 298.695C86.6137 299.541 86.8012 300.403 86.9212 301.276C87.2037 302.921 87.5532 304.969 88.3559 306.539C88.7116 307.22 89.3126 307.751 90.0455 308.032C90.7783 308.313 91.592 308.324 92.3328 308.063C96.8645 306.489 109.009 301.323 117.881 295.921C118.084 295.793 119.123 295.07 118.649 293.454C118.031 291.342 116.028 290.657 113.048 290.657H113.053Z" fill="black"/>
<path d="M87.9165 306.126C87.9165 306.126 88.0486 306.389 88.1197 306.519C88.525 307.305 89.2147 307.92 90.0577 308.247C90.9007 308.573 91.8382 308.588 92.692 308.289C97.685 306.562 109.502 301.601 118.141 296.335C118.732 295.975 119.6 294.997 119.116 293.346C118.947 292.892 118.731 292.455 118.474 292.042L117.848 292.388C108.926 297.338 99.6414 301.647 90.0685 305.282L87.9165 306.126Z" fill="white"/>
<path d="M91.4224 308.954C90.6464 308.956 89.8852 308.748 89.2248 308.354C88.5645 307.959 88.0312 307.394 87.6853 306.722L87.4821 306.328C87.4538 306.271 87.4378 306.209 87.435 306.146C87.4322 306.082 87.4427 306.019 87.4658 305.96C87.4894 305.901 87.5251 305.848 87.5709 305.803C87.6167 305.758 87.6715 305.722 87.732 305.699L89.8759 304.843C99.4284 301.213 108.695 296.913 117.6 291.977L118.226 291.629C118.335 291.568 118.465 291.552 118.586 291.583C118.708 291.614 118.812 291.689 118.877 291.794C119.158 292.241 119.389 292.716 119.568 293.21C120.08 294.957 119.251 296.191 118.387 296.716C109.305 302.248 97.2526 307.19 92.8429 308.716C92.387 308.874 91.9065 308.955 91.4224 308.954ZM88.5774 306.365C88.9405 307.032 89.5407 307.549 90.267 307.82C90.9932 308.091 91.7964 308.099 92.5279 307.841C96.9092 306.326 108.87 301.42 117.885 295.929C118.088 295.801 119.127 295.077 118.653 293.462C118.557 293.19 118.436 292.927 118.291 292.675L118.088 292.789C109.146 297.748 99.8407 302.067 90.2478 305.712L88.5774 306.365Z" fill="black"/>
<path d="M101.093 297.047C101.043 297.046 100.993 297.039 100.945 297.025C100.884 297.006 100.828 296.976 100.78 296.936C100.732 296.896 100.692 296.847 100.663 296.792C100.635 296.737 100.617 296.678 100.613 296.616C100.608 296.555 100.616 296.493 100.636 296.435L102.343 291.352C102.382 291.234 102.468 291.137 102.581 291.081C102.695 291.025 102.826 291.015 102.947 291.054C103.068 291.092 103.169 291.175 103.226 291.284C103.284 291.394 103.295 291.522 103.255 291.639L101.548 296.722C101.518 296.816 101.457 296.898 101.376 296.957C101.294 297.015 101.195 297.047 101.093 297.047Z" fill="black"/>
<path d="M104.694 295.703C104.619 295.702 104.546 295.685 104.479 295.652C104.413 295.619 104.355 295.572 104.31 295.514C104.266 295.455 104.236 295.388 104.223 295.317C104.21 295.246 104.214 295.172 104.235 295.103L105.546 290.936C105.561 290.875 105.59 290.818 105.629 290.767C105.668 290.717 105.718 290.675 105.774 290.644C105.831 290.613 105.893 290.593 105.958 290.586C106.023 290.579 106.088 290.585 106.151 290.604C106.213 290.622 106.271 290.652 106.32 290.693C106.37 290.734 106.411 290.784 106.44 290.84C106.469 290.896 106.486 290.958 106.49 291.021C106.494 291.084 106.484 291.147 106.462 291.206L105.153 295.372C105.123 295.468 105.063 295.551 104.98 295.611C104.897 295.67 104.797 295.703 104.694 295.703Z" fill="black"/>
<path d="M51.5757 231.516C51.5757 231.516 75.6383 238.446 101.231 225.142C101.394 225.058 101.581 225.029 101.763 225.059C101.944 225.088 102.111 225.175 102.237 225.306C102.362 225.437 102.44 225.604 102.457 225.781C102.474 225.959 102.43 226.137 102.332 226.289C101.044 228.256 97.3598 233.107 95.4394 238.157C93.074 244.374 88.077 276.536 86.431 286.551C86.3959 286.764 86.4082 286.982 86.4669 287.19C86.5257 287.399 86.6296 287.592 86.7716 287.758C86.9137 287.925 87.0908 288.06 87.291 288.154C87.4912 288.249 87.7099 288.302 87.9327 288.308L97.7723 288.619C98.0764 288.629 98.3769 288.553 98.6371 288.4C98.8972 288.248 99.1059 288.025 99.2375 287.759C102.79 280.598 128.061 224.414 127.177 213.919C126.22 202.569 110.748 203.148 105.165 202.802C99.392 202.444 53.3457 203.482 53.3457 203.482L51.5757 231.516Z" fill="black"/>
<path d="M153.878 127.899C152.815 128.505 151.478 129.183 150.354 129.695C148.903 130.354 142.835 135.882 142.835 135.882L137.192 132.008C137.192 132.008 141.943 128.05 142.144 125.335C142.331 122.805 143.595 117.763 148.375 115.418C148.923 115.149 149.838 115.342 150.116 115.515C150.952 116.032 150.523 117.262 149.785 117.903L147.706 119.715C147.665 119.75 147.634 119.796 147.618 119.848C147.602 119.899 147.601 119.954 147.616 120.006C147.631 120.058 147.66 120.105 147.701 120.141C147.741 120.178 147.792 120.202 147.846 120.213C148.834 120.409 151.118 120.533 154.231 118.69C156.625 117.272 161.547 113.969 162.397 115.08C163.904 117.075 159.696 124.584 153.878 127.899Z" fill="white"/>
<path d="M142.852 136.346C142.752 136.346 142.656 136.316 142.575 136.259L136.922 132.388C136.863 132.347 136.814 132.293 136.779 132.232C136.744 132.17 136.725 132.101 136.721 132.031C136.718 131.961 136.731 131.89 136.76 131.826C136.789 131.761 136.832 131.704 136.887 131.658C138.166 130.59 141.521 127.367 141.673 125.302C141.764 124.068 142.506 117.781 148.166 115.005C148.905 114.641 149.995 114.889 150.383 115.125C150.576 115.244 150.737 115.405 150.853 115.595C150.97 115.786 151.038 116 151.053 116.221C151.11 116.894 150.732 117.708 150.113 118.247L148.312 119.821C149.415 119.957 151.379 119.845 153.988 118.3C154.343 118.09 154.756 117.836 155.207 117.563C159.068 115.192 161.885 113.604 162.795 114.808C163.202 115.357 163.301 116.174 163.071 117.24C162.372 120.506 158.753 125.664 154.13 128.302C153.079 128.892 151.714 129.594 150.566 130.116C149.418 130.637 144.849 134.697 143.179 136.214C143.091 136.297 142.974 136.344 142.852 136.346ZM137.975 131.967L142.807 135.283C144.122 134.093 148.816 129.885 150.159 129.274C151.283 128.764 152.618 128.093 153.644 127.503C157.912 125.073 161.476 120.14 162.137 117.053C162.303 116.278 162.263 115.676 162.025 115.357C162.025 115.357 161.677 115.105 159.842 115.991C158.538 116.62 156.977 117.576 155.723 118.351C155.272 118.627 154.856 118.883 154.504 119.095C151.297 120.993 148.909 120.901 147.774 120.669C147.632 120.641 147.502 120.577 147.396 120.481C147.291 120.386 147.215 120.265 147.177 120.13C147.139 119.995 147.141 119.853 147.181 119.719C147.222 119.586 147.3 119.465 147.408 119.372L149.489 117.561C149.883 117.216 150.147 116.685 150.115 116.298C150.113 116.218 150.09 116.141 150.049 116.072C150.009 116.003 149.951 115.946 149.881 115.904C149.706 115.794 148.97 115.656 148.615 115.831C143.417 118.389 142.722 124.22 142.646 125.365C142.445 127.749 139.194 130.871 137.975 131.967Z" fill="black"/>
<path d="M143.88 135.634L139.582 128.617C138.877 127.46 136.647 127.112 135.536 127.915C111.233 145.451 85.3825 138.3 81.3833 137.377C71.4725 135.089 66.4795 134.741 58.6619 134.283H58.4912C58.4241 134.283 58.3611 134.283 58.288 134.283H57.9385C53.9026 134.283 34.3656 136.075 35.7881 169.87C35.8044 169.884 35.8145 169.9 35.8288 169.913C35.8735 170.952 36.0726 172.016 36.1173 173.112C36.1002 173.28 36.0934 173.449 36.097 173.618V173.633C36.0769 173.742 36.0504 173.85 36.0178 173.956L35.9873 174.037L35.0769 180.904L34.6908 183.824C33.9246 189.804 33.0833 197.004 32.6871 203.915C32.638 204.799 32.9224 205.67 33.4874 206.365C34.0523 207.061 34.8591 207.534 35.7576 207.696L42.6669 208.932C54.7114 211.647 66 208.623 70.9787 206.904C72.5028 206.38 73.2384 204.956 73.4701 203.406C73.8562 200.848 79.1987 180.224 88.9489 166.595C90.1682 164.875 92.0378 163.689 94.1898 163.565C102.883 163.075 127.623 159.707 143.774 137.794C144.008 137.483 144.142 137.113 144.161 136.729C144.18 136.346 144.082 135.965 143.88 135.634Z" fill="white"/>
<path d="M52.7706 210.488C49.3329 210.497 45.9054 210.125 42.5551 209.38L35.6681 208.148C34.6537 207.962 33.7438 207.426 33.1081 206.638C32.4725 205.85 32.1545 204.866 32.2135 203.868C32.6199 196.713 33.5019 189.355 34.2212 183.745L35.5178 173.956C35.5218 173.923 35.53 173.89 35.5421 173.859L35.5584 173.814C35.5706 173.759 35.5889 173.702 35.6072 173.647C35.6145 173.627 35.6206 173.607 35.6255 173.586C35.6214 173.415 35.6275 173.244 35.6437 173.074C35.6194 172.545 35.5584 172.01 35.4995 171.501C35.4466 171.034 35.3918 170.554 35.3653 170.08C35.3331 170.019 35.3157 169.952 35.3145 169.884C34.7354 156.136 37.5153 146.06 43.5793 139.93C45.4386 138.044 47.6648 136.533 50.1298 135.483C52.5948 134.433 55.2499 133.865 57.9424 133.812C58.0806 133.812 58.2025 133.812 58.3062 133.812C58.3773 133.812 58.4525 133.812 58.5317 133.812C58.6516 133.812 58.7126 133.812 58.7126 133.812C66.6948 134.28 71.7 134.656 81.497 136.918L82.066 137.052C101.701 141.773 120.091 138.474 135.253 127.535C135.912 127.058 136.905 126.891 137.907 127.086C138.85 127.269 139.612 127.737 139.998 128.373L144.296 135.388C144.545 135.797 144.665 136.267 144.643 136.74C144.621 137.214 144.457 137.672 144.172 138.057C128.092 159.86 103.881 163.476 94.2161 164.025C92.3283 164.135 90.5583 165.166 89.339 166.856C79.4587 180.666 74.2808 201.2 73.9394 203.47C73.6448 205.438 72.649 206.815 71.1351 207.338C67.2212 208.691 60.5497 210.488 52.7706 210.488ZM36.4586 174.127L35.1682 183.865C34.4509 189.458 33.575 196.795 33.1666 203.931C33.1211 204.704 33.3675 205.466 33.8599 206.076C34.3524 206.686 35.0572 207.102 35.8429 207.246L42.7522 208.481C54.4675 211.123 65.3618 208.355 70.816 206.472C72.3056 205.961 72.8218 204.489 72.9925 203.344C73.3379 201.049 78.5727 180.288 88.5525 166.335C89.9303 164.411 91.9726 163.232 94.1592 163.106C103.686 162.571 127.551 159.009 143.39 137.532C143.567 137.293 143.67 137.009 143.684 136.715C143.698 136.421 143.623 136.129 143.469 135.876L139.169 128.847C138.923 128.453 138.381 128.127 137.714 127.997C136.985 127.855 136.261 127.963 135.822 128.28C120.642 139.232 101.479 142.669 81.8323 137.955L81.2714 137.821C71.5496 135.579 66.5811 135.205 58.6313 134.739H58.4687C58.3997 134.739 58.3489 134.739 58.2899 134.739H57.9404C55.3767 134.79 52.8488 135.332 50.5023 136.333C48.1558 137.334 46.0371 138.774 44.2682 140.571C38.4115 146.487 35.7189 156.286 36.2636 169.687C36.2926 169.749 36.3085 169.816 36.3103 169.884C36.3306 170.379 36.3875 170.877 36.4485 171.404C36.5094 171.931 36.5745 172.51 36.5968 173.082C36.5999 173.106 36.5999 173.13 36.5968 173.153C36.5831 173.304 36.5777 173.456 36.5806 173.608C36.5793 173.723 36.5573 173.838 36.5155 173.946C36.5155 173.968 36.4993 173.989 36.4952 174.011C36.4899 174.042 36.4825 174.073 36.4729 174.103L36.4586 174.127Z" fill="black"/>
<path d="M340.985 338.162C340.985 338.162 351.959 334.845 369.909 301.107C385.071 272.629 371.555 245.107 368.828 226.697C368.549 224.817 365.893 224.545 365.237 226.334C360.691 238.702 353.379 261.195 354.562 275.043C356.271 294.998 340.985 338.162 340.985 338.162Z" fill="white"/>
<path d="M340.986 338.624C340.909 338.624 340.834 338.607 340.766 338.573C340.698 338.54 340.639 338.491 340.595 338.431C340.55 338.371 340.521 338.301 340.51 338.228C340.499 338.155 340.506 338.08 340.53 338.01C340.685 337.58 355.771 294.711 354.083 275.08C352.892 261.113 360.277 238.448 364.786 226.176C364.959 225.696 365.295 225.287 365.738 225.015C366.181 224.742 366.706 224.623 367.228 224.675C367.751 224.727 368.239 224.949 368.616 225.303C368.992 225.658 369.233 226.125 369.301 226.629C369.911 230.784 371.1 235.468 372.35 240.427C376.711 257.678 382.134 279.146 370.332 301.319C352.486 334.841 341.579 338.465 341.124 338.605C341.079 338.617 341.032 338.624 340.986 338.624ZM366.971 225.592C366.686 225.587 366.407 225.672 366.176 225.833C365.944 225.994 365.773 226.224 365.688 226.487C361.205 238.684 353.861 261.213 355.04 275.003C356.584 293.09 344.115 330.511 341.803 337.261C344.837 335.581 354.865 328.353 369.484 300.894C381.122 279.03 375.745 257.749 371.423 240.647C370.165 235.666 368.984 230.961 368.352 226.76C368.316 226.459 368.174 226.178 367.948 225.966C367.723 225.755 367.43 225.624 367.117 225.598C367.074 225.594 367.028 225.592 366.977 225.592H366.971Z" fill="black"/>
<path d="M352.875 319.715L356.781 289.813C358.477 276.842 356.286 263.673 350.467 251.875C346.275 243.372 343.949 234.122 343.634 224.705C343.319 215.289 345.023 205.912 348.638 197.165L354.911 181.994C355.704 180.078 353.178 178.52 351.747 180.042L342.934 189.438C322.95 210.722 316.201 240.854 325.254 268.348L341.487 317.6L352.875 319.715Z" fill="white"/>
<path d="M352.875 320.179C352.845 320.182 352.816 320.182 352.786 320.179L341.406 318.061C341.321 318.045 341.243 318.007 341.178 317.952C341.114 317.897 341.066 317.825 341.04 317.746L324.807 268.494C315.716 240.899 322.525 210.489 342.582 189.129L351.392 179.747C351.758 179.339 352.265 179.073 352.818 178.999C353.371 178.924 353.934 179.046 354.401 179.342C354.888 179.624 355.252 180.067 355.427 180.59C355.602 181.112 355.576 181.678 355.354 182.183L349.081 197.354C345.501 206.044 343.816 215.356 344.13 224.707C344.445 234.057 346.753 243.244 350.91 251.689C356.778 263.566 358.986 276.828 357.269 289.888L353.363 319.79C353.355 319.852 353.333 319.913 353.3 319.967C353.267 320.022 353.222 320.069 353.17 320.106C353.082 320.161 352.979 320.186 352.875 320.179ZM341.865 317.193L352.465 319.16L356.305 289.758C358 276.874 355.823 263.791 350.034 252.075C345.821 243.513 343.482 234.199 343.165 224.72C342.847 215.241 344.558 205.801 348.189 196.992L354.462 181.821C354.599 181.517 354.617 181.176 354.511 180.861C354.406 180.546 354.186 180.279 353.891 180.111C353.614 179.932 353.278 179.858 352.948 179.903C352.617 179.947 352.315 180.108 352.099 180.353L343.29 189.735C323.462 210.851 316.73 240.915 325.72 268.193L341.865 317.193Z" fill="black"/>
<path d="M347.84 320.695L334.294 287.195C332.407 282.505 329.446 278.291 325.633 274.869C321.821 271.447 317.257 268.907 312.284 267.44L303.045 264.733C300.81 264.076 299.296 266.944 301.151 268.341L306.829 272.615C309.874 274.915 312.351 277.843 314.078 281.186C315.806 284.53 316.741 288.204 316.815 291.942C316.909 296.396 318.22 300.747 320.613 304.552L329.795 319.127L347.84 320.695Z" fill="white"/>
<path d="M347.84 321.159H347.797L329.75 319.586C329.675 319.579 329.603 319.556 329.539 319.518C329.476 319.479 329.423 319.427 329.384 319.365L320.205 304.788C317.77 300.912 316.438 296.481 316.344 291.946C316.279 288.276 315.365 284.667 313.669 281.384C311.973 278.102 309.539 275.229 306.545 272.977L300.855 268.703C300.363 268.345 300.02 267.828 299.889 267.246C299.758 266.665 299.848 266.057 300.141 265.533C300.409 265.005 300.865 264.588 301.425 264.359C301.985 264.129 302.611 264.103 303.189 264.284L312.428 266.993C322.678 269.997 330.812 277.298 334.745 287.022L348.293 320.522C348.321 320.592 348.332 320.668 348.323 320.744C348.314 320.819 348.286 320.891 348.242 320.953C348.198 321.015 348.139 321.067 348.07 321.102C348.001 321.137 347.924 321.155 347.846 321.155L347.84 321.159ZM330.077 318.687L347.112 320.166L333.846 287.364C330.022 277.907 322.111 270.806 312.145 267.888L302.905 265.177C302.542 265.062 302.148 265.078 301.797 265.223C301.446 265.368 301.16 265.631 300.995 265.964C300.805 266.295 300.746 266.681 300.829 267.051C300.912 267.421 301.131 267.748 301.446 267.973L307.124 272.25C310.23 274.585 312.755 277.564 314.515 280.968C316.276 284.373 317.225 288.116 317.295 291.922C317.388 296.294 318.674 300.565 321.024 304.3L330.077 318.687Z" fill="black"/>
<path d="M345.836 305.419H345.789C345.727 305.413 345.666 305.396 345.61 305.367C345.554 305.339 345.505 305.3 345.465 305.253C345.424 305.206 345.394 305.152 345.376 305.094C345.357 305.035 345.351 304.974 345.356 304.913C347.423 283.516 342.985 269.741 339.069 257.587C337.258 251.971 335.549 246.667 334.535 240.964C329.743 214.05 346.076 190.697 346.242 190.465C346.278 190.415 346.323 190.372 346.376 190.339C346.429 190.306 346.488 190.283 346.55 190.272C346.611 190.261 346.675 190.262 346.736 190.274C346.798 190.287 346.856 190.311 346.908 190.346C346.96 190.38 347.004 190.424 347.038 190.475C347.072 190.526 347.096 190.583 347.107 190.643C347.119 190.703 347.118 190.765 347.105 190.824C347.092 190.884 347.066 190.94 347.031 190.99C346.868 191.22 330.757 214.274 335.478 240.807C336.484 246.449 338.183 251.725 339.983 257.31C343.926 269.548 348.394 283.417 346.311 305C346.3 305.115 346.245 305.221 346.157 305.298C346.069 305.376 345.955 305.419 345.836 305.419Z" fill="black"/>
<path d="M363.881 291.115H363.8C363.675 291.094 363.564 291.026 363.49 290.926C363.417 290.826 363.387 290.701 363.408 290.58C367.1 269.45 365.822 236.923 365.808 236.599C365.805 236.538 365.815 236.477 365.836 236.42C365.858 236.363 365.891 236.31 365.934 236.265C365.977 236.221 366.028 236.184 366.085 236.159C366.142 236.133 366.204 236.119 366.267 236.117C366.393 236.114 366.516 236.158 366.609 236.241C366.702 236.324 366.758 236.439 366.765 236.561C366.779 236.888 368.061 269.511 364.353 290.736C364.333 290.842 364.274 290.939 364.188 291.008C364.102 291.078 363.993 291.116 363.881 291.115Z" fill="black"/>
<path d="M331.531 308.62C331.405 308.62 331.284 308.572 331.194 308.485C331.104 308.399 331.053 308.282 331.052 308.16C330.79 281.852 309.066 270.274 308.847 270.16C308.787 270.134 308.734 270.096 308.69 270.049C308.647 270.001 308.613 269.946 308.593 269.886C308.572 269.826 308.564 269.762 308.57 269.699C308.575 269.636 308.594 269.575 308.625 269.519C308.656 269.463 308.698 269.414 308.75 269.375C308.801 269.335 308.86 269.307 308.923 269.29C308.987 269.274 309.053 269.27 309.117 269.279C309.182 269.289 309.244 269.311 309.3 269.344C309.523 269.46 331.743 281.279 332.011 308.152C332.012 308.275 331.962 308.393 331.873 308.481C331.784 308.568 331.663 308.618 331.535 308.62H331.531Z" fill="black"/>
<path d="M334.483 259.374C334.41 259.374 334.338 259.358 334.272 259.327C334.207 259.296 334.149 259.251 334.105 259.195C328.23 251.888 325.622 242.011 325.596 241.913C325.565 241.793 325.584 241.667 325.65 241.561C325.715 241.455 325.821 241.379 325.944 241.349C326.068 241.319 326.199 241.338 326.308 241.401C326.417 241.464 326.496 241.567 326.527 241.686C326.551 241.783 329.112 251.475 334.858 258.626C334.914 258.695 334.948 258.777 334.958 258.863C334.967 258.95 334.951 259.037 334.912 259.115C334.872 259.193 334.811 259.259 334.735 259.304C334.658 259.35 334.57 259.374 334.48 259.374H334.483Z" fill="black"/>
<path d="M318.965 312.588H370.297V335.963C370.298 339.07 369.667 342.146 368.439 345.017C367.212 347.887 365.412 350.495 363.143 352.693C360.874 354.89 358.18 356.632 355.215 357.821C352.25 359.01 349.072 359.621 345.862 359.621H343.391C340.183 359.621 337.006 359.009 334.042 357.821C331.078 356.632 328.385 354.89 326.116 352.694C323.848 350.498 322.048 347.891 320.821 345.021C319.593 342.152 318.961 339.076 318.961 335.971V312.588H318.965Z" fill="black"/>
<path d="M365.263 321.362H323.997C323.869 321.362 323.747 321.313 323.658 321.226C323.568 321.139 323.517 321.021 323.517 320.897C323.517 320.774 323.568 320.656 323.658 320.569C323.747 320.482 323.869 320.433 323.997 320.433H365.263C365.391 320.433 365.513 320.482 365.602 320.569C365.692 320.656 365.743 320.774 365.743 320.897C365.743 321.021 365.692 321.139 365.602 321.226C365.513 321.313 365.391 321.362 365.263 321.362Z" fill="white"/>
<path d="M364.654 54.2506C364.572 54.2499 364.491 54.2289 364.42 54.1897C364.349 54.1504 364.289 54.0942 364.247 54.0263C348.947 29.4357 329.563 16.2925 315.994 9.60777C301.302 2.37026 290.113 0.930232 290.001 0.916461C289.877 0.897937 289.765 0.833379 289.689 0.736449C289.613 0.639518 289.579 0.51782 289.594 0.397107C289.613 0.276698 289.68 0.168128 289.78 0.094605C289.88 0.0210822 290.006 -0.0115596 290.131 0.00365719C290.245 0.0174279 301.6 1.47909 316.435 8.78939C330.115 15.5292 349.656 28.7668 365.074 53.5542C365.118 53.6243 365.142 53.7044 365.143 53.7863C365.145 53.8682 365.124 53.9491 365.082 54.0206C365.041 54.0921 364.981 54.1518 364.908 54.1936C364.835 54.2354 364.752 54.2577 364.668 54.2584L364.654 54.2506Z" fill="black"/>
<path d="M353.277 53.9592C353.2 53.9594 353.125 53.9417 353.056 53.9074C352.988 53.8732 352.929 53.8235 352.885 53.7625C332.389 25.8276 317.119 22.0072 316.973 21.9718C316.857 21.9369 316.758 21.8604 316.698 21.7579C316.638 21.6554 316.62 21.5345 316.649 21.4198C316.677 21.3051 316.749 21.2052 316.851 21.1404C316.953 21.0755 317.077 21.0506 317.197 21.0708C317.829 21.2163 332.921 24.962 353.667 53.2255C353.719 53.2947 353.749 53.3763 353.756 53.4613C353.762 53.5463 353.744 53.6313 353.704 53.707C353.663 53.7827 353.602 53.8462 353.527 53.8903C353.452 53.9345 353.365 53.9577 353.277 53.9573V53.9592Z" fill="black"/>
<path d="M304.827 17.4021C304.741 17.4023 304.656 17.3799 304.581 17.3373C304.507 17.2947 304.446 17.2334 304.404 17.16C304.362 17.0865 304.342 17.0035 304.345 16.9198C304.348 16.836 304.374 16.7546 304.421 16.6841L306.205 14.0382C306.275 13.9338 306.384 13.8605 306.51 13.8343C306.635 13.8081 306.766 13.8312 306.874 13.8985C306.982 13.9658 307.057 14.0718 307.084 14.1932C307.111 14.3145 307.088 14.4414 307.018 14.5457L305.22 17.1917C305.177 17.255 305.119 17.3073 305.051 17.344C304.982 17.3807 304.906 17.4007 304.827 17.4021Z" fill="black"/>
<path d="M298.582 26.6597C298.49 26.6599 298.4 26.6339 298.322 26.585C298.216 26.5178 298.142 26.4126 298.115 26.2923C298.089 26.1721 298.113 26.0467 298.182 25.9436L299.966 23.2977C300 23.2447 300.044 23.1987 300.096 23.1626C300.148 23.1264 300.207 23.1007 300.27 23.087C300.333 23.0734 300.397 23.072 300.461 23.0831C300.524 23.0941 300.584 23.1173 300.638 23.1513C300.691 23.1852 300.738 23.2293 300.773 23.2808C300.809 23.3324 300.834 23.3904 300.846 23.4514C300.859 23.5123 300.858 23.5751 300.845 23.6359C300.831 23.6967 300.806 23.7542 300.769 23.8052L298.985 26.4492C298.941 26.5142 298.882 26.5676 298.812 26.6044C298.741 26.6412 298.662 26.6602 298.582 26.6597Z" fill="black"/>
<path d="M299.263 18.5334C299.169 18.5334 299.076 18.506 298.997 18.4547L296.331 16.7137C296.225 16.6451 296.152 16.5386 296.128 16.4178C296.103 16.297 296.129 16.1717 296.2 16.0694C296.271 15.9671 296.381 15.8963 296.506 15.8725C296.63 15.8487 296.76 15.8739 296.866 15.9425L299.53 17.6855C299.614 17.7413 299.678 17.8218 299.712 17.9153C299.746 18.0088 299.748 18.1103 299.718 18.2051C299.688 18.2998 299.628 18.3828 299.545 18.4418C299.463 18.5009 299.364 18.533 299.261 18.5334H299.263Z" fill="black"/>
<path d="M308.595 24.6219C308.5 24.6219 308.407 24.5945 308.329 24.5432L305.662 22.812C305.606 22.7798 305.557 22.7368 305.519 22.6857C305.481 22.6346 305.453 22.5764 305.439 22.5147C305.425 22.4531 305.423 22.3892 305.435 22.3271C305.447 22.2649 305.472 22.2058 305.509 22.1534C305.545 22.1009 305.592 22.0562 305.647 22.022C305.702 21.9879 305.764 21.9649 305.828 21.9545C305.893 21.9442 305.959 21.9466 306.022 21.9618C306.085 21.977 306.145 22.0046 306.197 22.0428L308.863 23.7818C308.948 23.8376 309.012 23.9182 309.045 24.0117C309.079 24.1051 309.081 24.2067 309.052 24.3014C309.022 24.3961 308.961 24.4791 308.879 24.5382C308.797 24.5973 308.697 24.6293 308.595 24.6297V24.6219Z" fill="black"/>
<path d="M41.8926 104.966C41.8153 104.967 41.7389 104.95 41.6701 104.915C41.6014 104.881 41.5423 104.831 41.498 104.769C41.4538 104.708 41.4257 104.637 41.4162 104.563C41.4067 104.488 41.4161 104.413 41.4435 104.343C46.5076 91.1228 57.7332 66.5952 76.0224 50.8336C76.0685 50.7884 76.1237 50.753 76.1846 50.7293C76.2454 50.7056 76.3106 50.6943 76.3761 50.696C76.4417 50.6977 76.5061 50.7123 76.5656 50.7391C76.625 50.7659 76.6782 50.8041 76.7218 50.8516C76.7653 50.899 76.7984 50.9546 76.8189 51.0149C76.8394 51.0751 76.8469 51.1389 76.841 51.2021C76.8351 51.2653 76.8158 51.3266 76.7844 51.3824C76.753 51.4381 76.7102 51.487 76.6585 51.526C58.5176 67.1558 47.3753 91.5261 42.3417 104.665C42.3076 104.754 42.2463 104.83 42.166 104.884C42.0857 104.938 41.9903 104.967 41.8926 104.966Z" fill="black"/>
<path d="M29.1797 120.73C29.1407 120.73 29.1017 120.726 29.0639 120.716C29.0028 120.701 28.9454 120.675 28.8948 120.639C28.8443 120.603 28.8016 120.557 28.7693 120.505C28.737 120.453 28.7157 120.395 28.7067 120.334C28.6976 120.274 28.7009 120.213 28.7164 120.154C35.8472 92.6495 48.3774 76.7639 48.5034 76.6065C48.5403 76.5544 48.5878 76.5102 48.643 76.4764C48.6981 76.4427 48.7599 76.4203 48.8243 76.4104C48.8888 76.4006 48.9547 76.4036 49.0179 76.4193C49.0811 76.435 49.1404 76.463 49.192 76.5016C49.2437 76.5402 49.2866 76.5886 49.3183 76.6438C49.35 76.6991 49.3696 76.76 49.3761 76.8229C49.3826 76.8857 49.3758 76.9492 49.356 77.0094C49.3363 77.0697 49.3041 77.1254 49.2614 77.1731C49.1374 77.3285 36.723 93.0823 29.6451 120.38C29.6189 120.48 29.5588 120.569 29.4745 120.632C29.3902 120.696 29.2865 120.73 29.1797 120.73Z" fill="black"/>
<path d="M86.5898 49.3028C85.5231 49.3033 84.4959 48.9124 83.7151 48.2089C82.9342 47.5054 82.4578 46.5416 82.3818 45.5116C82.3058 44.4816 82.6359 43.462 83.3055 42.6582C83.9751 41.8544 84.9345 41.3261 85.9905 41.1799C87.0464 41.0336 88.1203 41.2801 88.9959 41.8699C89.8716 42.4596 90.4838 43.3487 90.7092 44.3579C90.9347 45.3672 90.7566 46.4217 90.2109 47.309C89.6652 48.1963 88.7925 48.8504 87.7685 49.1395C87.3857 49.2485 86.9888 49.3034 86.5898 49.3028ZM86.5898 42.0672C86.2796 42.0668 85.9709 42.1099 85.6733 42.1951C84.8889 42.419 84.2211 42.9223 83.8045 43.6035C83.3878 44.2848 83.2532 45.0936 83.4276 45.8671C83.602 46.6406 84.0726 47.3214 84.7447 47.7726C85.4167 48.2238 86.2403 48.4119 87.0498 48.2989C87.8593 48.186 88.5946 47.7804 89.1076 47.1639C89.6207 46.5474 89.8736 45.7656 89.8153 44.9759C89.757 44.1861 89.3919 43.4471 88.7934 42.9075C88.195 42.3678 87.4077 42.0676 86.5898 42.0672Z" fill="black"/>
<path d="M30.7893 134.023C30.6901 134.023 30.5933 133.993 30.513 133.936L28.8487 132.797C28.7932 132.764 28.7454 132.719 28.7082 132.667C28.671 132.615 28.6452 132.556 28.6324 132.494C28.6195 132.432 28.62 132.368 28.6336 132.306C28.6473 132.244 28.6739 132.186 28.7118 132.134C28.7497 132.083 28.798 132.039 28.854 132.006C28.9099 131.973 28.9722 131.952 29.0369 131.943C29.1017 131.935 29.1677 131.939 29.2307 131.956C29.2937 131.973 29.3525 132.002 29.4034 132.042L31.0596 133.181C31.1422 133.238 31.204 133.319 31.236 133.412C31.2679 133.506 31.2685 133.606 31.2375 133.7C31.2065 133.794 31.1457 133.875 31.0637 133.933C30.9817 133.991 30.8828 134.023 30.7812 134.023H30.7893Z" fill="black"/>
<path d="M24.9873 130.027C24.8874 130.028 24.7899 129.997 24.7089 129.941L23.0527 128.802C22.9991 128.767 22.9532 128.723 22.9177 128.671C22.8823 128.619 22.858 128.56 22.8463 128.499C22.8347 128.438 22.8358 128.375 22.8498 128.314C22.8638 128.253 22.8902 128.196 22.9276 128.145C22.9649 128.095 23.0125 128.052 23.0673 128.019C23.1222 127.987 23.1832 127.965 23.2469 127.956C23.3105 127.947 23.3754 127.95 23.4377 127.965C23.5 127.981 23.5584 128.008 23.6095 128.046L25.2637 129.185C25.3152 129.22 25.3591 129.265 25.3928 129.317C25.4265 129.368 25.4493 129.426 25.4598 129.486C25.4704 129.546 25.4686 129.608 25.4545 129.667C25.4403 129.727 25.4141 129.783 25.3775 129.833C25.3329 129.893 25.2743 129.941 25.2065 129.975C25.1387 130.009 25.0636 130.027 24.9873 130.027Z" fill="black"/>
<path d="M28.5414 129.506C28.4397 129.505 28.3407 129.474 28.2589 129.415C28.2081 129.379 28.165 129.334 28.1323 129.282C28.0996 129.229 28.0778 129.172 28.0681 129.111C28.0585 129.051 28.0612 128.989 28.0762 128.93C28.0912 128.871 28.118 128.815 28.1553 128.766L29.34 127.204C29.3758 127.151 29.4223 127.107 29.4766 127.072C29.5309 127.037 29.5918 127.014 29.6558 127.003C29.7198 126.992 29.7854 126.993 29.8487 127.008C29.912 127.022 29.9716 127.048 30.024 127.086C30.0764 127.123 30.1204 127.17 30.1533 127.224C30.1863 127.278 30.2076 127.339 30.2158 127.401C30.2241 127.463 30.2192 127.527 30.2014 127.587C30.1836 127.648 30.1532 127.704 30.1122 127.753L28.9295 129.315C28.8847 129.374 28.8263 129.422 28.7589 129.455C28.6915 129.488 28.617 129.505 28.5414 129.506Z" fill="black"/>
<path d="M24.4 134.975C24.3116 134.974 24.225 134.951 24.1498 134.906C24.0746 134.861 24.0136 134.797 23.9737 134.72C23.9337 134.644 23.9163 134.558 23.9234 134.473C23.9305 134.388 23.9618 134.306 24.0139 134.237L25.1966 132.673C25.2718 132.574 25.3847 132.507 25.5104 132.488C25.6362 132.47 25.7645 132.5 25.8672 132.573C25.9699 132.645 26.0385 132.755 26.0579 132.876C26.0773 132.998 26.046 133.122 25.9708 133.222L24.7861 134.796C24.7407 134.853 24.6821 134.899 24.615 134.93C24.548 134.961 24.4743 134.976 24.4 134.975Z" fill="black"/>
<path d="M366.95 115.741C366.132 115.74 365.339 115.472 364.698 114.981C364.056 114.49 363.604 113.805 363.415 113.035C363.225 112.265 363.309 111.455 363.652 110.737C363.996 110.019 364.579 109.434 365.309 109.075C366.038 108.717 366.87 108.607 367.672 108.763C368.474 108.919 369.198 109.332 369.727 109.935C370.257 110.538 370.562 111.296 370.592 112.087C370.622 112.878 370.377 113.656 369.895 114.295C369.557 114.745 369.114 115.11 368.602 115.362C368.09 115.613 367.524 115.743 366.95 115.741ZM366.95 109.621C366.311 109.619 365.693 109.838 365.206 110.239C364.719 110.639 364.396 111.194 364.295 111.805C364.193 112.415 364.32 113.041 364.652 113.569C364.985 114.097 365.501 114.493 366.108 114.685C366.714 114.878 367.372 114.854 367.963 114.619C368.554 114.384 369.039 113.953 369.33 113.402C369.621 112.852 369.7 112.219 369.553 111.618C369.405 111.016 369.041 110.485 368.525 110.121C368.071 109.798 367.523 109.623 366.96 109.621H366.95Z" fill="black"/>
</svg>
