<svg width="768" height="200" viewBox="0 0 768 200" fill="none" xmlns="http://www.w3.org/2000/svg">
<path d="M29.6002 53.3332C25.2002 55.3332 23.3335 57.1999 21.2002 61.8666C18.8002 67.4666 18.6668 70.3999 18.9335 108.267L19.3335 148.667L56.4002 149.067C96.4002 149.467 101.2 148.8 108.133 143.067C116.8 135.733 117.334 133.067 117.334 89.5999V50.6666H76.4002C38.5335 50.6666 34.9335 50.9333 29.6002 53.3332ZM60.6668 62.9333C60.4002 63.8666 56.8002 80.7999 52.5335 100.667C45.4668 134.4 43.8668 140.267 42.0002 138.4C40.9335 137.333 56.1335 65.1999 57.7335 62.9333C58.4002 62.1332 59.4668 61.3332 60.1335 61.3332C60.8002 61.3332 61.0668 62.1332 60.6668 62.9333ZM74.2668 65.9999C81.0668 71.8666 83.2002 76.9333 82.2668 85.0666C81.3335 93.0666 73.8668 126.533 72.8002 127.6C70.9335 129.6 71.0668 126.533 73.3335 115.333C76.6668 99.9999 76.5335 99.5999 72.9335 103.2C69.0668 107.067 57.7335 113.733 56.1335 113.067C55.3335 112.933 56.6668 109.6 58.9335 106C65.8668 94.7999 68.4002 85.9999 67.6002 75.3332C67.2002 70.1332 66.5335 64.9333 66.0002 63.5999C64.4002 59.8666 68.4002 60.9333 74.2668 65.9999ZM91.8668 91.3333C94.0002 93.1999 96.2668 95.8666 96.6668 97.1999C97.6002 100.4 95.3335 106.533 91.6002 110.4C88.6668 113.6 78.8002 119.333 78.0002 118.4C77.7335 118.133 79.2002 115.333 81.3335 112.133C86.1335 105.2 87.4668 98.5333 85.6002 92.5333C83.8668 86.7999 86.0002 86.5333 91.8668 91.3333Z" fill="black"/>
<path d="M294 56.8C293.333 56.9333 289.867 57.4667 286.4 58C279.333 58.9333 278.267 60.6667 283.333 62.6667L286.667 64V97.8667V131.733L283.333 132.533C276.267 134.4 280.4 136 292 136C303.6 136 307.733 134.4 300.667 132.533L297.333 131.733V94.6667C297.333 74.1333 296.933 57.2 296.4 56.9333C295.733 56.6667 294.8 56.5333 294 56.8Z" fill="black"/>
<path d="M457.734 58.2666C453.6 59.0666 453.867 60.2666 458.667 62.9333C462.534 65.0666 462.667 65.6 462.667 74.6666V84H454.667C440 84 430.667 90.2666 427.067 102.533C423.734 114.133 427.334 128.667 434.934 133.6C442.4 138.533 453.334 137.733 459.467 131.867L462.667 128.933V132.667V136.4L470.134 135.6C474.267 135.2 478.267 134.267 479.067 133.467C480.4 132.133 479.734 131.733 473.734 129.867C472.4 129.467 472 121.067 472 93.3333V57.3333L466.4 57.4666C463.2 57.6 459.334 58 457.734 58.2666ZM459.734 90.1333C462.534 90.9333 462.667 91.4666 462.667 108.933V126.8L457.734 128.8C451.2 131.6 445.067 130.267 440.8 125.2C436.8 120.533 435.467 114.4 436.267 104.533C437.067 94.4 441.867 89.3333 450.534 89.3333C453.867 89.3333 458 89.7333 459.734 90.1333Z" fill="black"/>
<path d="M621.6 60.2667C619.067 62.8 619.6 69.0667 622.533 70.6667C624 71.3333 625.733 72 626.533 72C628.933 72 632 67.8667 632 64.6667C632 59.7333 625.067 56.8 621.6 60.2667Z" fill="black"/>
<path d="M163.2 63.8667C162.133 64.9333 164.267 66.6667 166.667 66.6667C172.8 66.6667 173.333 68.9333 173.333 99.8667C173.333 131.067 173.333 130.8 166.267 132.533C158.667 134.4 164.667 136 178.8 136C193.333 136 197.467 134.533 189.067 132.267C185.2 131.333 184.533 130.533 183.6 124.933C183.067 121.467 182.8 107.467 182.933 93.7333L183.333 68.6667L188 68.2667C190.667 68.1333 194.667 68.9333 197.2 70.4C211.867 78.2667 208.267 101.733 192.267 102.933C185.6 103.467 186.8 106.667 193.733 106.667C206.667 106.533 216 98.2667 217.067 86C218 74.2667 211.467 66.1333 199.733 64.5333C192.933 63.6 164 63.0667 163.2 63.8667Z" fill="black"/>
<path d="M508.4 64.4C507.867 65.2 513.467 68 515.867 68C518.4 68 519.734 111.2 517.6 125.2C516.8 130.533 516.134 131.333 512.4 132.267C503.867 134.533 508 136 522.534 136C536.8 136 543.2 134.133 534.8 132.533C532.534 132 530.134 130.933 529.334 130C528.4 128.933 528.134 117.733 528.267 98.5333L528.667 68.6667L535.2 68.8C540.934 68.8 542.267 69.4667 546.134 73.6C551.334 79.4667 552.8 85.4667 550.4 92.5333C548.4 98.6667 543.734 102.533 537.734 102.933C530.934 103.467 532.134 106.667 539.067 106.667C552.8 106.667 563.467 95.6 562.267 82.4C561.067 68 553.734 64.1333 527.334 63.6C517.334 63.4667 508.8 63.7333 508.4 64.4Z" fill="black"/>
<path d="M240.267 85.5998C237.867 86.3998 233.867 89.3331 231.334 92.1331C220.267 104.4 222.534 126 235.734 133.733C241.467 137.066 254.934 137.333 260.8 134.266C277.067 125.733 279.6 98.1331 264.934 87.4665C260.667 84.2665 247.2 83.3331 240.267 85.5998ZM257.067 91.4665C261.6 94.3998 264 101.333 264 111.333C264 124.533 258.934 132 250 132C241.067 132 234.8 122.4 234.667 108.933C234.667 91.8665 245.067 83.7331 257.067 91.4665Z" fill="black"/>
<path d="M317.867 86.5332C312.134 89.1999 310.134 92.1332 311.334 96.1332C312.134 98.3999 312.667 98.2666 317.2 94.6666C327.734 86.1332 336.667 88.5332 338.134 100.267C338.8 105.067 338.534 106.8 337.2 107.2C336.134 107.6 331.867 108.8 327.734 110C323.334 111.2 318 113.867 315.334 116.133C311.334 119.6 310.667 121.2 310.667 125.867C310.667 132.4 313.2 135.467 319.6 136.8C324.667 137.733 332.134 135.467 335.334 132C338.4 128.667 339.467 128.667 340.4 132C341.334 135.733 346.934 137.6 352 135.867C355.734 134.533 357.6 132 354.667 132C354 132 352.134 130.8 350.667 129.333C348.4 127.067 348 124.8 348 113.6C347.867 89.8666 344.534 83.9999 330.934 83.9999C326.4 83.9999 321.067 85.0666 317.867 86.5332ZM338.667 118.4C338.667 125.333 336.8 128.133 330.934 130C326.934 131.2 320.267 128.4 319.334 125.2C318.934 123.867 319.2 121.467 320 120C321.734 116.8 331.067 112.133 335.734 112C338.4 112 338.667 112.667 338.667 118.4Z" fill="black"/>
<path d="M368.4 85.6C361.6 87.0667 361.2 88.2667 366.667 90.2667L370.667 91.7333V111.2V130.667L367.333 132.267C361.467 134.933 363.733 136 375.333 136C386.933 136 389.2 134.933 383.333 132.267C380 130.667 380 130.667 380 112.667V94.8L384 92.6667C388.4 90.4 395.067 90 398.667 92C402.4 94 404 101.6 404 117.067C404 130.4 403.867 130.8 400.667 132C394.133 134.533 397.2 136 408.667 136C420.267 136 422.533 134.933 416.667 132.267C413.333 130.8 413.333 130.533 413.333 114C413.333 89.7333 410.133 84 396.667 84C390 84 385.2 86.1333 381.733 90.6667C380.4 92.4 380.133 92 380 88.2667C380 83.4667 378.8 83.2 368.4 85.6Z" fill="black"/>
<path d="M577.733 85.6C570.933 87.0667 570.533 88.2667 576 90.2667L580 91.7333V111.2V130.667L576.667 132.267C570.667 134.933 573.067 136 585.333 136C597.6 136 600.4 134.667 593.333 132.133L589.333 130.8V112.933V95.0667L592.8 93.4667C595.467 92.2667 597.467 92.2667 600.933 93.4667C604.8 94.6667 605.867 94.6667 606.8 93.2C609.867 88.2667 606.933 84 600.533 84C597.2 84 595.333 85.0667 592.8 88.2667L589.333 92.6667V88.2667C589.333 83.4667 588.133 83.2 577.733 85.6Z" fill="black"/>
<path d="M620.4 85.6C614 86.9333 613.067 88.6667 618 89.8667L621.334 90.6667V111.2V131.733L618 132.533C610.934 134.4 615.067 136 626.667 136C638.267 136 642.534 134.4 635.334 132.533C631.067 131.467 630.267 126.133 630.934 102.267C631.334 81.6 632.134 82.9333 620.4 85.6Z" fill="black"/>
<path d="M646.667 92.9333C646.667 102 648.533 104.133 649.867 96.8C650.4 94.2667 651.467 91.6 652.4 90.9333C654.267 89.3333 673.333 88.1333 673.333 89.6C673.333 90.1333 667.6 99.2 660.667 109.867C653.733 120.4 647.467 130.667 646.667 132.533L645.333 136H666.667H688V127.333C688 118 686 115.733 684.533 123.333C684.133 125.867 682.8 128.667 681.733 129.467C679.733 131.2 658.667 132.933 658.667 131.467C658.667 130.933 664.667 121.2 672 109.733C679.333 98.2667 685.333 87.8667 685.333 86.8C685.333 84.9333 682.667 84.6667 666 84.6667H646.667V92.9333Z" fill="black"/>
<path d="M710.667 85.4666C699.6 89.8666 693.867 104.133 697.333 118.667C700.533 132 712.267 139.2 725.867 136.133C732.933 134.533 740 130.133 740 127.333C740 125.733 739.467 125.867 736.4 127.467C734.267 128.4 729.733 129.333 726 129.333C714.8 129.333 708.133 123.467 706 111.6L705.067 106.667H722.267H739.6L738.667 100.533C737.6 93.8666 734 88.1333 729.2 85.7333C725.333 83.7333 715.333 83.5999 710.667 85.4666ZM722.8 89.3333C725.867 91.0666 729.733 98.2666 728.933 100.667C728.4 101.733 724.533 102.4 716.667 102.533C706.4 102.8 705.067 102.533 705.867 100.667C706.267 99.4666 706.667 97.7333 706.667 96.7999C706.667 93.8666 713.467 87.9999 716.933 87.9999C718.667 87.9999 721.333 88.6666 722.8 89.3333Z" fill="black"/>
</svg>
