<svg width="40" height="28" viewBox="0 0 40 28" fill="none" xmlns="http://www.w3.org/2000/svg">
<g id="migro store.">
<g id="migro store._2">
<path d="M2.25613 4.968V11.744H0.394051V3.23863H2.14796L2.25613 4.968ZM1.9548 7.17687L1.32123 7.16901C1.32123 6.58207 1.39334 6.03968 1.53757 5.54183C1.6818 5.04398 1.89299 4.61164 2.17114 4.24481C2.44929 3.87273 2.79441 3.58712 3.20649 3.38798C3.62372 3.1836 4.10534 3.08141 4.65134 3.08141C5.03252 3.08141 5.38021 3.13906 5.69442 3.25435C6.01378 3.3644 6.28936 3.53996 6.52115 3.78102C6.7581 4.02208 6.93838 4.33127 7.06201 4.70859C7.19078 5.08591 7.25517 5.54183 7.25517 6.07636V11.744H5.39308V6.24144C5.39308 5.82744 5.33127 5.50253 5.20765 5.2667C5.08918 5.03088 4.91662 4.86319 4.68997 4.76362C4.46848 4.65881 4.20321 4.6064 3.89415 4.6064C3.54388 4.6064 3.24512 4.67453 2.99788 4.81078C2.75578 4.94703 2.55747 5.13307 2.40294 5.36889C2.24841 5.60472 2.13508 5.87722 2.06297 6.18641C1.99086 6.4956 1.9548 6.82575 1.9548 7.17687ZM7.13927 6.67378L6.26618 6.8703C6.26618 6.35673 6.33572 5.87198 6.47479 5.41606C6.61902 4.95489 6.82763 4.55138 7.10064 4.2055C7.37879 3.85439 7.72133 3.57926 8.12826 3.38012C8.53519 3.18098 9.00135 3.08141 9.52675 3.08141C9.95428 3.08141 10.3355 3.14168 10.6703 3.26221C11.0102 3.3775 11.2987 3.56092 11.5356 3.81246C11.7726 4.06401 11.9529 4.39154 12.0765 4.79506C12.2001 5.19334 12.2619 5.67546 12.2619 6.24144V11.744H10.3921V6.23358C10.3921 5.80386 10.3303 5.47108 10.2067 5.23526C10.0882 4.99944 9.91823 4.83698 9.69674 4.74789C9.47524 4.65357 9.20997 4.6064 8.90091 4.6064C8.61245 4.6064 8.35748 4.66143 8.13599 4.77148C7.91964 4.87629 7.73678 5.02564 7.58741 5.21954C7.43803 5.4082 7.32471 5.62568 7.24744 5.87198C7.17533 6.11829 7.13927 6.38555 7.13927 6.67378Z" fill="#181818"/>
<path d="M16.1715 3.23863V11.744H14.3017V3.23863H16.1715ZM14.1781 1.00618C14.1781 0.717949 14.2708 0.479506 14.4562 0.290848C14.6468 0.0969493 14.9095 0 15.2443 0C15.574 0 15.8341 0.0969493 16.0247 0.290848C16.2153 0.479506 16.3106 0.717949 16.3106 1.00618C16.3106 1.28916 16.2153 1.52499 16.0247 1.71364C15.8341 1.9023 15.574 1.99663 15.2443 1.99663C14.9095 1.99663 14.6468 1.9023 14.4562 1.71364C14.2708 1.52499 14.1781 1.28916 14.1781 1.00618Z" fill="#181818"/>
<path d="M23.5658 3.23863H25.2579V11.5081C25.2579 12.2733 25.0982 12.9231 24.7788 13.4576C24.4595 13.9921 24.0139 14.3983 23.4421 14.676C22.8704 14.959 22.2085 15.1005 21.4564 15.1005C21.1371 15.1005 20.7817 15.0533 20.3902 14.959C20.0039 14.8647 19.6278 14.7127 19.2621 14.5031C18.9016 14.2987 18.6002 14.0288 18.3581 13.6934L19.2312 12.5772C19.53 12.9388 19.8596 13.2034 20.2202 13.3711C20.5808 13.5388 20.9594 13.6227 21.356 13.6227C21.7835 13.6227 22.1467 13.5415 22.4454 13.379C22.7493 13.2218 22.9837 12.9886 23.1485 12.6794C23.3134 12.3702 23.3958 11.9929 23.3958 11.5474V5.16451L23.5658 3.23863ZM17.8868 7.58563V7.42055C17.8868 6.77597 17.9641 6.18903 18.1186 5.65974C18.2731 5.12521 18.4946 4.66667 18.7831 4.28411C19.0715 3.89631 19.4218 3.60022 19.8339 3.39584C20.246 3.18622 20.7121 3.08141 21.2324 3.08141C21.7732 3.08141 22.2342 3.18098 22.6154 3.38012C23.0017 3.57926 23.3237 3.86487 23.5812 4.23695C23.8388 4.60378 24.0397 5.04398 24.1839 5.55755C24.3333 6.06588 24.444 6.63185 24.5161 7.25547V7.78214C24.4492 8.39004 24.3358 8.94554 24.1762 9.44862C24.0165 9.95171 23.8053 10.3867 23.5426 10.7535C23.2799 11.1203 22.9554 11.4033 22.5691 11.6025C22.1879 11.8016 21.7372 11.9012 21.2169 11.9012C20.707 11.9012 20.246 11.7937 19.8339 11.5789C19.427 11.364 19.0767 11.0627 18.7831 10.6749C18.4946 10.2871 18.2731 9.83118 18.1186 9.30713C17.9641 8.77784 17.8868 8.20401 17.8868 7.58563ZM19.7489 7.42055V7.58563C19.7489 7.97342 19.7849 8.33502 19.8571 8.67041C19.9343 9.0058 20.0502 9.30189 20.2048 9.55867C20.3644 9.81022 20.5653 10.0094 20.8074 10.1561C21.0547 10.2976 21.3457 10.3683 21.6805 10.3683C22.1183 10.3683 22.4763 10.274 22.7545 10.0853C23.0378 9.89669 23.2541 9.64252 23.4035 9.32285C23.558 8.99794 23.6662 8.63635 23.728 8.23807V6.81527C23.6971 6.50608 23.6327 6.21785 23.5349 5.95059C23.4421 5.68332 23.3159 5.45012 23.1563 5.25098C22.9966 5.0466 22.7957 4.88939 22.5536 4.77934C22.3115 4.66405 22.0256 4.6064 21.696 4.6064C21.3611 4.6064 21.0701 4.67977 20.8229 4.8265C20.5756 4.97324 20.3722 5.17499 20.2125 5.43178C20.0579 5.68856 19.9421 5.98727 19.8648 6.32791C19.7875 6.66854 19.7489 7.03275 19.7489 7.42055Z" fill="#181818"/>
<path d="M29.0593 4.85794V11.744H27.1972V3.23863H28.9743L29.0593 4.85794ZM31.6168 3.1836L31.6013 4.94441C31.488 4.92345 31.3644 4.90773 31.2304 4.89725C31.1017 4.88677 30.9729 4.88153 30.8441 4.88153C30.5248 4.88153 30.244 4.92869 30.0019 5.02302C29.7598 5.11211 29.5564 5.24312 29.3915 5.41606C29.2319 5.58375 29.1082 5.78813 29.0207 6.0292C28.9331 6.27026 28.8816 6.54015 28.8661 6.83885L28.4412 6.8703C28.4412 6.33577 28.4927 5.84054 28.5957 5.38461C28.6987 4.92869 28.8533 4.52779 29.0593 4.18192C29.2705 3.83605 29.5332 3.56616 29.8474 3.37226C30.1668 3.17836 30.5351 3.08141 30.9523 3.08141C31.0656 3.08141 31.1867 3.0919 31.3154 3.11286C31.4494 3.13382 31.5498 3.1574 31.6168 3.1836Z" fill="#181818"/>
<path d="M32.2272 7.58563V7.40483C32.2272 6.79169 32.3147 6.2231 32.4899 5.69905C32.665 5.16975 32.9174 4.71121 33.2471 4.32341C33.5819 3.93038 33.9888 3.62643 34.4678 3.41157C34.952 3.19147 35.498 3.08141 36.1059 3.08141C36.7188 3.08141 37.2648 3.19147 37.7439 3.41157C38.2281 3.62643 38.6376 3.93038 38.9724 4.32341C39.3072 4.71121 39.5622 5.16975 39.7373 5.69905C39.9124 6.2231 40 6.79169 40 7.40483V7.58563C40 8.19876 39.9124 8.76736 39.7373 9.29141C39.5622 9.81546 39.3072 10.274 38.9724 10.667C38.6376 11.0548 38.2306 11.3588 37.7516 11.5789C37.2726 11.7937 36.7291 11.9012 36.1213 11.9012C35.5083 11.9012 34.9598 11.7937 34.4756 11.5789C33.9965 11.3588 33.5896 11.0548 33.2548 10.667C32.92 10.274 32.665 9.81546 32.4899 9.29141C32.3147 8.76736 32.2272 8.19876 32.2272 7.58563ZM34.0892 7.40483V7.58563C34.0892 7.96818 34.1279 8.32978 34.2051 8.67041C34.2824 9.01104 34.4035 9.30975 34.5683 9.56653C34.7331 9.82332 34.9443 10.0251 35.2019 10.1718C35.4594 10.3185 35.7659 10.3919 36.1213 10.3919C36.4664 10.3919 36.7652 10.3185 37.0176 10.1718C37.2751 10.0251 37.4863 9.82332 37.6511 9.56653C37.816 9.30975 37.937 9.01104 38.0143 8.67041C38.0967 8.32978 38.1379 7.96818 38.1379 7.58563V7.40483C38.1379 7.02751 38.0967 6.67116 38.0143 6.33577C37.937 5.99513 37.8134 5.6938 37.6434 5.43178C37.4786 5.16975 37.2674 4.96537 37.0098 4.81864C36.7575 4.66667 36.4561 4.59068 36.1059 4.59068C35.7556 4.59068 35.4517 4.66667 35.1941 4.81864C34.9417 4.96537 34.7331 5.16975 34.5683 5.43178C34.4035 5.6938 34.2824 5.99513 34.2051 6.33577C34.1279 6.67116 34.0892 7.02751 34.0892 7.40483Z" fill="#181818"/>
<path d="M5.08403 25.5396C5.08403 25.3509 5.03767 25.1806 4.94495 25.0286C4.85223 24.8714 4.67452 24.7299 4.41182 24.6042C4.15427 24.4784 3.7731 24.3631 3.2683 24.2583C2.82532 24.1587 2.41839 24.0408 2.04752 23.9045C1.6818 23.7631 1.36759 23.5927 1.10489 23.3936C0.842187 23.1945 0.638723 22.9586 0.494495 22.6861C0.350267 22.4136 0.278153 22.0992 0.278153 21.7428C0.278153 21.397 0.352843 21.0694 0.502221 20.7602C0.6516 20.4511 0.865366 20.1786 1.14352 19.9427C1.42167 19.7069 1.75906 19.5209 2.15569 19.3846C2.55747 19.2484 3.0056 19.1802 3.5001 19.1802C4.20063 19.1802 4.80072 19.3008 5.30037 19.5418C5.80516 19.7777 6.19149 20.0999 6.45934 20.5087C6.72719 20.9122 6.86112 21.3681 6.86112 21.8765H4.99903C4.99903 21.6511 4.94237 21.4415 4.82905 21.2476C4.72088 21.0485 4.55605 20.8886 4.33456 20.7681C4.11306 20.6423 3.83491 20.5794 3.5001 20.5794C3.18074 20.5794 2.91546 20.6319 2.70427 20.7367C2.49823 20.8362 2.3437 20.9672 2.24068 21.1297C2.14281 21.2922 2.09388 21.4703 2.09388 21.6642C2.09388 21.8057 2.11963 21.9341 2.17114 22.0494C2.2278 22.1595 2.32052 22.2617 2.44929 22.356C2.57807 22.4451 2.7532 22.5289 2.9747 22.6075C3.20134 22.6861 3.48464 22.7621 3.82461 22.8355C4.46333 22.9717 5.01191 23.1473 5.47035 23.3622C5.93394 23.5718 6.28936 23.8443 6.5366 24.1797C6.78385 24.5098 6.90747 24.9291 6.90747 25.4374C6.90747 25.8147 6.82763 26.1606 6.66795 26.475C6.51342 26.7842 6.28678 27.0541 5.98802 27.2847C5.68927 27.51 5.33127 27.6856 4.91404 27.8113C4.50196 27.9371 4.03837 28 3.52328 28C2.76608 28 2.12478 27.8637 1.59938 27.5912C1.07398 27.3135 0.674779 26.9598 0.401777 26.53C0.133926 26.0951 0 25.6444 0 25.178H1.80027C1.82087 25.5291 1.91617 25.8095 2.08615 26.0191C2.26128 26.2235 2.47763 26.3728 2.73517 26.4672C2.99788 26.5562 3.2683 26.6008 3.54646 26.6008C3.88127 26.6008 4.162 26.5562 4.38864 26.4672C4.61529 26.3728 4.78784 26.2471 4.90632 26.0898C5.02479 25.9274 5.08403 25.744 5.08403 25.5396Z" fill="#181818"/>
<path d="M12.3701 19.3375V20.7209H7.65694V19.3375H12.3701ZM9.0168 17.2544H10.8789V25.4924C10.8789 25.7544 10.9149 25.9562 10.9871 26.0977C11.0643 26.2339 11.1699 26.3257 11.3038 26.3728C11.4378 26.42 11.5949 26.4436 11.7752 26.4436C11.9039 26.4436 12.0276 26.4357 12.146 26.42C12.2645 26.4043 12.3598 26.3885 12.4319 26.3728L12.4396 27.8192C12.2851 27.8664 12.1048 27.9083 11.8988 27.945C11.6979 27.9817 11.4661 28 11.2034 28C10.7759 28 10.3973 27.924 10.0676 27.772C9.73794 27.6148 9.48039 27.3607 9.29496 27.0095C9.10952 26.6584 9.0168 26.192 9.0168 25.6103V17.2544Z" fill="#181818"/>
<path d="M13.2664 23.6844V23.5036C13.2664 22.8905 13.3539 22.3219 13.5291 21.7979C13.7042 21.2686 13.9566 20.81 14.2863 20.4222C14.6211 20.0292 15.028 19.7252 15.5071 19.5104C15.9912 19.2903 16.5372 19.1802 17.1451 19.1802C17.758 19.1802 18.304 19.2903 18.7831 19.5104C19.2673 19.7252 19.6768 20.0292 20.0116 20.4222C20.3464 20.81 20.6014 21.2686 20.7765 21.7979C20.9516 22.3219 21.0392 22.8905 21.0392 23.5036V23.6844C21.0392 24.2976 20.9516 24.8662 20.7765 25.3902C20.6014 25.9143 20.3464 26.3728 20.0116 26.7659C19.6768 27.1537 19.2698 27.4576 18.7908 27.6777C18.3118 27.8926 17.7683 28 17.1605 28C16.5476 28 15.999 27.8926 15.5148 27.6777C15.0357 27.4576 14.6288 27.1537 14.294 26.7659C13.9592 26.3728 13.7042 25.9143 13.5291 25.3902C13.3539 24.8662 13.2664 24.2976 13.2664 23.6844ZM15.1285 23.5036V23.6844C15.1285 24.067 15.1671 24.4286 15.2443 24.7692C15.3216 25.1099 15.4427 25.4086 15.6075 25.6654C15.7723 25.9221 15.9835 26.1239 16.2411 26.2706C16.4986 26.4174 16.8051 26.4907 17.1605 26.4907C17.5056 26.4907 17.8044 26.4174 18.0568 26.2706C18.3143 26.1239 18.5255 25.9221 18.6904 25.6654C18.8552 25.4086 18.9762 25.1099 19.0535 24.7692C19.1359 24.4286 19.1771 24.067 19.1771 23.6844V23.5036C19.1771 23.1263 19.1359 22.77 19.0535 22.4346C18.9762 22.094 18.8526 21.7926 18.6826 21.5306C18.5178 21.2686 18.3066 21.0642 18.0491 20.9175C17.7967 20.7655 17.4953 20.6895 17.1451 20.6895C16.7948 20.6895 16.4909 20.7655 16.2333 20.9175C15.9809 21.0642 15.7723 21.2686 15.6075 21.5306C15.4427 21.7926 15.3216 22.094 15.2443 22.4346C15.1671 22.77 15.1285 23.1263 15.1285 23.5036Z" fill="#181818"/>
<path d="M24.4698 20.9568V27.8428H22.6077V19.3375H24.3848L24.4698 20.9568ZM27.0272 19.2824L27.0118 21.0432C26.8985 21.0223 26.7748 21.0065 26.6409 20.9961C26.5121 20.9856 26.3834 20.9803 26.2546 20.9803C25.9352 20.9803 25.6545 21.0275 25.4124 21.1218C25.1703 21.2109 24.9668 21.3419 24.802 21.5149C24.6423 21.6826 24.5187 21.887 24.4311 22.128C24.3436 22.3691 24.2921 22.639 24.2766 22.9377L23.8517 22.9691C23.8517 22.4346 23.9032 21.9394 24.0062 21.4834C24.1092 21.0275 24.2637 20.6266 24.4698 20.2807C24.681 19.9349 24.9437 19.665 25.2579 19.4711C25.5772 19.2772 25.9455 19.1802 26.3628 19.1802C26.4761 19.1802 26.5971 19.1907 26.7259 19.2117C26.8598 19.2326 26.9603 19.2562 27.0272 19.2824Z" fill="#181818"/>
<path d="M31.7249 28C31.1068 28 30.5479 27.8978 30.0483 27.6934C29.5538 27.4838 29.1314 27.193 28.7811 26.8209C28.436 26.4488 28.1708 26.0112 27.9853 25.5081C27.7999 25.0051 27.7072 24.4627 27.7072 23.881V23.5665C27.7072 22.901 27.8025 22.2983 27.993 21.7586C28.1836 21.2188 28.4489 20.7576 28.7889 20.3751C29.1288 19.9873 29.5306 19.6912 29.9942 19.4868C30.4578 19.2824 30.96 19.1802 31.5009 19.1802C32.0984 19.1802 32.6212 19.2824 33.0693 19.4868C33.5175 19.6912 33.8884 19.9794 34.182 20.3515C34.4807 20.7183 34.7022 21.1559 34.8464 21.6642C34.9958 22.1726 35.0705 22.7333 35.0705 23.3464V24.1561H28.6112V22.7962H33.2316V22.6468C33.2213 22.3062 33.1543 21.9865 33.0307 21.6878C32.9122 21.3891 32.7294 21.148 32.4821 20.9646C32.2349 20.7812 31.9052 20.6895 31.4931 20.6895C31.1841 20.6895 30.9085 20.7576 30.6664 20.8939C30.4295 21.0249 30.2311 21.2162 30.0715 21.4677C29.9118 21.7193 29.7882 22.0232 29.7006 22.3796C29.6182 22.7307 29.577 23.1263 29.577 23.5665V23.881C29.577 24.253 29.6259 24.5989 29.7238 24.9186C29.8268 25.233 29.9762 25.5081 30.1719 25.744C30.3677 25.9798 30.6046 26.1658 30.8827 26.3021C31.1609 26.4331 31.4777 26.4986 31.8331 26.4986C32.2812 26.4986 32.6804 26.4069 33.0307 26.2235C33.381 26.0401 33.6849 25.7806 33.9424 25.4453L34.9237 26.4121C34.7434 26.6794 34.509 26.9362 34.2206 27.1825C33.9321 27.4235 33.5793 27.6201 33.1621 27.772C32.75 27.924 32.2709 28 31.7249 28Z" fill="#181818"/>
<path d="M36.6003 26.8995C36.6003 26.606 36.6982 26.3597 36.894 26.1606C37.0897 25.9562 37.355 25.854 37.6898 25.854C38.0297 25.854 38.295 25.9562 38.4856 26.1606C38.6813 26.3597 38.7792 26.606 38.7792 26.8995C38.7792 27.193 38.6813 27.4393 38.4856 27.6384C38.295 27.8375 38.0297 27.9371 37.6898 27.9371C37.355 27.9371 37.0897 27.8375 36.894 27.6384C36.6982 27.4393 36.6003 27.193 36.6003 26.8995Z" fill="#181818"/>
</g>
</g>
</svg>
