<svg width="34" height="38" viewBox="0 0 34 38" fill="none" xmlns="http://www.w3.org/2000/svg">
<path id="Vector" d="M18.4974 18.174L24.441 11.9266L5.24357 0.585305C3.97125 -0.137255 2.77933 -0.238667 1.73413 0.551502L18.4974 18.174ZM25.454 25.4883L31.6327 21.8354C32.8387 21.1255 33.5 20.1198 33.5 19.0043C33.5 17.8908 32.8387 16.8831 31.6347 16.1732L26.0409 12.8709L19.7436 19.4881L25.454 25.4883ZM0.700999 2.08747C0.572359 2.50368 0.5 2.96849 0.5 3.47766V34.5457C0.5 35.3506 0.668839 36.0436 0.974358 36.595L17.2492 19.486L0.700999 2.08747ZM18.4974 20.7959L2.31301 37.8099C2.62255 37.9345 2.95621 38 3.30795 38C3.93507 38 4.58832 37.8056 5.25362 37.4169L23.8561 26.4369L18.4974 20.7959Z" fill="black"/>
</svg>
