<?xml version="1.0" standalone="no"?>
<!DOCTYPE svg PUBLIC "-//W3C//DTD SVG 20010904//EN"
 "http://www.w3.org/TR/2001/REC-SVG-20010904/DTD/svg10.dtd">
<svg version="1.0" xmlns="http://www.w3.org/2000/svg"
 width="512.000000pt" height="512.000000pt" viewBox="0 0 512.000000 512.000000"
 preserveAspectRatio="xMidYMid meet">
<metadata>
Created by potrace 1.14, written by Peter Selinger 2001-2017
</metadata>
<g transform="translate(0.000000,512.000000) scale(0.100000,-0.100000)"
fill="#000000" stroke="none">
<path d="M2345 5114 c-16 -2 -84 -11 -150 -20 -533 -71 -1054 -332 -1446 -723
-390 -391 -639 -887 -725 -1446 -26 -170 -26 -560 0 -730 86 -559 335 -1055
725 -1446 391 -390 887 -639 1446 -725 170 -26 560 -26 730 0 559 86 1055 335
1446 725 390 391 639 887 725 1446 26 170 26 560 0 730 -86 559 -335 1055
-725 1446 -389 388 -888 639 -1441 725 -100 15 -513 28 -585 18z m-5 -1484
c30 -6 77 -21 105 -34 61 -28 182 -139 227 -207 17 -27 32 -49 34 -49 1 0 37
20 79 45 184 109 413 210 542 239 86 19 215 20 300 2 200 -43 334 -198 383
-443 19 -95 20 -139 20 -770 0 -616 1 -671 18 -703 22 -44 62 -58 195 -66 l97
-6 0 -84 0 -84 -490 0 -490 0 0 84 0 84 78 7 c120 9 143 15 168 40 l24 24 0
633 c0 688 -1 700 -57 815 -36 74 -91 119 -176 145 -136 41 -383 10 -561 -71
l-66 -30 0 -743 c0 -827 -4 -778 68 -797 20 -6 76 -13 125 -17 l87 -6 0 -84 0
-84 -485 0 -485 0 0 84 0 84 88 6 c48 4 104 11 125 17 72 19 68 -19 65 715
l-3 659 -25 62 c-41 101 -79 146 -155 184 -58 29 -78 33 -169 37 -148 7 -287
-23 -448 -95 l-58 -26 0 -736 c0 -571 3 -742 13 -761 16 -32 65 -47 180 -55
l87 -7 0 -84 0 -84 -495 0 -495 0 0 84 0 83 61 7 c34 3 82 6 106 6 54 0 108
21 122 48 8 14 11 261 11 801 l0 781 -150 0 -151 0 3 71 3 71 265 84 c247 78
271 84 353 84 l87 0 0 -110 0 -111 73 41 c170 97 386 189 502 215 73 16 194
19 265 5z"/>
</g>
</svg>
